<svg width="52" height="36" viewBox="0 0 52 36" fill="none" xmlns="http://www.w3.org/2000/svg">
<g opacity="0.5">
<path d="M19.9135 35.1549H16.361C19.406 31.2152 17.9017 25.6729 16.3301 20.9505L21.5207 19.4818C23.2136 24.5713 22.3999 30.3907 19.9126 35.1549H19.9135Z" fill="white"/>
<path d="M36.6644 29.5624L32.876 25.774L42.9803 20.0339C42.9803 20.0339 40.3709 27.117 41.6109 29.4595C41.6109 29.4595 37.981 32.4561 37.7058 35.1421H34.3748C34.3748 35.1421 34.7256 31.6781 36.6653 29.5633L36.6644 29.5624Z" fill="white"/>
<path d="M42.7653 21.9157C43.5306 22.8934 44.1338 23.9949 44.5893 25.1493C44.8672 25.8536 45.105 26.5852 45.2681 27.325C45.3073 27.5009 45.5715 29.284 45.6043 29.2539C45.6043 29.2539 43.773 30.9249 43.5944 33.6191L41.0669 33.5617C41.0669 33.5617 40.0374 32.0729 41.8988 29.8899L40.5576 28.6425C40.5576 28.6425 38.5814 26.6727 36.2325 26.7456C34.065 26.813 32.0523 27.5619 29.9558 28.1113C28.201 28.5705 26.3988 28.9468 24.6194 28.74C24.1383 28.6826 23.7119 28.1232 23.2381 27.9719C21.3093 27.3642 19.3613 26.157 18.165 24.5015C17.8944 24.127 17.5245 23.6988 17.7095 23.2687C17.8725 22.8897 18.5058 22.5681 18.852 22.3959C19.7586 21.9458 20.7927 21.8009 21.7813 21.6451C24.3215 21.2433 26.8261 20.6119 29.2534 19.7618C31.3453 19.0293 33.4482 18.1227 35.664 18.1482C38.1632 18.1774 40.5604 19.442 42.2405 21.2925C42.4236 21.4939 42.5985 21.7016 42.7653 21.9157Z" fill="#1D8E7C"/>
<path d="M47.8329 20.5739C47.9358 20.2843 48.0087 20.0985 48.0269 20.0466C47.9704 20.2297 47.9076 20.4054 47.8329 20.5739Z" fill="white"/>
<path d="M48.0363 20.0339C48.0363 20.0441 48.0313 20.0526 48.0262 20.0576C48.0313 20.0576 48.0245 20.0475 48.0363 20.0339Z" fill="white"/>
<path d="M26.1374 35.1549H22.2479C25.2928 31.2152 24.1257 25.6729 22.554 20.9505L27.7447 19.4818C29.4375 24.5713 28.6239 30.3907 26.1365 35.1549H26.1374Z" fill="white"/>
<path d="M48.3374 16.5966C48.3994 17.597 48.3994 19.2771 47.8272 20.5773C47.2204 22.2993 45.4683 27.6439 46.5024 29.5956C46.5024 29.5956 43.011 32.4538 42.735 35.1397H39.4258C39.4258 35.1397 39.7766 31.6757 41.7136 29.5628L40.4198 28.269C40.4198 28.269 38.5156 26.2272 36.1667 26.2162C33.9964 26.2026 31.961 26.8804 29.8444 27.3515C28.075 27.7487 26.2583 28.0594 24.4898 27.7861C24.0115 27.7123 23.5358 27.5975 23.0712 27.4289C21.1296 26.7383 19.3374 25.7342 17.7329 24.4532C17.578 24.332 17.4395 24.1899 17.2783 24.0824C16.2378 23.3881 13.0233 20.1709 11.9136 19.8065C12.0831 19.3072 12.2197 18.797 12.3227 18.2804C12.412 17.8357 12.5869 17.2399 12.5067 16.7879C12.3637 15.977 12.1587 15.1971 12.1086 14.3616C12.0184 12.8546 12.3227 11.3768 13.0589 10.0557C20.3952 -0.249102 25.4355 -2.17612 35.0752 2.61546C41.0184 5.64312 48.2053 8.8457 48.3374 16.5966Z" fill="white"/>
<path d="M50.713 24.6151C50.3613 24.104 49.8164 23.7359 49.216 23.581C49.1312 24.1769 49.1185 24.8137 49.3718 25.3595C49.6861 26.0383 50.3512 26.5804 51.0355 26.8847C51.2842 26.133 51.1612 25.2675 50.713 24.6151Z" fill="white"/>
<path d="M42.0118 6.55603C43.6254 7.44164 45.1698 8.51494 46.469 9.8552C47.1159 10.5285 47.7091 11.2365 48.2065 12.0601C48.6894 12.8783 49.0347 13.763 49.2616 14.6677C49.7208 16.4745 49.7026 18.3724 49.4374 20.1518C49.329 21.0401 49.227 21.9184 49.3217 22.7795C49.4138 23.635 49.6962 24.4896 50.2811 25.1147L50.0406 25.3506C49.3564 24.6819 49.0065 23.7525 48.8662 22.8396C48.7213 21.9148 48.7906 20.9882 48.858 20.0935C48.9336 19.1951 48.9864 18.3241 48.9181 17.4494C48.8607 16.5774 48.7122 15.7137 48.4644 14.8855C48.2175 14.0582 47.8639 13.2692 47.4011 12.5594C46.9392 11.8633 46.3424 11.2082 45.7173 10.6169C44.4563 9.4297 42.973 8.49398 41.4041 7.72317L42.0109 6.55511L42.0118 6.55603Z" fill="white"/>
<path d="M16.8705 34.7495H19.9155C19.9155 34.7495 18.0149 33.7072 16.8705 34.7495Z" fill="#1D8E7C"/>
<path d="M22.7561 34.7495H25.801C25.801 34.7495 23.9004 33.7072 22.7561 34.7495Z" fill="#1D8E7C"/>
<path d="M34.6599 34.6396H37.4461C37.4461 34.6396 35.7067 33.6319 34.6599 34.6396Z" fill="#1D8E7C"/>
<path d="M39.6967 34.6396H42.4829C42.4829 34.6396 40.7436 33.6319 39.6967 34.6396Z" fill="#1D8E7C"/>
<path d="M19.5959 12.1009C19.3309 11.9743 19.1178 11.845 18.994 11.7121C18.9257 11.9898 18.8783 12.2685 18.8346 12.5435C19.1442 12.395 19.4038 12.2457 19.5968 12.1009H19.5959Z" fill="#1D8E7C"/>
<path d="M19.7871 12.9247C19.4238 12.7972 19.1014 12.6716 18.8346 12.5441C18.7936 12.82 18.7581 13.0941 18.7281 13.3636C19.1187 13.2206 19.4757 13.0731 19.7871 12.9238V12.9247Z" fill="#1D8E7C"/>
<path d="M19.9109 13.7645C19.4866 13.6234 19.0895 13.4931 18.7271 13.3647L18.6397 14.1679C19.0914 14.0431 19.5148 13.9075 19.9109 13.7645Z" fill="#1D8E7C"/>
<path d="M19.9674 14.6233C19.5048 14.4585 19.0604 14.3064 18.6397 14.168C18.6051 14.4302 18.5851 14.6934 18.5459 14.9484C19.034 14.8582 19.5166 14.7471 19.9674 14.6242V14.6233Z" fill="#1D8E7C"/>
<path d="M19.9372 15.5001C19.4746 15.2961 19.0002 15.114 18.5458 14.9482C18.5185 15.2069 18.4703 15.4545 18.4338 15.7059C18.9365 15.6594 19.44 15.5911 19.9363 15.5001H19.9372Z" fill="#1D8E7C"/>
<path d="M19.8014 16.3854C19.3507 16.1341 18.8944 15.9083 18.4346 15.707L18.3599 16.0749C18.3399 16.1988 18.3071 16.318 18.2752 16.4382C18.7779 16.4474 19.2942 16.43 19.8014 16.3863V16.3854Z" fill="#1D8E7C"/>
<path d="M19.5491 17.2567C19.1521 16.9626 18.7122 16.6857 18.2751 16.438C18.2414 16.5564 18.2214 16.6812 18.1795 16.7968L18.0666 17.1501C18.5392 17.2084 19.0355 17.2458 19.5491 17.2576V17.2567Z" fill="#1D8E7C"/>
<path d="M19.1702 18.0846C18.8278 17.7541 18.4672 17.4444 18.0674 17.1494C18.031 17.2678 17.9782 17.3798 17.9354 17.4964C17.8917 17.6129 17.8489 17.7304 17.7915 17.8415C18.2322 17.9416 18.6885 18.0227 19.1711 18.0846H19.1702Z" fill="#1D8E7C"/>
<path d="M18.6828 18.8463C18.4187 18.503 18.1182 18.1652 17.7895 17.841L17.632 18.1843C17.5746 18.2972 17.5099 18.4074 17.4508 18.5203C17.8259 18.6296 18.2412 18.7434 18.6828 18.8454V18.8463Z" fill="#1D8E7C"/>
<path d="M18.0941 19.5163C17.9256 19.1985 17.7061 18.8588 17.4503 18.5228C17.3902 18.6367 17.3346 18.7532 17.2609 18.8607L17.0578 19.1976L18.0941 19.5172V19.5163Z" fill="#1D8E7C"/>
<path d="M17.4312 20.0892C17.3493 19.8151 17.2327 19.52 17.0579 19.1968C16.996 19.3152 16.9122 19.4171 16.8403 19.531L16.619 19.8715C16.8457 19.9134 17.118 19.9908 17.4312 20.0901V20.0892Z" fill="#1D8E7C"/>
<path d="M16.707 20.5656C16.7234 20.3744 16.6952 20.1422 16.6187 19.8718C16.4621 20.094 16.3027 20.3189 16.1506 20.5602C16.2854 20.5092 16.473 20.5165 16.707 20.5647V20.5656Z" fill="#1D8E7C"/>
<path d="M15.4434 18.4962C15.3788 18.4962 15.3269 18.4434 15.3269 18.3796C15.3269 18.3159 15.3797 18.2631 15.4434 18.2631C15.5072 18.2631 15.56 18.3159 15.56 18.3796C15.56 18.4434 15.5081 18.4962 15.4434 18.4962Z" fill="#1D8E7C"/>
<path d="M15.9364 17.788C15.8026 17.788 15.6942 17.6796 15.6942 17.5457C15.6942 17.4119 15.8026 17.3035 15.9364 17.3035C16.0703 17.3035 16.1787 17.4119 16.1787 17.5457C16.1787 17.6796 16.0703 17.788 15.9364 17.788Z" fill="#1D8E7C"/>
<path d="M16.3527 16.9787C16.1824 16.9787 16.044 16.8402 16.044 16.67C16.044 16.4997 16.1824 16.3613 16.3527 16.3613C16.523 16.3613 16.6614 16.4997 16.6614 16.67C16.6614 16.8402 16.523 16.9787 16.3527 16.9787Z" fill="#1D8E7C"/>
<path d="M16.6695 16.0873C16.4855 16.0873 16.3353 15.9379 16.3353 15.7531C16.3353 15.5682 16.4846 15.4189 16.6695 15.4189C16.8543 15.4189 17.0037 15.5682 17.0037 15.7531C17.0037 15.9379 16.8543 16.0873 16.6695 16.0873Z" fill="#1D8E7C"/>
<path d="M16.8738 15.128C17.0513 15.128 17.1952 14.9841 17.1952 14.8066C17.1952 14.629 17.0513 14.4851 16.8738 14.4851C16.6963 14.4851 16.5523 14.629 16.5523 14.8066C16.5523 14.9841 16.6963 15.128 16.8738 15.128Z" fill="#1D8E7C"/>
<path d="M16.9695 14.0987C16.8275 14.0987 16.7128 13.9839 16.7128 13.8419C16.7128 13.6998 16.8275 13.5851 16.9695 13.5851C17.1116 13.5851 17.2263 13.6998 17.2263 13.8419C17.2263 13.9839 17.1116 14.0987 16.9695 14.0987Z" fill="#1D8E7C"/>
<path d="M16.9696 12.9876C16.9049 12.9876 16.853 12.9348 16.853 12.871C16.853 12.8073 16.9058 12.7545 16.9696 12.7545C17.0333 12.7545 17.0861 12.8073 17.0861 12.871C17.0861 12.9348 17.0333 12.9876 16.9696 12.9876Z" fill="#1D8E7C"/>
<path d="M44.0185 25.7284C43.982 25.7102 43.8063 25.57 43.616 25.4644C43.4284 25.356 43.2399 25.285 43.2399 25.285C43.2399 25.285 43.4366 25.3305 43.6533 25.3433C43.8673 25.3596 44.0949 25.3405 44.1341 25.3451C44.2133 25.3533 44.2652 25.4625 44.2297 25.5837C44.2115 25.6428 44.1751 25.6902 44.1368 25.7157C44.0959 25.7412 44.054 25.7466 44.0175 25.7293L44.0185 25.7284Z" fill="#1D8E7C"/>
<path d="M43.6605 26.1772C43.6369 26.1462 43.5358 25.9404 43.4119 25.7637C43.2927 25.5871 43.1506 25.4377 43.1506 25.4377C43.1506 25.4377 43.1898 25.4696 43.2535 25.5142C43.3172 25.5598 43.4047 25.6171 43.4975 25.6699C43.6824 25.7774 43.8982 25.8612 43.931 25.8821C43.9975 25.924 43.9984 26.0451 43.9128 26.1371C43.8281 26.23 43.7079 26.2409 43.6605 26.1772Z" fill="#1D8E7C"/>
<path d="M43.1424 26.4269C43.1342 26.3877 43.1333 26.1583 43.0987 25.9479C43.0668 25.733 43.004 25.54 43.004 25.54C43.004 25.54 43.0259 25.5864 43.0632 25.6547C43.1005 25.7221 43.1542 25.8113 43.2162 25.8997C43.3382 26.0791 43.4939 26.2439 43.5148 26.2776C43.5576 26.3449 43.5048 26.4533 43.3883 26.5007C43.2708 26.548 43.1579 26.5034 43.1424 26.4269Z" fill="#1D8E7C"/>
<path d="M42.5684 26.4271C42.5775 26.3897 42.6759 26.1821 42.736 25.9754C42.7997 25.7714 42.827 25.5674 42.827 25.5674C42.827 25.5674 42.827 25.7714 42.8625 25.9845C42.8944 26.1958 42.9627 26.4152 42.9673 26.4544C42.9764 26.5318 42.8826 26.6092 42.7569 26.5992C42.6321 26.5901 42.5475 26.5045 42.5675 26.4271H42.5684Z" fill="#1D8E7C"/>
<path d="M42.0501 26.1777C42.0756 26.1467 42.254 26.0029 42.397 25.8444C42.5454 25.686 42.6574 25.5166 42.6574 25.5166C42.6574 25.5166 42.6347 25.563 42.6046 25.6341C42.5746 25.7051 42.5391 25.8025 42.5081 25.9063C42.4434 26.113 42.4116 26.338 42.3988 26.3753C42.3724 26.4509 42.255 26.4773 42.1457 26.4154C42.0355 26.3534 42 26.2369 42.051 26.1777H42.0501Z" fill="#1D8E7C"/>
<path d="M41.6919 25.7287C41.7283 25.7114 41.9486 25.6613 42.149 25.5785C42.3502 25.5002 42.5241 25.3964 42.5241 25.3964C42.5241 25.3964 42.3657 25.522 42.2209 25.6841C42.0752 25.8407 41.9477 26.0311 41.9195 26.0593C41.864 26.1157 41.7465 26.0893 41.6745 25.9855C41.6399 25.9345 41.6254 25.8772 41.629 25.8307C41.6345 25.7834 41.6563 25.7469 41.6928 25.7296L41.6919 25.7287Z" fill="#1D8E7C"/>
<path d="M41.5634 25.1681C41.6025 25.1681 41.8284 25.2182 42.0415 25.2319C42.148 25.2401 42.2527 25.241 42.331 25.2382C42.4093 25.2355 42.4594 25.2309 42.4594 25.2309C42.4594 25.2309 42.4102 25.2419 42.3347 25.2637C42.2591 25.2856 42.1598 25.3175 42.0606 25.3575C41.8612 25.4358 41.6617 25.5524 41.6253 25.5642C41.5506 25.5906 41.4559 25.5151 41.4377 25.3903C41.4168 25.2656 41.486 25.1663 41.5634 25.1681Z" fill="#1D8E7C"/>
<path d="M41.6918 24.6082C41.7282 24.6264 41.9039 24.7666 42.0942 24.8722C42.2818 24.9806 42.4703 25.0516 42.4703 25.0516C42.4703 25.0516 42.2736 25.0061 42.0569 24.9933C41.8429 24.977 41.6153 24.9961 41.5761 24.9915C41.4969 24.9833 41.445 24.8741 41.4805 24.7529C41.4987 24.6938 41.5351 24.6464 41.5734 24.6209C41.6144 24.5954 41.6562 24.5899 41.6927 24.6072L41.6918 24.6082Z" fill="#1D8E7C"/>
<path d="M42.0496 24.1585C42.0733 24.1894 42.1743 24.3952 42.2982 24.5719C42.4175 24.7486 42.5595 24.8979 42.5595 24.8979C42.5595 24.8979 42.5204 24.866 42.4566 24.8214C42.3929 24.7759 42.3055 24.7185 42.2126 24.6657C42.0277 24.5582 41.8119 24.4745 41.7791 24.4535C41.7127 24.4116 41.7118 24.2905 41.7974 24.1986C41.882 24.1057 42.0022 24.0947 42.0496 24.1585Z" fill="#1D8E7C"/>
<path d="M42.5683 23.909C42.5765 23.9482 42.5774 24.1776 42.612 24.388C42.6439 24.6029 42.7067 24.7959 42.7067 24.7959C42.7067 24.7959 42.6848 24.7495 42.6475 24.6812C42.6102 24.6138 42.5564 24.5246 42.4945 24.4363C42.3725 24.2569 42.2168 24.0921 42.1958 24.0584C42.153 23.991 42.2059 23.8826 42.3224 23.8353C42.4399 23.7879 42.5528 23.8325 42.5683 23.909Z" fill="#1D8E7C"/>
<path d="M43.1422 23.9088C43.1331 23.9462 43.0347 24.1538 42.9746 24.3605C42.9109 24.5645 42.8836 24.7684 42.8836 24.7684C42.8836 24.7684 42.8836 24.5645 42.848 24.3514C42.8162 24.1401 42.7479 23.9207 42.7433 23.8815C42.7342 23.8041 42.828 23.7267 42.9537 23.7367C43.0784 23.7458 43.1631 23.8314 43.1431 23.9088H43.1422Z" fill="#1D8E7C"/>
<path d="M43.6605 24.1584C43.635 24.1894 43.4565 24.3333 43.3135 24.4917C43.1651 24.6502 43.0531 24.8195 43.0531 24.8195C43.0531 24.8195 43.0758 24.7731 43.1059 24.7021C43.1359 24.631 43.1715 24.5336 43.2024 24.4298C43.2671 24.2231 43.2989 23.9982 43.3117 23.9608C43.3381 23.8853 43.4556 23.8588 43.5648 23.9208C43.675 23.9827 43.7105 24.0992 43.6595 24.1584H43.6605Z" fill="#1D8E7C"/>
<path d="M44.0184 24.6075C43.9819 24.6248 43.7616 24.6749 43.5612 24.7578C43.36 24.8361 43.1861 24.9399 43.1861 24.9399C43.1861 24.9399 43.3445 24.8142 43.4893 24.6522C43.635 24.4955 43.7625 24.3052 43.7907 24.277C43.8462 24.2205 43.9637 24.2469 44.0357 24.3508C44.0703 24.4017 44.0848 24.4591 44.0812 24.5056C44.0757 24.5529 44.0539 24.5893 44.0174 24.6066L44.0184 24.6075Z" fill="#1D8E7C"/>
<path d="M44.1469 25.1681C44.1077 25.1681 43.8819 25.1181 43.6688 25.1044C43.5623 25.0962 43.4575 25.0953 43.3792 25.098C43.3009 25.1008 43.2508 25.1053 43.2508 25.1053C43.2508 25.1053 43.3 25.0944 43.3756 25.0725C43.4512 25.0507 43.5504 25.0188 43.6497 24.9787C43.8491 24.9004 44.0485 24.7839 44.085 24.772C44.1596 24.7456 44.2543 24.8212 44.2725 24.946C44.2935 25.0707 44.2243 25.17 44.1469 25.1681Z" fill="#1D8E7C"/>
<path d="M42.8628 27.1966C42.7954 27.1966 42.7416 27.1429 42.7416 27.0791C42.7416 27.0117 42.7954 26.9579 42.8592 26.9579C42.9266 26.9579 42.9803 27.0117 42.9803 27.0791C42.9803 27.1429 42.9266 27.1966 42.8628 27.1966ZM42.2359 27.1019C42.1722 27.0818 42.1385 27.0108 42.1585 26.9506C42.1785 26.8868 42.246 26.8531 42.307 26.8732C42.3708 26.8932 42.4045 26.9606 42.3881 27.0244C42.3717 27.0754 42.3243 27.1055 42.2733 27.1055C42.2596 27.1055 42.246 27.1055 42.2359 27.1019ZM43.3348 27.0217C43.3147 26.9579 43.3484 26.8905 43.4122 26.8695C43.476 26.8495 43.5434 26.8832 43.5644 26.947C43.5844 27.008 43.5507 27.0754 43.4869 27.0991V27.0955C43.4733 27.1019 43.4632 27.1019 43.4496 27.1019C43.3995 27.1019 43.3521 27.0718 43.3348 27.0208V27.0217ZM41.6701 26.8158C41.6164 26.7757 41.6027 26.701 41.6428 26.6472C41.6802 26.5935 41.754 26.5834 41.8114 26.6199C41.8615 26.6572 41.8751 26.7347 41.8387 26.7884C41.815 26.8185 41.7777 26.8358 41.7412 26.8358C41.7139 26.8358 41.6911 26.8294 41.6701 26.8158ZM43.8842 26.7821C43.8441 26.7283 43.8568 26.6536 43.9079 26.6135C43.9616 26.5734 44.0391 26.5862 44.0764 26.6408C44.1165 26.6946 44.1037 26.7693 44.0527 26.8094C44.029 26.8231 44.0053 26.8294 43.9817 26.8294C43.9443 26.8294 43.9079 26.8121 43.8842 26.7821ZM41.2182 26.3675C41.1809 26.3137 41.1909 26.239 41.2447 26.1989C41.2984 26.1616 41.3731 26.1716 41.4132 26.2263C41.4506 26.28 41.4405 26.3548 41.3868 26.3948C41.3667 26.4112 41.3394 26.4185 41.3157 26.4185C41.2784 26.4185 41.2419 26.4021 41.2182 26.3684V26.3675ZM44.3324 26.3875C44.2787 26.3475 44.265 26.2727 44.3051 26.219C44.3425 26.1652 44.4163 26.1516 44.47 26.1917C44.5238 26.229 44.5374 26.3065 44.4974 26.3602C44.4737 26.3903 44.4363 26.4076 44.3999 26.4076C44.3762 26.4076 44.3525 26.4012 44.3324 26.3875ZM40.9285 25.8053C40.9084 25.7443 40.9422 25.6741 41.0023 25.6532C41.0661 25.6331 41.1335 25.6669 41.1572 25.7306C41.1772 25.7917 41.1435 25.8618 41.0797 25.8828C41.0661 25.8864 41.056 25.8892 41.0424 25.8892C40.9914 25.8892 40.9449 25.8555 40.9276 25.8053H40.9285ZM44.6358 25.8719C44.5721 25.8518 44.5383 25.7844 44.5584 25.7206C44.5784 25.6568 44.6459 25.6231 44.7106 25.6432C44.7716 25.6632 44.808 25.7306 44.788 25.7944C44.7716 25.8445 44.7242 25.8782 44.6732 25.8782C44.6595 25.8782 44.6459 25.8746 44.6358 25.8719ZM40.8274 25.1812C40.8274 25.1138 40.8775 25.06 40.9449 25.06C41.0123 25.06 41.0661 25.1102 41.0661 25.1776C41.0661 25.245 41.0123 25.2988 40.9449 25.2988C40.8775 25.2988 40.8274 25.245 40.8274 25.1803V25.1812ZM44.6459 25.1676V25.1612V25.1475C44.6422 25.0801 44.696 25.0263 44.7643 25.0263C44.8317 25.0263 44.8855 25.0764 44.8855 25.1448V25.1584V25.1685C44.8855 25.2359 44.8317 25.2897 44.7643 25.2897C44.7005 25.2897 44.6459 25.2359 44.6459 25.1685V25.1676ZM40.9996 24.7065C40.9358 24.6828 40.9021 24.6154 40.9221 24.5553C40.9422 24.4915 41.0096 24.4542 41.0743 24.4778C41.1353 24.4979 41.1718 24.5617 41.1517 24.6264C41.1353 24.6801 41.0879 24.7102 41.0369 24.7102C41.0232 24.7102 41.0096 24.7102 40.9996 24.7065ZM44.5511 24.5981C44.5311 24.5343 44.5648 24.4669 44.6249 24.4432C44.6887 24.4232 44.7561 24.4569 44.7771 24.5207H44.7807C44.8008 24.5808 44.767 24.6519 44.7033 24.6719C44.6896 24.6756 44.6796 24.6783 44.6659 24.6783C44.6149 24.6783 44.5684 24.6446 44.5511 24.5972V24.5981ZM41.2319 24.1535C41.1781 24.1161 41.1681 24.0423 41.2046 23.9886V23.9849C41.2446 23.9348 41.3194 23.9211 41.3731 23.9585C41.4269 23.9986 41.4369 24.0733 41.4005 24.1271C41.3768 24.1608 41.3394 24.1772 41.303 24.1772C41.2793 24.1772 41.2556 24.1708 41.2319 24.1535ZM44.2923 24.1034C44.2523 24.0496 44.2659 23.9722 44.316 23.9348C44.3698 23.8947 44.4445 23.9047 44.4846 23.9585C44.5247 24.0123 44.5147 24.087 44.4609 24.1271C44.4409 24.1435 44.4135 24.1507 44.3898 24.1507C44.3525 24.1507 44.316 24.1343 44.2923 24.1034ZM41.6264 23.7052C41.5863 23.6515 41.5963 23.574 41.6501 23.5367C41.7039 23.4966 41.7786 23.5066 41.8187 23.5603C41.8587 23.6141 41.846 23.6888 41.795 23.7289C41.7713 23.7453 41.7476 23.7526 41.7212 23.7526C41.6838 23.7526 41.6501 23.7362 41.6273 23.7052H41.6264ZM43.8942 23.7125H43.8905C43.8404 23.6724 43.8268 23.5977 43.8632 23.5439C43.9033 23.4902 43.978 23.4765 44.0318 23.5139V23.5175C44.0855 23.5549 44.0992 23.6287 44.0591 23.6824C44.0354 23.7161 43.999 23.7325 43.9616 23.7325C43.9379 23.7325 43.9142 23.7262 43.8942 23.7125ZM42.1385 23.3954C42.1148 23.3317 42.1485 23.2642 42.2123 23.2442C42.276 23.2241 42.3435 23.2578 42.3644 23.318C42.3845 23.3818 42.3508 23.4492 42.2906 23.4729C42.277 23.4765 42.2633 23.4765 42.2505 23.4765C42.1995 23.4765 42.153 23.4465 42.1394 23.3954H42.1385ZM43.3922 23.4629V23.4592C43.3284 23.4419 43.2947 23.3754 43.3147 23.3107C43.3348 23.2469 43.4022 23.2132 43.4669 23.2332V23.2296C43.527 23.2496 43.5644 23.3171 43.5443 23.3809C43.527 23.4346 43.4805 23.4647 43.4295 23.4647C43.4159 23.4647 43.4058 23.4647 43.3922 23.461V23.4629ZM42.7179 23.2606C42.7179 23.1932 42.7717 23.1394 42.8391 23.1394C42.9029 23.1394 42.9566 23.1932 42.9566 23.2569C42.9603 23.3244 42.9065 23.3781 42.8391 23.3781C42.7717 23.3781 42.7179 23.328 42.7179 23.2597V23.2606Z" fill="#1D8E7C"/>
<path d="M40.2925 15.9125C40.3873 16.0546 40.4948 16.1949 40.6151 16.3425C40.7353 16.4901 40.8693 16.645 41.0078 16.8063C40.8483 16.7015 40.708 16.5776 40.5823 16.4273C40.4538 16.2733 40.3445 16.102 40.2488 15.917C40.4301 16.286 40.6324 16.6805 40.7918 17.0988C40.5413 16.7516 40.359 16.3352 40.2051 15.9243C40.3454 16.338 40.4593 16.7771 40.4702 17.2044C40.3435 16.7735 40.2588 16.3425 40.1595 15.9407C40.2415 16.3434 40.2479 16.7534 40.1486 17.1161C40.1504 16.6878 40.1458 16.3052 40.103 15.9535C40.124 16.3052 40.0511 16.6177 39.9181 16.8664C39.9846 16.5521 40.0201 16.2951 40.0292 16.0555C39.9727 16.1603 39.9035 16.3152 39.8306 16.4992C39.7586 16.6906 39.6839 16.9029 39.6639 17.148C39.6547 17.2691 39.6602 17.3903 39.683 17.5115C39.7067 17.629 39.7468 17.7447 39.8042 17.8586C39.8607 17.9734 39.9345 18.0828 40.0201 18.1784C40.1057 18.2741 40.2041 18.3743 40.3053 18.4481C40.4365 18.5502 40.6123 18.6786 40.7854 18.7916C40.872 18.8508 40.9576 18.911 41.0351 18.9711C41.1116 19.0303 41.1781 19.0877 41.2255 19.1488C41.231 18.9911 41.302 18.7998 41.3713 18.6021C41.4396 18.398 41.5152 18.2085 41.5563 18.039C41.59 17.9115 41.62 17.7867 41.6282 17.6536C41.6373 17.5206 41.6328 17.3912 41.6137 17.2691C41.5717 17.0186 41.4624 16.7926 41.3057 16.6113C41.1599 16.4418 40.995 16.3188 40.8483 16.2223C40.7763 16.1758 40.7044 16.1311 40.6369 16.0911C40.5695 16.0501 40.5139 16.0236 40.4574 15.9908C40.5312 16.0628 40.6069 16.1257 40.698 16.1995C40.7873 16.2696 40.893 16.3507 41.0005 16.4209C40.8766 16.3881 40.749 16.3279 40.6296 16.245C40.5057 16.1539 40.3982 16.0528 40.2934 15.9125H40.2925Z" fill="#1D8E7C"/>
<path d="M38.9467 19.8903C39.1791 19.5769 39.3085 19.2871 39.3613 18.9528C39.4169 18.6166 39.3859 18.2357 39.364 17.7155C39.0433 18.3587 38.6925 19.1359 38.9467 19.8903Z" fill="#1D8E7C"/>
<path d="M39.4243 15.851C39.2785 16.1462 39.1464 16.517 39.0079 16.9142C39.0161 16.7311 39.0589 16.537 39.1236 16.3575C39.1901 16.1735 39.2876 15.9876 39.3996 15.8118C39.17 16.1553 38.9286 16.527 38.6462 16.8732C38.8247 16.4787 39.0871 16.1225 39.3687 15.779C39.078 16.1088 38.7628 16.4168 38.391 16.6491C38.6999 16.3238 39.0325 16.0332 39.334 15.7444C39.1746 15.8847 39.0124 16.0031 38.842 16.1006C38.6698 16.199 38.4876 16.2774 38.31 16.3238C38.4931 16.2181 38.6671 16.117 38.832 16.014C38.9988 15.9093 39.1536 15.8054 39.2931 15.7024C39.1473 15.7972 38.9924 15.8737 38.8475 15.9202C38.7737 15.9448 38.6981 15.9639 38.6234 15.9785C38.5523 15.9904 38.4831 15.9967 38.4129 15.9995C38.5623 15.9512 38.6972 15.902 38.822 15.851C38.9496 15.7972 39.0644 15.7434 39.1673 15.6888C39.109 15.6897 39.0325 15.6988 38.9559 15.7061C38.8776 15.7143 38.7783 15.7298 38.6844 15.7434C38.4913 15.7744 38.2598 15.8191 38.0393 15.9238C37.8207 16.0268 37.6348 16.1863 37.4918 16.4013C37.3597 16.6081 37.2667 16.8732 37.2367 17.1284C37.2075 17.2987 37.1956 17.5056 37.1783 17.716C37.1565 17.9292 37.1492 18.1279 37.0891 18.2736C37.2275 18.1998 37.4253 18.1689 37.6348 18.126C37.7341 18.1078 37.838 18.0887 37.9391 18.0705C38.0366 18.0513 38.1323 18.0267 38.2134 18.0058C38.4639 17.9484 38.7172 17.8281 38.9095 17.6723C39.1072 17.5074 39.2448 17.306 39.324 17.0782C39.3978 16.8669 39.4215 16.6619 39.4343 16.4842C39.4425 16.312 39.4461 16.1498 39.4388 16.0332C39.396 16.2145 39.3541 16.455 39.3377 16.7147C39.3022 16.5981 39.2949 16.4477 39.3049 16.3074C39.3213 16.1562 39.3586 16.0059 39.4252 15.851H39.4243Z" fill="#1D8E7C"/>
<path d="M35.3059 16.6683C35.694 16.7138 36.0047 16.6838 36.3208 16.5626C36.6379 16.4441 36.9605 16.2236 37.3978 15.9467C37.0306 15.9694 36.6488 16.0004 36.2789 16.1006C35.9127 16.2009 35.5582 16.3731 35.3049 16.6692L35.3059 16.6683Z" fill="#1D8E7C"/>
<path d="M39.0434 15.064C38.8794 15.0758 38.6981 15.0986 38.5067 15.1296C38.3209 15.1606 38.1222 15.1988 37.9145 15.238C37.9965 15.1952 38.0821 15.1587 38.1705 15.1287C38.2635 15.0986 38.3582 15.0749 38.4548 15.0576C38.6479 15.023 38.8484 15.012 39.0625 15.0221C38.647 14.9956 38.2042 14.9729 37.7642 14.9027C38.1997 14.8599 38.6416 14.9082 39.0762 14.9792C38.6397 14.8927 38.2197 14.7761 37.8352 14.5711C38.2707 14.6758 38.6899 14.818 39.088 14.9328C38.6908 14.8016 38.34 14.6048 38.0721 14.3378C38.4311 14.5483 38.7883 14.7433 39.1017 14.8763C38.7928 14.7223 38.5468 14.5 38.4065 14.2649C38.6325 14.4727 38.8584 14.6412 39.0507 14.7624C39.0252 14.715 38.9741 14.6522 38.9304 14.5884C38.8839 14.5237 38.8265 14.4499 38.7618 14.3706C38.6407 14.2194 38.4876 14.0426 38.2871 13.9032C38.0903 13.7665 37.8516 13.68 37.6002 13.6672C37.4762 13.6609 37.346 13.6709 37.2148 13.6937C37.0872 13.7192 36.9633 13.7593 36.8403 13.8075C36.6799 13.8677 36.4968 13.9624 36.3 14.0517C36.1159 14.1437 35.9283 14.233 35.7734 14.2558C35.9009 14.3378 36.0431 14.4964 36.1761 14.6549C36.3045 14.8143 36.4567 14.9756 36.5688 15.095C36.7537 15.2826 36.9688 15.4421 37.2102 15.5305C37.4425 15.6216 37.6949 15.6389 37.9327 15.5933C38.1541 15.5514 38.3382 15.4713 38.4967 15.3938C38.6616 15.3136 38.7855 15.2362 38.8949 15.1697C38.7035 15.2252 38.4931 15.3082 38.2498 15.4248C38.3436 15.3337 38.4511 15.2535 38.5896 15.1915C38.719 15.1296 38.8794 15.0858 39.0434 15.0649V15.064Z" fill="#1D8E7C"/>
<path d="M36.2753 11.9094C36.4275 12.2638 36.6115 12.5198 36.8757 12.7348C37.0069 12.8423 37.1591 12.9389 37.3349 13.0364C37.5126 13.1357 37.7176 13.2387 37.9472 13.3599C37.5472 12.7558 37.0489 12.0633 36.2753 11.9084V11.9094Z" fill="#1D8E7C"/>
<path d="M39.5326 14.3429C39.4378 14.2008 39.3303 14.0605 39.21 13.9129C39.0897 13.7653 38.9558 13.6104 38.8173 13.4491C38.9768 13.5539 39.1171 13.6778 39.2428 13.8281C39.3713 13.9821 39.4806 14.1534 39.5763 14.3384C39.395 13.9694 39.1927 13.5749 39.0333 13.1566C39.2838 13.5038 39.466 13.9202 39.62 14.3311C39.4797 13.9174 39.3658 13.4783 39.3549 13.051C39.4815 13.4819 39.5663 13.9129 39.6656 14.3147C39.5836 13.912 39.5772 13.502 39.6765 13.1393C39.6747 13.5676 39.6792 13.9502 39.7221 14.3019C39.7011 13.9502 39.774 13.6377 39.907 13.389C39.8405 13.7033 39.805 13.9603 39.7959 14.1999C39.8524 14.0951 39.9216 13.9402 39.9945 13.7562C40.0665 13.5648 40.1412 13.3525 40.1612 13.1074C40.1703 12.9863 40.1649 12.8651 40.1421 12.7439C40.1184 12.6264 40.0783 12.5107 40.0209 12.3968C39.9644 12.282 39.8906 12.1726 39.805 12.077C39.7193 11.9813 39.6209 11.8811 39.5198 11.8073C39.3886 11.7052 39.2128 11.5768 39.0396 11.4638C38.9531 11.4046 38.8674 11.3444 38.79 11.2843C38.7135 11.2251 38.6469 11.1677 38.5996 11.1066C38.5941 11.2643 38.523 11.4556 38.4538 11.6533C38.3855 11.8574 38.3098 12.0469 38.2688 12.2164C38.2351 12.3439 38.2051 12.4688 38.1969 12.6018C38.1877 12.7348 38.1923 12.8642 38.2114 12.9863C38.2533 13.2368 38.3627 13.4628 38.5194 13.6441C38.6652 13.8136 38.8301 13.9366 38.9768 14.0331C39.0487 14.0796 39.1207 14.1243 39.1881 14.1643C39.2556 14.2053 39.3112 14.2318 39.3676 14.2646C39.2938 14.1926 39.2182 14.1297 39.1271 14.0559C39.0378 13.9858 38.9321 13.9047 38.8246 13.8345C38.9485 13.8673 39.0761 13.9275 39.1954 14.0104C39.3194 14.1015 39.4269 14.2026 39.5316 14.3429H39.5326Z" fill="#1D8E7C"/>
<path d="M40.8783 10.3657C40.646 10.6791 40.5166 10.9689 40.4637 11.3033C40.4082 11.6395 40.4391 12.0203 40.461 12.5406C40.7817 11.8973 41.1325 11.1201 40.8783 10.3657Z" fill="#1D8E7C"/>
<path d="M40.4009 14.4044C40.5466 14.1092 40.6788 13.7384 40.8172 13.3411C40.809 13.5243 40.7662 13.7183 40.7015 13.8978C40.635 14.0819 40.5375 14.2678 40.4255 14.4436C40.6551 14.1001 40.8965 13.7284 41.179 13.3821C41.0004 13.7767 40.738 14.1329 40.4564 14.4764C40.7471 14.1466 41.0623 13.8386 41.4341 13.6063C41.1252 13.9315 40.7926 14.2222 40.4911 14.511C40.6505 14.3707 40.8127 14.2523 40.9831 14.1548C41.1553 14.0564 41.3375 13.978 41.5152 13.9315C41.332 14.0372 41.158 14.1384 40.9931 14.2413C40.8264 14.3461 40.6715 14.45 40.5321 14.5529C40.6778 14.4582 40.8327 14.3816 40.9776 14.3352C41.0514 14.3106 41.127 14.2914 41.2017 14.2769C41.2728 14.265 41.342 14.2586 41.4122 14.2559C41.2628 14.3042 41.1279 14.3534 41.0031 14.4044C40.8756 14.4582 40.7608 14.5119 40.6578 14.5666C40.7161 14.5657 40.7926 14.5566 40.8692 14.5493C40.9475 14.5411 41.0468 14.5256 41.1407 14.5119C41.3339 14.481 41.5653 14.4363 41.7858 14.3315C42.0044 14.2286 42.1903 14.0691 42.3333 13.8541C42.4655 13.6473 42.5584 13.3821 42.5885 13.127C42.6176 12.9567 42.6295 12.7498 42.6468 12.5394C42.6686 12.3262 42.6759 12.1284 42.7361 11.9818C42.5976 12.0556 42.3999 12.0865 42.1903 12.1294C42.091 12.1476 41.9871 12.1667 41.886 12.1849C41.7885 12.2041 41.6928 12.2287 41.6117 12.2496C41.3612 12.307 41.1079 12.4273 40.9156 12.5831C40.7179 12.748 40.5804 12.9494 40.5011 13.1771C40.4273 13.3885 40.4027 13.5935 40.3908 13.7712C40.3826 13.9434 40.379 14.1056 40.3863 14.2222C40.4291 14.0409 40.471 13.8003 40.4874 13.5407C40.5239 13.6573 40.5302 13.8076 40.5202 13.9479C40.5038 14.0992 40.4665 14.2495 40.4 14.4044H40.4009Z" fill="#1D8E7C"/>
<path d="M44.5192 13.587C44.1311 13.5414 43.8204 13.5715 43.5042 13.6926C43.1871 13.8111 42.8646 14.0316 42.4273 14.3086C42.7945 14.2858 43.1762 14.2548 43.5452 14.1546C43.9115 14.0544 44.2659 13.8822 44.5192 13.586V13.587Z" fill="#1D8E7C"/>
<path d="M40.7817 15.1915C40.9457 15.1797 41.127 15.1569 41.3183 15.1259C41.5042 15.0949 41.7028 15.0567 41.9106 15.0175C41.8286 15.0603 41.7429 15.0967 41.6545 15.1268C41.5616 15.1569 41.4669 15.1806 41.3703 15.1979C41.1771 15.2325 40.9767 15.2434 40.7626 15.2334C41.178 15.2598 41.6208 15.2826 42.0609 15.3528C41.6254 15.3956 41.1835 15.3473 40.7489 15.2762C41.1853 15.3628 41.6053 15.4794 41.9898 15.6844C41.5543 15.5796 41.1352 15.4375 40.737 15.3227C41.1343 15.4539 41.4851 15.6507 41.7529 15.9177C41.394 15.7072 41.0368 15.5122 40.7234 15.3792C41.0322 15.5332 41.2783 15.7555 41.4186 15.9906C41.1926 15.7828 40.9666 15.6143 40.7744 15.4931C40.7999 15.5405 40.8509 15.6033 40.8947 15.6671C40.9402 15.7318 40.9985 15.8056 41.0632 15.8849C41.1835 16.0361 41.3375 16.2129 41.5379 16.3523C41.7347 16.4889 41.9734 16.5755 42.2249 16.5883C42.3488 16.5946 42.4791 16.5846 42.6103 16.5618C42.7379 16.5363 42.8618 16.4962 42.9848 16.4479C43.1451 16.3878 43.3283 16.293 43.5251 16.2038C43.7091 16.1117 43.8968 16.0224 44.0517 15.9997C43.9241 15.9177 43.782 15.7591 43.6481 15.6006C43.5196 15.4412 43.3675 15.2799 43.2554 15.1605C43.0704 14.9728 42.8554 14.8134 42.6149 14.725C42.3825 14.6339 42.1301 14.6166 41.8923 14.6621C41.6709 14.7041 41.4869 14.7842 41.3284 14.8617C41.1634 14.9419 41.0395 15.0193 40.9302 15.0858C41.1215 15.0302 41.332 14.9473 41.5753 14.8307C41.4814 14.9218 41.3739 15.002 41.2354 15.0639C41.106 15.1259 40.9457 15.1696 40.7817 15.1906V15.1915Z" fill="#1D8E7C"/>
<path d="M43.5497 18.3455C43.3976 17.9911 43.2135 17.7351 42.9493 17.52C42.8181 17.4125 42.6659 17.316 42.4901 17.2185C42.3124 17.1192 42.1074 17.0162 41.8778 16.895C42.2778 17.4991 42.7762 18.1906 43.5497 18.3464V18.3455Z" fill="#1D8E7C"/>
<path d="M40.1893 15.1278C40.1893 15.2808 40.0654 15.4047 39.9124 15.4047C39.7595 15.4047 39.6356 15.2808 39.6356 15.1278C39.6356 14.9749 39.7595 14.851 39.9124 14.851C40.0654 14.851 40.1893 14.9749 40.1893 15.1278Z" fill="#1D8E7C"/>
<path d="M39.7084 21.5687C39.6246 21.5651 39.5599 21.4977 39.5599 21.4138C39.5635 21.33 39.6337 21.2626 39.7184 21.2653C39.8022 21.269 39.8706 21.3364 39.8669 21.4239C39.8633 21.5049 39.7959 21.5724 39.7157 21.5724C39.7157 21.5724 39.712 21.5724 39.7093 21.5687H39.7084ZM40.4774 21.3965C40.4674 21.3127 40.5275 21.238 40.6122 21.228C40.696 21.2179 40.7708 21.2781 40.7808 21.3628C40.7908 21.4466 40.7307 21.5213 40.6459 21.5314H40.6295C40.5521 21.5314 40.4874 21.474 40.4774 21.3965ZM38.7754 21.4749C38.6943 21.4576 38.6369 21.3801 38.6542 21.2963C38.6679 21.2125 38.749 21.1578 38.8292 21.1715C38.913 21.1879 38.9704 21.2653 38.954 21.3501C38.9403 21.4239 38.8765 21.4749 38.8018 21.4749H38.7754ZM41.3803 21.2489C41.3603 21.1678 41.4076 21.084 41.4915 21.0631C41.5725 21.0394 41.6564 21.0904 41.6764 21.1706C41.7001 21.2517 41.6491 21.3355 41.5689 21.3592C41.5552 21.3628 41.5416 21.3628 41.5288 21.3628C41.4614 21.3628 41.4003 21.3191 41.3803 21.248V21.2489ZM37.8688 21.2416C37.7877 21.2143 37.744 21.1268 37.7713 21.0494C37.7978 20.9683 37.8861 20.9246 37.9636 20.9519C38.0447 20.9792 38.0884 21.0667 38.0611 21.1441C38.041 21.2079 37.98 21.2489 37.9162 21.2489C37.8998 21.2489 37.8825 21.2489 37.8688 21.2425V21.2416ZM42.2531 20.9719C42.2231 20.8945 42.2568 20.8034 42.3342 20.7697C42.4117 20.736 42.5028 20.7733 42.5365 20.8508C42.5702 20.9282 42.5329 21.0193 42.4554 21.053C42.4354 21.0594 42.4153 21.0631 42.3944 21.0631C42.337 21.0631 42.2796 21.0293 42.2531 20.9719ZM37.0024 20.8808V20.8772C36.9249 20.8398 36.8948 20.7487 36.9349 20.6749C36.9723 20.5975 37.0634 20.5674 37.1409 20.6075C37.2147 20.6448 37.2456 20.736 37.2083 20.8134C37.1819 20.8635 37.1272 20.8972 37.0698 20.8972C37.0461 20.8972 37.0224 20.8908 37.0024 20.8799V20.8808ZM43.0786 20.571C43.0349 20.4972 43.0549 20.4025 43.126 20.3588C43.1998 20.315 43.2946 20.3387 43.3383 20.4089C43.382 20.4799 43.3583 20.5738 43.2873 20.6175C43.2636 20.6339 43.2335 20.6412 43.2062 20.6412C43.1561 20.6412 43.105 20.6175 43.0777 20.5701L43.0786 20.571ZM36.1969 20.3961C36.1295 20.346 36.1131 20.2512 36.1596 20.1838C36.2097 20.1128 36.3044 20.0964 36.3755 20.1465C36.4429 20.1938 36.4593 20.2913 36.4092 20.3588C36.3819 20.4025 36.3318 20.4225 36.2844 20.4225C36.2543 20.4225 36.2234 20.4162 36.1969 20.3952V20.3961ZM43.8339 20.0526C43.7802 19.9888 43.7866 19.8904 43.8513 19.8367C43.9187 19.7829 44.0134 19.793 44.0672 19.8567C44.1209 19.9205 44.1146 20.0189 44.0508 20.0727C44.0207 20.0964 43.987 20.1064 43.9533 20.1064C43.9096 20.1064 43.8658 20.09 43.8358 20.0526H43.8339ZM35.4726 19.7993C35.4125 19.7419 35.4088 19.6444 35.4662 19.5834C35.5273 19.5223 35.6211 19.5196 35.6821 19.5797C35.7459 19.6371 35.7459 19.7319 35.6885 19.7957C35.6585 19.8257 35.6175 19.8431 35.5774 19.8431C35.54 19.8431 35.5036 19.8294 35.4726 19.7993ZM44.5073 19.4321C44.4435 19.3747 44.4362 19.2773 44.4936 19.2162V19.2126C44.551 19.1515 44.6458 19.1451 44.7095 19.2025C44.7733 19.2599 44.777 19.3547 44.7232 19.4185C44.6931 19.4522 44.6494 19.4686 44.6084 19.4686C44.571 19.4686 44.5346 19.4549 44.5073 19.4312V19.4321ZM34.8421 19.1051C34.7883 19.0413 34.802 18.9429 34.8658 18.8928C34.9332 18.839 35.028 18.8527 35.0817 18.9165C35.1318 18.9839 35.1218 19.0814 35.0544 19.1324C35.027 19.1561 34.9933 19.1661 34.9596 19.1661C34.9159 19.1661 34.8722 19.1461 34.8421 19.1051ZM45.084 18.7178C45.0129 18.6705 44.9929 18.5766 45.0403 18.5055C45.0876 18.4381 45.1815 18.4181 45.2526 18.4654C45.3236 18.5092 45.34 18.6067 45.2963 18.6741C45.2662 18.7215 45.2152 18.7452 45.1678 18.7452C45.1378 18.7452 45.1077 18.7351 45.084 18.7178ZM34.3164 18.3306C34.2763 18.2568 34.2991 18.162 34.3738 18.122C34.4476 18.0782 34.5387 18.1056 34.5824 18.1757C34.6225 18.2495 34.5988 18.3443 34.525 18.3844C34.5013 18.398 34.4749 18.4044 34.4476 18.4044C34.3975 18.4044 34.3428 18.3771 34.3164 18.3306ZM45.5487 17.9288C45.4749 17.8951 45.4412 17.804 45.4749 17.7265C45.5122 17.6491 45.6033 17.619 45.6808 17.6527C45.7582 17.6901 45.7883 17.7812 45.7546 17.8586C45.7273 17.9124 45.6735 17.9461 45.6134 17.9461C45.5933 17.9461 45.5733 17.9397 45.5496 17.9297L45.5487 17.9288ZM33.9118 17.4842C33.8818 17.4031 33.9182 17.3156 33.9957 17.2855C34.0767 17.2555 34.1642 17.2919 34.1943 17.373C34.2244 17.4505 34.1879 17.5379 34.1068 17.568C34.0895 17.578 34.0695 17.5817 34.0531 17.5817C33.9929 17.5817 33.9355 17.5443 33.9118 17.4842ZM45.8958 17.0833C45.8147 17.0569 45.771 16.9721 45.7947 16.891C45.8184 16.8099 45.9022 16.7662 45.9833 16.7899C46.0644 16.8136 46.1117 16.8974 46.0881 16.9785C46.068 17.0459 46.007 17.0897 45.9395 17.0897C45.9259 17.0897 45.9122 17.086 45.8958 17.0833ZM33.6321 16.5876C33.6157 16.5038 33.6658 16.4227 33.7469 16.4054C33.828 16.3854 33.9118 16.4355 33.9328 16.5202C33.9492 16.6013 33.8991 16.6824 33.818 16.7024C33.8043 16.7061 33.7943 16.7061 33.7806 16.7061C33.7132 16.7061 33.6494 16.6587 33.6321 16.5885V16.5876ZM46.1181 16.194C46.0343 16.1804 45.9769 16.1029 45.9869 16.0191C46.0006 15.9353 46.078 15.8779 46.1619 15.8906C46.2457 15.9043 46.3031 15.9781 46.2903 16.0628C46.2803 16.1403 46.2129 16.194 46.1382 16.194H46.1181ZM33.4873 15.661C33.4809 15.5772 33.5447 15.5025 33.6285 15.4961C33.7123 15.4897 33.787 15.5535 33.7934 15.6346C33.7998 15.7184 33.736 15.7931 33.6522 15.7995H33.6421C33.5611 15.7995 33.4936 15.7421 33.4873 15.661ZM46.0507 15.1289C46.0507 15.1052 46.0571 15.0852 46.0644 15.0679C46.0543 15.0478 46.0507 15.0278 46.0507 15.0077C46.0471 14.9239 46.1145 14.8529 46.1992 14.8529C46.283 14.8492 46.3541 14.9166 46.3577 15.0014C46.3577 15.0251 46.3514 15.0451 46.3441 15.0651C46.3541 15.0852 46.3577 15.1052 46.3577 15.1289C46.3577 15.2127 46.2903 15.2811 46.2056 15.2811C46.1218 15.2811 46.0507 15.2137 46.0507 15.1289ZM33.6221 14.8857C33.5383 14.8793 33.4736 14.8082 33.4809 14.7235C33.4845 14.6397 33.5583 14.575 33.6431 14.5786C33.7269 14.585 33.7916 14.6561 33.7843 14.7408C33.7806 14.8219 33.7132 14.8857 33.6321 14.8857H33.6221ZM45.9705 14.1176C45.9569 14.0338 46.0106 13.9554 46.0953 13.9426C46.1792 13.929 46.2575 13.9827 46.2703 14.0675C46.2839 14.1513 46.2265 14.2296 46.1455 14.2424C46.1354 14.246 46.1291 14.246 46.119 14.246C46.048 14.246 45.9805 14.1923 45.9705 14.1176ZM33.7232 13.9764C33.6394 13.9563 33.5884 13.8752 33.6048 13.7941C33.6221 13.7103 33.7023 13.6593 33.787 13.6757C33.8681 13.6921 33.9219 13.7732 33.9055 13.8543C33.8891 13.9281 33.8244 13.9754 33.7533 13.9754H33.7232V13.9764ZM45.7582 13.2484C45.7345 13.1673 45.7783 13.0835 45.8594 13.0561C45.9405 13.0324 46.0243 13.0762 46.0516 13.1573C46.0753 13.2347 46.0316 13.3222 45.9505 13.3495C45.9368 13.3532 45.9204 13.3559 45.9067 13.3559C45.8393 13.3559 45.7819 13.3158 45.7582 13.2484ZM33.9556 13.0862C33.8781 13.0589 33.8344 12.9714 33.8645 12.8903C33.8945 12.8129 33.982 12.7719 34.0631 12.7992C34.1405 12.8293 34.1806 12.9176 34.1506 12.9978C34.1305 13.0579 34.0695 13.0953 34.0093 13.0953C33.9929 13.0953 33.972 13.0917 33.9556 13.0853V13.0862ZM45.4238 12.4193C45.3865 12.3455 45.4175 12.2543 45.4949 12.217C45.5687 12.1796 45.6598 12.2106 45.6972 12.2844C45.7373 12.3619 45.7036 12.453 45.6298 12.4903C45.6061 12.5003 45.586 12.5076 45.5623 12.5076C45.5049 12.5076 45.4512 12.4776 45.4238 12.4202V12.4193ZM34.3164 12.2443C34.2426 12.2042 34.2152 12.1131 34.2553 12.0384C34.2954 11.9646 34.3865 11.9373 34.4612 11.9774C34.535 12.0174 34.5624 12.1086 34.5223 12.1833C34.495 12.2343 34.4412 12.2644 34.3874 12.2644C34.3638 12.2644 34.3401 12.258 34.3164 12.2443ZM44.9728 11.6512C44.9255 11.5801 44.9428 11.4863 45.0129 11.4389C45.0804 11.3888 45.1751 11.4088 45.2252 11.4762C45.2726 11.5473 45.2553 11.6412 45.1851 11.6885C45.1578 11.7086 45.1277 11.7159 45.0977 11.7159C45.0503 11.7159 45.0038 11.6958 44.9728 11.6521V11.6512ZM34.7947 11.4617C34.7273 11.4116 34.7136 11.3168 34.7646 11.2494C34.8157 11.182 34.9095 11.1683 34.9769 11.2193C35.048 11.2694 35.058 11.3642 35.007 11.4352V11.4316C34.9769 11.4717 34.9332 11.4926 34.8858 11.4926C34.8558 11.4926 34.822 11.4826 34.7947 11.4626V11.4617ZM44.4134 10.9533C44.356 10.8895 44.3597 10.7947 44.4234 10.7373C44.4845 10.6799 44.582 10.6836 44.6394 10.7437C44.6968 10.8075 44.6931 10.9022 44.6294 10.9596C44.6029 10.987 44.5619 10.9997 44.5246 10.9997C44.4845 10.9997 44.4435 10.9861 44.4134 10.9523V10.9533ZM35.3815 10.761C35.3213 10.7 35.3213 10.6025 35.3815 10.5423C35.4425 10.4849 35.54 10.4849 35.5974 10.546C35.6585 10.607 35.6585 10.7009 35.5974 10.7619C35.5673 10.792 35.53 10.8057 35.4899 10.8057C35.4498 10.8057 35.4125 10.7893 35.3824 10.7619L35.3815 10.761ZM43.7592 10.3428C43.6955 10.2891 43.6818 10.1943 43.7355 10.1269C43.7893 10.0631 43.8877 10.0531 43.9515 10.1032C44.0153 10.1569 44.0289 10.2553 43.9752 10.3191C43.9451 10.3565 43.9014 10.3765 43.8567 10.3765C43.823 10.3765 43.7893 10.3665 43.7592 10.3428ZM36.0621 10.1478C36.012 10.0804 36.0284 9.98292 36.0958 9.93554C36.1632 9.88543 36.258 9.89818 36.3081 9.96561C36.3582 10.033 36.3454 10.1305 36.278 10.1815C36.2507 10.2016 36.217 10.2089 36.1869 10.2089C36.1395 10.2089 36.0931 10.1888 36.0621 10.1487V10.1478ZM43.0249 9.8344C42.9511 9.79067 42.9274 9.69591 42.9711 9.62576C43.0148 9.55196 43.1096 9.52827 43.1798 9.572C43.2536 9.61573 43.2773 9.70685 43.2335 9.78065C43.2062 9.82803 43.1561 9.85445 43.1023 9.85445C43.075 9.85445 43.0486 9.84807 43.0249 9.8344ZM36.8274 9.64216C36.7873 9.56836 36.8138 9.4736 36.8885 9.43351C36.9623 9.39615 37.057 9.42349 37.0971 9.49729C37.1345 9.57109 37.1071 9.66585 37.0333 9.7032C37.0096 9.71687 36.986 9.72325 36.9623 9.72325C36.9049 9.72325 36.8548 9.69318 36.8274 9.64216ZM42.2231 9.43989V9.43624C42.1456 9.40618 42.1083 9.31507 42.1393 9.23762C42.173 9.16017 42.2604 9.12282 42.3415 9.1538C42.419 9.18751 42.4563 9.27498 42.4226 9.35242C42.3989 9.41347 42.3415 9.44991 42.2814 9.44991C42.2641 9.44991 42.244 9.44627 42.224 9.43989H42.2231ZM37.6565 9.25129C37.6265 9.1702 37.6666 9.08273 37.7477 9.0554C37.8287 9.02533 37.9126 9.06906 37.9435 9.14651C37.9709 9.2276 37.9299 9.31506 37.8497 9.3424C37.8324 9.34878 37.816 9.35242 37.7987 9.35242C37.7385 9.35242 37.6775 9.31233 37.6575 9.25129H37.6565ZM41.373 9.16382C41.2892 9.14377 41.2418 9.05904 41.2618 8.97886C41.2782 8.89777 41.363 8.84766 41.4441 8.86771C41.5279 8.88775 41.5789 8.96884 41.5589 9.05357C41.5425 9.121 41.4778 9.16838 41.4104 9.16838C41.3967 9.16838 41.3867 9.16837 41.373 9.16473V9.16382ZM38.5321 8.98524C38.5157 8.90415 38.5695 8.82306 38.6506 8.80666C38.7344 8.79026 38.8155 8.84401 38.8328 8.92784C38.8492 9.00893 38.7954 9.09002 38.7116 9.10642C38.7016 9.10642 38.6916 9.11006 38.6816 9.11006C38.6105 9.11006 38.5467 9.05904 38.533 8.98524H38.5321ZM40.4901 9.01531C40.4063 9.00893 40.3453 8.93422 40.3553 8.85039C40.3617 8.76657 40.4364 8.70188 40.5202 8.7119C40.604 8.71828 40.6651 8.79299 40.6587 8.87682C40.6487 8.95791 40.5849 9.01531 40.5065 9.01531H40.4901ZM39.4387 8.85039C39.4351 8.76657 39.4997 8.6955 39.5836 8.69186C39.6674 8.68821 39.7385 8.7529 39.7421 8.83673C39.7457 8.92055 39.682 8.99162 39.5972 8.99526H39.5909C39.5098 8.99526 39.4423 8.93513 39.4387 8.85039Z" fill="#1D8E7C"/>
<path d="M27.1713 21.0255C26.6301 21.0255 26.1509 21.297 25.8621 21.7107C25.7764 21.6961 25.688 21.687 25.5988 21.6843C25.9195 21.1485 26.5035 20.7886 27.1713 20.7886C27.8392 20.7886 28.4232 21.1485 28.7439 21.6843C28.6547 21.687 28.5663 21.6952 28.4806 21.7107C28.1918 21.297 27.7135 21.0255 27.1713 21.0255Z" fill="#1D8E7C"/>
<path d="M27.1714 21.4951C26.8425 21.4951 26.5473 21.6382 26.3404 21.8632C26.2657 21.8268 26.1883 21.7949 26.109 21.7694C26.3587 21.4587 26.7422 21.2582 27.1714 21.2582C27.6005 21.2582 27.9841 21.4578 28.2338 21.7694C28.1536 21.7949 28.077 21.8277 28.0023 21.8632C27.7964 21.6373 27.5003 21.4951 27.1714 21.4951Z" fill="#1D8E7C"/>
<path d="M27.1711 21.9651C27.0072 21.9651 26.8578 22.0261 26.7422 22.1254C26.6812 22.0735 26.6174 22.0243 26.5501 21.9806C26.7112 21.8249 26.9298 21.7283 27.1702 21.7283C27.4106 21.7283 27.63 21.8249 27.7903 21.9806C27.7229 22.0243 27.6592 22.0735 27.5982 22.1254C27.4834 22.0261 27.3332 21.9651 27.1702 21.9651H27.1711Z" fill="#1D8E7C"/>
<path d="M27.1714 22.4354C27.1286 22.4354 27.0894 22.4509 27.0575 22.4755C27.0129 22.4108 26.9628 22.3498 26.91 22.2916C26.982 22.2342 27.0721 22.1996 27.1705 22.1996C27.2688 22.1996 27.359 22.2351 27.4309 22.2916C27.3781 22.3498 27.3289 22.4108 27.2834 22.4755C27.2515 22.4509 27.2123 22.4354 27.1695 22.4354H27.1714Z" fill="#1D8E7C"/>
<path d="M30.5581 21.0255C30.0169 21.0255 29.5376 21.297 29.2488 21.7107C29.1632 21.6961 29.0748 21.687 28.9855 21.6843C29.3062 21.1485 29.8903 20.7886 30.5581 20.7886C31.226 20.7886 31.81 21.1485 32.1307 21.6843C32.0414 21.687 31.953 21.6952 31.8674 21.7107C31.5786 21.297 31.1002 21.0255 30.5581 21.0255Z" fill="#1D8E7C"/>
<path d="M30.5581 21.4951C30.2292 21.4951 29.934 21.6382 29.7271 21.8632C29.6524 21.8268 29.575 21.7949 29.4957 21.7694C29.7454 21.4587 30.1289 21.2582 30.5581 21.2582C30.9872 21.2582 31.3708 21.4578 31.6205 21.7694C31.5403 21.7949 31.4637 21.8277 31.389 21.8632C31.1831 21.6373 30.887 21.4951 30.5581 21.4951Z" fill="#1D8E7C"/>
<path d="M30.5576 21.9651C30.3937 21.9651 30.2444 22.0261 30.1297 22.1254C30.0686 22.0735 30.0049 22.0243 29.9375 21.9806C30.0987 21.8249 30.3172 21.7283 30.5576 21.7283C30.798 21.7283 31.0175 21.8249 31.1778 21.9806C31.1104 22.0243 31.0466 22.0735 30.9856 22.1254C30.8709 22.0261 30.7206 21.9651 30.5576 21.9651Z" fill="#1D8E7C"/>
<path d="M30.5579 22.4354C30.5151 22.4354 30.4759 22.4509 30.444 22.4755C30.3994 22.4108 30.3493 22.3498 30.2965 22.2916C30.3684 22.2342 30.4586 22.1996 30.5569 22.1996C30.6553 22.1996 30.7454 22.2351 30.8174 22.2916C30.7646 22.3498 30.7154 22.4108 30.6699 22.4755C30.638 22.4509 30.5988 22.4354 30.556 22.4354H30.5579Z" fill="#1D8E7C"/>
<path d="M25.4785 22.1641C24.9373 22.1641 24.458 22.4357 24.1692 22.8493C24.0836 22.8347 23.9952 22.8256 23.9059 22.8229C24.2266 22.2871 24.8106 21.9272 25.4785 21.9272C26.1463 21.9272 26.7304 22.2871 27.0511 22.8229C26.9618 22.8256 26.8734 22.8338 26.7878 22.8493C26.4989 22.4357 26.0206 22.1641 25.4785 22.1641Z" fill="#1D8E7C"/>
<path d="M25.4786 22.6345C25.1497 22.6345 24.8545 22.7775 24.6477 23.0026C24.5729 22.9661 24.4955 22.9342 24.4162 22.9087C24.6659 22.598 25.0495 22.3976 25.4786 22.3976C25.9077 22.3976 26.2913 22.5971 26.541 22.9087C26.4608 22.9342 26.3843 22.967 26.3095 23.0026C26.1036 22.7766 25.8075 22.6345 25.4786 22.6345Z" fill="#1D8E7C"/>
<path d="M25.4783 23.1047C25.3144 23.1047 25.1651 23.1657 25.0503 23.265C24.9893 23.2131 24.9256 23.1639 24.8582 23.1202C25.0194 22.9645 25.2379 22.868 25.4783 22.868C25.7187 22.868 25.9382 22.9645 26.0984 23.1202C26.031 23.1639 25.9673 23.2131 25.9063 23.265C25.7916 23.1657 25.6413 23.1047 25.4783 23.1047Z" fill="#1D8E7C"/>
<path d="M25.4785 23.5746C25.4357 23.5746 25.3965 23.5901 25.3646 23.6147C25.32 23.55 25.2699 23.489 25.2171 23.4307C25.2891 23.3733 25.3792 23.3387 25.4776 23.3387C25.5759 23.3387 25.666 23.3743 25.738 23.4316C25.6852 23.4899 25.636 23.5509 25.5905 23.6156C25.5586 23.591 25.5194 23.5755 25.4766 23.5755L25.4785 23.5746Z" fill="#1D8E7C"/>
<path d="M28.8653 22.1641C28.324 22.1641 27.8448 22.4357 27.556 22.8493C27.4703 22.8347 27.3819 22.8256 27.2927 22.8229C27.6134 22.2871 28.1974 21.9272 28.8653 21.9272C29.5331 21.9272 30.1171 22.2871 30.4378 22.8229C30.3486 22.8256 30.2602 22.8338 30.1745 22.8493C29.8857 22.4357 29.4074 22.1641 28.8653 22.1641Z" fill="#1D8E7C"/>
<path d="M28.8654 22.6345C28.5364 22.6345 28.2412 22.7775 28.0344 23.0026C27.9597 22.9661 27.8823 22.9342 27.803 22.9087C28.0526 22.598 28.4362 22.3976 28.8654 22.3976C29.2945 22.3976 29.6781 22.5971 29.9277 22.9087C29.8475 22.9342 29.771 22.967 29.6963 23.0026C29.4904 22.7766 29.1943 22.6345 28.8654 22.6345Z" fill="#1D8E7C"/>
<path d="M28.8649 23.1047C28.701 23.1047 28.5517 23.1657 28.4369 23.265C28.3759 23.2131 28.3122 23.1639 28.2448 23.1202C28.406 22.9645 28.6245 22.868 28.8649 22.868C29.1053 22.868 29.3248 22.9645 29.485 23.1202C29.4176 23.1639 29.3539 23.2131 29.2929 23.265C29.1782 23.1657 29.0279 23.1047 28.8649 23.1047Z" fill="#1D8E7C"/>
<path d="M28.865 23.5746C28.8222 23.5746 28.7831 23.5901 28.7512 23.6147C28.7066 23.55 28.6565 23.489 28.6037 23.4307C28.6756 23.3733 28.7658 23.3387 28.8641 23.3387C28.9625 23.3387 29.0526 23.3743 29.1246 23.4316C29.0717 23.4899 29.0226 23.5509 28.977 23.6156C28.9452 23.591 28.906 23.5755 28.8632 23.5755L28.865 23.5746Z" fill="#1D8E7C"/>
<path d="M16.3764 4.82495C16.8338 5.71512 17.1891 6.68364 17.1991 7.68496C17.2092 8.68628 16.8329 9.72587 16.0457 10.3445C15.5536 10.7308 14.3974 11.1499 13.818 10.6989C13.2922 10.2908 13.5966 9.22749 13.7259 8.67899C14.0913 7.12735 15.0416 5.70692 16.3755 4.82495H16.3764Z" fill="#1D8E7C"/>
<path d="M12.6245 7.01403C11.9065 6.28422 10.8669 5.96624 9.85377 5.82137C8.78229 5.66739 7.67619 5.70384 6.65665 5.33665C6.22933 5.18267 4.41802 4.5212 4.42896 3.91986C4.4162 4.60047 4.83441 5.23096 5.37379 5.64643C6.14642 6.24048 7.1031 6.32431 7.90033 6.85185C8.71487 7.39123 9.33808 8.23311 9.56586 9.18796C9.63328 9.4695 9.68066 9.78019 9.89386 9.97608C10.0588 10.1273 10.292 10.1765 10.5152 10.202C11.3325 10.2941 12.8067 10.1793 13.3005 9.38385C13.7488 8.66133 13.1393 7.53974 12.6245 7.01585V7.01403Z" fill="white"/>
<path d="M4.72053 9.05078C3.8003 8.99702 2.86275 9.01889 2.00265 8.75193C1.12889 8.4795 0.29248 7.8891 0.0118547 7.01807C-0.091102 8.17428 0.483816 9.36603 1.45416 10.0038C2.46186 10.6662 3.67638 10.7537 4.6768 11.3723C5.25536 11.7295 5.71547 12.36 5.67447 13.0388C6.75142 12.278 7.73816 11.3896 8.60737 10.3983C7.81925 9.75781 6.8398 9.38607 5.84394 9.18471C5.47676 9.11091 5.09956 9.07538 4.71962 9.0526L4.72053 9.05078Z" fill="white"/>
<path d="M17.05 11.0811C17.05 11.0811 11.4403 7.34734 8.04086 9.54679C4.64147 11.7462 3.40782 15.7934 2.81194 21.8123C2.81194 21.8123 4.47292 23.6017 6.59491 23.5088L8.17844 21.8059C8.17844 21.8059 10.2768 22.6952 12.6256 19.5145C14.9754 16.3337 17.05 11.0802 17.05 11.0802V11.0811Z" fill="white"/>
<path d="M8.85541 14.3015L7.38122 17.8284C7.38122 17.8284 10.6421 17.6188 8.85541 14.3015Z" fill="#1D8E7C"/>
<path d="M4.81241 22.1399C5.36729 22.354 5.86202 22.3859 5.92762 22.2155C5.99323 22.0452 5.60327 21.7427 5.04839 21.5286C4.4999 21.3172 4.00152 21.2762 3.93592 21.4466C3.87031 21.6169 4.26392 21.9285 4.81241 22.1399Z" fill="#1D8E7C"/>
<path d="M16.4065 4.87091C16.7335 5.81665 16.9486 6.82617 16.8174 7.81839C16.6862 8.8106 16.1668 9.78732 15.3004 10.2884C14.7582 10.6019 13.5556 10.8524 13.0453 10.3249C12.5825 9.84654 13.0344 8.83702 13.2394 8.31221C13.8207 6.828 14.9614 5.55607 16.4065 4.87091Z" fill="white"/>
<mask id="mask0_2_449" style="mask-type:luminance" maskUnits="userSpaceOnUse" x="11" y="0" width="38" height="36">
<path d="M48.3374 16.5966C48.3994 17.597 48.3994 19.2771 47.8272 20.5773C47.2204 22.2993 45.4683 27.6439 46.5024 29.5956C46.5024 29.5956 43.011 32.4538 42.735 35.1397H39.4258C39.4258 35.1397 39.7766 31.6757 41.7136 29.5628L40.4198 28.269C40.4198 28.269 38.5156 26.2272 36.1667 26.2162C33.9964 26.2026 31.961 26.8804 29.8444 27.3515C28.075 27.7487 26.2583 28.0594 24.4898 27.7861C24.0115 27.7123 23.5358 27.5975 23.0712 27.4289C21.1296 26.7383 19.3374 25.7342 17.7329 24.4532C17.578 24.332 17.4395 24.1899 17.2783 24.0824C16.2378 23.3881 13.0233 20.1709 11.9136 19.8065C12.0831 19.3072 12.2197 18.797 12.3227 18.2804C12.412 17.8357 12.5869 17.2399 12.5067 16.7879C12.3637 15.977 12.1587 15.1971 12.1086 14.3616C12.0184 12.8546 12.3227 11.3768 13.0589 10.0557C20.3952 -0.249102 25.4355 -2.17612 35.0752 2.61546C41.0184 5.64312 48.2053 8.8457 48.3374 16.5966Z" fill="white"/>
</mask>
<g mask="url(#mask0_2_449)">
<path d="M36.5551 4.02221C35.9447 4.02221 35.4062 4.32835 35.0809 4.79393C34.9843 4.77753 34.885 4.76751 34.7839 4.76478C35.1447 4.16161 35.8025 3.75616 36.5551 3.75616C37.3077 3.75616 37.9655 4.16161 38.3263 4.76478C38.2252 4.76751 38.1259 4.77753 38.0293 4.79393C37.704 4.32835 37.1647 4.02221 36.5551 4.02221Z" fill="#1D8E7C"/>
<path d="M36.5549 4.55163C36.1841 4.55163 35.8516 4.71198 35.6192 4.96619C35.5345 4.92519 35.4479 4.88874 35.3577 4.8605C35.6393 4.50971 36.0711 4.28467 36.5549 4.28467C37.0387 4.28467 37.4697 4.50971 37.7522 4.8605C37.662 4.88965 37.5754 4.9261 37.4907 4.96619C37.2583 4.71198 36.9258 4.55163 36.5549 4.55163Z" fill="#1D8E7C"/>
<path d="M36.5546 5.08181C36.3698 5.08181 36.2013 5.1501 36.072 5.26211C36.0037 5.20292 35.9318 5.14828 35.8553 5.09911C36.0365 4.92337 36.2823 4.815 36.5546 4.815C36.8269 4.815 37.0727 4.92337 37.254 5.09911C37.1784 5.14919 37.1064 5.20383 37.0372 5.26211C36.9079 5.1501 36.7395 5.08181 36.5546 5.08181Z" fill="#1D8E7C"/>
<path d="M36.5548 5.61074C36.5065 5.61074 36.4628 5.62804 36.4273 5.65536C36.3772 5.58251 36.3208 5.51422 36.2616 5.44774C36.3426 5.384 36.4437 5.34393 36.5548 5.34393C36.6659 5.34393 36.767 5.384 36.848 5.44774C36.7888 5.51331 36.7324 5.58251 36.6823 5.65536C36.6468 5.62804 36.6031 5.61074 36.5548 5.61074Z" fill="#1D8E7C"/>
<path d="M40.3699 4.02221C39.7595 4.02221 39.221 4.32835 38.8957 4.79393C38.7991 4.77753 38.6998 4.76751 38.5987 4.76478C38.9595 4.16161 39.6173 3.75616 40.3699 3.75616C41.1225 3.75616 41.7803 4.16161 42.1411 4.76478C42.04 4.76751 41.9407 4.77753 41.8441 4.79393C41.5188 4.32835 40.9795 4.02221 40.3699 4.02221Z" fill="#1D8E7C"/>
<path d="M40.3699 4.55163C39.9991 4.55163 39.6665 4.71198 39.4342 4.96619C39.3495 4.92519 39.2629 4.88874 39.1727 4.8605C39.4543 4.50971 39.8861 4.28467 40.3699 4.28467C40.8537 4.28467 41.2847 4.50971 41.5671 4.8605C41.4769 4.88965 41.3904 4.9261 41.3057 4.96619C41.0733 4.71198 40.7408 4.55163 40.3699 4.55163Z" fill="#1D8E7C"/>
<path d="M40.3694 5.08181C40.1845 5.08181 40.0161 5.1501 39.8868 5.26211C39.8185 5.20292 39.7465 5.14828 39.67 5.09911C39.8513 4.92337 40.0971 4.815 40.3694 4.815C40.6417 4.815 40.8875 4.92337 41.0687 5.09911C40.9932 5.14919 40.9212 5.20383 40.852 5.26211C40.7227 5.1501 40.5542 5.08181 40.3694 5.08181Z" fill="#1D8E7C"/>
<path d="M40.3696 5.61074C40.3214 5.61074 40.2777 5.62804 40.2422 5.65536C40.1921 5.58251 40.1356 5.51422 40.0764 5.44774C40.1575 5.384 40.2585 5.34393 40.3696 5.34393C40.4807 5.34393 40.5818 5.384 40.6629 5.44774C40.6037 5.51331 40.5472 5.58251 40.4971 5.65536C40.4616 5.62804 40.4179 5.61074 40.3696 5.61074Z" fill="#1D8E7C"/>
<path d="M34.6481 5.3048C34.0376 5.3048 33.4992 5.61094 33.1739 6.07652C33.0773 6.06012 32.978 6.0501 32.8769 6.04737C33.2377 5.44421 33.8955 5.03876 34.6481 5.03876C35.4007 5.03876 36.0585 5.44421 36.4193 6.04737C36.3182 6.0501 36.2189 6.06012 36.1223 6.07652C35.797 5.61094 35.2576 5.3048 34.6481 5.3048Z" fill="#1D8E7C"/>
<path d="M34.6481 5.8344C34.2773 5.8344 33.9447 5.99476 33.7124 6.24896C33.6276 6.20796 33.5411 6.17243 33.4509 6.14327C33.7324 5.79249 34.1643 5.56744 34.6481 5.56744C35.1319 5.56744 35.5629 5.79249 35.8453 6.14327C35.7551 6.17243 35.6685 6.20887 35.5838 6.24896C35.3515 5.99476 35.0189 5.8344 34.6481 5.8344Z" fill="#1D8E7C"/>
<path d="M34.6476 6.36428C34.4628 6.36428 34.2943 6.43258 34.165 6.54458C34.0967 6.48539 34.0248 6.43075 33.9483 6.38158C34.1295 6.20584 34.3754 6.09747 34.6476 6.09747C34.9199 6.09747 35.1658 6.20584 35.347 6.38158C35.2714 6.43167 35.1995 6.4863 35.1303 6.54458C35.001 6.43258 34.8325 6.36428 34.6476 6.36428Z" fill="#1D8E7C"/>
<path d="M34.6479 6.89364C34.5996 6.89364 34.5559 6.91094 34.5204 6.93826C34.4703 6.86541 34.4139 6.79712 34.3547 6.73064C34.4357 6.6669 34.5368 6.62683 34.6479 6.62683C34.759 6.62683 34.8601 6.6669 34.9411 6.73064C34.8819 6.7962 34.8254 6.86541 34.7754 6.93826C34.7399 6.91094 34.6961 6.89364 34.6479 6.89364Z" fill="#1D8E7C"/>
<path d="M38.463 5.3048C37.8526 5.3048 37.3141 5.61094 36.9888 6.07652C36.8923 6.06012 36.7929 6.0501 36.6918 6.04737C37.0526 5.44421 37.7104 5.03876 38.463 5.03876C39.2156 5.03876 39.8734 5.44421 40.2342 6.04737C40.1331 6.0501 40.0338 6.06012 39.9372 6.07652C39.6119 5.61094 39.0726 5.3048 38.463 5.3048Z" fill="#1D8E7C"/>
<path d="M38.4629 5.8344C38.0921 5.8344 37.7595 5.99476 37.5272 6.24896C37.4425 6.20796 37.3559 6.17243 37.2657 6.14327C37.5472 5.79249 37.9791 5.56744 38.4629 5.56744C38.9467 5.56744 39.3777 5.79249 39.6601 6.14327C39.5699 6.17243 39.4834 6.20887 39.3986 6.24896C39.1663 5.99476 38.8337 5.8344 38.4629 5.8344Z" fill="#1D8E7C"/>
<path d="M38.4625 6.36428C38.2777 6.36428 38.1092 6.43258 37.9799 6.54458C37.9116 6.48539 37.8397 6.43075 37.7632 6.38158C37.9444 6.20584 38.1902 6.09747 38.4625 6.09747C38.7348 6.09747 38.9807 6.20584 39.1619 6.38158C39.0863 6.43167 39.0143 6.4863 38.9451 6.54458C38.8158 6.43258 38.6474 6.36428 38.4625 6.36428Z" fill="#1D8E7C"/>
<path d="M38.4627 6.89364C38.4144 6.89364 38.3707 6.91094 38.3352 6.93826C38.2851 6.86541 38.2287 6.79712 38.1695 6.73064C38.2505 6.6669 38.3516 6.62683 38.4627 6.62683C38.5738 6.62683 38.6749 6.6669 38.7559 6.73064C38.6967 6.7962 38.6403 6.86541 38.5902 6.93826C38.5547 6.91094 38.511 6.89364 38.4627 6.89364Z" fill="#1D8E7C"/>
<path d="M23.0712 9.79991C23.2543 9.99763 23.4247 10.2163 23.5486 10.4732C23.6734 10.7283 23.7463 11.0308 23.7163 11.3415C23.6908 11.6477 23.5504 11.9866 23.2644 12.2107C22.9938 12.4267 22.5956 12.5533 22.1865 12.4121L22.1036 12.3839C21.8968 12.3128 21.7865 12.0868 21.8576 11.88C21.9287 11.6732 22.1546 11.5629 22.3614 11.634C22.4097 11.6504 22.4525 11.6759 22.489 11.7069C22.5737 11.7789 22.7623 11.7934 22.9263 11.7133C23.0876 11.6422 23.2206 11.4764 23.2871 11.2632C23.3546 11.05 23.3555 10.8076 23.2953 10.5662C23.2361 10.3247 23.1231 10.0869 22.9883 9.86096C22.9737 9.83636 22.9819 9.80538 23.0056 9.7908C23.0266 9.77805 23.0539 9.7826 23.0694 9.79991H23.0712Z" fill="#1D8E7C"/>
<path d="M23.6079 9.43153C23.8456 9.37508 24.0577 9.40513 24.2544 9.46796C24.4493 9.53261 24.625 9.63642 24.7762 9.76846C24.9274 9.90049 25.0521 10.0617 25.1414 10.2465C25.2279 10.4332 25.2852 10.6399 25.2588 10.883C25.0221 10.822 24.85 10.7373 24.6906 10.6472C24.534 10.5552 24.3956 10.456 24.269 10.344C24.1424 10.232 24.0259 10.1081 23.9148 9.96333C23.8055 9.81672 23.699 9.65645 23.6079 9.43062V9.43153Z" fill="#1D8E7C"/>
<path d="M24.458 12.3768C24.5719 11.883 24.5282 11.3081 24.295 10.7733C24.735 11.1577 25.0776 11.709 25.2252 12.354L25.2307 12.3777C25.2799 12.5909 25.1459 12.8041 24.9327 12.8524C24.7195 12.9016 24.5063 12.7677 24.458 12.5545C24.4444 12.4944 24.4453 12.4333 24.458 12.3768Z" fill="#1D8E7C"/>
<path d="M23.0129 4.32335C22.684 4.3516 22.4043 4.52744 22.2303 4.77891C22.2048 4.81627 22.1811 4.85544 22.1601 4.89553C22.1628 4.84633 22.1601 4.79805 22.1556 4.74976C22.1146 4.30695 21.7975 3.91972 21.3401 3.81312C20.7688 3.6801 20.1976 4.03544 20.0645 4.60671C20.0454 4.6878 20.0381 4.76889 20.0381 4.84907C20.0381 5.13243 20.152 5.39938 20.3452 5.59528C19.8759 5.41852 19.332 5.59528 19.0632 6.0399C18.7598 6.54193 18.9211 7.1952 19.4231 7.4977C19.7475 7.69359 20.1338 7.6945 20.449 7.53596C20.1356 7.92775 20.1356 8.49993 20.4764 8.89262C20.4937 8.91267 20.5119 8.93089 20.5301 8.9482C20.9201 9.33907 21.5515 9.36732 21.9742 9.00013L21.9861 8.98829C22.2631 8.74047 22.3797 8.37966 22.3278 8.03617C22.4726 8.25666 22.6913 8.40882 22.9355 8.47533C23.1569 8.53546 23.3992 8.52635 23.627 8.42977C24.1673 8.20199 24.4206 7.57879 24.1928 7.03849C24.0789 6.7688 23.8666 6.57291 23.6152 6.47086C23.5414 6.4408 23.4639 6.41802 23.3847 6.40435C23.453 6.38613 23.5177 6.35971 23.5796 6.32782C23.9559 6.1383 24.1983 5.73559 24.16 5.29005C24.1108 4.70511 23.596 4.27233 23.0111 4.32153L23.0129 4.32335ZM22.7861 5.89503C22.8088 5.9415 22.7933 5.99526 22.7496 6.0153C22.7068 6.03444 22.6558 6.01986 22.6366 5.98068C22.6202 5.93968 22.6257 5.89321 22.6658 5.86497C22.7041 5.83855 22.7651 5.84766 22.7861 5.89595V5.89503ZM22.7505 6.27771C22.7387 6.23579 22.766 6.19024 22.8116 6.17566C22.8562 6.16108 22.9045 6.19024 22.9182 6.24035C22.9346 6.29046 22.8999 6.33693 22.8517 6.34331C22.8052 6.34877 22.7651 6.31871 22.7505 6.27771ZM22.9437 6.60844C22.9373 6.66038 22.8936 6.695 22.8471 6.68771C22.8006 6.67951 22.7669 6.63851 22.7724 6.59478C22.7806 6.55195 22.8189 6.51642 22.8644 6.51551C22.9136 6.51551 22.9528 6.55651 22.9437 6.60844ZM22.4325 5.61168C22.4617 5.57432 22.5173 5.57159 22.5564 5.60621C22.5947 5.64083 22.5984 5.69368 22.561 5.72739C22.5273 5.75746 22.4708 5.7611 22.438 5.73194C22.4052 5.70279 22.4025 5.64903 22.4325 5.61168ZM22.2521 5.39392C22.2968 5.41943 22.3141 5.4741 22.2895 5.5151C22.2649 5.5561 22.2148 5.57068 22.1774 5.54881C22.1401 5.52603 22.1173 5.48503 22.1355 5.43947C22.1519 5.39665 22.2075 5.36841 22.253 5.39483L22.2521 5.39392ZM22.8599 6.96833C22.8453 7.01845 22.7915 7.03849 22.7478 7.01663C22.7068 6.99567 22.6895 6.94829 22.7004 6.90547C22.7141 6.86447 22.7624 6.84169 22.8079 6.85536C22.8535 6.86902 22.8772 6.92005 22.8599 6.96833ZM20.3889 4.92651C20.3561 4.54293 20.6404 4.20491 21.0239 4.17302C21.403 4.14022 21.7374 4.41811 21.7765 4.7944C21.6389 4.59669 21.403 4.47551 21.1451 4.49737C20.7615 4.53018 20.4773 4.86729 20.5101 5.25178C20.5101 5.25634 20.511 5.26089 20.5119 5.26454C20.4445 5.16796 20.3998 5.05225 20.3889 4.9256V4.92651ZM21.9715 5.38298C21.9606 5.42945 21.9159 5.46225 21.8722 5.45679C21.8294 5.45132 21.7966 5.4085 21.7993 5.36021C21.803 5.31283 21.8467 5.28003 21.8977 5.28641C21.9496 5.29369 21.9815 5.33652 21.9706 5.38298H21.9715ZM21.628 5.36112C21.6308 5.4085 21.597 5.4495 21.5542 5.45223C21.5105 5.45223 21.4686 5.4331 21.4576 5.38481C21.4467 5.34107 21.4777 5.28458 21.5296 5.28276C21.5815 5.27912 21.6253 5.31465 21.628 5.36203V5.36112ZM21.2909 5.43127C21.3073 5.47592 21.2891 5.52785 21.2508 5.5479C21.2116 5.56703 21.1606 5.54972 21.136 5.50872C21.1114 5.46772 21.1296 5.41578 21.177 5.39301C21.2235 5.37023 21.2754 5.38754 21.2909 5.43219V5.43127ZM20.9839 5.72192C20.9538 5.7529 20.9028 5.75472 20.8672 5.72192C20.8326 5.69003 20.8308 5.63172 20.8672 5.59528C20.9082 5.56339 20.9656 5.56885 20.9939 5.60621C21.023 5.64356 21.0185 5.6955 20.9839 5.72192ZM20.6385 5.88683C20.665 5.84219 20.7178 5.82761 20.7561 5.85586C20.7953 5.88319 20.8089 5.93603 20.7861 5.97339C20.7643 6.01075 20.7114 6.02441 20.6686 6.00528C20.6258 5.98524 20.6121 5.93239 20.6376 5.88775L20.6385 5.88683ZM21.3902 7.52776C21.4312 7.54234 21.4567 7.59154 21.4467 7.63801C21.4367 7.68448 21.3884 7.70816 21.3392 7.69176C21.29 7.67536 21.2654 7.62616 21.2827 7.58243C21.3009 7.5387 21.3492 7.5141 21.3902 7.52776ZM20.4973 6.2285C20.5137 6.1793 20.5638 6.15106 20.6094 6.16655C20.654 6.18113 20.6795 6.22668 20.665 6.26768C20.6595 6.31051 20.6176 6.34057 20.5702 6.3342C20.5228 6.32782 20.4909 6.28044 20.4973 6.22942V6.2285ZM20.7515 7.15603C20.7916 7.13052 20.8454 7.13689 20.8718 7.17152C20.8982 7.20614 20.8909 7.2608 20.8572 7.29361C20.8226 7.32641 20.7688 7.31912 20.7369 7.27812C20.7051 7.23712 20.7123 7.18245 20.7515 7.15603ZM20.5492 6.95922C20.5328 6.91002 20.5602 6.85809 20.6057 6.84533C20.6522 6.83167 20.6969 6.85536 20.7096 6.89727C20.7297 6.93645 20.7105 6.98474 20.6677 7.0066C20.6249 7.02756 20.572 7.0066 20.5492 6.96013V6.95922ZM20.9848 7.40932C21.0167 7.37105 21.0622 7.37196 21.1014 7.3911C21.1387 7.41296 21.1506 7.46399 21.1269 7.50499C21.1032 7.54599 21.0485 7.55874 21.0039 7.53232C20.9583 7.50772 20.9556 7.44303 20.9848 7.40841V7.40932ZM20.4736 6.59751C20.47 6.54558 20.5055 6.50458 20.5529 6.50549C20.6003 6.50549 20.6422 6.54284 20.6449 6.58566C20.6486 6.6294 20.6121 6.6704 20.5656 6.67769C20.5192 6.68498 20.4773 6.64944 20.4736 6.59751ZM20.1638 7.27174C20.1638 7.27174 20.173 7.27356 20.1766 7.27447C20.0636 7.30909 19.9397 7.31547 19.8167 7.28632C19.4413 7.19885 19.209 6.82438 19.2955 6.449C19.3821 6.07817 19.7493 5.84675 20.1201 5.92601C19.8896 5.99617 19.701 6.18295 19.6427 6.43442C19.5552 6.8098 19.7885 7.18427 20.1638 7.27174ZM21.884 8.56097C21.6854 8.8908 21.2563 8.99649 20.9265 8.79695C20.6003 8.60015 20.4937 8.18013 20.6841 7.85212C20.6795 8.09266 20.7989 8.32955 21.0203 8.46348C21.3501 8.66211 21.7784 8.55642 21.9779 8.22659C21.9806 8.22295 21.9815 8.21839 21.9843 8.21475C21.9824 8.33319 21.9506 8.45255 21.885 8.56097H21.884ZM21.7893 7.65988C21.7938 7.70725 21.7547 7.74825 21.7027 7.7519C21.6508 7.75554 21.6125 7.70452 21.6171 7.65988C21.6216 7.61068 21.6599 7.58425 21.7036 7.5797C21.7474 7.57605 21.7856 7.6125 21.7893 7.65896V7.65988ZM22.069 7.69541C22.0189 7.70908 21.9706 7.68265 21.9606 7.63619C21.9506 7.58972 21.977 7.54234 22.0189 7.53141C22.0608 7.51956 22.11 7.54781 22.1264 7.58972C22.1455 7.63619 22.1182 7.68174 22.069 7.69632V7.69541ZM21.9569 7.16332C21.7446 6.91822 21.3975 6.859 21.1205 6.9984C21.1397 6.97562 21.157 6.95102 21.1725 6.9246C21.3401 6.64671 21.2891 6.29866 21.0704 6.07817C21.0987 6.0891 21.1269 6.09822 21.157 6.1055C21.4731 6.1793 21.7884 6.0235 21.9305 5.74652C21.9296 5.77659 21.9296 5.80666 21.9314 5.83763C21.9588 6.16108 22.2048 6.41346 22.5118 6.46266C22.4826 6.47086 22.4544 6.47997 22.4262 6.49182C22.1273 6.61846 21.9633 6.93007 22.0107 7.23712C21.9943 7.21252 21.977 7.18792 21.956 7.16423L21.9569 7.16332ZM22.6749 7.28814C22.6403 7.32732 22.5847 7.33187 22.551 7.29907C22.5173 7.26627 22.5127 7.21343 22.5419 7.18063C22.5738 7.14965 22.623 7.14054 22.6612 7.16605C22.7013 7.19247 22.7122 7.25078 22.6749 7.28814ZM22.4025 7.5387C22.3624 7.57332 22.3041 7.55328 22.2813 7.51319C22.2576 7.47036 22.274 7.42572 22.3059 7.39656C22.3405 7.37014 22.3934 7.37834 22.4225 7.4157C22.4526 7.45305 22.4435 7.50772 22.4016 7.53961L22.4025 7.5387ZM23.7354 6.98747C23.9878 7.27903 23.9559 7.7191 23.6644 7.97057C23.3765 8.2193 22.9437 8.19106 22.6904 7.90952C22.9182 7.98879 23.1797 7.94779 23.3755 7.77832C23.6662 7.52685 23.6981 7.08587 23.4466 6.79522C23.4439 6.79158 23.4402 6.78884 23.4375 6.7852C23.5496 6.82347 23.6534 6.89089 23.7363 6.98656L23.7354 6.98747ZM23.7245 5.11329C23.873 5.46408 23.7118 5.8677 23.3655 6.02077C23.5113 5.82852 23.5532 5.56703 23.453 5.32832C23.3036 4.97389 22.8945 4.80716 22.54 4.95749C22.5355 4.95931 22.5318 4.96114 22.5282 4.96296C22.5993 4.86911 22.6959 4.79076 22.8125 4.74156C23.1669 4.59213 23.576 4.75796 23.7254 5.11329H23.7245Z" fill="#1D8E7C"/>
</g>
<path d="M23.6542 2.54416C23.3755 2.54416 23.1488 2.31833 23.1488 2.03877C23.1488 1.75922 23.3746 1.53339 23.6542 1.53339C23.9337 1.53339 24.1595 1.75922 24.1595 2.03877C24.1595 2.31833 23.9337 2.54416 23.6542 2.54416Z" fill="#1D8E7C"/>
<path d="M25.2569 1.96965C25.0128 1.96965 24.8152 1.77205 24.8152 1.52801C24.8152 1.28397 25.0128 1.08636 25.2569 1.08636C25.5009 1.08636 25.6985 1.28397 25.6985 1.52801C25.6985 1.77205 25.5009 1.96965 25.2569 1.96965Z" fill="#1D8E7C"/>
<path d="M26.9253 1.68639C26.7158 1.68639 26.5464 1.51702 26.5464 1.30758C26.5464 1.09814 26.7158 0.928772 26.9253 0.928772C27.1347 0.928772 27.3041 1.09814 27.3041 1.30758C27.3041 1.51702 27.1347 1.68639 26.9253 1.68639Z" fill="#1D8E7C"/>
<path d="M28.6089 1.68713C28.7834 1.68713 28.9249 1.54567 28.9249 1.37116C28.9249 1.19664 28.7834 1.05518 28.6089 1.05518C28.4344 1.05518 28.293 1.19664 28.293 1.37116C28.293 1.54567 28.4344 1.68713 28.6089 1.68713Z" fill="#1D8E7C"/>
<path d="M30.2583 1.96621C30.1189 1.96621 30.006 1.85329 30.006 1.71397C30.006 1.57465 30.1189 1.46173 30.2583 1.46173C30.3976 1.46173 30.5105 1.57465 30.5105 1.71397C30.5105 1.85329 30.3976 1.96621 30.2583 1.96621Z" fill="#1D8E7C"/>
<path d="M31.8263 2.51681C31.7216 2.51681 31.6369 2.43212 31.6369 2.32741C31.6369 2.22269 31.7216 2.138 31.8263 2.138C31.931 2.138 32.0157 2.22269 32.0157 2.32741C32.0157 2.43212 31.931 2.51681 31.8263 2.51681Z" fill="#1D8E7C"/>
<path d="M33.1766 3.26945C33.1074 3.26945 33.0509 3.213 33.0509 3.14379C33.0509 3.07458 33.1074 3.01813 33.1766 3.01813C33.2458 3.01813 33.3023 3.07458 33.3023 3.14379C33.3023 3.213 33.2458 3.26945 33.1766 3.26945Z" fill="#1D8E7C"/>
<path d="M10.7944 19.5914C10.7625 19.575 10.6068 19.4511 10.4383 19.3574C10.2726 19.2608 10.105 19.1989 10.105 19.1989C10.105 19.1989 10.279 19.239 10.4711 19.2508C10.6605 19.2654 10.8618 19.2481 10.8964 19.2526C10.9665 19.2599 11.0129 19.3564 10.981 19.463C10.9646 19.5149 10.9328 19.5568 10.8991 19.5805C10.8636 19.6032 10.8253 19.6078 10.7944 19.5923V19.5914Z" fill="#1D8E7C"/>
<path d="M10.4784 19.988C10.4575 19.9607 10.3682 19.7785 10.2589 19.6228C10.1533 19.4662 10.0276 19.3351 10.0276 19.3351C10.0276 19.3351 10.0623 19.3633 10.1187 19.4034C10.1752 19.4434 10.2526 19.4944 10.3345 19.5409C10.4984 19.6356 10.6887 19.7103 10.7179 19.7285C10.7771 19.7649 10.7771 19.8723 10.7015 19.9534C10.6268 20.0353 10.5203 20.0454 10.4784 19.9889V19.988Z" fill="#1D8E7C"/>
<path d="M10.0204 20.2086C10.0132 20.174 10.0122 19.971 9.9822 19.7852C9.95397 19.5949 9.89842 19.4246 9.89842 19.4246C9.89842 19.4246 9.91846 19.4656 9.95124 19.5257C9.98402 19.5858 10.0314 19.6641 10.086 19.7424C10.1935 19.9009 10.3319 20.0466 10.3501 20.0766C10.3883 20.1367 10.3419 20.2323 10.2381 20.2742C10.1343 20.3161 10.0341 20.2769 10.0204 20.2086Z" fill="#1D8E7C"/>
<path d="M9.51314 20.2087C9.52134 20.1759 9.60784 19.9919 9.66157 19.8089C9.71803 19.6286 9.74261 19.4483 9.74261 19.4483C9.74261 19.4483 9.74261 19.6286 9.77357 19.8171C9.8018 20.0038 9.86281 20.1977 9.86645 20.2323C9.87465 20.3006 9.79087 20.3698 9.68069 20.3607C9.57051 20.3534 9.49584 20.277 9.51314 20.2087Z" fill="#1D8E7C"/>
<path d="M9.05376 19.9885C9.07562 19.9612 9.23406 19.8337 9.36064 19.6944C9.49176 19.5541 9.59102 19.4048 9.59102 19.4048C9.59102 19.4048 9.57098 19.4458 9.54458 19.5086C9.51817 19.5714 9.4863 19.6579 9.45898 19.749C9.40161 19.932 9.37429 20.1305 9.36246 20.1633C9.33969 20.2307 9.23497 20.2535 9.13845 20.1979C9.04101 20.1433 9.01005 20.0404 9.05467 19.9876L9.05376 19.9885Z" fill="#1D8E7C"/>
<path d="M8.73772 19.591C8.7705 19.5755 8.96446 19.5309 9.14203 19.4581C9.3196 19.3888 9.47349 19.2969 9.47349 19.2969C9.47349 19.2969 9.33325 19.408 9.20486 19.5509C9.07555 19.6903 8.96355 19.8578 8.93805 19.8824C8.88888 19.9316 8.78507 19.9088 8.72133 19.8177C8.69037 19.7722 8.67762 19.7221 8.68035 19.6811C8.68491 19.6393 8.70494 19.6065 8.73681 19.5919L8.73772 19.591Z" fill="#1D8E7C"/>
<path d="M8.62375 19.0956C8.65835 19.0956 8.85778 19.1402 9.04627 19.1521C9.14006 19.1594 9.23294 19.1594 9.30215 19.1575C9.37136 19.1557 9.41598 19.1512 9.41598 19.1512C9.41598 19.1512 9.37227 19.1612 9.30579 19.1803C9.23932 19.1994 9.15099 19.2276 9.06357 19.2632C8.88692 19.3324 8.71026 19.4353 8.67839 19.4462C8.61282 19.4699 8.52905 19.4025 8.51266 19.2923C8.49445 19.1821 8.55546 19.0938 8.62375 19.0956Z" fill="#1D8E7C"/>
<path d="M8.73729 18.5999C8.76916 18.6163 8.92487 18.7401 9.09333 18.8339C9.25906 18.9304 9.42661 18.9924 9.42661 18.9924C9.42661 18.9924 9.25269 18.9523 9.06055 18.9405C8.87115 18.9259 8.6699 18.9432 8.6353 18.9386C8.56518 18.9314 8.51874 18.8348 8.55061 18.7283C8.567 18.6764 8.59888 18.6345 8.63257 18.6108C8.66808 18.5881 8.70633 18.5835 8.73729 18.599V18.5999Z" fill="#1D8E7C"/>
<path d="M9.05334 18.2027C9.07429 18.23 9.16353 18.4122 9.2728 18.5679C9.37843 18.7245 9.50409 18.8556 9.50409 18.8556C9.50409 18.8556 9.46949 18.8274 9.41303 18.7873C9.35657 18.7473 9.27917 18.6963 9.19722 18.6498C9.03331 18.5551 8.84299 18.4805 8.81385 18.4622C8.75467 18.4258 8.75467 18.3184 8.83025 18.2373C8.90491 18.1554 9.01146 18.1454 9.05334 18.2018V18.2027Z" fill="#1D8E7C"/>
<path d="M9.51267 17.9822C9.51996 18.0168 9.52087 18.2199 9.55092 18.4056C9.57915 18.5959 9.63469 18.7662 9.63469 18.7662C9.63469 18.7662 9.61466 18.7252 9.58188 18.6651C9.5491 18.605 9.50174 18.5267 9.44711 18.4484C9.33966 18.29 9.20125 18.1443 9.18303 18.1142C9.14479 18.0541 9.19123 17.9585 9.29504 17.9166C9.39885 17.8747 9.49901 17.9139 9.51267 17.9822Z" fill="#1D8E7C"/>
<path d="M10.0202 17.982C10.012 18.0148 9.92554 18.1987 9.87181 18.3817C9.81536 18.562 9.79077 18.7423 9.79077 18.7423C9.79077 18.7423 9.79077 18.562 9.75981 18.3735C9.73158 18.1869 9.67057 17.9929 9.66693 17.9583C9.65873 17.89 9.74251 17.8208 9.85269 17.8299C9.96287 17.8372 10.0375 17.9137 10.0202 17.982Z" fill="#1D8E7C"/>
<path d="M10.4785 18.2028C10.4566 18.2301 10.2982 18.3576 10.1716 18.4969C10.0405 18.6371 9.9412 18.7865 9.9412 18.7865C9.9412 18.7865 9.96123 18.7455 9.98764 18.6827C10.014 18.6198 10.0459 18.5333 10.0732 18.4423C10.1306 18.2592 10.1579 18.0607 10.1698 18.028C10.1925 17.9606 10.2972 17.9378 10.3938 17.9934C10.4912 18.048 10.5222 18.1509 10.4775 18.2037L10.4785 18.2028Z" fill="#1D8E7C"/>
<path d="M10.7946 18.6C10.7618 18.6155 10.5679 18.6601 10.3903 18.733C10.2128 18.8022 10.0589 18.8941 10.0589 18.8941C10.0589 18.8941 10.1991 18.783 10.3275 18.6401C10.4568 18.5008 10.5688 18.3332 10.5943 18.3086C10.6435 18.2594 10.7473 18.2822 10.811 18.3733C10.842 18.4188 10.8547 18.4689 10.852 18.5099C10.8474 18.5518 10.8274 18.5845 10.7955 18.5991L10.7946 18.6Z" fill="#1D8E7C"/>
<path d="M10.9084 19.0953C10.8738 19.0953 10.6744 19.0507 10.4859 19.0388C10.3921 19.0316 10.2992 19.0316 10.23 19.0334C10.1608 19.0352 10.1162 19.0398 10.1162 19.0398C10.1162 19.0398 10.1599 19.0297 10.2264 19.0106C10.2929 18.9915 10.3812 18.9633 10.4686 18.9278C10.6453 18.8585 10.8219 18.7556 10.8538 18.7447C10.9193 18.721 11.0031 18.7884 11.0195 18.8986C11.0377 19.0088 10.9767 19.0971 10.9084 19.0953Z" fill="#1D8E7C"/>
</g>
</svg>
