<svg width="39" height="41" viewBox="0 0 39 41" fill="none" xmlns="http://www.w3.org/2000/svg">
<g opacity="0.5">
<path d="M6.3669 4.57367C6.62147 4.91369 6.84081 5.30303 6.99585 5.74083C7.15176 6.17686 7.24073 6.66046 7.25042 7.15816C7.27508 8.15883 6.99408 9.18241 6.57743 10.1038L6.48758 10.3029C6.09295 11.1749 5.06674 11.5625 4.19379 11.1688C3.32172 10.7741 2.93413 9.74705 3.32788 8.87498C3.49349 8.50942 3.77008 8.2293 4.09953 8.05577C4.70821 7.73513 5.26758 7.33257 5.69216 6.76352C6.1185 6.20064 6.37395 5.43076 6.3669 4.57455V4.57367Z" fill="white"/>
<path d="M38.3656 15.1528C38.3365 15.1986 38.2811 15.2145 38.2291 15.2048C37.5288 15.0321 36.8611 14.6023 36.359 14.035C35.8507 13.4712 35.4825 12.8097 35.1733 12.1684L34.303 10.3115C34.0097 9.72486 33.7005 9.18136 33.3517 8.70833C32.6576 7.80279 31.6965 7.06286 30.6536 6.65237C30.1321 6.44713 29.5912 6.31675 29.0574 6.27447C28.9235 6.25862 28.7967 6.25862 28.6601 6.25509L28.2364 6.25862C27.9598 6.278 27.6859 6.29473 27.4252 6.35022C26.376 6.53609 25.5057 7.02762 24.7825 7.76139C24.0558 8.49163 23.5017 9.48791 23.0719 10.5767C22.2218 12.7692 21.8765 15.3307 21.8563 17.8095C21.8563 17.9496 21.843 18.0861 21.814 18.22C23.137 19.9042 23.9087 21.9311 23.9087 24.114C23.9087 29.9497 18.3865 33.7322 11.5897 33.4618C6.6735 33.2698 -7.62939e-06 29.9497 -7.62939e-06 24.114C-7.62939e-06 21.8202 0.902887 20.3147 1.47281 19.5977C1.47898 19.5845 1.49924 19.5651 1.52831 19.529C1.55473 19.4999 1.58733 19.4603 1.62608 19.4118C1.64899 19.3854 1.66837 19.3599 1.69479 19.3308C2.85491 17.9038 8.05471 10.9572 6.34757 2.90601C6.35374 2.93507 6.9589 3.06104 7.0047 3.07601C7.57991 3.261 8.13311 3.51733 8.65459 3.82035C10.478 4.88181 11.8821 6.53785 12.8238 8.41059C13.2572 9.27209 13.5981 10.1785 13.8623 11.1052C14.1363 12.0653 14.175 13.3294 14.9476 14.0535C15.3871 14.4657 16.0531 14.6093 16.6327 14.4437C17.0757 14.3169 17.4642 14.0165 17.717 13.6333C17.9742 13.2431 17.9875 12.6591 18.1125 12.2063C18.427 11.0673 18.841 9.95917 19.3669 8.90036C20.0646 7.49624 21.0053 6.1212 22.3355 5.02011C22.9935 4.47308 23.7528 4.00974 24.5676 3.69439C25.3824 3.37199 26.2421 3.19229 27.0798 3.14032C27.5035 3.10772 27.914 3.1271 28.3245 3.14648L28.927 3.21167C29.1323 3.24074 29.3437 3.27333 29.5463 3.32266C30.3673 3.49883 31.1424 3.8045 31.8559 4.19561C32.5633 4.59641 33.2116 5.08176 33.778 5.64552C34.0617 5.92564 34.3286 6.2225 34.5664 6.54138C34.8042 6.85761 35.0289 7.20908 35.2112 7.55438C35.5856 8.24851 35.8366 8.96554 36.026 9.65879C36.2251 10.3494 36.3652 11.0374 36.5114 11.6883C36.6611 12.3331 36.8276 12.9524 37.1007 13.5161C37.3746 14.0799 37.7781 14.5811 38.3321 14.9722C38.3912 15.011 38.407 15.0929 38.3647 15.151L38.3656 15.1528Z" fill="white"/>
<path d="M19.4664 21.5981C19.5598 21.1374 19.6417 20.6943 19.8611 20.2398C19.9113 20.1279 19.9562 20.017 20.0135 19.9095L20.2169 19.5941L20.4292 19.2885C20.5032 19.1898 20.5948 19.1052 20.6794 19.0163C21.3647 18.2984 22.2245 17.9178 23.0031 17.7461C23.7915 17.5734 24.535 17.5901 25.2423 17.68C25.9497 17.7778 26.6244 17.9522 27.2666 18.2323C28.5914 18.7934 29.6168 19.7677 30.2968 20.8881C30.635 21.4493 30.8905 22.0571 31.042 22.6701C31.1935 23.2656 31.2834 23.8338 31.6533 24.2645L31.656 24.2672C31.7 24.3183 31.6939 24.3958 31.6428 24.4398C31.5996 24.4768 31.5371 24.4786 31.4921 24.4469C30.9504 24.0619 30.6835 23.4207 30.4104 22.9124C30.1435 22.4024 29.8044 21.954 29.4159 21.5629C28.639 20.7842 27.6515 20.2601 26.6782 20.1174C25.6793 19.9571 24.5843 20.0786 23.8541 20.4547C23.4947 20.6459 23.2753 20.889 23.1996 21.1013C23.1212 21.3136 23.1282 21.525 23.1626 21.8227C23.2833 22.8542 22.5451 23.7889 21.5127 23.9095C20.4812 24.0302 19.5466 23.292 19.4259 22.2597C19.4021 22.0597 19.4109 21.8641 19.4479 21.6765L19.4647 21.5981H19.4664Z" fill="white"/>
<path d="M18.2553 18.7126C19.6831 16.6857 21.8281 15.4331 24.0866 15.0685C25.2194 14.8949 26.3937 14.9548 27.4595 15.2561C28.5315 15.5441 29.5093 16.0542 30.3567 16.7051C31.1953 17.3658 31.907 18.1832 32.403 19.102C32.8936 20.0102 33.1746 20.921 33.4732 21.7737C33.771 22.629 34.0784 23.4324 34.5875 24.1291C35.0817 24.8259 35.767 25.4152 36.6338 25.6152H36.6356C36.7016 25.631 36.7422 25.6962 36.7272 25.7623C36.714 25.8204 36.6611 25.8592 36.6039 25.8565C35.6358 25.8248 34.7135 25.3077 34.0167 24.6339C33.2979 23.9644 32.7712 23.1108 32.3096 22.3075C31.8454 21.4997 31.4155 20.714 30.8993 20.0903C30.3946 19.4746 29.7665 18.9954 29.0838 18.6422C28.395 18.3021 27.6559 18.0881 26.9275 18.0423C26.1972 17.985 25.5048 18.1004 24.8548 18.3347C23.5546 18.8166 22.4878 19.8472 22.0272 20.9633C21.5603 22.0952 20.2645 22.6352 19.1317 22.1683C17.9998 21.7014 17.4598 20.4057 17.9267 19.2729C17.9892 19.1214 18.0667 18.9795 18.1566 18.8501L18.2544 18.7118L18.2553 18.7126Z" fill="white"/>
<path d="M16.9753 17.5143C17.3039 16.6713 17.695 16.0609 18.1196 15.4936C18.5441 14.9325 19.0031 14.4304 19.4937 13.9662C20.4794 13.0457 21.614 12.2837 22.8974 11.7358C23.5387 11.4654 24.2187 11.2504 24.927 11.128C25.6361 11.0073 26.3716 10.9809 27.093 11.0531C28.5482 11.1835 29.896 11.7807 30.968 12.5533C31.2437 12.7418 31.4877 12.9576 31.7388 13.1637L32.0876 13.4949L32.2602 13.6605L32.4399 13.8525C32.9156 14.3696 33.2803 14.9228 33.5771 15.469C34.1665 16.5674 34.5373 17.643 34.9258 18.6639C35.3072 19.6848 35.7018 20.66 36.3043 21.473C36.6021 21.8808 36.9579 22.2394 37.386 22.5212C37.8133 22.8014 38.3119 23.0031 38.8457 23.1176C38.9117 23.1317 38.954 23.1969 38.9399 23.2638C38.9285 23.3184 38.8818 23.3563 38.8289 23.3607C38.259 23.4039 37.6626 23.3387 37.091 23.1405C36.5201 22.9458 35.9749 22.6322 35.5089 22.2394C34.5787 21.443 33.8995 20.4477 33.2768 19.5042C32.6593 18.5555 32.0964 17.6165 31.4692 16.8616C31.16 16.4828 30.8332 16.1613 30.5003 15.9217L30.376 15.8319L30.2263 15.7359L29.9303 15.5447C29.7277 15.4355 29.5331 15.3104 29.3287 15.2223C27.6955 14.4366 26.1452 14.6242 24.7323 15.4927C24.0276 15.92 23.3704 16.5154 22.8208 17.1867C22.5433 17.5179 22.2923 17.8711 22.0888 18.2208C21.8879 18.5643 21.7347 18.929 21.6871 19.1272C21.37 20.4723 20.0231 21.3056 18.6789 20.9885C17.3338 20.6714 16.5005 19.3245 16.8176 17.9803C16.844 17.8702 16.8766 17.7628 16.9163 17.6597L16.9727 17.5152L16.9753 17.5143Z" fill="white"/>
<path d="M38.8069 20.5755C38.4678 20.5297 38.1207 20.4451 37.793 20.2998C37.4706 20.1483 37.1588 19.9606 36.8769 19.7351C36.3175 19.2815 35.8507 18.73 35.456 18.1584C35.05 17.5884 34.7108 16.9938 34.3849 16.4081L33.4441 14.6815C33.1349 14.124 32.8152 13.591 32.4857 13.1118C32.1554 12.6318 31.796 12.2151 31.4234 11.9156C30.6562 11.2576 29.7251 10.8806 28.7693 10.826C27.8215 10.7669 26.8111 10.9924 25.9567 11.469C25.1022 11.9411 24.3491 12.6282 23.6999 13.4809C22.3927 15.1933 21.5083 17.4352 20.7807 19.7545C20.3808 21.0318 19.0207 21.7426 17.7434 21.3427C16.4662 20.9428 15.7553 19.5827 16.1552 18.3055C16.1596 18.2905 16.1684 18.2641 16.1737 18.2491C16.6247 16.9243 17.17 15.6065 17.8623 14.3248C18.5485 13.0431 19.3898 11.7914 20.453 10.6586C21.5215 9.539 22.8455 8.52776 24.3976 7.94374C25.1666 7.64336 25.9717 7.4619 26.7865 7.36852C27.6031 7.27603 28.4434 7.30246 29.2617 7.4663C30.9037 7.77461 32.4276 8.65196 33.5005 9.85964C34.0511 10.4921 34.4395 11.166 34.7531 11.8258C35.0729 12.4855 35.301 13.1444 35.5124 13.7892C35.9388 15.0753 36.2409 16.3314 36.6822 17.4986C37.1271 18.6472 37.6996 19.7686 38.8739 20.3429L38.8783 20.3447C38.939 20.3746 38.9646 20.4478 38.9346 20.5094C38.9109 20.5579 38.8589 20.5843 38.8078 20.5772L38.8069 20.5755Z" fill="white"/>
<path d="M6.24099 3.86029L3.52525 5.08999L7.25135 6.25539L7.91905 4.5738L6.24099 3.86029Z" fill="white"/>
<path d="M5.61905 0.916479C5.80844 0.461067 6.18193 0.0153475 6.67522 0.00037263C7.16674 -0.0146022 7.57812 0.424075 7.70232 0.899747C7.8274 1.37542 7.73403 1.87751 7.63978 2.36023C7.72082 2.07571 7.80538 1.78414 7.98596 1.54983C8.16654 1.3164 8.46868 1.1508 8.75672 1.21862C9.07824 1.29438 9.27997 1.63704 9.30023 1.96737C9.32049 2.29769 9.20069 2.61833 9.08265 2.92663C9.2509 2.45361 9.93445 2.2651 10.3212 2.58574C10.7079 2.90638 10.6497 3.61284 10.2163 3.86565C10.4736 3.63927 10.9263 3.78373 11.0734 4.09292C11.2205 4.4021 11.1025 4.78968 10.8638 5.03457C10.6242 5.27945 10.2877 5.40454 9.95384 5.47765C8.08286 5.88461 5.96523 4.71745 5.4878 2.82886C5.32836 2.19991 5.37064 1.51812 5.62081 0.917361L5.61905 0.916479Z" fill="white"/>
<path d="M4.33915 30.835C6.82057 33.711 15.262 33.2803 16.4864 37.2918C18.0227 34.2378 18.7529 32.9473 20.7305 30.739C19.3405 31.3247 16.0891 32.1298 14.589 32.2981C11.7332 32.6179 7.19671 31.1353 4.33915 30.835Z" fill="white"/>
<path d="M18.76 31.093L14.7671 40.0317L15.2119 40.2304L19.2048 31.2916L18.76 31.093Z" fill="white"/>
<path d="M11.5738 39.5162C11.9746 39.6316 12.3754 39.6985 12.7761 39.7514C13.1769 39.8034 13.5777 39.8368 13.9785 39.8544C14.3793 39.8712 14.7801 39.8738 15.1809 39.85C15.5817 39.8298 15.9825 39.7901 16.3833 39.7003C16.6194 39.6474 16.8537 39.7954 16.9066 40.0324C16.9594 40.2685 16.8114 40.5028 16.5745 40.5556C16.5102 40.5697 16.4432 40.5688 16.3825 40.5556C15.9817 40.4658 15.5809 40.4261 15.1801 40.4059C14.7793 40.3821 14.3785 40.3839 13.9777 40.4015C13.5769 40.4191 13.1761 40.4526 12.7753 40.5045C12.3745 40.5565 11.9737 40.6243 11.5729 40.7397C11.2355 40.8366 10.8832 40.6411 10.7863 40.3037C10.6894 39.9663 10.8849 39.614 11.2223 39.5171C11.3403 39.4827 11.4628 39.4862 11.5729 39.5171L11.5738 39.5162Z" fill="white"/>
<path d="M5.42176 21.6107C5.40326 21.8283 5.39182 22.0485 5.39182 22.2705C5.39182 26.5956 8.8977 30.1015 13.2228 30.1015C15.3184 30.1015 17.2202 29.277 18.6252 27.9363C17.2678 28.8603 15.6293 29.4003 13.8641 29.4003C9.41476 29.4003 5.76883 25.9702 5.42088 21.6099L5.42176 21.6107Z" fill="#0D808A"/>
<path d="M7.32356 12.2557C7.18614 12.3385 7.08837 12.4618 7.03464 12.601C6.8708 12.4398 6.63031 12.3631 6.38895 12.4195C6.01546 12.5076 5.78291 12.882 5.871 13.2554C5.90711 13.4114 5.99433 13.5426 6.10972 13.6369C5.90536 13.7434 5.75825 13.9478 5.73798 14.1945C5.70627 14.5776 5.98992 14.9132 6.3731 14.9458C6.53254 14.9591 6.68405 14.9168 6.80913 14.8357C6.84789 15.063 6.99676 15.2665 7.2249 15.3616C7.57901 15.5105 7.98598 15.3449 8.13485 14.9908C8.19739 14.8428 8.20356 14.686 8.16568 14.5415C8.39383 14.575 8.63255 14.4957 8.79463 14.309C9.04568 14.0183 9.01308 13.5787 8.72239 13.3286C8.60083 13.2237 8.45372 13.1691 8.30486 13.1603C8.40704 12.9542 8.40616 12.7014 8.27755 12.4908C8.07848 12.1623 7.65125 12.0575 7.32269 12.2557H7.32356ZM7.77633 13.0599C7.82478 13.1392 7.83095 13.2378 7.79484 13.3242C7.79219 13.3294 7.78954 13.3356 7.7869 13.3409L7.71995 13.4757L7.87059 13.4836C7.93666 13.4871 7.99655 13.5118 8.04588 13.5541C8.1419 13.6369 8.17361 13.7716 8.12428 13.8888C8.11195 13.917 8.09609 13.9425 8.07583 13.9663C8.01065 14.0421 7.91111 14.0791 7.81157 14.0641L7.6627 14.0421L7.70146 14.1874C7.71819 14.2508 7.71379 14.3151 7.68824 14.3759C7.65829 14.4481 7.60192 14.5036 7.52969 14.5336C7.45746 14.5627 7.37818 14.5627 7.30595 14.5327C7.21345 14.494 7.14827 14.4111 7.13153 14.3116L7.10599 14.1627L6.97915 14.2447C6.92453 14.2799 6.8611 14.2966 6.79592 14.2905C6.6356 14.2773 6.51581 14.1354 6.52902 13.9751C6.53166 13.9452 6.53871 13.9152 6.55104 13.887C6.57747 13.8245 6.62503 13.7725 6.68581 13.7417L6.81882 13.6721L6.70167 13.577C6.65058 13.5356 6.61534 13.4801 6.60125 13.4175C6.58715 13.3567 6.59244 13.2942 6.61623 13.2378C6.65234 13.1515 6.72809 13.0872 6.81882 13.0669C6.9166 13.044 7.0179 13.0722 7.09014 13.1436L7.1976 13.2493L7.25221 13.1083L7.25574 13.0995C7.27952 13.0423 7.32092 12.9947 7.37378 12.963C7.44072 12.9225 7.51912 12.9101 7.59488 12.9286C7.67063 12.9471 7.73405 12.9947 7.77457 13.0616L7.77633 13.0599Z" fill="#0D808A"/>
<path d="M7.40724 13.4776C7.51559 13.5234 7.56669 13.6485 7.52088 13.7569C7.47508 13.8652 7.34999 13.9163 7.24164 13.8705C7.13329 13.8247 7.0822 13.6996 7.128 13.5913C7.17381 13.4829 7.2989 13.4318 7.40724 13.4776Z" fill="#0D808A"/>
<path d="M10.1442 25.6504C11.8337 26.7286 13.9169 27.1743 15.8998 26.8819C14.7837 27.2527 13.6051 27.4817 12.4335 27.3866C11.262 27.2915 10.094 26.8493 9.25888 26.0221C8.48283 25.2531 8.22562 24.2974 7.81777 23.3469C8.20095 24.2798 9.31085 25.1192 10.1442 25.6513V25.6504Z" fill="#0D808A"/>
<path d="M10.4551 23.7336C10.6189 24.2736 10.9651 24.7607 11.4381 25.0699C12.1983 25.5676 13.2474 25.5817 14.0208 25.1052C12.7031 25.3095 11.3104 24.7484 10.4551 23.7336Z" fill="#0D808A"/>
<path d="M4.70296 22.0377C4.67918 22.0377 4.65892 22.0184 4.65892 21.9937C4.65892 21.969 4.6783 21.9496 4.70296 21.9496C4.72763 21.9496 4.74701 21.969 4.74701 21.9937C4.74701 22.0184 4.72763 22.0377 4.70296 22.0377Z" fill="#0D808A"/>
<path d="M4.63865 23.4967C4.55761 23.4967 4.49155 23.4306 4.49155 23.3496C4.49155 23.2685 4.55761 23.2025 4.63865 23.2025C4.71969 23.2025 4.78576 23.2685 4.78576 23.3496C4.78576 23.4306 4.71969 23.4967 4.63865 23.4967Z" fill="#0D808A"/>
<path d="M4.80951 24.919C4.68619 24.919 4.58576 24.8186 4.58576 24.6952C4.58576 24.5719 4.68619 24.4715 4.80951 24.4715C4.93283 24.4715 5.03324 24.5719 5.03324 24.6952C5.03324 24.8186 4.93283 24.919 4.80951 24.919Z" fill="#0D808A"/>
<path d="M5.20326 26.2694C5.05087 26.2694 4.92754 26.1461 4.92754 25.9937C4.92754 25.8413 5.05087 25.718 5.20326 25.718C5.35565 25.718 5.47897 25.8413 5.47897 25.9937C5.47897 26.1461 5.35565 26.2694 5.20326 26.2694Z" fill="#0D808A"/>
<path d="M5.80671 27.5171C5.63758 27.5171 5.50017 27.3797 5.50017 27.2106C5.50017 27.0415 5.63758 26.9041 5.80671 26.9041C5.97584 26.9041 6.11325 27.0415 6.11325 27.2106C6.11325 27.3797 5.97584 27.5171 5.80671 27.5171Z" fill="#0D808A"/>
<path d="M6.60652 28.6275C6.42946 28.6275 6.28588 28.484 6.28588 28.3069C6.28588 28.1298 6.42946 27.9863 6.60652 27.9863C6.78358 27.9863 6.92715 28.1298 6.92715 28.3069C6.92715 28.484 6.78358 28.6275 6.60652 28.6275Z" fill="#0D808A"/>
<path d="M7.58783 29.565C7.41078 29.565 7.2672 29.4214 7.2672 29.2443C7.2672 29.0673 7.41078 28.9237 7.58783 28.9237C7.76489 28.9237 7.90847 29.0673 7.90847 29.2443C7.90847 29.4214 7.76489 29.565 7.58783 29.565Z" fill="#0D808A"/>
<path d="M8.71884 30.2989C8.54971 30.2989 8.4123 30.1615 8.4123 29.9924C8.4123 29.8233 8.54971 29.6859 8.71884 29.6859C8.88797 29.6859 9.02539 29.8233 9.02539 29.9924C9.02539 30.1615 8.88797 30.2989 8.71884 30.2989Z" fill="#0D808A"/>
<path d="M9.96087 30.813C9.80848 30.813 9.68516 30.6897 9.68516 30.5373C9.68516 30.3849 9.80848 30.2616 9.96087 30.2616C10.1133 30.2616 10.2366 30.3849 10.2366 30.5373C10.2366 30.6897 10.1133 30.813 9.96087 30.813Z" fill="#0D808A"/>
<path d="M11.2778 31.0949C11.1544 31.0949 11.054 30.9945 11.054 30.8711C11.054 30.7478 11.1544 30.6474 11.2778 30.6474C11.4011 30.6474 11.5015 30.7478 11.5015 30.8711C11.5015 30.9945 11.4011 31.0949 11.2778 31.0949Z" fill="#0D808A"/>
<path d="M12.63 31.1274C12.5489 31.1274 12.4828 31.0613 12.4828 30.9803C12.4828 30.8993 12.5489 30.8332 12.63 30.8332C12.711 30.8332 12.7771 30.8993 12.7771 30.9803C12.7771 31.0613 12.711 31.1274 12.63 31.1274Z" fill="#0D808A"/>
<path d="M13.9821 30.8975C13.9583 30.8975 13.9381 30.8781 13.9381 30.8534C13.9381 30.8288 13.9574 30.8094 13.9821 30.8094C14.0068 30.8094 14.0261 30.8288 14.0261 30.8534C14.0261 30.8781 14.0068 30.8975 13.9821 30.8975Z" fill="#0D808A"/>
<path d="M19.566 11.0806C19.7457 10.8181 19.9527 10.7019 20.1412 10.6728C20.335 10.6428 20.5349 10.686 20.6988 10.8005C20.8705 10.9194 20.9718 11.093 21.0899 11.2771C20.6283 10.9978 20.0866 10.9573 19.566 11.0815V11.0806Z" fill="#0D808A"/>
<path d="M19.802 10.0494C20.0266 9.82034 20.2107 9.72168 20.4037 9.71904C20.5957 9.71375 20.7798 9.78158 20.9172 9.91371C21.0625 10.052 21.1559 10.2432 21.2273 10.4387C20.8362 10.104 20.3217 9.99739 19.802 10.0502V10.0494Z" fill="#0D808A"/>
<path d="M20.1703 9.06587C20.2848 8.96281 20.4063 8.90027 20.5076 8.85887C20.6116 8.81835 20.7067 8.80513 20.7975 8.81394C20.9789 8.82892 21.1463 8.91524 21.2626 9.06323C21.3841 9.2165 21.4299 9.41029 21.4775 9.61554C21.3057 9.42439 21.1146 9.29137 20.8891 9.20241C20.6662 9.11344 20.4152 9.07028 20.1694 9.06587H20.1703Z" fill="#0D808A"/>
<path d="M20.6627 8.148C20.9216 7.97887 21.1172 7.92601 21.2951 7.96477C21.4695 8.00001 21.6175 8.10131 21.7065 8.25722C21.7928 8.4149 21.8289 8.62278 21.8404 8.82803C21.5788 8.41842 21.1427 8.2123 20.6627 8.148Z" fill="#0D808A"/>
<path d="M21.2546 7.29785C21.5339 7.16484 21.7329 7.13489 21.8933 7.18598C22.0545 7.23531 22.1831 7.34894 22.25 7.5119C22.3179 7.68015 22.3143 7.87923 22.2932 8.08095C22.1047 7.65725 21.7109 7.41325 21.2546 7.29785Z" fill="#0D808A"/>
<path d="M21.9496 6.53606C22.0906 6.48233 22.2077 6.44974 22.3117 6.44269C22.4174 6.4374 22.5046 6.45238 22.5795 6.48585C22.7301 6.55015 22.8393 6.67259 22.879 6.83556C22.9159 7.00028 22.886 7.19583 22.8446 7.39755C22.7151 6.95976 22.3698 6.68845 21.9496 6.53606Z" fill="#0D808A"/>
<path d="M22.723 5.85887C23.0173 5.78751 23.2084 5.79544 23.3432 5.87207C23.4788 5.94695 23.5678 6.07468 23.5854 6.23764C23.6022 6.40589 23.5449 6.59263 23.47 6.77585C23.4119 6.34599 23.1133 6.05001 22.723 5.85887Z" fill="#0D808A"/>
<path d="M23.5757 5.28814C23.8638 5.23441 24.0602 5.27757 24.1791 5.36302C24.3016 5.44934 24.3703 5.58059 24.3623 5.73651C24.3579 5.81667 24.3341 5.89859 24.298 5.98051C24.261 6.05979 24.2205 6.15492 24.1712 6.24125C24.1712 5.81402 23.9245 5.50395 23.5748 5.28814H23.5757Z" fill="#0D808A"/>
<path d="M24.4909 4.8274C24.7878 4.82035 24.9649 4.86352 25.0706 4.95777C25.1789 5.05555 25.2256 5.18503 25.1948 5.33214C25.163 5.48717 25.0565 5.64397 24.934 5.79636C25.001 5.39733 24.8036 5.07493 24.4909 4.8274Z" fill="#0D808A"/>
<path d="M25.4599 4.4916C25.6035 4.49513 25.7215 4.52772 25.8114 4.56032C25.9021 4.59467 25.9673 4.63695 26.0122 4.68892C26.1038 4.7911 26.1302 4.91971 26.0783 5.05448C26.0245 5.19807 25.8907 5.3117 25.7506 5.4544C25.8739 5.07739 25.7286 4.7541 25.4599 4.49072V4.4916Z" fill="#0D808A"/>
<path d="M26.465 4.29797C26.7495 4.36052 26.9054 4.43187 26.9794 4.54726C27.0551 4.65649 27.0631 4.77981 26.9908 4.89521C26.9151 5.01148 26.7689 5.13128 26.6068 5.23434C26.7865 4.90313 26.6905 4.5825 26.465 4.29797Z" fill="#0D808A"/>
<path d="M27.4815 4.24166C27.6172 4.2857 27.7202 4.34208 27.7977 4.39141C27.8753 4.4425 27.9255 4.49359 27.9545 4.54821C28.0144 4.65656 28.0065 4.77195 27.9193 4.87325C27.8735 4.92522 27.811 4.97102 27.737 5.01243C27.663 5.05559 27.5784 5.0873 27.4903 5.12958C27.6022 4.98424 27.6471 4.84242 27.6392 4.69091C27.6312 4.54292 27.5714 4.38349 27.4815 4.24078V4.24166Z" fill="#0D808A"/>
<path d="M28.4892 4.33325C28.7456 4.44953 28.8759 4.56052 28.92 4.67503C28.9667 4.78514 28.9455 4.89084 28.8469 4.97012C28.7456 5.04676 28.5738 5.10578 28.3879 5.15687C28.6496 4.92079 28.6328 4.62834 28.4901 4.33325H28.4892Z" fill="#0D808A"/>
<path d="M29.4723 4.54449C29.7075 4.69865 29.8255 4.81669 29.859 4.92239C29.8942 5.0281 29.8634 5.12235 29.7559 5.18577C29.6458 5.25008 29.4696 5.27651 29.2811 5.29148C29.5648 5.11619 29.578 4.84223 29.4723 4.54449Z" fill="#0D808A"/>
<path d="M30.4131 4.88272C30.635 5.04304 30.7346 5.18133 30.7575 5.2844C30.7821 5.38922 30.7425 5.47202 30.6333 5.51254C30.5769 5.53369 30.5047 5.54249 30.4245 5.54337C30.3435 5.54602 30.2492 5.54954 30.1541 5.54514C30.4553 5.41389 30.4915 5.16548 30.4131 4.88184V4.88272Z" fill="#0D808A"/>
<path d="M31.3045 5.32568C31.501 5.5186 31.5935 5.64984 31.6084 5.74762C31.6252 5.84628 31.5811 5.91675 31.4693 5.94053C31.3539 5.9652 31.1803 5.93965 30.9953 5.90089C31.2984 5.83042 31.3539 5.60404 31.3045 5.32568Z" fill="#0D808A"/>
<path d="M32.1316 5.87305C32.3149 6.07036 32.3809 6.22452 32.3906 6.31525C32.3985 6.41038 32.351 6.4694 32.2426 6.47204C32.129 6.47644 31.974 6.41214 31.789 6.35841C32.0946 6.33198 32.1607 6.1329 32.1316 5.87305Z" fill="#0D808A"/>
<path d="M32.8848 6.51489C33.0354 6.73952 33.1059 6.87605 33.1032 6.96766C33.1032 7.06015 33.0539 7.10684 32.9535 7.08922C32.8469 7.07248 32.6901 7.00025 32.5245 6.91129C32.8134 6.943 32.8901 6.76682 32.8848 6.51577V6.51489Z" fill="#0D808A"/>
<path d="M33.5516 7.24274C33.6212 7.35549 33.6556 7.45943 33.6838 7.53519C33.7102 7.6127 33.7208 7.66996 33.7181 7.71224C33.7137 7.79769 33.6653 7.83292 33.571 7.79945C33.5226 7.78183 33.4635 7.74836 33.4001 7.70432C33.3349 7.66116 33.2697 7.60301 33.1887 7.55104C33.3296 7.5854 33.4089 7.57483 33.4671 7.51581C33.5226 7.45855 33.5507 7.35637 33.5516 7.24274Z" fill="#0D808A"/>
<path d="M34.1101 8.05292C34.2105 8.29868 34.2493 8.44491 34.2317 8.52683C34.2193 8.60787 34.1744 8.63253 34.0942 8.58232C34.0167 8.52595 33.8881 8.41231 33.7586 8.27754C34.0009 8.40262 34.0837 8.2749 34.1101 8.05292Z" fill="#0D808A"/>
<path d="M22.4913 9.7415C22.6481 9.70978 22.7882 9.71243 22.9027 9.72917C23.0181 9.74767 23.1124 9.78466 23.1925 9.84016C23.3528 9.94939 23.4647 10.115 23.5026 10.3105C23.5422 10.5149 23.4929 10.7131 23.4453 10.9307C23.3141 10.4066 22.9529 10.0128 22.4913 9.7415Z" fill="#0D808A"/>
<path d="M23.3916 9.16406C23.7105 9.14204 23.9184 9.2037 24.0584 9.32878C24.1985 9.45035 24.283 9.61948 24.2883 9.8071C24.291 9.90488 24.2725 9.99825 24.2452 10.0969C24.2187 10.1973 24.1808 10.2969 24.1386 10.3946C24.0928 9.88374 23.8003 9.47149 23.3916 9.16319V9.16406Z" fill="#0D808A"/>
<path d="M24.3552 8.70911C24.6741 8.73289 24.8644 8.80336 24.9824 8.93549C25.1022 9.06674 25.1595 9.23411 25.1357 9.41028C25.1119 9.59615 25.0132 9.77937 24.8978 9.95202C24.934 9.46754 24.7085 9.04736 24.3543 8.70911H24.3552Z" fill="#0D808A"/>
<path d="M25.3674 8.38794C25.6766 8.44784 25.8554 8.54298 25.9514 8.67599C26.0492 8.80812 26.0809 8.97108 26.0324 9.13756C25.9813 9.30934 25.8545 9.46261 25.7153 9.61324C25.8246 9.16487 25.6642 8.74734 25.3674 8.38882V8.38794Z" fill="#0D808A"/>
<path d="M26.4094 8.2132C26.7037 8.29071 26.8684 8.41844 26.9441 8.54969C27.0225 8.68535 27.0305 8.83862 26.9591 8.98572C26.8842 9.13988 26.7354 9.25351 26.5759 9.39092C26.7486 8.97603 26.649 8.57524 26.4094 8.21408V8.2132Z" fill="#0D808A"/>
<path d="M27.4595 8.18079C27.7387 8.29354 27.8849 8.42038 27.9422 8.55868C28.0012 8.69433 27.9898 8.83704 27.899 8.96036C27.8048 9.0828 27.64 9.18586 27.463 9.2854C27.692 8.92865 27.6462 8.54723 27.4595 8.18079Z" fill="#0D808A"/>
<path d="M28.4998 8.28894C28.7587 8.44221 28.89 8.56466 28.9296 8.70031C28.971 8.83421 28.9429 8.96281 28.838 9.06059C28.7288 9.16453 28.5517 9.23941 28.3632 9.30019C28.6363 9.0095 28.6363 8.65362 28.4998 8.28894Z" fill="#0D808A"/>
<path d="M29.5093 8.53647C29.7444 8.71616 29.8572 8.85711 29.8836 8.98131C29.9109 9.1064 29.8704 9.21914 29.7541 9.29666C29.6343 9.37682 29.4529 9.41117 29.2582 9.43848C29.5612 9.2165 29.6 8.89058 29.5093 8.53558V8.53647Z" fill="#0D808A"/>
<path d="M30.4676 8.92358C30.6861 9.10857 30.7742 9.27153 30.7891 9.38692C30.8032 9.50672 30.753 9.60274 30.6332 9.65383C30.509 9.70668 30.3311 9.70052 30.1303 9.70668C30.4562 9.54196 30.5223 9.25479 30.4676 8.92358Z" fill="#0D808A"/>
<path d="M31.3626 9.42529C31.5546 9.63494 31.6286 9.79526 31.633 9.90273C31.6375 10.0137 31.582 10.093 31.4613 10.1203C31.3362 10.1485 31.1618 10.115 30.9671 10.0851C31.2983 9.99081 31.3846 9.73977 31.3617 9.42529H31.3626Z" fill="#0D808A"/>
<path d="M32.1783 10.0411C32.3395 10.2728 32.4056 10.4243 32.3976 10.5291C32.3932 10.633 32.3351 10.6965 32.2206 10.6982C32.1034 10.6965 31.9317 10.6445 31.7511 10.5758C32.0735 10.552 32.1721 10.3353 32.1783 10.0402V10.0411Z" fill="#0D808A"/>
<path d="M32.898 10.7555C33.0354 10.996 33.0812 11.1545 33.0733 11.247C33.0636 11.343 33.0081 11.3897 32.8997 11.3712C32.7852 11.3536 32.6372 11.2638 32.4655 11.1722C32.7738 11.2065 32.8751 11.0233 32.898 10.7555Z" fill="#0D808A"/>
<path d="M33.5181 11.5507C33.6282 11.8018 33.6643 11.9568 33.6494 12.044C33.6362 12.1321 33.5842 12.1665 33.4882 12.1277C33.3913 12.0854 33.2547 11.9779 33.1032 11.859C33.3816 11.9506 33.4802 11.7991 33.5181 11.5507Z" fill="#0D808A"/>
<path d="M34.0281 12.415C34.1092 12.6748 34.1356 12.8272 34.1189 12.9065C34.1021 12.9884 34.0563 13.0104 33.977 12.955C33.8916 12.8986 33.7788 12.7691 33.6502 12.6264C33.7744 12.6942 33.852 12.7013 33.9119 12.659C33.9691 12.6176 34.0087 12.526 34.0272 12.415H34.0281Z" fill="#0D808A"/>
<path d="M34.4201 13.3328C34.4791 13.5944 34.4844 13.7485 34.4703 13.8216C34.4545 13.8965 34.4175 13.9097 34.3532 13.841C34.288 13.7697 34.2025 13.6226 34.0959 13.4623C34.295 13.6428 34.3708 13.5407 34.4201 13.3328Z" fill="#0D808A"/>
<path d="M20.6371 14.6659C20.9445 14.5496 21.1577 14.5364 21.34 14.6139C21.5215 14.6888 21.666 14.8271 21.7444 15.0068C21.8254 15.1936 21.8377 15.4094 21.8298 15.6181C21.5911 15.1469 21.1524 14.835 20.6371 14.6659Z" fill="#0D808A"/>
<path d="M21.384 13.9154C21.6923 13.8334 21.9038 13.8475 22.0676 13.9418C22.2297 14.0316 22.3486 14.1796 22.3953 14.3628C22.4402 14.5478 22.4182 14.7592 22.3786 14.9645C22.2235 14.4791 21.85 14.1347 21.384 13.9154Z" fill="#0D808A"/>
<path d="M22.2183 13.2768C22.5257 13.2266 22.7336 13.2698 22.8754 13.3728C23.019 13.4741 23.1115 13.6274 23.1291 13.8071C23.1458 13.9912 23.0859 14.1841 23.0172 14.3823C22.9424 13.8978 22.6332 13.5331 22.2183 13.2768Z" fill="#0D808A"/>
<path d="M23.1229 12.7572C23.4286 12.7404 23.6268 12.8065 23.7484 12.9148C23.8726 13.0249 23.9404 13.1782 23.9307 13.3509C23.9219 13.5314 23.8294 13.7006 23.7334 13.8864C23.7334 13.4161 23.4859 13.0417 23.1229 12.7572Z" fill="#0D808A"/>
<path d="M24.0804 12.359C24.2311 12.3678 24.3544 12.3969 24.4504 12.4312C24.5464 12.4665 24.6178 12.5132 24.6706 12.5713C24.7772 12.6885 24.8204 12.8373 24.786 12.9985C24.7499 13.1668 24.6363 13.3227 24.5112 13.4821C24.5455 13.2601 24.52 13.0611 24.4416 12.8726C24.3649 12.6858 24.2346 12.5096 24.0804 12.359Z" fill="#0D808A"/>
<path d="M25.0793 12.0917C25.3753 12.1516 25.5418 12.23 25.6299 12.3569C25.718 12.4784 25.74 12.622 25.6819 12.7647C25.6211 12.9101 25.4881 13.0536 25.3401 13.184C25.4775 12.7859 25.3445 12.4159 25.0793 12.0926V12.0917Z" fill="#0D808A"/>
<path d="M26.1021 11.9627C26.3857 12.0464 26.5399 12.1495 26.6086 12.2745C26.679 12.3961 26.6808 12.5309 26.6024 12.6551C26.5214 12.7793 26.369 12.892 26.2034 12.9995C26.3972 12.6463 26.317 12.2922 26.1021 11.9636V11.9627Z" fill="#0D808A"/>
<path d="M27.1291 11.9758C27.3969 12.0859 27.5343 12.2119 27.5863 12.329C27.6401 12.4488 27.6242 12.5713 27.5299 12.6743C27.4322 12.78 27.2666 12.8523 27.0869 12.9342C27.3282 12.6338 27.2965 12.3017 27.1291 11.9749V11.9758Z" fill="#0D808A"/>
<path d="M28.1386 12.1313C28.387 12.2732 28.5077 12.4053 28.5465 12.5181C28.5852 12.6334 28.5562 12.7418 28.4513 12.8237C28.3412 12.91 28.1686 12.9462 27.9792 12.9964C28.2575 12.7577 28.2628 12.4511 28.1395 12.1313H28.1386Z" fill="#0D808A"/>
<path d="M29.1093 12.4194C29.3348 12.5921 29.4432 12.7216 29.4687 12.8317C29.4943 12.9453 29.4564 13.0378 29.3454 13.0933C29.2291 13.1532 29.0512 13.1691 28.8601 13.1787C29.1596 13.0096 29.1939 12.7321 29.1093 12.4203V12.4194Z" fill="#0D808A"/>
<path d="M30.0272 12.8343C30.2307 13.0272 30.3267 13.1576 30.3399 13.2668C30.3558 13.3734 30.3108 13.4518 30.199 13.4826C30.0845 13.5108 29.9048 13.5055 29.7163 13.4817C30.0254 13.376 30.0809 13.132 30.0272 12.8343Z" fill="#0D808A"/>
<path d="M30.8781 13.3615C31.0622 13.5659 31.1398 13.7086 31.1459 13.8081C31.1547 13.9068 31.1063 13.9702 30.9962 13.9799C30.8843 13.9861 30.7152 13.9447 30.5302 13.8962C30.8394 13.8504 30.9072 13.6399 30.8781 13.3624V13.3615Z" fill="#0D808A"/>
<path d="M31.6498 13.9902C31.8118 14.2069 31.87 14.3593 31.8735 14.4474C31.8762 14.539 31.8286 14.5875 31.7238 14.576C31.6145 14.5646 31.4639 14.487 31.2877 14.4131C31.5863 14.4263 31.6603 14.2475 31.6498 13.9911V13.9902Z" fill="#0D808A"/>
<path d="M32.3298 14.7126C32.4003 14.8263 32.4382 14.9276 32.469 15.0033C32.4972 15.08 32.5104 15.1372 32.5086 15.1786C32.5069 15.2632 32.462 15.2975 32.3668 15.2667C32.2664 15.2359 32.1334 15.1337 31.9748 15.0298C32.1158 15.0624 32.1977 15.0483 32.2523 14.9884C32.3069 14.9302 32.3298 14.8298 32.3298 14.7135V14.7126Z" fill="#0D808A"/>
<path d="M23.0763 17.5297C22.8966 17.5297 22.7503 17.3834 22.7503 17.2037C22.7503 17.024 22.8966 16.8778 23.0763 16.8778C23.2559 16.8778 23.4022 17.024 23.4022 17.2037C23.4022 17.3834 23.2559 17.5297 23.0763 17.5297Z" fill="#0D808A"/>
<path d="M23.9756 17.1346C23.8074 17.1346 23.6717 16.9981 23.6717 16.8307C23.6717 16.6633 23.8083 16.5268 23.9756 16.5268C24.143 16.5268 24.2795 16.6633 24.2795 16.8307C24.2795 16.9981 24.143 17.1346 23.9756 17.1346Z" fill="#0D808A"/>
<path d="M24.9252 16.9007C24.7693 16.9007 24.6433 16.7747 24.6433 16.6188C24.6433 16.4629 24.7693 16.3369 24.9252 16.3369C25.0811 16.3369 25.2071 16.4629 25.2071 16.6188C25.2071 16.7747 25.0811 16.9007 24.9252 16.9007Z" fill="#0D808A"/>
<path d="M25.8968 16.8144C25.7532 16.8144 25.6361 16.6982 25.6361 16.5537C25.6361 16.4092 25.7524 16.293 25.8968 16.293C26.0413 16.293 26.1576 16.4092 26.1576 16.5537C26.1576 16.6982 26.0413 16.8144 25.8968 16.8144Z" fill="#0D808A"/>
<path d="M26.8684 16.8672C26.7362 16.8672 26.6297 16.7606 26.6297 16.6285C26.6297 16.4964 26.7362 16.3898 26.8684 16.3898C27.0005 16.3898 27.1071 16.4964 27.1071 16.6285C27.1071 16.7606 27.0005 16.8672 26.8684 16.8672Z" fill="#0D808A"/>
<path d="M27.8197 17.0546C27.7 17.0546 27.6031 16.9577 27.6031 16.8379C27.6031 16.7181 27.7 16.6212 27.8197 16.6212C27.9395 16.6212 28.0364 16.7181 28.0364 16.8379C28.0364 16.9577 27.9395 17.0546 27.8197 17.0546Z" fill="#0D808A"/>
<path d="M28.7332 17.3693C28.6257 17.3693 28.5385 17.2821 28.5385 17.1747C28.5385 17.0672 28.6257 16.98 28.7332 16.98C28.8407 16.98 28.9279 17.0672 28.9279 17.1747C28.9279 17.2821 28.8407 17.3693 28.7332 17.3693Z" fill="#0D808A"/>
<path d="M29.5938 17.8054C29.4978 17.8054 29.4203 17.7279 29.4203 17.6319C29.4203 17.5359 29.4978 17.4584 29.5938 17.4584C29.6898 17.4584 29.7674 17.5359 29.7674 17.6319C29.7674 17.7279 29.6898 17.8054 29.5938 17.8054Z" fill="#0D808A"/>
<path d="M30.3858 18.3494C30.3021 18.3494 30.2342 18.2816 30.2342 18.1979C30.2342 18.1142 30.3021 18.0464 30.3858 18.0464C30.4694 18.0464 30.5373 18.1142 30.5373 18.1979C30.5373 18.2816 30.4694 18.3494 30.3858 18.3494Z" fill="#0D808A"/>
<path d="M31.101 18.9907C31.0297 18.9907 30.9715 18.9325 30.9715 18.8612C30.9715 18.7898 31.0297 18.7317 31.101 18.7317C31.1724 18.7317 31.2305 18.7898 31.2305 18.8612C31.2305 18.9325 31.1724 18.9907 31.101 18.9907Z" fill="#0D808A"/>
<path d="M31.7317 19.7116C31.6718 19.7116 31.6234 19.6632 31.6234 19.6033C31.6234 19.5434 31.6718 19.4949 31.7317 19.4949C31.7916 19.4949 31.8401 19.5434 31.8401 19.6033C31.8401 19.6632 31.7916 19.7116 31.7317 19.7116Z" fill="#0D808A"/>
<path d="M32.2805 20.5006C32.2329 20.5006 32.1942 20.4618 32.1942 20.4143C32.1942 20.3667 32.2329 20.3279 32.2805 20.3279C32.3281 20.3279 32.3668 20.3667 32.3668 20.4143C32.3668 20.4618 32.3281 20.5006 32.2805 20.5006Z" fill="#0D808A"/>
<path d="M23.0789 19.7069C23.2589 19.7069 23.4048 19.561 23.4048 19.381C23.4048 19.201 23.2589 19.0551 23.0789 19.0551C22.8989 19.0551 22.753 19.201 22.753 19.381C22.753 19.561 22.8989 19.7069 23.0789 19.7069Z" fill="#0D808A"/>
<path d="M24.0928 19.4126C23.9342 19.4126 23.8048 19.284 23.8048 19.1245C23.8048 18.9651 23.9334 18.8365 24.0928 18.8365C24.2522 18.8365 24.3808 18.9651 24.3808 19.1245C24.3808 19.284 24.2522 19.4126 24.0928 19.4126Z" fill="#0D808A"/>
<path d="M25.1366 19.3017C25.2743 19.3017 25.3859 19.1901 25.3859 19.0524C25.3859 18.9147 25.2743 18.8031 25.1366 18.8031C24.999 18.8031 24.8873 18.9147 24.8873 19.0524C24.8873 19.1901 24.999 19.3017 25.1366 19.3017Z" fill="#0D808A"/>
<path d="M26.1787 19.3478C26.0616 19.3478 25.9673 19.2526 25.9673 19.1363C25.9673 19.0201 26.0624 18.9249 26.1787 18.9249C26.295 18.9249 26.3901 19.0201 26.3901 19.1363C26.3901 19.2526 26.295 19.3478 26.1787 19.3478Z" fill="#0D808A"/>
<path d="M27.197 19.553C27.101 19.553 27.0235 19.4755 27.0235 19.3795C27.0235 19.2835 27.101 19.2059 27.197 19.2059C27.293 19.2059 27.3705 19.2835 27.3705 19.3795C27.3705 19.4755 27.293 19.553 27.197 19.553Z" fill="#0D808A"/>
<path d="M28.1545 19.9362C28.0796 19.9362 28.0188 19.8754 28.0188 19.8006C28.0188 19.7257 28.0796 19.6649 28.1545 19.6649C28.2294 19.6649 28.2902 19.7257 28.2902 19.8006C28.2902 19.8754 28.2294 19.9362 28.1545 19.9362Z" fill="#0D808A"/>
<path d="M29.0081 20.5121C28.9544 20.5121 28.9103 20.468 28.9103 20.4143C28.9103 20.3606 28.9544 20.3165 29.0081 20.3165C29.0618 20.3165 29.1059 20.3606 29.1059 20.4143C29.1059 20.468 29.0618 20.5121 29.0081 20.5121Z" fill="#0D808A"/>
<mask id="mask0_2_1212" style="mask-type:luminance" maskUnits="userSpaceOnUse" x="0" y="2" width="39" height="32">
<path d="M38.3656 15.1528C38.3365 15.1986 38.2811 15.2145 38.2291 15.2048C37.5288 15.0321 36.8611 14.6023 36.359 14.035C35.8507 13.4712 35.4825 12.8097 35.1733 12.1684L34.303 10.3115C34.0097 9.72486 33.7005 9.18136 33.3517 8.70833C32.6576 7.80279 31.6965 7.06286 30.6536 6.65237C30.1321 6.44713 29.5912 6.31675 29.0574 6.27447C28.9235 6.25862 28.7967 6.25862 28.6601 6.25509L28.2364 6.25862C27.9598 6.278 27.6859 6.29473 27.4252 6.35022C26.376 6.53609 25.5057 7.02762 24.7825 7.76139C24.0558 8.49163 23.5017 9.48791 23.0719 10.5767C22.2218 12.7692 21.8765 15.3307 21.8563 17.8095C21.8563 17.9496 21.843 18.0861 21.814 18.22C23.137 19.9042 23.9087 21.9311 23.9087 24.114C23.9087 29.9497 18.3865 33.7322 11.5897 33.4618C6.6735 33.2698 -7.62939e-06 29.9497 -7.62939e-06 24.114C-7.62939e-06 21.8202 0.902887 20.3147 1.47281 19.5977C1.47898 19.5845 1.49924 19.5651 1.52831 19.529C1.55473 19.4999 1.58733 19.4603 1.62608 19.4118C1.64899 19.3854 1.66837 19.3599 1.69479 19.3308C2.85491 17.9038 8.05471 10.9572 6.34757 2.90601C6.35374 2.93507 6.9589 3.06104 7.0047 3.07601C7.57991 3.261 8.13311 3.51733 8.65459 3.82035C10.478 4.88181 11.8821 6.53785 12.8238 8.41059C13.2572 9.27209 13.5981 10.1785 13.8623 11.1052C14.1363 12.0653 14.175 13.3294 14.9476 14.0535C15.3871 14.4657 16.0531 14.6093 16.6327 14.4437C17.0757 14.3169 17.4642 14.0165 17.717 13.6333C17.9742 13.2431 17.9875 12.6591 18.1125 12.2063C18.427 11.0673 18.841 9.95917 19.3669 8.90036C20.0646 7.49624 21.0053 6.1212 22.3355 5.02011C22.9935 4.47308 23.7528 4.00974 24.5676 3.69439C25.3824 3.37199 26.2421 3.19229 27.0798 3.14032C27.5035 3.10772 27.914 3.1271 28.3245 3.14648L28.927 3.21167C29.1323 3.24074 29.3437 3.27333 29.5463 3.32266C30.3673 3.49883 31.1424 3.8045 31.8559 4.19561C32.5633 4.59641 33.2116 5.08176 33.778 5.64552C34.0617 5.92564 34.3286 6.2225 34.5664 6.54138C34.8042 6.85761 35.0289 7.20908 35.2112 7.55438C35.5856 8.24851 35.8366 8.96554 36.026 9.65879C36.2251 10.3494 36.3652 11.0374 36.5114 11.6883C36.6611 12.3331 36.8276 12.9524 37.1007 13.5161C37.3746 14.0799 37.7781 14.5811 38.3321 14.9722C38.3912 15.011 38.407 15.0929 38.3647 15.151L38.3656 15.1528Z" fill="white"/>
</mask>
<g mask="url(#mask0_2_1212)">
<path d="M15.1713 8.17966C14.8401 8.04929 14.4851 8.08452 14.1961 8.24396C14.153 8.26775 14.1116 8.29418 14.0719 8.32324C14.0984 8.27656 14.1195 8.22899 14.138 8.18054C14.3115 7.73306 14.1909 7.20717 13.8006 6.88477C13.3126 6.48133 12.5903 6.55004 12.1877 7.03805C12.1305 7.10763 12.0847 7.18251 12.0459 7.25915C11.9103 7.5331 11.8909 7.84493 11.9843 8.12681C11.6152 7.73042 11.0056 7.63968 10.5326 7.94094C9.99877 8.28008 9.84109 8.9883 10.1802 9.52211C10.3996 9.86742 10.7722 10.0533 11.1527 10.0524C10.6612 10.2805 10.3864 10.8329 10.5273 11.3755C10.5343 11.4028 10.5431 11.4292 10.552 11.4548C10.7413 12.0194 11.3368 12.3497 11.9217 12.1991L11.9393 12.1929C12.326 12.0872 12.6123 11.7939 12.7268 11.4371C12.7612 11.719 12.8986 11.9709 13.103 12.1533C13.288 12.318 13.5258 12.4255 13.7927 12.4413C14.4243 12.481 14.9678 12.0009 15.0074 11.3693C15.0268 11.054 14.9158 10.7624 14.7229 10.543C14.6656 10.4787 14.6022 10.4188 14.5318 10.3686C14.6066 10.3836 14.6824 10.3898 14.7573 10.3889C15.2109 10.3863 15.6399 10.1141 15.8161 9.6657C16.0486 9.07727 15.7597 8.41221 15.1722 8.17878L15.1713 8.17966ZM14.197 9.58906C14.197 9.64456 14.1556 9.68948 14.1045 9.68772C14.0534 9.68596 14.012 9.6472 14.012 9.59963C14.0156 9.55206 14.0437 9.50978 14.0957 9.50185C14.145 9.49481 14.2005 9.53268 14.197 9.58906ZM13.9794 9.94141C13.9883 9.89561 14.0367 9.86478 14.0878 9.87271C14.138 9.88063 14.1706 9.93084 14.16 9.98634C14.1521 10.0427 14.0957 10.0709 14.0464 10.0542C13.9988 10.0374 13.9742 9.98898 13.9803 9.94229L13.9794 9.94141ZM14.0076 10.3537C13.9768 10.4003 13.9178 10.4136 13.8764 10.3836C13.835 10.3537 13.8227 10.2973 13.8491 10.2585C13.8781 10.2215 13.9319 10.2048 13.9759 10.2259C14.0235 10.2488 14.042 10.3087 14.0085 10.3537H14.0076ZM13.9918 9.1451C14.0376 9.12308 14.0931 9.14774 14.1133 9.19972C14.1336 9.25169 14.1116 9.30454 14.0605 9.31863C14.0138 9.33096 13.9574 9.30806 13.9398 9.26402C13.9222 9.21997 13.9451 9.16712 13.9918 9.1451ZM13.9222 8.84825C13.953 8.89493 13.9433 8.95571 13.9002 8.98302C13.857 9.01033 13.8015 9.00064 13.776 8.96188C13.7504 8.92224 13.7487 8.87115 13.7874 8.83591C13.8235 8.80244 13.8914 8.80156 13.9222 8.84913V8.84825ZM13.7531 10.6611C13.7152 10.7025 13.6535 10.6963 13.6218 10.6532C13.5927 10.6135 13.598 10.5589 13.6297 10.5228C13.6632 10.4893 13.7205 10.4911 13.7575 10.5263C13.7953 10.5607 13.7927 10.6214 13.7531 10.6611ZM12.3472 7.50227C12.5005 7.11644 12.9365 6.92618 13.3232 7.07945C13.7055 7.23008 13.894 7.65906 13.7513 8.04136C13.7134 7.78415 13.5434 7.55424 13.2844 7.45206C12.8977 7.29967 12.4617 7.48817 12.3084 7.87488C12.3067 7.87928 12.3049 7.88369 12.304 7.88809C12.2855 7.76213 12.2979 7.62911 12.3481 7.50227H12.3472ZM13.6562 8.7029C13.6236 8.74166 13.5645 8.75223 13.5249 8.72669C13.4862 8.70026 13.4756 8.64388 13.5011 8.59896C13.5267 8.55491 13.5857 8.54434 13.6324 8.57517C13.6791 8.60688 13.6896 8.66414 13.6562 8.7029ZM13.3355 8.51704C13.3153 8.56372 13.2633 8.5875 13.2201 8.56901C13.177 8.54875 13.147 8.50999 13.1593 8.45714C13.1699 8.40957 13.2263 8.36905 13.2783 8.39283C13.3302 8.41397 13.3558 8.46947 13.3355 8.51704ZM12.9761 8.42278C12.9708 8.47387 12.9286 8.51527 12.881 8.51527C12.8343 8.51527 12.7929 8.47299 12.7894 8.4219C12.7859 8.37081 12.8281 8.32941 12.8845 8.32941C12.94 8.32941 12.9814 8.37169 12.9761 8.4219V8.42278ZM12.5392 8.5558C12.4952 8.57165 12.445 8.54875 12.4265 8.5003C12.408 8.45273 12.4353 8.39548 12.4872 8.37786C12.5419 8.36641 12.5947 8.399 12.6044 8.44921C12.6141 8.49942 12.585 8.54787 12.5383 8.5558H12.5392ZM12.1278 8.54963C12.1745 8.5188 12.2327 8.53113 12.2564 8.57605C12.2811 8.62098 12.2688 8.67912 12.2291 8.70466C12.1895 8.73021 12.1323 8.71876 12.1005 8.67824C12.0688 8.63772 12.0812 8.58046 12.1278 8.54963ZM12.0644 10.4955C12.097 10.529 12.0979 10.5889 12.0653 10.6294C12.0336 10.669 11.9746 10.6699 11.9358 10.6294C11.8962 10.5897 11.8962 10.5298 11.9341 10.4964C11.9728 10.4629 12.0309 10.462 12.0635 10.4964L12.0644 10.4955ZM11.8266 8.81125C11.8662 8.77161 11.9279 8.76897 11.9649 8.80509C12.001 8.8412 12.0036 8.89669 11.9702 8.92929C11.9446 8.96893 11.8891 8.97686 11.8469 8.94779C11.8046 8.91872 11.7958 8.85705 11.8275 8.81125H11.8266ZM11.6266 9.82954C11.6777 9.82337 11.7262 9.85596 11.735 9.90177C11.7438 9.94846 11.7103 9.99779 11.6619 10.0128C11.6134 10.0277 11.5641 9.99514 11.5535 9.94053C11.5429 9.88503 11.5755 9.8357 11.6266 9.82954ZM11.5253 9.54238C11.5333 9.48688 11.5843 9.44989 11.6346 9.45957C11.6856 9.46838 11.7174 9.51331 11.7103 9.55911C11.7103 9.60668 11.6689 9.64456 11.6178 9.64456C11.5667 9.64456 11.5253 9.59875 11.5253 9.54238ZM11.7306 10.1863C11.7799 10.1643 11.8239 10.1872 11.8521 10.2251C11.8786 10.2638 11.8645 10.3193 11.8222 10.3475C11.7799 10.3766 11.7209 10.3616 11.6901 10.3149C11.6575 10.2691 11.6865 10.2057 11.7306 10.1863ZM11.6266 9.15655C11.6478 9.10458 11.7024 9.08168 11.7473 9.10546C11.7931 9.12836 11.8151 9.18386 11.7975 9.22702C11.7799 9.27107 11.7253 9.29309 11.6768 9.27811C11.6284 9.26314 11.6055 9.20853 11.6266 9.15655ZM11.003 9.65953C11.003 9.65953 11.0109 9.6657 11.0144 9.66834C10.8885 9.6472 10.766 9.59435 10.6612 9.50714C10.3405 9.24288 10.2956 8.76897 10.5599 8.44833C10.8215 8.13121 11.2875 8.08453 11.6072 8.3391C11.3509 8.29594 11.0796 8.38579 10.9017 8.60072C10.6374 8.92136 10.6823 9.39527 11.0021 9.65953H11.003ZM12.0459 11.7305C11.6953 11.9533 11.2302 11.8494 11.0074 11.4988C10.7872 11.1526 10.8858 10.6946 11.2267 10.4691C11.1069 10.6998 11.1087 10.9852 11.2575 11.2204C11.4804 11.571 11.9455 11.6741 12.2961 11.4512C12.3005 11.4486 12.304 11.4459 12.3075 11.4424C12.2485 11.5561 12.1604 11.6556 12.045 11.7296L12.0459 11.7305ZM12.3868 10.8152C12.3683 10.8628 12.3102 10.8839 12.2591 10.8628C12.2071 10.8417 12.1948 10.7738 12.2212 10.7324C12.2494 10.6866 12.2996 10.6796 12.3428 10.6972C12.3868 10.7148 12.4062 10.7677 12.3877 10.8152H12.3868ZM12.6396 10.9835C12.5841 10.9729 12.5507 10.9236 12.563 10.8743C12.5762 10.8249 12.6238 10.7915 12.6696 10.8003C12.7154 10.8091 12.7497 10.8593 12.7462 10.9077C12.7418 10.9615 12.6943 10.9932 12.6396 10.9826V10.9835ZM12.7867 10.4153C12.6995 10.0762 12.393 9.85244 12.0574 9.8542C12.0864 9.84099 12.1155 9.82602 12.1437 9.8084C12.4397 9.62077 12.5577 9.25962 12.452 8.94162C12.474 8.9654 12.4969 8.9883 12.5225 9.00944C12.7929 9.2323 13.1726 9.23319 13.4421 9.03499C13.4263 9.06318 13.4122 9.09225 13.3998 9.12308C13.2712 9.449 13.3875 9.81016 13.6606 10.0057C13.6289 9.99955 13.5963 9.99515 13.5637 9.9925C13.214 9.97136 12.9065 10.1933 12.8044 10.5131C12.8008 10.4814 12.7955 10.4488 12.7867 10.4171V10.4153ZM13.421 10.8804C13.369 10.9016 13.3126 10.8795 13.2959 10.8311C13.2791 10.7835 13.3003 10.7298 13.3435 10.7122C13.3884 10.6972 13.4412 10.7122 13.4659 10.7562C13.4923 10.8011 13.4747 10.8619 13.421 10.8804ZM13.0378 10.9923C12.9832 11.0064 12.9347 10.9597 12.933 10.9095C12.9303 10.8566 12.9673 10.8214 13.0131 10.8091C13.0598 10.8003 13.1056 10.8337 13.1171 10.8831C13.1285 10.9333 13.0924 10.9826 13.0378 10.9923ZM14.589 11.1006C14.6921 11.5032 14.4507 11.9128 14.0482 12.0168C13.6509 12.1189 13.2457 11.8837 13.1365 11.49C13.3188 11.6759 13.591 11.7622 13.8614 11.6926C14.2631 11.5895 14.5062 11.179 14.4023 10.7774C14.4014 10.7721 14.3996 10.7677 14.3979 10.7633C14.4877 10.854 14.5555 10.9694 14.589 11.1015V11.1006ZM15.4796 9.28428C15.454 9.69476 15.1043 10.0066 14.6965 9.9881C14.929 9.8727 15.0955 9.63927 15.1131 9.36179C15.1387 8.94778 14.8242 8.59015 14.4093 8.5646C14.404 8.5646 14.3996 8.5646 14.3952 8.5646C14.5097 8.50823 14.6392 8.47916 14.7758 8.48709C15.1907 8.51263 15.5051 8.87026 15.4796 9.28428Z" fill="#0D808A"/>
</g>
<path d="M6.99325 11.8987C6.87521 11.1747 7.06549 10.3458 7.5949 9.67453L7.61868 9.64458C7.78781 9.43053 8.09788 9.39353 8.31193 9.56266C8.52598 9.73179 8.56297 10.0419 8.39384 10.2559C8.3498 10.3123 8.29255 10.3572 8.23353 10.3889C7.70853 10.6611 7.24871 11.2125 7.07606 11.9023C7.07077 11.9252 7.04788 11.9384 7.02497 11.9331C7.00824 11.9287 6.99589 11.9155 6.99325 11.8987Z" fill="#0D808A"/>
<path d="M7.33855 11.9044C7.46804 11.4666 7.82127 11.0499 8.33482 10.8447L8.36741 10.8315C8.54006 10.7627 8.7365 10.8464 8.80521 11.0191C8.87391 11.1917 8.79023 11.3882 8.61758 11.4569C8.56296 11.4789 8.50483 11.4851 8.45109 11.478C8.0917 11.4331 7.6539 11.5731 7.33855 11.9026V11.9044Z" fill="#0D808A"/>
<path d="M6.03307 15.3131C5.4975 15.7817 5.2165 16.4415 5.21385 17.0335C5.21297 17.3065 4.99099 17.5259 4.71792 17.525C4.44485 17.5241 4.22552 17.3021 4.2264 17.0291C4.2264 16.9568 4.24225 16.889 4.27044 16.8273L4.28717 16.7903C4.64305 16.0134 5.29401 15.4664 5.99255 15.2409C6.01457 15.2338 6.03836 15.2462 6.04541 15.2682C6.05069 15.2849 6.04541 15.3025 6.03307 15.3131Z" fill="#0D808A"/>
<path d="M6.15461 15.5467C6.00486 15.9783 6.07973 16.4311 6.28321 16.7306C6.38803 16.8847 6.34839 17.0944 6.19424 17.1992C6.04009 17.304 5.83044 17.2644 5.72562 17.1102C5.69303 17.0618 5.67453 17.0081 5.66836 16.9535L5.66483 16.9165C5.61374 16.3659 5.8234 15.862 6.15372 15.5467H6.15461Z" fill="#0D808A"/>
<path d="M13.0211 16.7728C12.977 16.7508 12.7638 16.5808 12.5348 16.453C12.3084 16.3218 12.0794 16.2355 12.0794 16.2355C12.0794 16.2355 12.3172 16.2901 12.5797 16.3059C12.8387 16.3253 13.1135 16.3024 13.162 16.3077C13.2571 16.3183 13.3206 16.4495 13.2774 16.5957C13.2545 16.6671 13.2113 16.7244 13.1655 16.7561C13.1162 16.7869 13.0651 16.7931 13.0219 16.7719L13.0211 16.7728Z" fill="#0D808A"/>
<path d="M12.5885 17.3153C12.5604 17.2783 12.437 17.029 12.2882 16.8159C12.1437 16.6018 11.9719 16.4221 11.9719 16.4221C11.9719 16.4221 12.0195 16.4609 12.0961 16.5155C12.1728 16.5701 12.2794 16.6406 12.3921 16.7031C12.6159 16.8326 12.8766 16.9339 12.9162 16.9595C12.9973 17.0097 12.9973 17.1568 12.8942 17.2678C12.792 17.3796 12.6467 17.3937 12.5885 17.3162V17.3153Z" fill="#0D808A"/>
<path d="M11.9623 17.6179C11.9526 17.5712 11.9508 17.2928 11.9094 17.0383C11.8706 16.7784 11.7949 16.545 11.7949 16.545C11.7949 16.545 11.8213 16.6014 11.8671 16.6833C11.912 16.7652 11.9772 16.8727 12.0521 16.9801C12.1992 17.1968 12.3877 17.3959 12.4133 17.4373C12.4652 17.5192 12.4018 17.6496 12.26 17.7069C12.1182 17.7641 11.9808 17.7104 11.9631 17.6179H11.9623Z" fill="#0D808A"/>
<path d="M11.2681 17.6178C11.2796 17.572 11.3976 17.3218 11.4707 17.0717C11.5473 16.8241 11.5808 16.5784 11.5808 16.5784C11.5808 16.5784 11.5808 16.825 11.624 17.0822C11.6627 17.3377 11.7455 17.6028 11.7508 17.6504C11.7614 17.7438 11.6478 17.838 11.4971 17.8257C11.3456 17.8151 11.2443 17.7112 11.2681 17.6169V17.6178Z" fill="#0D808A"/>
<path d="M10.641 17.3153C10.6718 17.2783 10.8876 17.1038 11.0612 16.9127C11.24 16.7207 11.3756 16.5163 11.3756 16.5163C11.3756 16.5163 11.3483 16.5718 11.3122 16.659C11.2761 16.7453 11.2321 16.8634 11.1951 16.9876C11.1167 17.2377 11.0788 17.5099 11.062 17.5548C11.0303 17.6465 10.8885 17.6782 10.7555 17.6024C10.6225 17.5275 10.5793 17.3866 10.641 17.3153Z" fill="#0D808A"/>
<path d="M10.2085 16.7727C10.2534 16.7525 10.5185 16.6908 10.7617 16.5913C11.0048 16.4961 11.2153 16.3702 11.2153 16.3702C11.2153 16.3702 11.0242 16.5226 10.848 16.7181C10.6718 16.9084 10.5177 17.1374 10.4833 17.1718C10.4164 17.2396 10.2737 17.2079 10.1864 17.0828C10.1442 17.0211 10.1274 16.9516 10.1309 16.8961C10.1371 16.8388 10.1644 16.7939 10.2076 16.7736L10.2085 16.7727Z" fill="#0D808A"/>
<path d="M10.0525 16.0953C10.1001 16.0953 10.3723 16.1561 10.6313 16.172C10.7599 16.1817 10.8867 16.1825 10.9818 16.179C11.0761 16.1764 11.1369 16.1702 11.1369 16.1702C11.1369 16.1702 11.077 16.1834 10.9863 16.2099C10.8946 16.2354 10.7748 16.275 10.655 16.3235C10.4137 16.4177 10.1723 16.5587 10.1283 16.5737C10.0384 16.6062 9.92391 16.5138 9.90101 16.3631C9.87547 16.2125 9.96004 16.0918 10.0525 16.0945V16.0953Z" fill="#0D808A"/>
<path d="M10.2084 15.4179C10.2525 15.4399 10.4657 15.6099 10.6947 15.7376C10.9211 15.8689 11.1501 15.9552 11.1501 15.9552C11.1501 15.9552 10.9123 15.9006 10.6498 15.8847C10.3908 15.8654 10.116 15.8883 10.0675 15.883C9.97237 15.8724 9.90896 15.7411 9.95212 15.5949C9.97502 15.5236 10.0182 15.4663 10.064 15.4346C10.1133 15.4038 10.1644 15.3976 10.2076 15.4187L10.2084 15.4179Z" fill="#0D808A"/>
<path d="M10.6409 14.8748C10.6691 14.9117 10.7924 15.161 10.9413 15.3742C11.0858 15.5883 11.2575 15.768 11.2575 15.768C11.2575 15.768 11.21 15.7292 11.1325 15.6746C11.0558 15.62 10.9492 15.5495 10.8365 15.487C10.6127 15.3575 10.352 15.2562 10.3124 15.2306C10.2313 15.1804 10.2313 15.0333 10.3344 14.9223C10.4366 14.8104 10.5819 14.7964 10.64 14.8739L10.6409 14.8748Z" fill="#0D808A"/>
<path d="M11.2681 14.5736C11.2778 14.6203 11.2796 14.8987 11.321 15.1532C11.3597 15.4131 11.4355 15.6465 11.4355 15.6465C11.4355 15.6465 11.4091 15.5901 11.3633 15.5082C11.3183 15.4263 11.2532 15.3188 11.1792 15.2114C11.0321 14.9947 10.8436 14.7956 10.818 14.7542C10.766 14.6723 10.8295 14.5419 10.9713 14.4846C11.1131 14.4274 11.2505 14.4811 11.2681 14.5736Z" fill="#0D808A"/>
<path d="M11.9623 14.5731C11.9508 14.6189 11.8328 14.8691 11.7597 15.1193C11.6831 15.3668 11.6496 15.6125 11.6496 15.6125C11.6496 15.6125 11.6496 15.3659 11.6064 15.1087C11.5676 14.8532 11.4848 14.5881 11.4796 14.5405C11.469 14.4471 11.5826 14.3529 11.7333 14.3652C11.8848 14.3758 11.9861 14.4797 11.9623 14.574V14.5731Z" fill="#0D808A"/>
<path d="M12.5885 14.8749C12.5577 14.9119 12.3419 15.0863 12.1684 15.2774C11.9895 15.4695 11.8539 15.6738 11.8539 15.6738C11.8539 15.6738 11.8812 15.6183 11.9173 15.5311C11.9534 15.4448 11.9975 15.3268 12.0345 15.2026C12.1129 14.9524 12.1507 14.6802 12.1675 14.6353C12.1992 14.5437 12.341 14.512 12.474 14.5877C12.607 14.6626 12.6502 14.8035 12.5885 14.8749Z" fill="#0D808A"/>
<path d="M13.0211 15.418C12.9762 15.4383 12.711 15.4999 12.4679 15.5995C12.2248 15.6946 12.0143 15.8206 12.0143 15.8206C12.0143 15.8206 12.2054 15.6682 12.3816 15.4726C12.5578 15.2824 12.7119 15.0533 12.7463 15.019C12.8132 14.9512 12.9559 14.9829 13.0431 15.108C13.0854 15.1696 13.1021 15.2392 13.0986 15.2947C13.0924 15.352 13.0651 15.3969 13.022 15.4171L13.0211 15.418Z" fill="#0D808A"/>
<path d="M13.177 16.0957C13.1294 16.0957 12.8572 16.0349 12.5982 16.019C12.4696 16.0094 12.3428 16.0085 12.2477 16.012C12.1534 16.0146 12.0926 16.0208 12.0926 16.0208C12.0926 16.0208 12.1525 16.0076 12.2433 15.9812C12.3349 15.9556 12.4547 15.916 12.5745 15.8675C12.8158 15.7733 13.0572 15.6323 13.1012 15.6174C13.1911 15.5848 13.3056 15.6773 13.3285 15.8279C13.354 15.9785 13.2695 16.0992 13.177 16.0966V16.0957Z" fill="#0D808A"/>
<path d="M11.6214 18.5477C11.543 18.5477 11.4743 18.4825 11.4743 18.4041C11.4743 18.3231 11.5394 18.2579 11.6214 18.2579C11.6998 18.2579 11.7649 18.323 11.7676 18.4014C11.7676 18.4825 11.7024 18.5486 11.6214 18.5486V18.5477ZM10.8656 18.4296C10.7872 18.4067 10.7449 18.3257 10.7713 18.2473C10.7942 18.1724 10.8753 18.1301 10.9537 18.1557V18.1522C11.0285 18.1786 11.0708 18.2596 11.0479 18.3345C11.0285 18.3962 10.9695 18.4358 10.9079 18.4358C10.8946 18.4358 10.8788 18.4358 10.8656 18.4288V18.4296ZM12.1948 18.3319C12.1684 18.257 12.2115 18.1759 12.2891 18.1495C12.3639 18.1266 12.4459 18.1654 12.4714 18.2438C12.4978 18.3186 12.4555 18.3997 12.3771 18.4261C12.3639 18.4296 12.3481 18.4332 12.3349 18.4332C12.2732 18.4332 12.2142 18.3944 12.1948 18.3319ZM10.1811 18.0843C10.1159 18.0385 10.1001 17.9478 10.1485 17.8826C10.1943 17.8174 10.2851 17.8016 10.3503 17.85C10.4155 17.8958 10.4287 17.9866 10.3829 18.0517C10.3538 18.0905 10.3115 18.1134 10.2657 18.1134C10.2366 18.1134 10.2067 18.1037 10.1811 18.0843ZM12.8563 18.0456C12.8105 17.9804 12.8238 17.8897 12.8889 17.8439C12.9541 17.7954 13.0457 17.8086 13.0907 17.8729C13.1391 17.9381 13.1233 18.0297 13.0616 18.0782C13.0352 18.0949 13.0026 18.1046 12.9735 18.1046C12.9312 18.1046 12.8854 18.0852 12.8563 18.0465V18.0456ZM9.63763 17.547C9.58918 17.4818 9.60505 17.3911 9.66671 17.3418C9.73189 17.296 9.8235 17.3092 9.87195 17.3743C9.91775 17.4395 9.90454 17.5276 9.83935 17.5761C9.81293 17.5954 9.78386 17.6051 9.75479 17.6051C9.70899 17.6051 9.6667 17.5858 9.63763 17.5461V17.547ZM13.3972 17.5664C13.332 17.517 13.3188 17.4263 13.3646 17.3647C13.4139 17.2995 13.5047 17.2836 13.5699 17.3321C13.635 17.3805 13.6483 17.4686 13.6024 17.5338H13.5989C13.5725 17.5725 13.5276 17.5954 13.4818 17.5954C13.4527 17.5954 13.4228 17.5858 13.3972 17.5664ZM9.28528 16.8661C9.25974 16.7877 9.30202 16.7066 9.3769 16.6802C9.45529 16.6573 9.53633 16.6961 9.56276 16.7745C9.58566 16.8493 9.54691 16.9313 9.46851 16.9568C9.4553 16.9603 9.43944 16.963 9.4227 16.963C9.36368 16.963 9.30554 16.9242 9.28528 16.8652V16.8661ZM13.7654 16.9445C13.6905 16.9216 13.6483 16.837 13.6747 16.7621C13.6976 16.6873 13.7786 16.645 13.857 16.6679C13.9319 16.6934 13.9742 16.7754 13.9478 16.8538C13.9284 16.9128 13.8729 16.9515 13.8112 16.9515C13.7954 16.9515 13.7821 16.9515 13.7654 16.9454V16.9445ZM9.16196 16.1103C9.16196 16.0293 9.22714 15.9632 9.30554 15.9632C9.38658 15.9632 9.45265 16.0248 9.45265 16.1068C9.45265 16.1878 9.39099 16.2539 9.30907 16.2539C9.22803 16.2539 9.16196 16.1887 9.16196 16.1103ZM13.7786 16.0936V16.0803V16.0707C13.7786 15.9896 13.8403 15.9236 13.9222 15.9236C14.0006 15.92 14.0658 15.9852 14.0684 16.0671V16.0803V16.0936C14.0684 16.1746 14.0032 16.2407 13.9222 16.2407C13.8438 16.2407 13.7786 16.1755 13.7786 16.0936ZM9.36985 15.5333C9.29498 15.5104 9.25269 15.4294 9.27559 15.351C9.30202 15.2761 9.38307 15.2338 9.45794 15.2567C9.53634 15.2796 9.57862 15.3607 9.55219 15.4391C9.53281 15.5007 9.47731 15.5404 9.41565 15.5404C9.39891 15.5404 9.38659 15.5368 9.36985 15.5333ZM13.6641 15.403C13.6377 15.3281 13.68 15.247 13.7548 15.2206C13.8297 15.1942 13.9143 15.2338 13.9407 15.3122C13.9671 15.3871 13.9249 15.4681 13.85 15.4946C13.8341 15.5016 13.8174 15.5043 13.8015 15.5043C13.7425 15.5043 13.6844 15.4655 13.665 15.403H13.6641ZM9.65349 14.8691C9.58831 14.8233 9.57509 14.7326 9.6209 14.6674C9.66671 14.6022 9.75743 14.5864 9.82261 14.6348C9.8878 14.6806 9.90366 14.7714 9.85522 14.8365C9.82967 14.8753 9.78386 14.8947 9.73805 14.8947C9.70898 14.8947 9.67992 14.8885 9.65349 14.8683V14.8691ZM13.3514 14.8075C13.3021 14.7423 13.3153 14.6507 13.3805 14.6022C13.4457 14.5564 13.5373 14.5696 13.5822 14.6322H13.5857C13.6315 14.6974 13.6183 14.7881 13.5531 14.8374C13.5267 14.8568 13.4976 14.8665 13.4686 14.8665C13.4227 14.8665 13.3805 14.8436 13.3514 14.8084V14.8075ZM10.1292 14.3248C10.0807 14.2596 10.093 14.168 10.1582 14.1195C10.2234 14.0737 10.315 14.0869 10.36 14.1521C10.4084 14.2173 10.3961 14.3089 10.3309 14.3538C10.3045 14.3732 10.2754 14.3829 10.2428 14.3829C10.2005 14.3829 10.1547 14.3635 10.1292 14.3248ZM12.8696 14.3344V14.3309C12.8044 14.2851 12.7885 14.1944 12.837 14.1292C12.8828 14.064 12.9735 14.0508 13.0387 14.0966C13.1039 14.1424 13.1171 14.2332 13.0713 14.2983C13.0422 14.3371 12.9999 14.36 12.9541 14.36C12.9251 14.36 12.8951 14.3503 12.8696 14.3336V14.3344ZM10.7449 13.9495C10.722 13.8746 10.7607 13.7936 10.8391 13.7672C10.914 13.7407 10.9959 13.783 11.0215 13.8588C11.0479 13.9337 11.0056 14.0182 10.9308 14.0411V14.0446C10.914 14.0482 10.8982 14.0517 10.885 14.0517C10.8233 14.0517 10.7678 14.0129 10.7449 13.9504V13.9495ZM12.2635 14.0314C12.1886 14.0085 12.1464 13.924 12.1693 13.8491C12.1957 13.7707 12.2767 13.7319 12.3516 13.7548C12.43 13.7777 12.4723 13.8588 12.4459 13.9372C12.4265 13.9988 12.371 14.0385 12.3093 14.0385C12.2935 14.0385 12.2803 14.035 12.2635 14.0314ZM11.4487 13.7865C11.4487 13.709 11.5139 13.643 11.5958 13.6403V13.6438C11.6742 13.6403 11.7394 13.7055 11.7394 13.7874C11.7394 13.8658 11.6777 13.931 11.5958 13.9345C11.5174 13.9345 11.4522 13.8694 11.4487 13.7874V13.7865Z" fill="#0D808A"/>
</g>
</svg>
