<svg width="44" height="43" viewBox="0 0 44 43" fill="none" xmlns="http://www.w3.org/2000/svg">
<g opacity="0.5">
<path d="M11.787 5.45173C11.6226 4.5964 11.8594 3.68071 12.5346 3.09377C12.8773 2.80402 13.3026 2.67214 13.6917 2.63314C14.0837 2.59413 14.4449 2.63035 14.7922 2.65821C15.4758 2.71951 16.1528 2.75666 16.6775 2.34246C17.1957 1.95241 17.5319 1.25774 17.4316 0.561218C17.6201 1.2401 17.3842 2.02391 16.8521 2.54398C16.5884 2.80773 16.2289 2.98976 15.864 3.07334C15.4981 3.16064 15.1312 3.17457 14.7811 3.19129C14.4328 3.20707 14.0939 3.221 13.7967 3.29158C13.5014 3.36217 13.2478 3.49033 13.0779 3.68071C12.7278 4.06426 12.647 4.70042 12.8188 5.18705C12.9172 5.46566 12.7714 5.7712 12.4928 5.86965C12.2142 5.96809 11.9086 5.82228 11.8102 5.54367C11.8018 5.5186 11.7944 5.49445 11.7898 5.46938L11.7861 5.45173H11.787Z" fill="white"/>
<path d="M30.6107 3.88488C31.6313 4.80708 32.3502 5.96888 32.8275 7.15575C32.9585 7.45572 33.0448 7.75569 33.1358 8.0603L33.2677 8.51815L33.3634 8.97693C33.4256 9.28432 33.4822 9.59451 33.5054 9.90284C33.5305 10.2112 33.5779 10.5241 33.5732 10.8334C33.6187 12.0769 33.446 13.3269 33.055 14.5695C32.6483 15.8028 32.0186 17.0436 31.0435 18.1562L30.6711 18.5676C30.5438 18.7022 30.3925 18.8267 30.2513 18.9539C29.9634 19.2065 29.6653 19.4628 29.3737 19.6449C29.0774 19.8399 28.7812 20.0451 28.4729 20.2151C28.1617 20.3739 27.845 20.5281 27.5265 20.6757C26.2505 21.2125 24.9912 21.4688 23.8665 21.6044C22.7363 21.7363 21.7575 21.7493 20.8575 21.7762C19.9549 21.7948 19.1905 21.8152 18.5302 21.8812L18.2878 21.9053C18.2043 21.9118 18.1272 21.9211 18.0612 21.936L17.6433 22.0047C17.4102 22.0706 17.1632 22.1189 16.9988 22.196L16.8595 22.2415C16.8196 22.2601 16.7871 22.2842 16.7499 22.3028C16.7137 22.3223 16.6775 22.3399 16.6413 22.3567C16.605 22.3724 16.5679 22.3845 16.5224 22.4189C16.3422 22.5257 16.1797 22.638 16.033 22.7588C15.4581 23.2436 15.0727 23.8398 14.8405 24.657C14.5981 25.4631 14.6 26.4661 14.8006 27.4246C14.9046 27.9038 15.0671 28.3709 15.277 28.7962C15.4813 29.2253 15.7284 29.6181 16.0135 29.9478C16.293 30.2766 16.6199 30.5635 16.9412 30.7688C17.0183 30.8134 17.0917 30.8644 17.1651 30.9183C17.2524 30.9555 17.3378 30.9963 17.4223 31.0418C17.5003 31.0975 17.6043 31.117 17.6963 31.1579C17.7901 31.196 17.8811 31.2424 17.9879 31.261C18.3835 31.404 18.8413 31.457 19.3001 31.4885C19.7645 31.5266 20.2381 31.4802 20.6876 31.3901C20.7953 31.3585 20.9188 31.3539 21.0238 31.3186C21.1296 31.2851 21.2374 31.2545 21.3479 31.2266C21.4547 31.1941 21.5466 31.144 21.6516 31.1087C21.7008 31.0883 21.7593 31.0753 21.8039 31.0502L21.9404 30.9759C22.1447 30.8951 22.2952 30.7753 22.4828 30.6768C22.6239 30.5487 22.8059 30.4419 22.9285 30.2952C23.2211 30.0481 23.5489 29.5355 23.899 28.851C24.251 28.1749 24.6225 27.3215 25.1314 26.3677C25.6375 25.4241 26.3285 24.3218 27.3519 23.3745L27.7466 23.0309C27.8803 22.912 28.0094 22.8368 28.1422 22.7393C28.4078 22.561 28.6679 22.365 28.9418 22.2164C29.2167 22.0688 29.4916 21.9257 29.7674 21.7874C30.0405 21.6694 30.3172 21.5682 30.5921 21.4642C31.6815 21.0871 32.6919 20.9255 33.5816 20.8039C34.4759 20.6887 35.2607 20.6181 35.9228 20.4863C36.5906 20.3553 37.145 20.1751 37.6484 19.865C37.7654 19.7786 37.9056 19.7127 38.0189 19.6096C38.1294 19.5037 38.2446 19.3988 38.3644 19.2929C38.4805 19.1833 38.5733 19.0394 38.6839 18.913L38.8464 18.7162C38.8975 18.6493 38.9383 18.5796 38.9857 18.5109C39.7008 17.3937 39.9905 15.8567 39.6293 14.4367L39.6209 14.4052C39.4797 13.8507 39.815 13.2879 40.3694 13.1468C40.8635 13.0214 41.365 13.2749 41.5684 13.7244C42.3977 15.5614 42.5565 17.7345 41.873 19.7888C41.8266 19.9151 41.7838 20.0461 41.7328 20.1696L41.5702 20.5355C41.4551 20.7779 41.3594 21.0295 41.2192 21.2673C41.0743 21.5041 40.9248 21.7419 40.7706 21.9787C40.6155 22.2146 40.4168 22.4272 40.2339 22.6511C39.4677 23.5212 38.486 24.2048 37.5397 24.6933C36.5869 25.191 35.6805 25.5207 34.9004 25.8467C34.1156 26.1634 33.4525 26.4717 32.9547 26.7912C32.8396 26.8757 32.7226 26.9574 32.6093 27.0326C32.5155 27.1199 32.4207 27.2026 32.326 27.2797C32.2322 27.3586 32.1709 27.4589 32.0901 27.5388C31.9991 27.6224 31.9629 27.7013 31.9155 27.771C31.7363 28.0746 31.5552 28.5037 31.363 29.1399C31.1698 29.7704 30.9831 30.5589 30.7073 31.4969C30.4287 32.4219 30.0739 33.5214 29.3607 34.6879C29.0263 35.2804 28.6001 35.7968 28.1729 36.3205C27.7141 36.7988 27.246 37.2882 26.7213 37.682C25.6858 38.4974 24.5445 39.1466 23.3474 39.5793C22.1494 40.013 20.9058 40.3084 19.6363 40.3836C18.3686 40.4625 17.0778 40.3994 15.798 40.0929C14.5238 39.7883 13.2469 39.3304 12.0721 38.5912C10.9159 37.8928 9.9203 37.031 9.0529 36.0633C7.31902 34.126 6.22223 31.7969 5.70588 29.3739C5.44677 28.1601 5.33161 26.9128 5.38919 25.6526C5.44584 24.3942 5.65573 23.12 6.06714 21.8728C6.47669 20.6265 7.09335 19.4127 7.89945 18.3131C8.7037 17.2126 9.70577 16.2356 10.8258 15.4741C11.3839 15.0924 11.9671 14.7618 12.5615 14.4795C12.7036 14.4042 12.8689 14.3383 13.0333 14.2733L13.5255 14.081C13.6899 14.0197 13.8561 13.9547 14.0196 13.9009L14.5043 13.7671C15.1646 13.573 15.7757 13.4895 16.3933 13.3966L17.2663 13.3214C17.4149 13.3074 17.5532 13.3009 17.687 13.2991L18.0928 13.2889C19.1627 13.2666 20.1322 13.3204 20.9606 13.3641C21.7927 13.404 22.5478 13.4412 23.1449 13.418C23.743 13.3947 24.199 13.3214 24.5389 13.2285C24.6141 13.196 24.6921 13.17 24.7748 13.1486C24.85 13.1189 24.9085 13.0725 24.9837 13.0446C25.0729 13.0168 25.097 12.9805 25.1426 12.9573C25.1639 12.9425 25.1918 12.9415 25.2141 12.9192C25.2354 12.896 25.2586 12.8747 25.2828 12.8542C25.4797 12.6908 25.7174 12.3955 25.8994 12.0026C25.9375 11.8995 25.9997 11.8067 26.0378 11.6971C26.0731 11.5866 26.114 11.477 26.1576 11.3655C26.1836 11.2485 26.2133 11.1315 26.2468 11.0136L26.3183 10.6514C26.3536 10.5288 26.3443 10.408 26.3647 10.2836C26.387 10.1582 26.3796 10.0394 26.3842 9.91677L26.3963 9.73103L26.3861 9.5555C26.3805 9.43756 26.3851 9.31219 26.3601 9.20631C26.3201 8.74382 26.2115 8.33984 26.0768 7.9665L25.775 7.13068C25.2122 5.57232 26.0192 3.85331 27.5776 3.29052C28.6549 2.90139 29.8111 3.16979 30.607 3.88581L30.6107 3.88488Z" fill="white"/>
<path d="M15.7516 8.39942C18.3798 8.26476 19.4153 9.70331 19.184 9.78132C19.0243 9.92248 17.8987 8.93992 15.7525 9.10987C13.6936 9.07923 11.2103 9.5315 9.4318 8.62416C7.65799 7.46794 8.24306 5.76099 8.10283 5.8808C8.20313 5.76007 7.94867 7.49951 9.58874 8.30748C11.2223 8.96778 13.5896 8.38363 15.7525 8.39942H15.7516Z" fill="white"/>
<path d="M29.5092 3.4959C29.082 2.50498 28.2424 1.6868 27.2367 1.29303C26.2643 0.912265 25.1294 0.561218 24.081 0.561218C21.1361 0.561218 17.4361 1.20945 19.1774 4.82672H11.7507C11.4823 4.82672 11.2584 4.97995 11.2584 5.24835L11.2501 6.76677C11.2473 7.33141 11.6894 7.79762 12.2531 7.82362L16.5576 8.02701C17.2764 8.02701 17.8605 8.61301 17.8559 9.33368C17.855 9.49249 17.7194 9.62065 17.5606 9.62065H11.3123C11.5631 10.5336 12.4444 11.2096 13.4966 11.2096C15.1042 11.2096 16.1796 11.2208 17.7872 11.2301C18.7623 11.2357 19.7495 11.2904 20.7246 11.2533C22.387 11.1911 24.0029 11.3267 25.6142 10.7518C27.0639 10.2345 28.3762 9.26124 29.1516 7.93228C29.2074 7.83755 29.2594 7.74097 29.3086 7.64253C29.9503 6.36278 30.0757 4.80907 29.5101 3.49683L29.5092 3.4959Z" fill="white"/>
<path d="M13.3766 5.42017C13.4707 4.84098 13.0773 4.29526 12.4982 4.20124C11.919 4.10723 11.3733 4.50053 11.2792 5.07971C11.1852 5.65889 11.5785 6.20463 12.1577 6.29865C12.7369 6.39266 13.2826 5.99935 13.3766 5.42017Z" fill="white"/>
<path d="M12.7199 5.22868C12.7199 5.44958 12.5389 5.63057 12.318 5.63057C12.0971 5.63057 11.9161 5.44958 11.9161 5.22868C11.9161 5.00777 12.0943 4.82678 12.318 4.82678C12.5416 4.82678 12.7199 5.00777 12.7199 5.22868Z" fill="#1D8E7C"/>
<path d="M22.1075 4.60833C22.1075 4.22593 21.5664 3.90942 21.1822 3.90942C20.7979 3.90942 20.4851 4.22593 20.4851 4.60833H22.1075Z" fill="#1D8E7C"/>
<path d="M24.7571 0.653007C25.6329 0.858249 26.4836 1.04677 27.3723 1.26409C27.8209 1.38296 28.2221 1.50741 28.601 1.59563C28.7914 1.64114 28.9753 1.67643 29.1591 1.70058C29.3458 1.72194 29.5603 1.74051 29.76 1.74794C30.5708 1.78416 31.3927 1.72101 32.1653 1.45633C32.9371 1.19815 33.6559 0.71523 34.188 0.0159219C34.202 -0.00172333 34.227 -0.00543811 34.2447 0.00849232C34.2595 0.0196367 34.2642 0.0391393 34.2577 0.0558558C33.9336 0.884252 33.3188 1.63742 32.5331 2.17235C31.7502 2.71471 30.8373 3.05183 29.9151 3.26914C29.6801 3.32579 29.4591 3.36851 29.2084 3.40938C28.9558 3.44745 28.7022 3.46881 28.457 3.48089C27.9648 3.5041 27.5014 3.49017 27.0844 3.49853L24.4804 3.6174C23.6511 3.65548 22.948 3.01375 22.9109 2.18443C22.8728 1.3551 23.5145 0.652078 24.3439 0.614931C24.4832 0.60843 24.6178 0.621431 24.7478 0.65115L24.7571 0.653936V0.653007Z" fill="white"/>
<path d="M28.9094 2.61239C29.4434 2.76377 30.0062 2.89657 30.568 3.00337C31.1308 3.11017 31.6983 3.19282 32.2675 3.24112C32.8359 3.28755 33.4098 3.3052 33.9708 3.2374C34.528 3.16682 35.0936 3.03309 35.5551 2.65789H35.557C35.5718 2.64489 35.5941 2.64675 35.6062 2.66161C35.6155 2.67368 35.6164 2.68947 35.609 2.70154C35.2932 3.23554 34.7369 3.61445 34.1769 3.89956C33.6086 4.18746 33.0068 4.3862 32.3994 4.55336C31.7921 4.71867 31.1754 4.8459 30.556 4.94713C29.9347 5.04743 29.3152 5.12265 28.6707 5.17002L28.6475 5.17187C27.9278 5.22481 27.3018 4.68431 27.2489 3.9655C27.1959 3.24576 27.7364 2.61982 28.4552 2.56688C28.6103 2.55574 28.7664 2.57338 28.9085 2.61332L28.9094 2.61239Z" fill="white"/>
<path d="M29.8789 4.2787C30.9005 4.59074 31.9072 4.92693 32.887 5.16746C33.3783 5.28633 33.864 5.36992 34.3673 5.3792C34.8707 5.39221 35.3945 5.33463 35.9173 5.23897C35.9368 5.23526 35.9545 5.24826 35.9582 5.26683C35.961 5.28169 35.9545 5.29562 35.9424 5.30305C35.4938 5.5928 35.0183 5.85841 34.4936 6.0618C33.9698 6.2689 33.4043 6.39891 32.8517 6.48621C31.74 6.65709 30.6702 6.72953 29.6115 6.83354C28.8908 6.90412 28.2491 6.37755 28.1785 5.65688C28.1079 4.93622 28.6345 4.29449 29.3552 4.22391C29.5307 4.20626 29.7006 4.22483 29.8594 4.2722L29.878 4.2787H29.8789Z" fill="white"/>
<path d="M31.5589 6.29949C32.2341 6.49823 32.8841 6.68025 33.5528 6.73412C34.2187 6.79262 34.9105 6.69883 35.5727 6.42858C35.582 6.42486 35.5931 6.42858 35.5969 6.43879C35.5996 6.44622 35.5969 6.45458 35.5913 6.46015C35.0434 6.92078 34.3533 7.26069 33.6113 7.42785C32.8693 7.60059 32.1059 7.62659 31.3834 7.64331H31.3815C31.0026 7.65167 30.6887 7.3517 30.6803 6.97372C30.672 6.59481 30.972 6.28091 31.3499 6.27255C31.4214 6.2707 31.4939 6.28091 31.5589 6.30042V6.29949Z" fill="white"/>
<path d="M13.2831 10.6191C13.1763 11.2088 12.8642 11.6973 12.4732 12.0418C12.0823 12.3873 11.5966 12.5953 11.122 12.6195C11.0951 12.6204 11.0728 12.6009 11.0719 12.574C11.0709 12.5536 11.083 12.5359 11.1006 12.5275C11.929 12.1533 12.3237 11.2283 12.1631 10.581C12.086 10.2699 12.2754 9.95506 12.5865 9.87705C12.8977 9.79997 13.2125 9.98942 13.2905 10.3005C13.3109 10.3823 13.3128 10.464 13.2989 10.5411L13.2849 10.6181L13.2831 10.6191Z" fill="white"/>
<path d="M14.4486 10.5508C14.3771 11.1275 14.1022 11.6169 13.7428 11.9708C13.3825 12.3255 12.9246 12.554 12.4668 12.6032C12.4408 12.606 12.4185 12.5874 12.4157 12.5614C12.4138 12.5419 12.4241 12.5233 12.4408 12.515C13.2218 12.1082 13.5533 11.1916 13.363 10.5749C13.271 10.2777 13.4373 9.96291 13.7344 9.87097C14.0316 9.77903 14.3465 9.94526 14.4384 10.2424C14.4625 10.3205 14.469 10.3994 14.4598 10.4746L14.4505 10.5498L14.4486 10.5508Z" fill="white"/>
<path d="M15.4609 10.8754C15.3411 11.7744 14.6297 12.3938 13.9165 12.4737C13.897 12.4755 13.8784 12.4616 13.8765 12.4421C13.8747 12.4272 13.883 12.4124 13.896 12.4059C14.5043 12.0892 14.7634 11.375 14.6148 10.8949C14.5433 10.6636 14.6734 10.4185 14.9046 10.347C15.1359 10.2755 15.381 10.4055 15.4525 10.6367C15.472 10.6989 15.4767 10.7612 15.4683 10.8215L15.4609 10.8763V10.8754Z" fill="white"/>
<path d="M16.2683 10.9241C16.2785 11.5785 15.8358 12.0955 15.3355 12.2282C15.3216 12.2319 15.3077 12.2236 15.304 12.2096C15.3012 12.1985 15.3058 12.1874 15.3142 12.1818C15.7151 11.8913 15.8237 11.3539 15.6669 11.0272C15.5917 10.8694 15.6576 10.681 15.8154 10.6048C15.9732 10.5297 16.1616 10.5956 16.2377 10.7533C16.2581 10.7951 16.2683 10.8397 16.2683 10.8842V10.9241Z" fill="white"/>
<path d="M43.6068 7.08846C42.9827 7.60574 42.5908 8.35985 42.3744 9.13995C42.1618 9.90427 42.1033 10.702 42.0485 11.4942C42.0475 11.4942 42.0457 11.4933 42.0448 11.4923C42.0698 9.58108 41.5767 7.67261 40.6629 5.99446C40.4799 5.65827 40.2802 5.3323 40.0638 5.01654C39.8985 5.36109 39.7509 5.71399 39.6218 6.07432C38.9819 7.85649 38.786 9.7984 39.0915 11.6679C39.0887 11.6688 39.0869 11.6706 39.0841 11.6716C38.9123 10.9138 38.7321 10.1522 38.4117 9.44456C38.0774 8.70625 37.5749 8.02087 36.8793 7.60574C37.3418 8.14346 37.4598 8.89756 37.4412 9.60615C37.4226 10.3147 37.2666 11.0206 37.3205 11.7273C37.5276 14.4177 39.2874 15.6705 40.8179 15.5526C42.2203 15.4449 44.0433 14.3546 43.8018 11.2277C43.747 10.5209 43.4852 9.84669 43.3579 9.14924C43.2307 8.45179 43.2326 7.6884 43.6068 7.0866V7.08846Z" fill="white"/>
<path d="M27.546 40.2757C27.8683 39.8838 28.2704 39.5337 28.732 39.2542C28.3986 40.2386 28.653 41.3038 29.3951 42.0263C29.5334 41.4162 29.6792 40.7986 29.9857 40.2191C30.2922 39.6396 30.7788 39.0926 31.4419 38.7787C31.3388 39.2876 31.4233 39.7984 31.6555 40.2479C31.9053 39.0406 32.8164 38.0199 34.0924 37.6986C34.6459 37.5593 35.2031 37.5676 35.7195 37.6995C34.684 36.2972 32.8703 35.5821 31.0751 36.0344C28.2844 36.7374 26.0871 39.0053 26.7622 41.6883L26.7947 41.7226C26.7966 41.2453 27.2544 40.6323 27.547 40.2757H27.546Z" fill="white"/>
<path d="M28.9892 32.6378C29.1016 32.6378 30.6711 32.5301 31.7474 32.4549C32.2554 32.4196 32.6799 32.8403 32.6427 33.3483C32.574 34.2872 32.5758 35.6784 33.0745 36.426L30.4148 37.9166L29.6133 35.9486L25.3097 38.614L28.9901 32.6388L28.9892 32.6378Z" fill="white"/>
<path d="M7.75368 25.3468C7.69238 23.4811 7.06458 20.7925 7.65895 18.9072C6.7349 19.5202 5.5378 19.8369 4.94808 18.7605C5.01773 19.1357 4.01752 22.6777 4.01752 22.6777C4.01752 22.6777 6.39035 21.9041 7.75275 25.3468H7.75368Z" fill="white"/>
<path d="M3.46678 14.3535C4.07137 14.7296 4.70474 15.1336 5.03628 15.7642C5.36783 16.3938 5.25823 17.316 4.62115 17.6355C4.77067 16.8666 4.46513 16.0261 3.8559 15.5329C3.24668 15.0398 2.36163 14.9154 1.64003 15.2218C2.26226 15.3221 2.81484 15.78 3.02658 16.3743C3.23833 16.9678 3.10273 17.6727 2.68389 18.1444C2.64767 17.538 2.27898 16.9613 1.74405 16.6743C1.20912 16.3873 0.524668 16.3985 -4.57764e-05 16.704C0.627753 17.2575 1.26391 17.8213 1.70969 18.5298C2.15453 19.2384 2.38949 20.1244 2.1406 20.924C1.89171 21.7227 1.06795 22.3626 0.243272 22.2223C1.15154 23.2755 2.88449 23.4854 4.01749 22.6793C5.0372 21.954 5.69473 20.768 5.25545 19.6071C8.43252 16.8926 5.41797 14.126 3.46678 14.3544V14.3535Z" fill="white"/>
<path d="M4.78927 38.658C5.21461 38.0544 5.6706 37.4238 6.34205 37.1183C7.01349 36.8127 7.96169 36.9817 8.25423 37.6588C7.46762 37.4582 6.57887 37.7247 6.0328 38.3246C5.48579 38.9255 5.3047 39.8347 5.57866 40.599C5.71889 39.961 6.22689 39.4168 6.85376 39.2329C7.48063 39.049 8.20223 39.232 8.66565 39.6926C8.03599 39.6935 7.41748 40.0409 7.08872 40.5777C6.75996 41.1144 6.73117 41.823 7.01535 42.3849C7.6255 41.7682 8.24681 41.1432 9.00648 40.7253C9.76615 40.3074 10.6976 40.117 11.5093 40.4216C12.321 40.7262 12.9339 41.6169 12.7398 42.4629C13.884 41.5862 14.2044 39.805 13.4373 38.5847C12.7473 37.486 11.5595 36.7356 10.3326 37.1201C7.7128 33.67 4.66947 36.6251 4.78927 38.658Z" fill="white"/>
<path d="M14.7402 15.7739C14.6734 16.449 14.7059 17.1214 15.0086 17.7186C15.3021 18.2981 15.8287 18.741 16.4239 18.9992C17.0192 19.2574 17.6805 19.3401 18.3287 19.3131C16.7583 18.6185 15.4627 17.3304 14.7402 15.7748V15.7739Z" fill="#1D8E7C"/>
<path d="M12.4231 16.8905C12.321 17.5619 12.3182 18.2343 12.5884 18.8463C12.8503 19.4398 13.3527 19.9097 13.9341 20.1994C14.5155 20.4883 15.1711 20.6062 15.8203 20.6127C14.2889 19.8363 13.063 18.4823 12.424 16.8905H12.4231Z" fill="#1D8E7C"/>
<path d="M10.3949 18.9481C10.4042 19.627 10.5175 20.2901 10.9075 20.8464C11.2855 21.3859 11.8938 21.7621 12.5522 21.9459C13.2116 22.1298 13.9183 22.1317 14.6 22.0258C12.8606 21.5271 11.3412 20.4052 10.3949 18.9481Z" fill="#1D8E7C"/>
<path d="M18.4114 39.1875C19.1497 38.8299 19.7171 38.3294 19.9233 37.6663C20.1257 37.0255 19.9762 36.3234 19.7245 35.6984C19.5982 35.39 19.445 35.0873 19.2871 34.8012C19.1292 34.5217 18.9658 34.2487 18.8088 33.9896C19.1506 35.7169 19.367 37.6096 18.4123 39.1884L18.4114 39.1875Z" fill="#1D8E7C"/>
<path d="M13.5041 37.7765C13.9183 37.7812 14.3075 37.7394 14.6557 37.6196C15.0003 37.51 15.3002 37.3289 15.5389 37.0754C15.9995 36.5887 16.1704 35.8904 16.2159 35.2161C16.2373 34.8809 16.2289 34.5484 16.2141 34.2196C16.1964 33.8964 16.1676 33.5863 16.1463 33.2835C15.9113 34.137 15.6476 35.0053 15.2399 35.7928C14.8312 36.585 14.2805 37.2843 13.5032 37.7765H13.5041Z" fill="#1D8E7C"/>
<path d="M9.73735 34.23C9.91845 34.3266 10.0995 34.412 10.2778 34.4807C10.4636 34.5458 10.6465 34.595 10.8258 34.6265C11.1796 34.6925 11.5362 34.6693 11.8622 34.5597C12.4965 34.3461 12.9729 33.8074 13.3295 33.2326C13.6806 32.6577 13.936 32.0438 14.1719 31.4913C13.5654 32.1404 12.9302 32.7784 12.1993 33.2864C11.4675 33.7944 10.6484 34.1585 9.73828 34.2309L9.73735 34.23Z" fill="#1D8E7C"/>
<path d="M7.9895 29.4489C8.46221 30.1185 9.07236 30.5801 9.75495 30.6655C10.4162 30.7509 11.0821 30.4788 11.656 30.1176C12.2244 29.7535 12.7203 29.3068 13.1716 28.9112C12.3423 29.2316 11.4981 29.5306 10.6159 29.669C9.73917 29.8065 8.83647 29.7795 7.98857 29.4489H7.9895Z" fill="#1D8E7C"/>
<path d="M24.7878 13.7919C24.6577 14.0408 24.5305 14.3119 24.4228 14.5998C24.3132 14.8784 24.2259 15.1849 24.1869 15.522C24.1098 16.1675 24.2463 16.8724 24.6317 17.4491C25.0125 18.0239 25.6394 18.4809 26.4 18.7446C25.1109 17.3599 24.8788 15.4515 24.7878 13.7919Z" fill="#1D8E7C"/>
<path d="M27.2906 12.1766C27.2841 12.4598 27.2767 12.7514 27.3055 13.0616C27.3222 13.3597 27.3714 13.6746 27.4782 13.9968C27.6835 14.6181 28.1042 15.1967 28.6957 15.5561C28.9901 15.7353 29.3254 15.8635 29.6922 15.9397C30.0563 16.0139 30.4408 16.0195 30.8475 15.9852C29.0886 15.2738 28.0809 13.6402 27.2915 12.1766H27.2906Z" fill="#1D8E7C"/>
<path d="M25.4369 28.7954C25.4815 29.3842 25.6347 29.9033 26.0053 30.3872C26.3666 30.8478 26.9284 31.197 27.5553 31.2769C27.8664 31.3168 28.1905 31.2936 28.5109 31.2137C28.8295 31.1357 29.1462 30.9955 29.4378 30.832C28.6484 30.8302 27.8748 30.5962 27.194 30.2191C26.5114 29.8411 25.9069 29.3498 25.4369 28.7963V28.7954Z" fill="#1D8E7C"/>
<path d="M27.9231 24.9309C27.8581 25.1083 27.7958 25.2773 27.7633 25.4528C27.7281 25.6256 27.7039 25.7927 27.6993 25.9506C27.6965 26.2682 27.7624 26.5496 27.9064 26.7827C28.184 27.2341 28.7069 27.4458 29.2335 27.4978C29.4972 27.5238 29.7647 27.5136 30.0219 27.4876C30.1501 27.4727 30.281 27.4616 30.4036 27.4421C30.5253 27.4207 30.6469 27.3994 30.7667 27.378C30.1603 27.1895 29.5409 26.9313 29.0162 26.5366C28.4961 26.1466 28.0735 25.6089 27.9231 24.9318V24.9309Z" fill="#1D8E7C"/>
<path d="M32.1208 22.3109C31.8329 22.5115 31.5914 22.7428 31.4187 22.9786C31.246 23.2155 31.141 23.4541 31.1271 23.6919C31.0955 24.1469 31.3899 24.5054 31.7716 24.7357C31.9611 24.8481 32.1775 24.9391 32.3994 25.0088C32.6186 25.0719 32.8545 25.1341 33.0811 25.1648C32.6836 24.8258 32.3307 24.394 32.132 23.9055C32.0326 23.6612 31.9731 23.4021 31.9666 23.1328C31.9601 22.8635 32.0047 22.5812 32.1199 22.3109H32.1208Z" fill="#1D8E7C"/>
<path d="M24.6229 8.6625C24.5839 8.64301 24.3927 8.49079 24.1867 8.3757C23.9843 8.25782 23.7783 8.18079 23.7783 8.18079C23.7783 8.18079 23.9917 8.22998 24.2266 8.2439C24.4586 8.26154 24.7046 8.24019 24.7482 8.24576C24.8336 8.25504 24.8902 8.37292 24.8522 8.50379C24.8317 8.56783 24.7937 8.61888 24.7519 8.64765C24.7083 8.6755 24.6619 8.68107 24.6229 8.6625Z" fill="#1D8E7C"/>
<path d="M24.2358 9.14901C24.2107 9.1156 24.1003 8.89191 23.9666 8.70164C23.8367 8.50951 23.6835 8.34894 23.6835 8.34894C23.6835 8.34894 23.7262 8.38328 23.7949 8.43247C23.8636 8.48167 23.9592 8.54385 24.0594 8.60047C24.2599 8.71649 24.4938 8.80745 24.5291 8.82973C24.6015 8.87428 24.6015 9.00608 24.5096 9.10539C24.4177 9.20563 24.2878 9.2177 24.2358 9.14901Z" fill="#1D8E7C"/>
<path d="M23.6742 9.41896C23.6659 9.37719 23.664 9.12845 23.6269 8.90012C23.5925 8.66715 23.5248 8.45831 23.5248 8.45831C23.5248 8.45831 23.5489 8.50843 23.5897 8.58269C23.6297 8.65601 23.6881 8.75254 23.755 8.84814C23.8868 9.04213 24.0557 9.22033 24.0789 9.25746C24.1253 9.33079 24.0687 9.44773 23.9415 9.49878C23.8144 9.54983 23.6918 9.5025 23.6751 9.41896H23.6742Z" fill="#1D8E7C"/>
<path d="M23.0521 9.41924C23.0623 9.3784 23.1681 9.15379 23.234 8.92917C23.3027 8.70734 23.3333 8.48737 23.3333 8.48737C23.3333 8.48737 23.3333 8.70827 23.3714 8.93938C23.4057 9.16864 23.48 9.40625 23.4846 9.44894C23.4948 9.53248 23.3927 9.61694 23.2572 9.6058C23.1217 9.59652 23.0308 9.50278 23.0521 9.41924Z" fill="#1D8E7C"/>
<path d="M22.4902 9.14885C22.5171 9.11544 22.7111 8.95951 22.8661 8.7878C23.0267 8.61609 23.1482 8.43231 23.1482 8.43231C23.1482 8.43231 23.1241 8.48243 23.0916 8.5604C23.0591 8.63744 23.0202 8.74325 22.9867 8.85463C22.9171 9.07924 22.8828 9.32242 22.8679 9.36326C22.8392 9.44587 22.712 9.47371 22.5932 9.40595C22.4744 9.33913 22.4354 9.2129 22.4902 9.14793V9.14885Z" fill="#1D8E7C"/>
<path d="M22.102 8.66268C22.1419 8.64412 22.3795 8.58935 22.5976 8.50025C22.8157 8.41486 23.0041 8.30255 23.0041 8.30255C23.0041 8.30255 22.8324 8.43899 22.6756 8.61349C22.5178 8.78334 22.3795 8.98939 22.3489 9.02002C22.2885 9.08035 22.1614 9.05251 22.0834 8.9402C22.0453 8.88451 22.0305 8.82232 22.0333 8.77313C22.0388 8.72115 22.063 8.68217 22.102 8.66361V8.66268Z" fill="#1D8E7C"/>
<path d="M21.9626 8.0559C22.0053 8.0559 22.2494 8.11066 22.4805 8.12458C22.5956 8.13294 22.7098 8.13387 22.7943 8.13108C22.8787 8.1283 22.9335 8.12366 22.9335 8.12366C22.9335 8.12366 22.8797 8.13572 22.7989 8.15893C22.7172 8.18213 22.6096 8.2174 22.5019 8.26102C22.2856 8.34549 22.0694 8.47172 22.0295 8.48471C21.9487 8.51348 21.8466 8.43088 21.8262 8.29629C21.8039 8.16171 21.8791 8.05312 21.9626 8.0559Z" fill="#1D8E7C"/>
<path d="M22.1018 7.44838C22.1408 7.46787 22.332 7.62009 22.5381 7.73518C22.7404 7.85306 22.9465 7.9301 22.9465 7.9301C22.9465 7.9301 22.733 7.8809 22.4981 7.86698C22.2661 7.84935 22.0201 7.87069 21.9765 7.86512C21.8911 7.85584 21.8345 7.73797 21.8726 7.60709C21.893 7.54305 21.931 7.492 21.9728 7.46323C22.0164 7.43538 22.0628 7.42982 22.1018 7.44838Z" fill="#1D8E7C"/>
<path d="M22.49 6.96141C22.515 6.99483 22.6255 7.21851 22.7591 7.40879C22.8891 7.60092 23.0422 7.76149 23.0422 7.76149C23.0422 7.76149 22.9995 7.72715 22.9308 7.67795C22.8622 7.62876 22.7666 7.56657 22.6663 7.50996C22.4658 7.39394 22.2319 7.30298 22.1967 7.2807C22.1243 7.23615 22.1243 7.10435 22.2162 7.00504C22.3081 6.90479 22.438 6.89273 22.49 6.96141Z" fill="#1D8E7C"/>
<path d="M23.0518 6.69064C23.0602 6.73241 23.062 6.98116 23.0992 7.20949C23.1335 7.44246 23.2013 7.65129 23.2013 7.65129C23.2013 7.65129 23.1771 7.60117 23.1372 7.52785C23.0973 7.45452 23.0388 7.35799 22.972 7.26239C22.8402 7.06841 22.6713 6.8902 22.6481 6.85307C22.6016 6.77975 22.6583 6.6628 22.7854 6.61175C22.9126 6.5607 23.0351 6.60804 23.0518 6.69157V6.69064Z" fill="#1D8E7C"/>
<path d="M23.674 6.69012C23.6638 6.73096 23.558 6.95557 23.4921 7.18019C23.4234 7.40202 23.3928 7.62199 23.3928 7.62199C23.3928 7.62199 23.3928 7.40109 23.3547 7.16998C23.3204 6.94072 23.2461 6.70311 23.2415 6.66042C23.2313 6.57688 23.3334 6.49242 23.4689 6.50356C23.6044 6.51284 23.6954 6.60658 23.674 6.69012Z" fill="#1D8E7C"/>
<path d="M24.2358 6.96132C24.2088 6.99473 24.0149 7.15066 23.8599 7.32237C23.6993 7.49408 23.5777 7.67786 23.5777 7.67786C23.5777 7.67786 23.6018 7.62774 23.6343 7.54977C23.6668 7.47273 23.7058 7.36692 23.7392 7.25554C23.8088 7.03093 23.8431 6.78775 23.858 6.74691C23.8868 6.6643 24.0139 6.63646 24.1327 6.70422C24.2515 6.77104 24.2905 6.89727 24.2358 6.96132Z" fill="#1D8E7C"/>
<path d="M24.6229 7.44827C24.583 7.46683 24.3454 7.52159 24.1272 7.61069C23.9091 7.69609 23.7207 7.80839 23.7207 7.80839C23.7207 7.80839 23.8924 7.67195 24.0493 7.49746C24.2071 7.3276 24.3454 7.12155 24.376 7.09092C24.4363 7.03059 24.5635 7.05844 24.6415 7.17075C24.6795 7.22644 24.6943 7.28862 24.6916 7.33781C24.686 7.38979 24.6619 7.42877 24.6229 7.44734V7.44827Z" fill="#1D8E7C"/>
<path d="M24.7621 8.05543C24.7194 8.05543 24.4753 8.00067 24.2442 7.98675C24.1291 7.97839 24.015 7.97747 23.9305 7.98025C23.8461 7.98304 23.7913 7.98768 23.7913 7.98768C23.7913 7.98768 23.8451 7.97561 23.9259 7.95241C24.0075 7.9292 24.1152 7.89393 24.2229 7.85031C24.4392 7.76585 24.6554 7.63961 24.6953 7.62662C24.7761 7.59785 24.8782 7.68045 24.8986 7.81504C24.9209 7.94962 24.8457 8.05822 24.7621 8.05543Z" fill="#1D8E7C"/>
<path d="M23.2405 10.1237C23.2368 10.0513 23.2953 9.99277 23.3678 9.99277C23.4402 9.99277 23.4987 10.0513 23.4987 10.1237C23.4987 10.1962 23.4402 10.2547 23.3678 10.2547C23.2953 10.2547 23.2405 10.1962 23.2405 10.1237ZM22.6908 10.1479C22.622 10.1274 22.584 10.055 22.6053 9.98627C22.6295 9.91754 22.701 9.87947 22.7706 9.90083C22.8394 9.92497 22.8774 9.99648 22.8533 10.0661C22.8366 10.1209 22.7846 10.1553 22.7298 10.1553C22.7158 10.1553 22.7056 10.1553 22.6917 10.1488L22.6908 10.1479ZM23.8832 10.0624C23.8628 9.9937 23.8971 9.92126 23.9659 9.89711C24.0346 9.87668 24.1098 9.91383 24.1312 9.97977C24.1553 10.0485 24.1172 10.1237 24.0485 10.1451C24.0346 10.1516 24.0216 10.1516 24.0077 10.1516C23.9529 10.1516 23.9009 10.1172 23.8841 10.0624H23.8832ZM22.076 9.8386C22.0175 9.79774 22.0035 9.71509 22.0481 9.65658C22.089 9.59807 22.1716 9.58786 22.2301 9.62965C22.2886 9.67051 22.2989 9.75316 22.258 9.81167C22.2338 9.84603 22.193 9.86275 22.1512 9.86275C22.127 9.86275 22.1001 9.85625 22.076 9.8386ZM24.4776 9.80424C24.4367 9.74573 24.4469 9.66308 24.5054 9.62222C24.5639 9.57764 24.6466 9.59157 24.6875 9.65008C24.7283 9.70859 24.7181 9.79124 24.6596 9.8321C24.6355 9.84882 24.6085 9.85625 24.5807 9.85625C24.5426 9.85625 24.5017 9.83953 24.4776 9.80517V9.80424ZM21.5884 9.35475C21.5475 9.29996 21.5605 9.21731 21.6163 9.17273C21.6748 9.13187 21.7574 9.14487 21.7983 9.20338C21.8429 9.25817 21.8289 9.34082 21.7704 9.3854C21.75 9.39933 21.7221 9.40955 21.6952 9.40955C21.6543 9.40955 21.6163 9.38911 21.5884 9.35475ZM24.9614 9.37518C24.9029 9.33432 24.889 9.25167 24.9308 9.19316C24.9754 9.13465 25.058 9.12072 25.1165 9.1653C25.1713 9.20616 25.1852 9.2851 25.1435 9.34361C25.1165 9.38168 25.0784 9.3984 25.0367 9.3984C25.0088 9.3984 24.9846 9.3919 24.9614 9.37426V9.37518ZM21.2754 8.74646C21.2513 8.67773 21.2894 8.60251 21.3581 8.58115C21.4268 8.557 21.4992 8.59508 21.5234 8.6638C21.5438 8.73253 21.5058 8.80497 21.438 8.82911C21.4277 8.83283 21.4138 8.83561 21.3999 8.83561C21.3451 8.83561 21.2931 8.80125 21.2764 8.74646H21.2754ZM25.2911 8.8189C25.2224 8.79475 25.1843 8.72324 25.2085 8.65359C25.2289 8.58486 25.3013 8.54679 25.3701 8.56815C25.4388 8.59229 25.4769 8.66473 25.4555 8.73345C25.4351 8.78825 25.3831 8.82261 25.3283 8.82261C25.318 8.82261 25.3041 8.82261 25.2902 8.8189H25.2911ZM21.1621 8.06665C21.1621 7.99421 21.2206 7.93571 21.2931 7.93571C21.3655 7.93571 21.424 7.99421 21.424 8.06665C21.424 8.13909 21.3655 8.1976 21.2931 8.1976C21.2206 8.1976 21.1658 8.13909 21.1621 8.06665ZM25.3023 8.05644V8.04251V8.03229C25.3023 7.95985 25.3608 7.90134 25.4295 7.90134C25.5019 7.90134 25.5604 7.95614 25.5632 8.02858C25.5632 8.03508 25.5632 8.03879 25.5595 8.04251C25.5595 8.04251 25.5632 8.05272 25.5632 8.05644C25.5632 8.12887 25.5047 8.18738 25.4323 8.18738C25.3598 8.18738 25.3013 8.12887 25.3013 8.05644H25.3023ZM21.3516 7.55123C21.2829 7.53079 21.2448 7.45836 21.2661 7.38963C21.2903 7.32091 21.3618 7.28283 21.4314 7.30419C21.5002 7.32462 21.5373 7.39985 21.5169 7.4695C21.4965 7.52429 21.4445 7.55866 21.3897 7.55866C21.3794 7.55866 21.3655 7.55866 21.3516 7.55215V7.55123ZM25.1982 7.43421H25.202C25.1778 7.3692 25.2122 7.29305 25.2809 7.2689C25.3496 7.24847 25.4248 7.28283 25.4462 7.35156C25.4703 7.42028 25.4323 7.49272 25.3673 7.51686C25.3496 7.52336 25.3366 7.52336 25.3227 7.52336C25.2679 7.52336 25.2196 7.489 25.1992 7.43421H25.1982ZM21.606 6.95686C21.5475 6.916 21.5336 6.83334 21.5754 6.77484C21.6163 6.71633 21.6989 6.7024 21.7574 6.74419C21.8159 6.78505 21.8299 6.86771 21.7881 6.92621C21.7602 6.96057 21.7194 6.98101 21.6813 6.98101C21.6534 6.98101 21.6265 6.97451 21.606 6.95686ZM24.9206 6.89835C24.876 6.83984 24.8899 6.76091 24.9484 6.71633C25.0032 6.67547 25.0859 6.68568 25.1267 6.74326H25.1305C25.1713 6.80177 25.1611 6.88071 25.1026 6.92528C25.0784 6.942 25.0515 6.95315 25.0237 6.95315C24.9856 6.95315 24.9447 6.93271 24.9206 6.89835ZM22.0277 6.46929C21.9868 6.41079 21.9998 6.32813 22.0555 6.28727C22.114 6.24269 22.1967 6.25662 22.2376 6.3142C22.2821 6.369 22.2682 6.45165 22.2106 6.49623C22.1902 6.51294 22.1623 6.52037 22.1354 6.52037C22.0945 6.52037 22.0565 6.50366 22.0286 6.46929H22.0277ZM24.4878 6.4758C24.4293 6.43493 24.4154 6.35228 24.4571 6.29377C24.498 6.23526 24.5807 6.22133 24.6392 6.26312C24.6977 6.30399 24.7116 6.38664 24.6698 6.44515C24.642 6.47951 24.6011 6.49994 24.563 6.49994C24.5361 6.49994 24.5082 6.49344 24.4878 6.4758ZM22.5849 6.13218C22.5607 6.06346 22.5988 5.99102 22.6675 5.96687C22.7326 5.94644 22.8087 5.9808 22.8329 6.04952C22.8533 6.11825 22.8189 6.1944 22.7502 6.21483C22.7363 6.22133 22.7223 6.22133 22.7093 6.22133C22.6545 6.22133 22.6025 6.18697 22.5858 6.13218H22.5849ZM23.9445 6.20462C23.8758 6.18419 23.8377 6.11175 23.8591 6.04302C23.8795 5.9743 23.9547 5.93622 24.0244 5.95758C24.0931 5.97801 24.1312 6.05045 24.1098 6.11918C24.0894 6.17768 24.0411 6.21205 23.9863 6.21205C23.9724 6.21205 23.9584 6.20833 23.9454 6.20555L23.9445 6.20462ZM23.2136 5.98823C23.2136 5.91579 23.2721 5.85728 23.3446 5.85728C23.417 5.85357 23.4755 5.91208 23.4755 5.98452C23.4755 6.05695 23.417 6.11546 23.3483 6.11546C23.2758 6.11546 23.2173 6.06067 23.2146 5.98823H23.2136Z" fill="#1D8E7C"/>
<path d="M19.8574 4.3429C19.6902 4.17667 19.5742 3.93521 19.5853 3.6566C19.5974 3.37892 19.7515 3.09938 19.9624 2.92571C20.1722 2.74647 20.4193 2.64618 20.6654 2.59231C20.9124 2.53938 21.1622 2.51523 21.412 2.54402C21.9284 2.60346 22.364 2.84677 22.7131 3.15046C23.0623 3.45693 23.3279 3.82469 23.5267 4.22124C23.535 4.23889 23.5285 4.25932 23.5109 4.26861C23.4988 4.27511 23.484 4.27325 23.4737 4.26489C23.1218 4.00021 22.7865 3.73832 22.4308 3.54515C22.0807 3.35013 21.7074 3.21268 21.3591 3.20339C20.9969 3.18296 20.6254 3.28512 20.3505 3.443C20.2177 3.52658 20.0989 3.61481 20.0162 3.75968C19.928 3.90363 19.8871 4.10144 19.8555 4.3429H19.8574Z" fill="#1D8E7C"/>
<path d="M19.1571 2.2477C19.2444 2.46489 19.3808 2.65609 19.5442 2.7981C19.5934 2.62639 19.6843 2.46303 19.8161 2.32474C19.6175 2.26162 19.3985 2.23192 19.1581 2.2477H19.1571Z" fill="#1D8E7C"/>
<path d="M19.7347 1.6817C19.7217 1.9026 19.7477 2.12258 19.8155 2.32399C19.9445 2.18384 20.1107 2.07153 20.2907 1.98985C20.1339 1.86919 19.9464 1.7606 19.7347 1.68263V1.6817Z" fill="#1D8E7C"/>
<path d="M20.4665 1.39319C20.3737 1.58625 20.3143 1.78673 20.2911 1.99C20.473 1.90925 20.667 1.86005 20.8684 1.8517C20.7635 1.68927 20.6317 1.53798 20.4665 1.39319Z" fill="#1D8E7C"/>
<path d="M21.2409 1.38788C21.0933 1.52432 20.9671 1.68211 20.8687 1.85196C21.072 1.84175 21.2789 1.86588 21.4822 1.91879C21.4228 1.74522 21.3448 1.56516 21.24 1.38788H21.2409Z" fill="#1D8E7C"/>
<path d="M21.9596 1.60645C21.7879 1.69369 21.6274 1.79393 21.4826 1.91738C21.6858 1.96936 21.8854 2.05104 22.0757 2.1522C22.0506 1.97678 22.0135 1.79579 21.9596 1.60645Z" fill="#1D8E7C"/>
<path d="M22.5929 1.98254C22.4166 2.02153 22.2421 2.08 22.0769 2.1524C22.2672 2.2545 22.45 2.37516 22.618 2.51438C22.6199 2.34453 22.6124 2.16725 22.5929 1.98254Z" fill="#1D8E7C"/>
<path d="M23.1344 2.46289C22.9627 2.46846 22.7892 2.48331 22.6174 2.51487C22.7873 2.65409 22.9507 2.8091 23.1084 2.97152L23.1344 2.46382V2.46289Z" fill="#1D8E7C"/>
<path d="M23.6043 2.99035C23.4428 2.97643 23.2767 2.96901 23.1087 2.97086C23.2664 3.13329 23.4196 3.30222 23.57 3.47393L23.6043 2.99035Z" fill="#1D8E7C"/>
<path d="M24.039 3.53829C23.8868 3.51137 23.7299 3.49002 23.5703 3.47424L23.793 3.73506L23.9035 3.86686L23.9582 3.93276L23.9861 3.96617L24 3.98288L24.0065 3.99123L24.0102 3.99494L24.0121 3.9968V3.99866C23.961 4.03949 24.1272 3.9077 23.897 4.08962L24.013 3.99866V3.99587V3.99216V3.98473V3.97081L24.0149 3.94297L24.0176 3.88635L24.0232 3.77126L24.0381 3.53736L24.039 3.53829Z" fill="#1D8E7C"/>
<path d="M11.3022 23.7896C11.2242 23.6438 11.0496 23.5453 10.8889 23.5871C10.7338 23.6271 10.64 23.7738 10.5732 23.9233C10.6372 23.5936 10.6837 23.3262 10.6837 23.2444C10.6837 22.9807 10.4701 22.7671 10.2063 22.7671C9.94258 22.7671 9.72898 22.9807 9.72898 23.2444C9.72898 23.3271 9.77542 23.5946 9.8395 23.9233C9.77263 23.7729 9.67883 23.6271 9.52374 23.5871C9.364 23.5453 9.18848 23.6438 9.11047 23.7896C9.03246 23.9354 9.03989 24.1156 9.09468 24.2706C9.14947 24.4267 9.24885 24.5623 9.351 24.6923C9.55067 24.9458 9.76984 25.1836 9.99644 25.4139C9.93608 25.1678 9.84692 24.7666 9.84692 24.7666C9.84692 24.7666 9.97788 24.9746 10.0977 25.1687C10.1032 25.178 10.1088 25.1873 10.1144 25.1966C10.1237 25.1055 10.1348 25.008 10.145 24.9124C10.1766 24.6217 10.2073 24.3514 10.2073 24.3514C10.2073 24.3514 10.2379 24.6217 10.2695 24.9124C10.2797 25.008 10.2899 25.1055 10.3001 25.1966C10.3057 25.1873 10.3113 25.178 10.3168 25.1687C10.4367 24.9737 10.5676 24.7666 10.5676 24.7666C10.5676 24.7666 10.4775 25.1668 10.4171 25.4139C10.6437 25.1836 10.8629 24.9458 11.0626 24.6923C11.1647 24.5623 11.2641 24.4257 11.3189 24.2706C11.3737 24.1146 11.3811 23.9354 11.3031 23.7896H11.3022Z" fill="#1D8E7C"/>
<path d="M11.3022 27.6751C11.2242 27.8209 11.0496 27.9193 10.8889 27.8775C10.7338 27.8376 10.64 27.6909 10.5732 27.5413C10.6372 27.8701 10.6837 28.1385 10.6837 28.2202C10.6837 28.484 10.4701 28.6976 10.2063 28.6976C9.94258 28.6976 9.72898 28.484 9.72898 28.2202C9.72898 28.1376 9.77542 27.8701 9.8395 27.5413C9.77263 27.6918 9.67883 27.8376 9.52374 27.8775C9.364 27.9193 9.18848 27.8209 9.11047 27.6751C9.03246 27.5293 9.03989 27.3491 9.09468 27.194C9.14947 27.038 9.24885 26.9024 9.351 26.7724C9.55067 26.5188 9.76984 26.2811 9.99644 26.0508C9.93608 26.2969 9.84692 26.6981 9.84692 26.6981C9.84692 26.6981 9.97788 26.4901 10.0977 26.296C10.1032 26.2867 10.1088 26.2774 10.1144 26.2681C10.1237 26.3591 10.1348 26.4566 10.145 26.5523C10.1766 26.843 10.2073 27.1132 10.2073 27.1132C10.2073 27.1132 10.2379 26.843 10.2695 26.5523C10.2797 26.4566 10.2899 26.3591 10.3001 26.2681C10.3057 26.2774 10.3113 26.2867 10.3168 26.296C10.4367 26.491 10.5676 26.6981 10.5676 26.6981C10.5676 26.6981 10.4775 26.2978 10.4171 26.0508C10.6437 26.2811 10.8629 26.5188 11.0626 26.7724C11.1647 26.9024 11.2641 27.0389 11.3189 27.194C11.3737 27.35 11.3811 27.5293 11.3031 27.6751H11.3022Z" fill="#1D8E7C"/>
<path d="M12.1492 26.8285C12.295 26.7505 12.3934 26.5759 12.3516 26.4152C12.3117 26.2601 12.1649 26.1663 12.0154 26.0995C12.3451 26.1636 12.6126 26.21 12.6943 26.21C12.958 26.21 13.1716 25.9964 13.1716 25.7326C13.1716 25.4689 12.958 25.2553 12.6943 25.2553C12.6116 25.2553 12.3442 25.3017 12.0154 25.3658C12.1659 25.2989 12.3117 25.2051 12.3516 25.0501C12.3934 24.8903 12.295 24.7148 12.1492 24.6368C12.0033 24.5588 11.8232 24.5662 11.6681 24.621C11.5121 24.6758 11.3765 24.7752 11.2465 24.8773C10.9929 25.077 10.7552 25.2962 10.5249 25.5228C10.771 25.4624 11.1722 25.3723 11.1722 25.3723C11.1722 25.3723 10.9641 25.5033 10.77 25.6231C10.7608 25.6286 10.7515 25.6342 10.7422 25.6398C10.8332 25.6491 10.9307 25.6602 11.0264 25.6704C11.317 25.702 11.5873 25.7326 11.5873 25.7326C11.5873 25.7326 11.317 25.7633 11.0264 25.7949C10.9307 25.8051 10.8332 25.8153 10.7422 25.8255C10.7515 25.8311 10.7608 25.8367 10.77 25.8422C10.9651 25.962 11.1722 26.093 11.1722 26.093C11.1722 26.093 10.7719 26.0029 10.5249 25.9425C10.7552 26.1691 10.9929 26.3883 11.2465 26.588C11.3765 26.6901 11.513 26.7895 11.6681 26.8443C11.8241 26.8991 12.0033 26.9065 12.1492 26.8285Z" fill="#1D8E7C"/>
<path d="M8.26349 26.8285C8.11769 26.7505 8.01924 26.5759 8.06103 26.4152C8.10097 26.2601 8.2477 26.1663 8.39722 26.0995C8.06753 26.1636 7.80007 26.21 7.71835 26.21C7.4546 26.21 7.241 25.9964 7.241 25.7326C7.241 25.4689 7.4546 25.2553 7.71835 25.2553C7.801 25.2553 8.06846 25.3017 8.39722 25.3658C8.24677 25.2989 8.10097 25.2051 8.06103 25.0501C8.01924 24.8903 8.11769 24.7148 8.26349 24.6368C8.4093 24.5588 8.58946 24.5662 8.74455 24.621C8.90057 24.6758 9.03616 24.7752 9.16618 24.8773C9.41972 25.077 9.65746 25.2962 9.88778 25.5228C9.64168 25.4624 9.24047 25.3723 9.24047 25.3723C9.24047 25.3723 9.44851 25.5033 9.6426 25.6231C9.65189 25.6286 9.66117 25.6342 9.67046 25.6398C9.57945 25.6491 9.48194 25.6602 9.38628 25.6704C9.0956 25.702 8.82535 25.7326 8.82535 25.7326C8.82535 25.7326 9.0956 25.7633 9.38628 25.7949C9.48194 25.8051 9.57945 25.8153 9.67046 25.8255C9.66117 25.8311 9.65189 25.8367 9.6426 25.8422C9.44758 25.962 9.24047 26.093 9.24047 26.093C9.24047 26.093 9.64075 26.0029 9.88778 25.9425C9.65746 26.1691 9.41972 26.3883 9.16618 26.588C9.03616 26.6901 8.89964 26.7895 8.74455 26.8443C8.58853 26.8991 8.4093 26.9065 8.26349 26.8285Z" fill="#1D8E7C"/>
<path d="M10.2062 25.9058C10.3021 25.9058 10.3798 25.8281 10.3798 25.7323C10.3798 25.6364 10.3021 25.5587 10.2062 25.5587C10.1103 25.5587 10.0326 25.6364 10.0326 25.7323C10.0326 25.8281 10.1103 25.9058 10.2062 25.9058Z" fill="#1D8E7C"/>
<path d="M12.1523 23.9139C12.1421 23.9371 12.1235 23.9649 12.1105 23.9789L12.0957 23.9919L12.0669 24.0169L12.0112 24.0633L11.9008 24.1543L11.6789 24.3334L11.2343 24.688L11.5592 24.2211L11.7207 23.9872L11.7996 23.8703L11.8376 23.8127L11.8553 23.7849L11.8636 23.7719C11.8571 23.7765 11.846 23.7951 11.8432 23.809C11.872 23.7227 11.9648 23.6763 12.0502 23.7051C12.1365 23.7338 12.1829 23.8266 12.1541 23.913L12.1523 23.9139Z" fill="#1D8E7C"/>
<path d="M8.30058 23.9138C8.31079 23.937 8.32936 23.9649 8.34236 23.9788L8.35721 23.9918L8.38598 24.0169L8.44167 24.0633L8.55212 24.1542L8.77396 24.3334L9.21854 24.6879L8.89368 24.2211L8.73218 23.9872L8.65329 23.8702L8.61523 23.8127L8.5976 23.7848L8.58925 23.7718C8.59575 23.7765 8.60689 23.795 8.60967 23.809C8.5809 23.7226 8.48808 23.6762 8.40176 23.705C8.31544 23.7338 8.26904 23.8266 8.29781 23.9129L8.30058 23.9138Z" fill="#1D8E7C"/>
<path d="M8.30058 27.5504C8.31079 27.5272 8.32936 27.4993 8.34236 27.4854L8.35721 27.4724L8.38598 27.4474L8.44167 27.401L8.55212 27.31L8.77396 27.1309L9.21854 26.7763L8.89368 27.2432L8.73218 27.4771L8.65329 27.594L8.61523 27.6516L8.5976 27.6794L8.58925 27.6924C8.59575 27.6878 8.60689 27.6692 8.60967 27.6553C8.5809 27.7416 8.48808 27.788 8.40176 27.7592C8.31544 27.7305 8.26904 27.6376 8.29781 27.5513L8.30058 27.5504Z" fill="#1D8E7C"/>
<path d="M12.1523 27.5504C12.1421 27.5272 12.1235 27.4993 12.1105 27.4854L12.0957 27.4724L12.0669 27.4474L12.0112 27.401L11.9008 27.31L11.6789 27.1309L11.2343 26.7763L11.5592 27.2432L11.7207 27.4771L11.7996 27.594L11.8376 27.6516L11.8553 27.6794L11.8636 27.6924C11.8571 27.6878 11.846 27.6692 11.8432 27.6553C11.872 27.7416 11.9648 27.788 12.0502 27.7592C12.1365 27.7305 12.1829 27.6376 12.1541 27.5513L12.1523 27.5504Z" fill="#1D8E7C"/>
<path d="M39.725 18.2942C39.7835 18.44 39.9386 18.5515 40.0946 18.5283C40.245 18.506 40.3491 18.3778 40.428 18.2431C40.3333 18.5478 40.2618 18.7966 40.2534 18.8747C40.2265 19.1245 40.4066 19.3483 40.6555 19.3762C40.9053 19.4031 41.1292 19.2229 41.157 18.974C41.1654 18.896 41.1496 18.6378 41.1227 18.3202C41.17 18.4697 41.2443 18.6174 41.3864 18.6713C41.5331 18.727 41.7096 18.6527 41.7978 18.5227C41.887 18.3927 41.899 18.2218 41.8628 18.0685C41.8266 17.9153 41.7477 17.776 41.6641 17.6432C41.5016 17.3822 41.3195 17.1352 41.1282 16.8937C41.1598 17.1334 41.2035 17.5215 41.2035 17.5215C41.2035 17.5215 41.1013 17.3117 41.0084 17.1148C41.0038 17.1055 41.0001 17.0962 40.9954 17.0869C40.9769 17.1724 40.9564 17.2634 40.9369 17.3525C40.8766 17.6237 40.8199 17.8772 40.8199 17.8772C40.8199 17.8772 40.8199 17.6181 40.8199 17.3395C40.8199 17.2476 40.8199 17.1547 40.8199 17.0674C40.8134 17.0758 40.8078 17.0832 40.8013 17.0916C40.6676 17.2634 40.5227 17.4463 40.5227 17.4463C40.5227 17.4463 40.649 17.0767 40.7317 16.8501C40.493 17.0442 40.2618 17.2467 40.0463 17.4658C39.9358 17.5782 39.828 17.6971 39.7603 17.8382C39.6915 17.9803 39.6665 18.1493 39.725 18.2951V18.2942Z" fill="#1D8E7C"/>
<path d="M40.7595 16.4982C40.7725 16.3813 40.8783 16.2959 40.9953 16.3089C41.1122 16.3219 41.1976 16.4277 41.1846 16.5446C41.1716 16.6616 41.0658 16.747 40.9489 16.734C40.8319 16.721 40.7465 16.6152 40.7595 16.4982Z" fill="#1D8E7C"/>
<path d="M40.8421 14.0987C40.9703 12.6685 41.065 11.4398 40.3546 9.84894C39.9952 11.2615 40.1605 12.8087 40.8421 14.0987Z" fill="#1D8E7C"/>
<path d="M24.8324 32.5139C24.6596 32.6188 24.537 32.773 24.4702 32.9476C24.264 32.7451 23.9622 32.6485 23.6594 32.7191C23.1904 32.8296 22.8979 33.2996 23.0084 33.7695C23.0539 33.9664 23.1635 34.1298 23.3084 34.2487C23.0521 34.3824 22.8673 34.6397 22.8412 34.9489C22.8013 35.43 23.1579 35.8525 23.639 35.8934C23.8396 35.9101 24.03 35.8572 24.1869 35.755C24.2352 36.0401 24.4228 36.2955 24.7089 36.4163C25.1537 36.6039 25.6654 36.3949 25.853 35.95C25.931 35.7643 25.9403 35.5665 25.8911 35.3863C26.1771 35.4291 26.478 35.3288 26.6814 35.0938C26.9962 34.7279 26.9563 34.1762 26.5913 33.8614C26.439 33.7295 26.2533 33.6608 26.0666 33.6506C26.1957 33.3915 26.1938 33.0739 26.0322 32.8092C25.7824 32.3969 25.2447 32.2641 24.8324 32.5139ZM25.4007 33.5243C25.4611 33.6237 25.4695 33.7481 25.4249 33.8568C25.4221 33.8633 25.4184 33.8707 25.4147 33.8781L25.3311 34.0472L25.5196 34.0574C25.6023 34.062 25.6784 34.0927 25.7397 34.1456C25.8604 34.2496 25.8994 34.4186 25.8382 34.5663C25.8233 34.6016 25.8029 34.6341 25.7778 34.6638C25.6961 34.7595 25.5716 34.805 25.4453 34.7864L25.2586 34.7585L25.3069 34.9415C25.3283 35.0204 25.3227 35.1021 25.2911 35.1783C25.2531 35.2693 25.1825 35.339 25.0915 35.3761C25.0005 35.4133 24.9011 35.4123 24.811 35.3752C24.6949 35.326 24.6132 35.222 24.5918 35.0975L24.5603 34.9108L24.4014 35.0139C24.3327 35.0585 24.2529 35.0789 24.1711 35.0715C23.9696 35.0548 23.8192 34.8765 23.8359 34.675C23.8387 34.6369 23.848 34.5988 23.8628 34.5644C23.8953 34.4864 23.9557 34.4205 24.0318 34.3815L24.199 34.2942L24.0523 34.1753C23.9882 34.1233 23.9445 34.0537 23.926 33.9747C23.9083 33.8976 23.9148 33.8205 23.9445 33.7481C23.99 33.6395 24.0848 33.5596 24.199 33.5327C24.3216 33.5039 24.4488 33.5392 24.5398 33.6283L24.6745 33.7611L24.7423 33.5847L24.7469 33.5735C24.7767 33.5011 24.8287 33.4426 24.8946 33.4017C24.9782 33.3516 25.0766 33.3358 25.1723 33.359C25.267 33.3822 25.3478 33.4416 25.3989 33.5262L25.4007 33.5243Z" fill="#1D8E7C"/>
<path d="M24.9371 34.0487C25.0735 34.1062 25.1376 34.2631 25.08 34.3995C25.0225 34.5359 24.8656 34.6 24.7292 34.5424C24.5927 34.4849 24.5287 34.328 24.5862 34.1916C24.6438 34.0552 24.8006 33.9911 24.9371 34.0487Z" fill="#1D8E7C"/>
<path d="M34.7044 22.1545C34.6487 22.473 34.6134 22.7563 34.6645 23.073C34.7156 23.3831 34.853 23.737 35.1548 24.101C35.3266 23.3636 35.126 22.7423 34.7035 22.1545H34.7044Z" fill="#1D8E7C"/>
<path d="M35.7065 22.0561C35.6731 22.3215 35.6638 22.5638 35.7427 22.8153C35.8206 23.0622 35.9877 23.3286 36.307 23.5718C36.4026 22.9286 36.1789 22.4654 35.7065 22.0561Z" fill="#1D8E7C"/>
<path d="M36.7094 21.8029C36.6816 22.0183 36.6862 22.2178 36.7735 22.4053C36.8607 22.59 37.0352 22.7691 37.3434 22.8972C37.3954 22.3505 37.1874 22.0387 36.7094 21.8029Z" fill="#1D8E7C"/>
<path d="M37.6883 21.3948C37.6539 21.5674 37.6586 21.7252 37.7403 21.8514C37.821 21.9767 37.9834 22.076 38.2535 22.0955C38.274 21.8718 38.2424 21.7113 38.1524 21.6027C38.0623 21.4922 37.9138 21.4347 37.6883 21.3948Z" fill="#1D8E7C"/>
<path d="M38.617 20.8353C38.5659 20.9727 38.5585 21.0924 38.6188 21.1648C38.6782 21.2363 38.8109 21.2641 39.0179 21.188C39.0476 21.0098 39.0356 20.8965 38.9789 20.8455C38.9186 20.7917 38.8119 20.8019 38.617 20.8353Z" fill="#1D8E7C"/>
<path d="M25.9958 5.23352C25.8649 5.28178 25.7841 5.31984 25.7285 5.38852C25.6718 5.45628 25.6468 5.55374 25.6004 5.73751C25.7944 5.68832 26.032 5.45906 25.9958 5.23352Z" fill="#1D8E7C"/>
<path d="M26.5026 5.54315C26.3374 5.59234 26.2232 5.64247 26.1276 5.72971C26.0301 5.81696 25.9559 5.94226 25.8417 6.14739C26.1081 6.06385 26.4357 5.83738 26.5026 5.54315Z" fill="#1D8E7C"/>
<path d="M26.9233 5.97083C26.7386 6.00145 26.5957 6.04879 26.4657 6.13511C26.3339 6.22236 26.217 6.35137 26.0471 6.55C26.3757 6.47111 26.7627 6.28733 26.9233 5.97083Z" fill="#1D8E7C"/>
<path d="M27.2454 6.48438C26.8463 6.4918 26.631 6.60132 26.217 6.95217C26.5827 6.91133 27.0069 6.78788 27.2454 6.48438Z" fill="#1D8E7C"/>
<path d="M27.4544 7.05985C27.0608 7.00138 26.8121 7.08213 26.3499 7.35965C26.7276 7.3745 27.1546 7.32623 27.4544 7.05985Z" fill="#1D8E7C"/>
<path d="M27.5351 7.6657C27.1824 7.54411 26.9151 7.58124 26.4445 7.77894C26.8112 7.85691 27.2038 7.8764 27.5351 7.6657Z" fill="#1D8E7C"/>
<path d="M27.4879 8.26715C27.203 8.0973 26.9431 8.08802 26.505 8.21703C26.8289 8.35161 27.1491 8.42216 27.4879 8.26715Z" fill="#1D8E7C"/>
<path d="M27.3125 8.83713C27.2178 8.74246 27.1129 8.67934 26.9867 8.65243C26.8614 8.62551 26.7054 8.63479 26.5337 8.67749C26.7825 8.85384 26.9978 8.94294 27.3125 8.83713Z" fill="#1D8E7C"/>
<path d="M27.0071 9.34197C26.9514 9.1684 26.762 9.08116 26.5309 9.16933C26.6748 9.35868 26.7527 9.41901 27.0071 9.34197Z" fill="#1D8E7C"/>
</g>
</svg>
