<svg width="35" height="43" viewBox="0 0 35 43" fill="none" xmlns="http://www.w3.org/2000/svg">
<g opacity="0.5">
<path d="M31.5734 33.8656C31.7364 34.8301 32.1627 35.8924 33.0691 36.8922L30.3913 42.9985H27.687L29.8143 36.7302C29.8143 36.7302 26.0873 33.9545 24.1415 31.7814C24.1353 31.7849 24.1256 31.7876 24.115 31.7946C24.115 31.7946 24.1115 31.7981 24.1089 31.8008C24.093 31.8069 24.0728 31.8166 24.0472 31.8272C23.9626 31.866 23.8384 31.9285 23.7019 31.9937C23.0245 32.3002 21.6037 32.8763 19.7591 33.2974C18.355 33.6198 16.706 33.8479 14.9469 33.7924C14.628 33.7863 14.3021 33.766 13.9762 33.7369C13.9762 33.7369 15.4913 37.1415 10.8552 43.0002H8.3236C9.03094 43.0002 11.1812 38.3968 8.25225 32.3689C5.8316 27.3938 6.03332 22.8229 7.93337 15.6869C8.09633 15.0747 8.11219 14.4423 8.04701 13.8265C7.90078 12.4127 7.32733 11.0764 7.15115 10.2167C8.17385 9.8027 9.32779 9.58776 10.3998 9.29796C10.4033 9.29796 10.406 9.29443 10.4095 9.29443C10.4192 9.31381 10.4289 9.33319 10.4386 9.34993C10.7354 9.92338 11.064 10.4475 11.4164 10.9267C11.4199 10.9302 11.4199 10.9329 11.4199 10.9329C13.8898 14.3048 17.4636 15.4491 19.0632 15.8561C21.0637 16.3608 23.1329 16.4753 25.1756 16.1855C26.9479 15.9345 29.9913 14.814 29.2417 12.5105C30.5093 13.1527 31.236 14.104 31.7566 15.0289C31.9812 15.4297 32.2032 15.8437 32.4146 16.2701C32.4534 16.3485 32.493 16.4234 32.5283 16.5018C32.5644 16.5766 32.5996 16.6515 32.6357 16.7264C32.6745 16.8074 32.7106 16.8893 32.7467 16.9704C32.789 17.0549 32.8278 17.1395 32.8639 17.2276C32.9123 17.3351 32.9581 17.4425 33.0039 17.55C34.4961 21.0885 35.1577 25.3308 32.8146 29.6928C31.9513 31.2996 31.2836 32.1822 31.5734 33.8664V33.8656Z" fill="white"/>
<path d="M4.98245 9.28983C4.73316 8.61772 4.56756 7.91126 4.52704 7.19246C4.49885 6.47367 4.58165 5.75664 4.7684 5.0722C4.97188 4.39216 5.27579 3.7544 5.6572 3.17391C6.04831 2.5987 6.5231 2.09572 7.04282 1.65616C8.11748 0.809642 9.33573 0.243239 10.6976 0.0529696C12.0418 -0.115277 13.4212 0.117277 14.6025 0.750626C15.782 1.37781 16.7641 2.41636 17.2442 3.68129C17.4891 4.33138 17.5684 5.04841 17.4662 5.73197C17.3711 6.41817 17.0777 7.05857 16.6787 7.59502C16.2761 8.13147 15.7582 8.57015 15.1786 8.87053C14.606 9.16826 13.9647 9.3691 13.3058 9.392C12.0021 9.44838 10.6782 8.85291 9.95147 7.76503C9.84488 7.60647 9.88804 7.39154 10.0475 7.28495C10.1999 7.18365 10.4025 7.21801 10.5135 7.36071L10.517 7.36511C11.1477 8.18168 12.2391 8.57808 13.2406 8.46092C14.2308 8.34729 15.2024 7.73948 15.7186 6.91939C16.2638 6.09929 16.329 5.06162 15.9344 4.22215C15.5221 3.33863 14.7637 2.63922 13.8678 2.24018C12.9702 1.83586 11.9466 1.74601 11.0032 1.93188C10.5302 2.01908 10.0845 2.21376 9.63788 2.43486C9.20008 2.66389 8.80897 2.95545 8.45134 3.27609C8.11132 3.61347 7.81006 3.98167 7.57486 4.38511C7.35024 4.79296 7.18464 5.22371 7.08334 5.66414C6.99966 6.1081 6.9838 6.55559 7.0296 6.99427C7.08862 7.43294 7.22516 7.85488 7.40397 8.2592L7.42247 8.3006C7.71669 8.96566 7.41543 9.74259 6.75125 10.0359C6.08619 10.3301 5.30926 10.0289 5.01592 9.3647C5.00535 9.34091 4.99479 9.31361 4.98598 9.28983H4.98245Z" fill="#FEFFFF"/>
<path d="M3.47969 8.1139L3.41979 8.1509C2.30812 8.83534 1.71442 10.0236 1.8809 11.2296C2.05267 12.4716 1.67566 13.7242 0.831778 14.7161L0.278592 15.3661C-0.240244 15.9757 -0.0103356 16.8795 0.768358 17.1904C1.45984 17.4662 2.37683 17.6 3.40834 17.1526C5.65721 16.1765 7.81624 14.4694 8.08578 13.7374C8.35533 13.0054 11.419 10.9327 11.419 10.9327C11.419 10.9327 10.5681 9.26257 9.70395 8.52439C8.00915 7.07623 5.40792 6.92736 3.47969 8.1139Z" fill="white"/>
<path d="M2.72652 16.8616C3.44972 17.4518 3.7131 18.6683 3.30173 19.5157C3.88399 19.2488 4.2337 18.5502 4.31209 17.835C4.39049 17.1197 4.23898 16.3859 4.05135 15.683L2.72564 16.8616H2.72652Z" fill="white"/>
<path d="M7.03054 8.80337C8.79846 7.9269 10.2184 7.20898 10.2184 4.41309C7.03054 5.26489 7.08163 7.68906 7.03054 8.80337Z" fill="white"/>
<path d="M3.92623 12.2489C3.92623 12.4268 3.7668 12.5713 3.56948 12.5713C3.37216 12.5713 3.21273 12.4268 3.21273 12.2489C3.21273 12.0709 3.37216 11.9265 3.56948 11.9265C3.7668 11.9265 3.92623 12.0709 3.92623 12.2489Z" fill="#0D808A"/>
<path d="M3.90248 16.2516C4.46536 16.8409 4.73755 17.6496 4.63273 18.423C4.91725 17.9667 5.02295 17.4214 4.92606 16.9052C4.82916 16.3891 4.47769 15.6394 4.04254 15.2941L3.90248 16.2516Z" fill="white"/>
<path d="M24.1433 31.7792C24.0834 31.8074 23.9089 31.8946 23.7019 31.9897C22.5092 30.5865 21.6345 28.6266 22.4379 26.1689C23.2527 23.676 26.4573 22.3204 26.4573 22.3204C26.4573 22.3204 20.6567 26.745 24.1433 31.7792Z" fill="#129AA6"/>
<path d="M13.977 30.7455C13.977 30.7455 17.4679 39.0724 13.977 42.9993H16.5025C16.5025 42.9993 21.1817 37.9061 19.3248 29.122L13.977 30.7455Z" fill="white"/>
<path d="M12.2787 28.4266C11.7352 28.4266 11.256 28.6987 10.9662 29.1136C10.8799 29.0987 10.7918 29.0899 10.7019 29.0872C11.0234 28.5508 11.6092 28.1887 12.2787 28.1887C12.9482 28.1887 13.5339 28.5499 13.8555 29.0872C13.7656 29.0899 13.6775 29.0987 13.5912 29.1136C13.3014 28.6987 12.8213 28.4266 12.2787 28.4266Z" fill="#0D808A"/>
<path d="M12.2787 28.8982C11.9484 28.8982 11.6524 29.0409 11.4454 29.2673C11.3705 29.2312 11.293 29.1986 11.2128 29.1731C11.4639 28.8612 11.8479 28.6604 12.2787 28.6604C12.7094 28.6604 13.0935 28.8612 13.3446 29.1731C13.2644 29.1986 13.1869 29.2312 13.112 29.2673C12.905 29.0409 12.609 28.8982 12.2787 28.8982Z" fill="#0D808A"/>
<path d="M12.2787 29.3695C12.1139 29.3695 11.9642 29.4302 11.8488 29.5307C11.788 29.4778 11.7237 29.4294 11.6559 29.3853C11.8171 29.2294 12.0364 29.1325 12.2787 29.1325C12.5209 29.1325 12.7402 29.2294 12.9014 29.3853C12.8336 29.4294 12.7693 29.4778 12.7085 29.5307C12.5931 29.4311 12.4434 29.3695 12.2787 29.3695Z" fill="#0D808A"/>
<path d="M12.2787 29.8412C12.2356 29.8412 12.1968 29.8562 12.1651 29.8809C12.1202 29.8157 12.07 29.7549 12.0171 29.6959C12.0893 29.6386 12.1792 29.6034 12.2787 29.6034C12.3783 29.6034 12.4681 29.6386 12.5403 29.6959C12.4875 29.754 12.4373 29.8157 12.3924 29.8809C12.3606 29.8562 12.3219 29.8412 12.2787 29.8412Z" fill="#0D808A"/>
<path d="M15.6753 28.4266C15.1318 28.4266 14.6526 28.6987 14.3628 29.1136C14.2765 29.0987 14.1884 29.0899 14.0985 29.0872C14.4201 28.5508 15.0059 28.1887 15.6753 28.1887C16.3448 28.1887 16.9306 28.5499 17.2521 29.0872C17.1622 29.0899 17.0741 29.0987 16.9878 29.1136C16.698 28.6987 16.2179 28.4266 15.6753 28.4266Z" fill="#0D808A"/>
<path d="M15.6754 28.8982C15.345 28.8982 15.049 29.0409 14.842 29.2673C14.7672 29.2312 14.6897 29.1986 14.6095 29.1731C14.8605 28.8612 15.2446 28.6604 15.6754 28.6604C16.1061 28.6604 16.4902 28.8612 16.7412 29.1731C16.6611 29.1986 16.5835 29.2312 16.5087 29.2673C16.3017 29.0409 16.0057 28.8982 15.6754 28.8982Z" fill="#0D808A"/>
<path d="M15.6753 29.3695C15.5106 29.3695 15.3609 29.4302 15.2455 29.5307C15.1847 29.4778 15.1204 29.4294 15.0526 29.3853C15.2138 29.2294 15.4331 29.1325 15.6753 29.1325C15.9176 29.1325 16.1369 29.2294 16.2981 29.3853C16.2303 29.4294 16.166 29.4778 16.1052 29.5307C15.9898 29.4311 15.8401 29.3695 15.6753 29.3695Z" fill="#0D808A"/>
<path d="M15.6754 29.8412C15.6322 29.8412 15.5934 29.8562 15.5617 29.8809C15.5168 29.8157 15.4666 29.7549 15.4137 29.6959C15.486 29.6386 15.5758 29.6034 15.6754 29.6034C15.7749 29.6034 15.8648 29.6386 15.937 29.6959C15.8841 29.754 15.8339 29.8157 15.789 29.8809C15.7573 29.8562 15.7185 29.8412 15.6754 29.8412Z" fill="#0D808A"/>
<path d="M10.5804 29.5692C10.0369 29.5692 9.55768 29.8414 9.26787 30.2563C9.18155 30.2413 9.09346 30.2325 9.00361 30.2299C9.32513 29.6934 9.91091 29.3314 10.5804 29.3314C11.2498 29.3314 11.8356 29.6925 12.1571 30.2299C12.0673 30.2325 11.9792 30.2413 11.8929 30.2563C11.6031 29.8414 11.123 29.5692 10.5804 29.5692Z" fill="#0D808A"/>
<path d="M10.5804 30.0404C10.2501 30.0404 9.95412 30.1831 9.74711 30.4095C9.67224 30.3734 9.59472 30.3408 9.51456 30.3153C9.76561 30.0035 10.1497 29.8026 10.5804 29.8026C11.0112 29.8026 11.3952 30.0035 11.6463 30.3153C11.5661 30.3408 11.4886 30.3734 11.4137 30.4095C11.2067 30.1831 10.9107 30.0404 10.5804 30.0404Z" fill="#0D808A"/>
<path d="M10.5804 30.512C10.4156 30.512 10.2659 30.5728 10.1505 30.6732C10.0897 30.6203 10.0254 30.5719 9.9576 30.5278C10.1188 30.3719 10.3381 30.275 10.5804 30.275C10.8226 30.275 11.042 30.3719 11.2032 30.5278C11.1353 30.5719 11.071 30.6203 11.0102 30.6732C10.8948 30.5736 10.7451 30.512 10.5804 30.512Z" fill="#0D808A"/>
<path d="M10.5804 30.9829C10.5372 30.9829 10.4984 30.9979 10.4667 31.0225C10.4218 30.9573 10.3716 30.8966 10.3188 30.8376C10.391 30.7803 10.4808 30.7451 10.5804 30.7451C10.6799 30.7451 10.7698 30.7803 10.842 30.8376C10.7891 30.8966 10.7389 30.9573 10.694 31.0225C10.6623 30.9979 10.6235 30.9829 10.5804 30.9829Z" fill="#0D808A"/>
<path d="M13.9771 29.5692C13.4336 29.5692 12.9544 29.8414 12.6646 30.2563C12.5782 30.2413 12.4902 30.2325 12.4003 30.2299C12.7218 29.6934 13.3076 29.3314 13.9771 29.3314C14.6465 29.3314 15.2323 29.6925 15.5538 30.2299C15.464 30.2325 15.3759 30.2413 15.2896 30.2563C14.9998 29.8414 14.5197 29.5692 13.9771 29.5692Z" fill="#0D808A"/>
<path d="M13.9771 30.0404C13.6467 30.0404 13.3508 30.1831 13.1438 30.4095C13.0689 30.3734 12.9914 30.3408 12.9112 30.3153C13.1623 30.0035 13.5463 29.8026 13.9771 29.8026C14.4078 29.8026 14.7919 30.0035 15.0429 30.3153C14.9628 30.3408 14.8853 30.3734 14.8104 30.4095C14.6034 30.1831 14.3074 30.0404 13.9771 30.0404Z" fill="#0D808A"/>
<path d="M13.9771 30.512C13.8124 30.512 13.6626 30.5728 13.5472 30.6732C13.4864 30.6203 13.4221 30.5719 13.3543 30.5278C13.5155 30.3719 13.7348 30.275 13.9771 30.275C14.2193 30.275 14.4387 30.3719 14.5999 30.5278C14.532 30.5719 14.4677 30.6203 14.407 30.6732C14.2916 30.5736 14.1418 30.512 13.9771 30.512Z" fill="#0D808A"/>
<path d="M13.977 30.9829C13.9338 30.9829 13.8951 30.9979 13.8634 31.0225C13.8185 30.9573 13.7682 30.8966 13.7154 30.8376C13.7876 30.7803 13.8775 30.7451 13.977 30.7451C14.0765 30.7451 14.1664 30.7803 14.2386 30.8376C14.1858 30.8966 14.1356 30.9573 14.0906 31.0225C14.0589 30.9979 14.0202 30.9829 13.977 30.9829Z" fill="#0D808A"/>
<path d="M29.2426 16.4908C28.6991 16.4908 28.2199 16.763 27.9301 17.1778C27.8438 17.1629 27.7557 17.1541 27.6658 17.1514C27.9874 16.615 28.5731 16.2529 29.2426 16.2529C29.9121 16.2529 30.4979 16.6141 30.8194 17.1514C30.7295 17.1541 30.6414 17.1629 30.5551 17.1778C30.2653 16.763 29.7852 16.4908 29.2426 16.4908Z" fill="#0D808A"/>
<path d="M29.2427 16.9625C28.9123 16.9625 28.6164 17.1052 28.4093 17.3316C28.3345 17.2955 28.257 17.2629 28.1768 17.2373C28.4278 16.9255 28.8119 16.7247 29.2427 16.7247C29.6734 16.7247 30.0575 16.9255 30.3085 17.2373C30.2284 17.2629 30.1508 17.2955 30.076 17.3316C29.869 17.1052 29.573 16.9625 29.2427 16.9625Z" fill="#0D808A"/>
<path d="M29.2426 17.4336C29.0779 17.4336 28.9281 17.4944 28.8127 17.5948C28.752 17.542 28.6877 17.4935 28.6198 17.4495C28.781 17.2936 29.0004 17.1967 29.2426 17.1967C29.4848 17.1967 29.7042 17.2936 29.8654 17.4495C29.7976 17.4935 29.7333 17.542 29.6725 17.5948C29.5571 17.4953 29.4073 17.4336 29.2426 17.4336Z" fill="#0D808A"/>
<path d="M29.2426 17.9047C29.1995 17.9047 29.1607 17.9197 29.129 17.9443C29.0841 17.8792 29.0339 17.8184 28.981 17.7594C29.0532 17.7021 29.1431 17.6669 29.2426 17.6669C29.3422 17.6669 29.432 17.7021 29.5042 17.7594C29.4514 17.8184 29.4012 17.8792 29.3563 17.9443C29.3245 17.9197 29.2858 17.9047 29.2426 17.9047Z" fill="#0D808A"/>
<path d="M32.5283 16.4991C32.0297 16.5317 31.5964 16.7924 31.3259 17.1765C31.2414 17.1632 31.1533 17.1536 31.0617 17.15C31.3479 16.6779 31.8368 16.3387 32.4138 16.2674C32.4526 16.3458 32.4922 16.4207 32.5274 16.4991H32.5283Z" fill="#0D808A"/>
<path d="M32.7468 16.9682C32.7107 16.9646 32.6754 16.962 32.6393 16.962C32.3099 16.962 32.0139 17.1056 31.8051 17.3337C31.7303 17.295 31.6554 17.265 31.5735 17.2395C31.8245 16.9268 32.2059 16.725 32.6358 16.725C32.6745 16.8061 32.7107 16.888 32.7468 16.969V16.9682Z" fill="#0D808A"/>
<path d="M33.0039 17.5481C32.9 17.4768 32.7758 17.4345 32.6393 17.4345C32.4763 17.4345 32.3265 17.4962 32.2094 17.5939C32.1477 17.542 32.0852 17.4926 32.0174 17.4503C32.1803 17.2936 32.3988 17.1967 32.6393 17.1967C32.7177 17.1967 32.7925 17.2063 32.8639 17.2257C32.9123 17.3332 32.9581 17.4407 33.0039 17.5481Z" fill="#0D808A"/>
<path d="M32.6393 17.9047C32.5961 17.9047 32.5573 17.9197 32.5256 17.9443C32.4807 17.8792 32.4305 17.8184 32.3776 17.7594C32.4499 17.7021 32.5397 17.6669 32.6393 17.6669C32.7388 17.6669 32.8286 17.7021 32.9009 17.7594C32.848 17.8184 32.7978 17.8792 32.7529 17.9443C32.7212 17.9197 32.6824 17.9047 32.6393 17.9047Z" fill="#0D808A"/>
<path d="M27.5452 17.6324C27.0017 17.6324 26.5225 17.9046 26.2326 18.3195C26.1463 18.3045 26.0582 18.2957 25.9684 18.2931C26.2899 17.7566 26.8757 17.3946 27.5452 17.3946C28.2146 17.3946 28.8004 17.7558 29.1219 18.2931C29.0321 18.2957 28.944 18.3045 28.8577 18.3195C28.5678 17.9046 28.0878 17.6324 27.5452 17.6324Z" fill="#0D808A"/>
<path d="M27.5452 18.1046C27.2148 18.1046 26.9189 18.2473 26.7119 18.4737C26.637 18.4376 26.5595 18.405 26.4793 18.3794C26.7304 18.0676 27.1144 17.8668 27.5452 17.8668C27.9759 17.8668 28.36 18.0676 28.611 18.3794C28.5309 18.405 28.4533 18.4376 28.3785 18.4737C28.1715 18.2473 27.8755 18.1046 27.5452 18.1046Z" fill="#0D808A"/>
<path d="M27.5452 18.5758C27.3804 18.5758 27.2307 18.6365 27.1153 18.737C27.0545 18.6841 26.9902 18.6357 26.9224 18.5916C27.0836 18.4357 27.3029 18.3388 27.5452 18.3388C27.7874 18.3388 28.0067 18.4357 28.1679 18.5916C28.1001 18.6357 28.0358 18.6841 27.975 18.737C27.8596 18.6374 27.7099 18.5758 27.5452 18.5758Z" fill="#0D808A"/>
<path d="M27.5452 19.0472C27.502 19.0472 27.4632 19.0621 27.4315 19.0868C27.3866 19.0216 27.3364 18.9608 27.2835 18.9018C27.3558 18.8446 27.4456 18.8093 27.5452 18.8093C27.6447 18.8093 27.7345 18.8446 27.8068 18.9018C27.7539 18.9608 27.7037 19.0216 27.6588 19.0868C27.6271 19.0621 27.5883 19.0472 27.5452 19.0472Z" fill="#0D808A"/>
<path d="M30.941 17.6324C30.3975 17.6324 29.9183 17.9046 29.6284 18.3195C29.5421 18.3045 29.454 18.2957 29.3642 18.2931C29.6857 17.7566 30.2715 17.3946 30.941 17.3946C31.6104 17.3946 32.1962 17.7558 32.5177 18.2931C32.4279 18.2957 32.3398 18.3045 32.2535 18.3195C31.9637 17.9046 31.4836 17.6324 30.941 17.6324Z" fill="#0D808A"/>
<path d="M30.9409 18.1046C30.6106 18.1046 30.3146 18.2473 30.1076 18.4737C30.0327 18.4376 29.9552 18.405 29.8751 18.3794C30.1261 18.0676 30.5102 17.8668 30.9409 17.8668C31.3717 17.8668 31.7557 18.0676 32.0068 18.3794C31.9266 18.405 31.8491 18.4376 31.7742 18.4737C31.5672 18.2473 31.2712 18.1046 30.9409 18.1046Z" fill="#0D808A"/>
<path d="M30.9409 18.5758C30.7762 18.5758 30.6265 18.6365 30.5111 18.737C30.4503 18.6841 30.386 18.6357 30.3182 18.5916C30.4794 18.4357 30.6987 18.3388 30.9409 18.3388C31.1832 18.3388 31.4025 18.4357 31.5637 18.5916C31.4959 18.6357 31.4316 18.6841 31.3708 18.737C31.2554 18.6374 31.1057 18.5758 30.9409 18.5758Z" fill="#0D808A"/>
<path d="M30.941 19.0472C30.8978 19.0472 30.859 19.0621 30.8273 19.0868C30.7824 19.0216 30.7322 18.9608 30.6793 18.9018C30.7516 18.8446 30.8414 18.8093 30.941 18.8093C31.0405 18.8093 31.1304 18.8446 31.2026 18.9018C31.1497 18.9608 31.0995 19.0216 31.0546 19.0868C31.0229 19.0621 30.9841 19.0472 30.941 19.0472Z" fill="#0D808A"/>
<path d="M7.04286 12.9024C7.02524 12.8927 6.87549 12.7826 6.72046 12.6954C6.56631 12.6055 6.4051 12.5377 6.4051 12.5377C6.4051 12.5377 6.56895 12.595 6.74424 12.6329C6.91865 12.6725 7.10276 12.6919 7.12214 12.6963C7.16002 12.7051 7.17939 12.765 7.15473 12.8275C7.13095 12.8901 7.07633 12.9209 7.04286 12.9024Z" fill="#0D808A"/>
<path d="M6.7372 13.2474C6.72663 13.2306 6.64471 13.0641 6.54693 12.9135C6.4518 12.7629 6.3408 12.6281 6.3408 12.6281C6.3408 12.6281 6.45884 12.755 6.59714 12.8704C6.7328 12.9866 6.88695 13.0888 6.90193 13.102C6.93188 13.1276 6.92042 13.1892 6.87021 13.2333C6.82088 13.2773 6.75746 13.28 6.73632 13.2474H6.7372Z" fill="#0D808A"/>
<path d="M6.30554 13.4104C6.30378 13.391 6.30906 13.2052 6.2932 13.0272C6.28616 12.9383 6.27471 12.8511 6.26326 12.7859C6.25269 12.7207 6.24388 12.6784 6.24388 12.6784C6.24388 12.6784 6.28968 12.8458 6.35751 13.0123C6.42357 13.1787 6.51254 13.3408 6.51959 13.3593C6.53368 13.3963 6.49492 13.4456 6.43062 13.4606C6.36632 13.4765 6.30906 13.4492 6.30554 13.4113V13.4104Z" fill="#0D808A"/>
<path d="M5.84833 13.3549C5.85538 13.3364 5.94699 13.1752 6.01482 13.0105C6.08529 12.8449 6.13285 12.6784 6.13285 12.6784C6.13285 12.6784 6.12317 12.7207 6.11171 12.7859C6.10026 12.8502 6.08705 12.9391 6.07912 13.0272C6.06062 13.2043 6.06415 13.3902 6.0615 13.4095C6.05886 13.4289 6.04389 13.4448 6.02099 13.4545C5.99808 13.4641 5.96725 13.4668 5.93554 13.458C5.87035 13.443 5.83336 13.3919 5.84745 13.3558L5.84833 13.3549Z" fill="#0D808A"/>
<path d="M5.46956 13.0935C5.48453 13.0803 5.64045 12.9799 5.77698 12.8654C5.91616 12.7517 6.03596 12.6266 6.03596 12.6266C6.03596 12.6266 6.00777 12.6601 5.96725 12.7121C5.92673 12.7641 5.87476 12.8363 5.82631 12.9103C5.72765 13.0592 5.64309 13.2248 5.63252 13.2406C5.61138 13.2723 5.54707 13.2697 5.49862 13.2248C5.44841 13.1816 5.43961 13.1191 5.46868 13.0935H5.46956Z" fill="#0D808A"/>
<path d="M5.25558 12.6846C5.27496 12.6802 5.45994 12.6634 5.63348 12.6255C5.80965 12.5894 5.97437 12.5339 5.97437 12.5339C5.97437 12.5339 5.93385 12.5507 5.87395 12.578C5.81405 12.6053 5.7339 12.6449 5.65638 12.6881C5.49958 12.7735 5.34895 12.8819 5.33134 12.8916C5.31372 12.9004 5.29258 12.8977 5.27144 12.8836C5.2503 12.8704 5.23092 12.8466 5.22034 12.8149C5.19568 12.7533 5.21682 12.6925 5.2547 12.6846H5.25558Z" fill="#0D808A"/>
<path d="M5.25555 12.2248C5.27493 12.2301 5.44494 12.3006 5.61847 12.3482C5.79112 12.3984 5.96201 12.4257 5.96201 12.4257C5.96201 12.4257 5.78848 12.4089 5.61054 12.4151C5.43172 12.4186 5.24762 12.4433 5.22824 12.4433C5.18948 12.4433 5.15689 12.3904 5.1657 12.3244C5.1701 12.2918 5.18244 12.2636 5.19917 12.246C5.21679 12.2284 5.23705 12.2204 5.25643 12.2248H5.25555Z" fill="#0D808A"/>
<path d="M5.46961 11.816C5.48459 11.8292 5.60175 11.9711 5.733 12.0944C5.86248 12.2195 6.00078 12.3225 6.00078 12.3225C6.00078 12.3225 5.96466 12.2987 5.90741 12.2644C5.85103 12.2309 5.7744 12.1878 5.69424 12.1481C5.5348 12.068 5.3595 12.0037 5.34189 11.9948C5.30753 11.9772 5.30401 11.9147 5.34189 11.8601C5.36127 11.8336 5.38505 11.8151 5.40883 11.8063C5.43262 11.7984 5.45464 11.8011 5.46873 11.8143L5.46961 11.816Z" fill="#0D808A"/>
<path d="M5.84841 11.5547C5.85546 11.5741 5.89333 11.7529 5.95235 11.9238C6.00961 12.0947 6.0836 12.2506 6.0836 12.2506C6.0836 12.2506 6.06246 12.2127 6.02811 12.1563C5.99375 12.1008 5.94619 12.0268 5.89334 11.9546C5.78939 11.8093 5.66343 11.6718 5.65198 11.656C5.62995 11.6243 5.6555 11.5679 5.71452 11.5371C5.74358 11.523 5.77442 11.5168 5.7982 11.5203C5.82286 11.5247 5.84136 11.5371 5.84841 11.5556V11.5547Z" fill="#0D808A"/>
<path d="M6.30553 11.4989C6.30289 11.5183 6.25356 11.6962 6.22713 11.8742C6.19806 12.0512 6.1919 12.2239 6.1919 12.2239C6.1919 12.2239 6.18749 12.0512 6.16107 11.8742C6.1364 11.6971 6.08972 11.5165 6.08708 11.4972C6.08179 11.4575 6.13112 11.4214 6.19719 11.4205C6.26325 11.4223 6.3117 11.4593 6.30641 11.4989H6.30553Z" fill="#0D808A"/>
<path d="M6.73717 11.6622C6.72572 11.678 6.59888 11.8137 6.49229 11.9581C6.38394 12.1008 6.2985 12.2515 6.2985 12.2515C6.2985 12.2515 6.37514 12.0964 6.43416 11.9273C6.49494 11.7582 6.53634 11.5776 6.54338 11.56C6.55748 11.5221 6.61826 11.5124 6.67727 11.5432C6.73541 11.5758 6.76096 11.6313 6.73805 11.6639L6.73717 11.6622Z" fill="#0D808A"/>
<path d="M7.04281 12.0071C7.02608 12.0159 6.8499 12.0767 6.6887 12.156C6.52662 12.2326 6.38128 12.326 6.38128 12.326C6.38128 12.326 6.52133 12.2238 6.6517 12.1013C6.78472 11.9798 6.90451 11.8388 6.91949 11.8265C6.94944 11.7992 7.00758 11.8195 7.04545 11.8732C7.08157 11.9287 7.07893 11.9903 7.04281 12.008V12.0071Z" fill="#0D808A"/>
<path d="M7.15385 12.4547C7.13447 12.4547 6.94948 12.4265 6.77066 12.4212C6.6817 12.4177 6.59361 12.4185 6.52842 12.4212C6.46324 12.4238 6.4192 12.4274 6.4192 12.4274C6.4192 12.4274 6.59009 12.4027 6.76362 12.3542C6.93803 12.3084 7.10892 12.2397 7.1283 12.2353C7.14768 12.2309 7.16882 12.2388 7.18468 12.2573C7.20053 12.2758 7.21375 12.304 7.21815 12.3357C7.22432 12.4018 7.19261 12.4547 7.15385 12.4538V12.4547Z" fill="#0D808A"/>
<path d="M6.19187 13.8279C6.17161 13.8279 6.15399 13.8121 6.15399 13.7918C6.15399 13.7716 6.17161 13.7539 6.19187 13.7539C6.21213 13.7539 6.22975 13.7716 6.22975 13.7918C6.22975 13.8121 6.21213 13.8297 6.19187 13.8297V13.8279ZM5.88356 13.7945C5.8633 13.7901 5.85097 13.7698 5.85538 13.7504C5.85978 13.7302 5.88004 13.7169 5.9003 13.7213C5.91968 13.7266 5.93289 13.746 5.92848 13.7663C5.92408 13.7839 5.90911 13.7953 5.89237 13.7953C5.89237 13.7953 5.88709 13.7945 5.88356 13.7945ZM6.45525 13.7654C6.45085 13.7451 6.46406 13.7258 6.48344 13.7213C6.5037 13.7161 6.52307 13.7293 6.52836 13.7495C6.53276 13.7689 6.51956 13.7892 6.50018 13.7936C6.50018 13.7936 6.49489 13.7945 6.49136 13.7945C6.47375 13.7945 6.45877 13.783 6.45525 13.7654ZM5.59111 13.6923C5.57173 13.6835 5.56381 13.6614 5.57349 13.6429C5.5823 13.6236 5.60344 13.6165 5.62282 13.6253C5.64132 13.6341 5.64837 13.6553 5.64044 13.6747C5.63428 13.6879 5.62018 13.6949 5.60609 13.6949C5.60609 13.6949 5.5964 13.694 5.59111 13.6914V13.6923ZM6.74329 13.6738C6.7336 13.6544 6.74241 13.6333 6.76091 13.6236C6.77941 13.6148 6.80143 13.6227 6.81024 13.6412C6.81905 13.6606 6.81112 13.6817 6.79262 13.6914C6.78734 13.6932 6.78205 13.6949 6.77677 13.6949C6.76267 13.6949 6.74946 13.6879 6.74329 13.6747V13.6738ZM5.32773 13.5267C5.31187 13.5152 5.30923 13.4914 5.32244 13.4747C5.33566 13.4588 5.35768 13.4553 5.37442 13.4685C5.39027 13.4817 5.3938 13.5047 5.38058 13.5214C5.37265 13.5302 5.36208 13.5355 5.35151 13.5355C5.3427 13.5355 5.33565 13.5328 5.32773 13.5267ZM7.00227 13.5205C6.98906 13.5046 6.99258 13.4809 7.00844 13.4677C7.02429 13.4544 7.0472 13.4571 7.06041 13.4729C7.07363 13.4888 7.07098 13.5126 7.05513 13.5258C7.04896 13.5311 7.04015 13.5328 7.03134 13.5328C7.02077 13.5328 7.0102 13.5284 7.00227 13.5196V13.5205ZM5.10927 13.3082C5.09606 13.2924 5.0987 13.2686 5.11456 13.2554C5.13041 13.2421 5.1542 13.2457 5.16741 13.2615C5.18063 13.2765 5.1771 13.3003 5.16213 13.3135C5.1542 13.3188 5.14627 13.3223 5.13834 13.3223C5.12777 13.3223 5.1172 13.317 5.10927 13.3082ZM7.22161 13.3117C7.20575 13.2985 7.20311 13.2756 7.21632 13.2598C7.22954 13.2439 7.25156 13.2404 7.26742 13.2536C7.28327 13.2668 7.2868 13.2897 7.27358 13.3065C7.26565 13.3153 7.25508 13.3205 7.24451 13.3205C7.2357 13.3205 7.22866 13.317 7.22073 13.3117H7.22161ZM4.94367 13.0466C4.93398 13.0281 4.94279 13.0061 4.96129 12.9973C4.97978 12.9876 5.00181 12.9955 5.01061 13.0149C5.01942 13.0334 5.01149 13.0545 4.993 13.0642C4.98771 13.066 4.98243 13.0677 4.97714 13.0677C4.96305 13.0677 4.95071 13.0598 4.94367 13.0475V13.0466ZM7.38898 13.0616C7.37048 13.0519 7.36343 13.0307 7.37136 13.0114C7.38105 12.9929 7.40219 12.9858 7.42157 12.9937C7.44007 13.0034 7.44712 13.0246 7.43919 13.044C7.43302 13.0572 7.41893 13.0642 7.40483 13.0642C7.39955 13.0642 7.39426 13.0633 7.38898 13.0607V13.0616ZM4.84061 12.7541C4.8362 12.7339 4.84853 12.7145 4.86879 12.7092C4.88905 12.7048 4.90843 12.718 4.91284 12.7374C4.91812 12.7577 4.90579 12.777 4.88465 12.7823C4.88465 12.7823 4.87936 12.7832 4.87672 12.7832C4.85998 12.7832 4.84413 12.7718 4.84061 12.7541ZM7.49645 12.7788C7.47707 12.7744 7.46385 12.7541 7.46826 12.7348C7.47354 12.7145 7.49292 12.7013 7.51318 12.7066C7.53256 12.711 7.54577 12.7304 7.54137 12.7506C7.53696 12.7674 7.52199 12.7797 7.50437 12.7797C7.50437 12.7797 7.49909 12.7797 7.49556 12.7788H7.49645ZM4.80449 12.4458C4.80449 12.4256 4.82211 12.408 4.84237 12.408C4.86263 12.408 4.88025 12.4256 4.88025 12.4458C4.88025 12.4661 4.86263 12.4828 4.84237 12.4837C4.82211 12.4837 4.80449 12.4661 4.80449 12.4458ZM7.50261 12.4423V12.437C7.50173 12.4168 7.51847 12.4009 7.53873 12.4009C7.55899 12.4 7.5766 12.4168 7.5766 12.437V12.4406V12.4432C7.5766 12.4635 7.55899 12.4811 7.53873 12.4811C7.51847 12.4811 7.50261 12.4635 7.50261 12.4432V12.4423ZM4.86703 12.1807C4.84677 12.1763 4.83444 12.1569 4.83884 12.1366C4.84325 12.1164 4.86263 12.1041 4.88289 12.1085C4.90315 12.1129 4.91548 12.1331 4.91107 12.1534C4.90755 12.1692 4.8917 12.1816 4.87584 12.1816C4.87584 12.1816 4.87055 12.1816 4.86703 12.1807ZM7.46738 12.1455C7.46297 12.1252 7.47619 12.1058 7.49556 12.1005C7.51582 12.0961 7.5352 12.1093 7.54049 12.1287C7.54489 12.149 7.53168 12.1684 7.5123 12.1736C7.5123 12.1736 7.50701 12.1745 7.50349 12.1745C7.48587 12.1745 7.4709 12.1631 7.46738 12.1455ZM4.95865 11.8944C4.93927 11.8856 4.93222 11.8636 4.94015 11.8451C4.94983 11.8257 4.97098 11.8178 4.99036 11.8266C5.00885 11.8363 5.0159 11.8574 5.00797 11.8759C5.00181 11.89 4.98771 11.8971 4.97362 11.8971C4.97362 11.8971 4.96305 11.8962 4.95865 11.8935V11.8944ZM7.3696 11.8697C7.36079 11.8504 7.36872 11.8292 7.38721 11.8195C7.40571 11.8107 7.42773 11.8187 7.43654 11.8372C7.44535 11.8557 7.43743 11.8777 7.41893 11.8865C7.41364 11.89 7.40836 11.8909 7.40307 11.8909C7.38898 11.8909 7.37577 11.8838 7.3696 11.8706V11.8697ZM5.11104 11.6346C5.09518 11.6213 5.09254 11.5984 5.10487 11.5817C5.11808 11.5658 5.14098 11.5632 5.15772 11.5755C5.17357 11.5887 5.1771 11.6117 5.16389 11.6284C5.15684 11.6381 5.14539 11.6425 5.13482 11.6425C5.12601 11.6425 5.1172 11.6398 5.11104 11.6346ZM7.2128 11.6213C7.19959 11.6055 7.20223 11.5817 7.21809 11.5685C7.23394 11.5553 7.25773 11.5588 7.27094 11.5747C7.28239 11.5905 7.28063 11.6134 7.26478 11.6257C7.25861 11.631 7.2498 11.6346 7.24187 11.6346C7.23042 11.6346 7.21897 11.6293 7.2128 11.6205V11.6213ZM5.31804 11.4135C5.30483 11.3976 5.30747 11.3738 5.32332 11.3606C5.33918 11.3474 5.36297 11.3509 5.37618 11.3668C5.38939 11.3826 5.38587 11.4055 5.37001 11.4187C5.36385 11.424 5.35504 11.4275 5.34711 11.4275C5.33654 11.4275 5.32597 11.4231 5.31804 11.4135ZM7.00492 11.4152C6.98906 11.402 6.98554 11.3791 6.99875 11.3624C7.01196 11.3465 7.03486 11.3439 7.0516 11.3562C7.06746 11.3694 7.0701 11.3923 7.05777 11.4091C7.05072 11.4187 7.03927 11.4231 7.02782 11.4231C7.01989 11.4231 7.01196 11.4205 7.00492 11.4152ZM5.56909 11.2452C5.5594 11.2267 5.56733 11.2047 5.5867 11.1959C5.6052 11.1871 5.62722 11.195 5.63603 11.2135C5.64484 11.232 5.63692 11.254 5.61842 11.2628C5.61313 11.2663 5.60785 11.2672 5.60257 11.2672C5.58847 11.2672 5.57526 11.2593 5.56909 11.2461V11.2452ZM6.75563 11.2593C6.73713 11.2505 6.73008 11.2285 6.73801 11.21C6.74682 11.1915 6.76884 11.1827 6.78734 11.1932C6.80584 11.202 6.81465 11.2232 6.80496 11.2426C6.79879 11.2558 6.78558 11.2628 6.77148 11.2628C6.7662 11.2628 6.76091 11.2619 6.75563 11.2593ZM5.85009 11.1369C5.84569 11.1175 5.85801 11.0972 5.87827 11.0928C5.89853 11.0884 5.91791 11.1007 5.9232 11.121C5.9276 11.1413 5.91439 11.1606 5.89413 11.165H5.89501C5.89501 11.165 5.88885 11.1659 5.8862 11.1659C5.86859 11.1659 5.85361 11.1554 5.85009 11.1369ZM6.47816 11.1633C6.45789 11.158 6.44556 11.1386 6.44997 11.1184C6.45437 11.099 6.47463 11.0858 6.49401 11.0902C6.51427 11.0946 6.52748 11.1148 6.5222 11.1351C6.51868 11.151 6.50282 11.1642 6.48696 11.1642C6.48696 11.1642 6.48168 11.1633 6.47816 11.1633ZM6.14959 11.0946C6.14959 11.0743 6.16544 11.0567 6.18746 11.0567C6.20684 11.0567 6.22358 11.0743 6.22358 11.0946C6.22358 11.1148 6.20772 11.1307 6.18746 11.1307C6.16632 11.1307 6.14959 11.1148 6.14959 11.0946Z" fill="#0D808A"/>
<path d="M27.4315 29.2408C27.5425 29.1633 27.635 29.069 27.7108 28.9651C27.9759 29.1034 28.2939 29.1412 28.6022 29.047C29.2285 28.8558 29.5809 28.1934 29.3897 27.5671C29.3501 27.4376 29.2884 27.3205 29.2135 27.2157C29.4267 27.006 29.5615 26.7162 29.5668 26.3938C29.5782 25.7393 29.0576 25.1993 28.4031 25.1879C28.2675 25.1852 28.1371 25.2073 28.0155 25.2469C27.8817 24.98 27.6473 24.7624 27.3426 24.6567C26.7233 24.4435 26.0494 24.7721 25.8363 25.3905C25.7922 25.5191 25.772 25.6503 25.772 25.7781C25.476 25.823 25.1967 25.978 25.0021 26.2361C24.6083 26.7585 24.7123 27.5019 25.2346 27.8957C25.343 27.9776 25.461 28.0366 25.5834 28.0763C25.5341 28.3714 25.5958 28.685 25.7808 28.9492C26.156 29.4857 26.8951 29.616 27.4315 29.2408ZM26.1824 27.9706C26.6969 27.2914 26.6414 27.1619 25.8028 27.0042C26.6467 26.8774 26.7066 26.7497 26.2168 26.0529C26.8968 26.5673 27.0254 26.5118 27.1831 25.6724C27.31 26.5162 27.4377 26.5761 28.1353 26.0864C27.6209 26.7655 27.6764 26.895 28.515 27.0518C27.6711 27.1795 27.6103 27.3064 28.101 28.0032C27.4218 27.4887 27.2923 27.5442 27.1347 28.3837C27.0078 27.5398 26.8801 27.4799 26.1824 27.9697V27.9706Z" fill="#0D808A"/>
<path d="M27.1515 27.4254C26.9321 27.4219 26.7577 27.2413 26.7621 27.022C26.7657 26.8026 26.9462 26.6291 27.1656 26.6317C27.3849 26.6361 27.5593 26.8167 27.5549 27.0361C27.5514 27.2554 27.3708 27.4289 27.1515 27.4254Z" fill="#0D808A"/>
<path d="M31.281 23.3398C31.9786 23.3953 32.3847 23.9705 32.3204 24.4797C32.2438 24.9853 31.8465 25.2381 31.547 25.2804C30.8449 25.3297 30.8194 24.7721 30.8537 24.8215C30.9039 24.7519 31.0951 25.1756 31.5708 24.9959C32.1028 24.8655 32.153 23.8358 31.2484 23.7292C30.3252 23.6199 30.2653 24.8769 30.3675 25.7226C30.4573 26.6563 30.4494 27.6024 30.1094 28.359C29.7544 29.151 28.9607 29.3483 28.5159 29.3897C28.0393 29.4284 27.7636 29.3853 27.7636 29.395C27.7627 29.3861 28.0429 29.4046 28.508 29.3324C28.9502 29.2567 29.6672 29.0162 29.9394 28.2833C30.2098 27.5804 30.1781 26.6616 30.0539 25.7552C30.0019 25.2874 29.95 24.7941 30.0706 24.285C30.1385 23.7494 30.7234 23.2967 31.281 23.3416V23.3398Z" fill="#0D808A"/>
<path d="M30.4354 28.2655C30.7789 27.4577 30.7331 26.9733 30.8811 26.9697C30.978 26.9459 31.1383 27.6145 30.7745 28.4258C30.416 29.2662 29.4382 29.77 28.7212 29.7665C27.9927 29.8026 27.5294 29.5701 27.5294 29.5877C27.5267 29.5718 28.0279 29.7084 28.7 29.5806C29.3748 29.4811 30.1341 28.9746 30.4362 28.2655H30.4354Z" fill="#0D808A"/>
<path d="M28.1812 23.6285C27.9072 23.9765 28.1777 24.3465 28.3935 24.2848C28.6269 24.2742 28.7758 24.1941 28.8137 24.2548C28.8401 24.2822 28.7423 24.4839 28.3609 24.5623C27.8976 24.6997 27.4016 23.8796 27.9134 23.366C28.4437 22.8851 29.2559 23.2137 29.4937 23.7378C29.7544 24.2364 29.8073 24.7455 29.8469 25.178C29.9033 26.0474 29.8504 26.6535 29.861 26.6544C29.8513 26.657 29.809 26.043 29.6611 25.2027C29.58 24.7887 29.4708 24.2998 29.2224 23.9007C29.0127 23.4903 28.4411 23.3934 28.1803 23.6294L28.1812 23.6285Z" fill="#0D808A"/>
<path d="M31.1859 25.1499C30.9894 25.1464 30.8327 24.9843 30.8362 24.7879C30.8397 24.5914 31.0018 24.4346 31.1982 24.4382C31.3947 24.4417 31.5514 24.6038 31.5479 24.8002C31.5444 24.9966 31.3823 25.1534 31.1859 25.1499Z" fill="#0D808A"/>
<path d="M8.46459 18.9414C8.33774 19.122 8.18799 19.2374 8.0127 19.2541C8.19768 19.2726 8.38266 19.285 8.565 19.285C8.74734 19.285 8.92705 19.2709 9.10939 19.2638L9.05741 19.1009C8.83808 18.9872 8.639 18.9247 8.46371 18.9405L8.46459 18.9414Z" fill="#0D808A"/>
<path d="M9.37007 18.3953C9.28639 18.6754 9.18244 18.9159 9.05736 19.1009L9.10933 19.2638C9.47049 19.2348 9.82636 19.1757 10.1787 19.0982L10.0818 18.8401C9.82548 18.6578 9.58676 18.5019 9.37007 18.3944V18.3953Z" fill="#0D808A"/>
<path d="M10.2677 17.9005C10.2246 18.2388 10.1629 18.555 10.0827 18.8422L10.1796 19.1003C10.5311 19.0192 10.8773 18.9144 11.2173 18.7884L11.0808 18.4854L10.2677 17.9023V17.9005Z" fill="#0D808A"/>
<path d="M11.1522 17.4263C11.1442 17.7857 11.1196 18.1389 11.0808 18.4833L11.2173 18.7864C11.3856 18.7194 11.5547 18.6534 11.7203 18.5776C11.8842 18.4992 12.0498 18.4226 12.2092 18.3354L12.0427 18.0262C11.7371 17.8333 11.4358 17.6245 11.153 17.4254L11.1522 17.4263Z" fill="#0D808A"/>
<path d="M12.0268 16.9532C12.0418 17.3038 12.0462 17.6606 12.0418 18.027L12.2083 18.3362C12.5289 18.1627 12.8381 17.968 13.1323 17.7513L12.9517 17.4712C12.6434 17.3215 12.329 17.14 12.0268 16.9532Z" fill="#0D808A"/>
<path d="M12.8971 16.4716L12.9518 17.4723L13.1323 17.7524C13.4257 17.534 13.704 17.2961 13.9612 17.0371L13.7921 16.8187C13.5076 16.7403 13.201 16.6161 12.8963 16.4725L12.8971 16.4716Z" fill="#0D808A"/>
<path d="M13.7789 15.9767C13.7657 16.2207 13.7709 16.4999 13.793 16.8179L13.9621 17.0363C14.0872 16.9025 14.2149 16.773 14.3303 16.6303C14.4448 16.4876 14.5593 16.3457 14.6624 16.1942L14.5461 16.0674C14.3241 16.0859 14.0599 16.0489 13.7789 15.9758V15.9767Z" fill="#0D808A"/>
<path d="M14.6958 15.471C14.5998 15.6173 14.5549 15.8172 14.5461 16.0674L14.6623 16.1942C14.7592 16.0366 14.8632 15.8886 14.9513 15.7265C15.0385 15.5635 15.116 15.3953 15.1856 15.2235C15.0878 15.3697 14.9134 15.4473 14.6958 15.471Z" fill="#0D808A"/>
<path d="M8.21788 21.2328C8.05315 21.3465 7.87874 21.4134 7.70344 21.3993C7.87962 21.439 8.05844 21.476 8.23814 21.5024C8.41871 21.5359 8.59841 21.5508 8.77987 21.5614L8.76401 21.4293C8.57198 21.3157 8.39317 21.2522 8.21788 21.2328Z" fill="#0D808A"/>
<path d="M9.21593 20.9093C9.08028 21.1357 8.92613 21.3004 8.76404 21.4281L8.7799 21.5602C8.96048 21.5682 9.14546 21.5884 9.32604 21.5787C9.5075 21.5743 9.68985 21.5682 9.87307 21.5576L9.82726 21.3374C9.6088 21.1603 9.4062 21.0132 9.21682 20.9084L9.21593 20.9093Z" fill="#0D808A"/>
<path d="M10.1813 20.5618C10.08 20.8463 9.96287 21.1158 9.82721 21.3387L9.87302 21.5589C10.0554 21.5475 10.2359 21.521 10.4174 21.4981C10.5997 21.477 10.7803 21.4462 10.9583 21.4048L10.8763 21.1282L10.1813 20.5626V20.5618Z" fill="#0D808A"/>
<path d="M11.1186 20.1864C11.0561 20.5194 10.9733 20.8303 10.8755 21.1263L10.9574 21.4029C11.1362 21.3633 11.3168 21.328 11.4938 21.2787L12.0206 21.1184L11.9008 20.8118L11.1186 20.1855V20.1864Z" fill="#0D808A"/>
<path d="M12.0303 19.7687C12.0021 20.1193 11.9651 20.4822 11.9017 20.8125L12.0215 21.1191C12.1985 21.068 12.3659 20.9922 12.5377 20.9271C12.7086 20.8592 12.8803 20.7923 13.0442 20.7086L12.8918 20.395C12.5949 20.195 12.3042 19.9784 12.0303 19.7678V19.7687Z" fill="#0D808A"/>
<path d="M12.9218 19.3196C12.9235 19.6729 12.9147 20.034 12.8918 20.3961L13.0442 20.7097L13.5392 20.4657L14.0158 20.1873L13.8379 19.8869C13.5225 19.7063 13.216 19.5161 12.9218 19.3205V19.3196Z" fill="#0D808A"/>
<path d="M13.7859 18.821C13.8114 19.1663 13.8334 19.5284 13.837 19.8869L14.0149 20.1873C14.1752 20.0966 14.325 19.99 14.4756 19.8843C14.6245 19.7759 14.7804 19.6781 14.9196 19.5583L14.7284 19.2897C14.4175 19.1602 14.0933 18.9919 13.785 18.8219L13.7859 18.821Z" fill="#0D808A"/>
<path d="M14.6351 18.289L14.7293 19.2888L14.9205 19.5575L15.3442 19.2051C15.4825 19.0853 15.6111 18.9532 15.7423 18.8255L15.5556 18.6035C15.2534 18.5216 14.9478 18.4194 14.6351 18.2881V18.289Z" fill="#0D808A"/>
<path d="M15.464 17.7117L15.5565 18.6049L15.7432 18.8269C15.8762 18.7009 16.0013 18.567 16.1185 18.4261C16.2374 18.2869 16.3589 18.1512 16.469 18.005L16.3096 17.8447C16.0489 17.835 15.7582 17.7839 15.464 17.7117Z" fill="#0D808A"/>
<path d="M16.2849 17.0969C16.2691 17.3136 16.2805 17.5638 16.3087 17.8439L16.4682 18.0042C16.5774 17.8571 16.6831 17.7082 16.7862 17.5585C16.8936 17.4131 16.9782 17.2475 17.0707 17.0925L16.9685 17.0062C16.7712 17.0713 16.5483 17.1083 16.2849 17.0969Z" fill="#0D808A"/>
<path d="M17.1041 16.4415C17.024 16.5983 16.9782 16.7833 16.9685 17.0062L17.0707 17.0925C17.1614 16.9348 17.2477 16.7763 17.3191 16.6071C17.3957 16.4424 17.4626 16.2733 17.5261 16.1033C17.4415 16.2574 17.29 16.3658 17.1033 16.4406L17.1041 16.4415Z" fill="#0D808A"/>
<path d="M7.8682 23.5176C7.69291 23.6065 7.51585 23.648 7.3388 23.6303C7.69291 23.7123 8.04878 23.7695 8.40642 23.8188L8.40289 23.7096C8.22232 23.6039 8.04438 23.5361 7.8682 23.5176Z" fill="#0D808A"/>
<path d="M8.91644 23.3144C8.74995 23.4853 8.5773 23.6192 8.40289 23.7099L8.40641 23.8191C8.76404 23.8632 9.12432 23.8993 9.48548 23.9143L9.47227 23.7258C9.282 23.5584 9.09789 23.4192 8.91731 23.3144H8.91644Z" fill="#0D808A"/>
<path d="M9.95053 23.1099C9.79813 23.3434 9.6387 23.5539 9.47221 23.7248L9.48542 23.9133C9.84658 23.9336 10.2095 23.9336 10.5733 23.9248L10.5434 23.6755C10.3372 23.4623 10.1408 23.2764 9.95053 23.1091V23.1099Z" fill="#0D808A"/>
<path d="M10.9671 22.8878C10.8359 23.1696 10.694 23.4383 10.5425 23.6761L10.5725 23.9254C10.9363 23.914 11.3001 23.8867 11.6648 23.8453L11.6119 23.5537C11.3864 23.3176 11.1715 23.0912 10.9671 22.8878Z" fill="#0D808A"/>
<path d="M11.9643 22.6332C11.8603 22.9573 11.7414 23.2604 11.6128 23.5537L11.6656 23.8453C12.0295 23.7995 12.3933 23.7448 12.7544 23.6656L12.6734 23.3484C12.425 23.1071 12.188 22.8622 11.9643 22.6332Z" fill="#0D808A"/>
<path d="M12.9376 22.3374C12.8645 22.6845 12.7764 23.0227 12.6734 23.3486L12.7544 23.6658C13.1165 23.5918 13.4741 23.494 13.8291 23.3812L13.7172 23.0553C13.4442 22.8166 13.1861 22.5796 12.9376 22.3383V22.3374Z" fill="#0D808A"/>
<path d="M13.8837 21.9913C13.8423 22.3437 13.7895 22.7075 13.7163 23.0554L13.8282 23.3814C14.0061 23.3285 14.1806 23.2598 14.3559 23.1973C14.5303 23.1321 14.702 23.0563 14.8747 22.985L14.732 22.6643C14.4351 22.4441 14.1541 22.223 13.8837 21.9913Z" fill="#0D808A"/>
<path d="M14.7945 21.5832C14.7892 21.9382 14.7672 22.2958 14.732 22.664L14.8747 22.9847C15.0447 22.9036 15.2165 22.8261 15.3829 22.7389C15.5477 22.6473 15.7159 22.5636 15.8754 22.4623L15.7027 22.1628C15.3926 21.9902 15.0843 21.7858 14.7954 21.5832H14.7945Z" fill="#0D808A"/>
<path d="M15.6657 21.1042C15.6921 21.4496 15.7018 21.7984 15.7018 22.1631L15.8745 22.4626C16.0348 22.3639 16.196 22.267 16.3484 22.156C16.5043 22.0503 16.6558 21.9393 16.802 21.8204L16.6091 21.5553C16.2911 21.4284 15.9749 21.2751 15.6657 21.1042Z" fill="#0D808A"/>
<path d="M16.4964 20.5543C16.5404 20.8706 16.5827 21.2088 16.6091 21.555L16.802 21.8201C16.9518 21.7065 17.0936 21.5814 17.2328 21.4555C17.3764 21.3339 17.505 21.1947 17.6389 21.0635L17.438 20.845C17.1227 20.771 16.8144 20.6803 16.4964 20.5543Z" fill="#0D808A"/>
<path d="M17.2795 19.9328C17.3279 20.212 17.3896 20.523 17.4381 20.8454L17.6389 21.0638C17.8996 20.7934 18.1401 20.5027 18.3594 20.1988L18.1674 20.0349C17.8811 20.0297 17.5808 19.9927 17.2786 19.9319L17.2795 19.9328Z" fill="#0D808A"/>
<path d="M18.0027 19.2332C18.0529 19.4798 18.1013 19.7406 18.1674 20.0356L18.3594 20.1995C18.4634 20.0427 18.5735 19.8921 18.666 19.7282C18.7602 19.5661 18.8562 19.4067 18.9329 19.2358L18.7725 19.1328C18.5435 19.2006 18.2757 19.2288 18.0027 19.234V19.2332Z" fill="#0D808A"/>
<path d="M18.6589 18.452C18.6792 18.6572 18.7197 18.8827 18.7734 19.132L18.9337 19.2351C19.0183 19.0695 19.0932 18.8986 19.1566 18.7242C19.2288 18.5541 19.279 18.3736 19.331 18.1974L19.2306 18.1525C19.0773 18.2802 18.8871 18.3833 18.6589 18.4528V18.452Z" fill="#0D808A"/>
<path d="M19.2421 17.584C19.1971 17.7523 19.2086 17.9443 19.2306 18.1513L19.331 18.1962C19.3856 18.0209 19.4112 17.8351 19.4508 17.6589C19.472 17.5708 19.4737 17.4766 19.4852 17.3867C19.4949 17.296 19.5037 17.2061 19.509 17.1163C19.4728 17.2898 19.3856 17.451 19.2429 17.584H19.2421Z" fill="#0D808A"/>
<path d="M5.69863 7.101C5.51893 7.101 5.3727 6.95478 5.3727 6.77508C5.3727 6.59538 5.51893 6.44916 5.69863 6.44916C5.87833 6.44916 6.02455 6.59538 6.02455 6.77508C6.02455 6.95478 5.87833 7.101 5.69863 7.101Z" fill="#26AF94"/>
<path d="M5.68366 5.78404C5.51453 5.78404 5.37712 5.64663 5.37712 5.4775C5.37712 5.30837 5.51453 5.17096 5.68366 5.17096C5.85279 5.17096 5.9902 5.30837 5.9902 5.4775C5.9902 5.64663 5.85279 5.78404 5.68366 5.78404Z" fill="#26AF94"/>
<path d="M6.07474 4.52488C5.9153 4.52488 5.78669 4.39627 5.78669 4.23683C5.78669 4.0774 5.9153 3.94879 6.07474 3.94879C6.23418 3.94879 6.36278 4.0774 6.36278 4.23683C6.36278 4.39627 6.23418 4.52488 6.07474 4.52488Z" fill="#26AF94"/>
<path d="M6.78035 3.41422C6.92922 3.41422 7.0499 3.29354 7.0499 3.14467C7.0499 2.9958 6.92922 2.87512 6.78035 2.87512C6.63148 2.87512 6.5108 2.9958 6.5108 3.14467C6.5108 3.29354 6.63148 3.41422 6.78035 3.41422Z" fill="#26AF94"/>
<path d="M7.71137 2.48581C7.57308 2.48581 7.4612 2.37394 7.4612 2.23564C7.4612 2.09735 7.57308 1.98547 7.71137 1.98547C7.84967 1.98547 7.96154 2.09735 7.96154 2.23564C7.96154 2.37394 7.84967 2.48581 7.71137 2.48581Z" fill="#26AF94"/>
<path d="M8.80546 1.76119C8.67773 1.76119 8.57379 1.65725 8.57379 1.52952C8.57379 1.4018 8.67773 1.29785 8.80546 1.29785C8.93318 1.29785 9.03713 1.4018 9.03713 1.52952C9.03713 1.65725 8.93318 1.76119 8.80546 1.76119Z" fill="#26AF94"/>
<path d="M10.0193 1.27358C9.90214 1.27358 9.80613 1.17844 9.80613 1.06129C9.80613 0.944131 9.90126 0.848999 10.0193 0.848999C10.1373 0.848999 10.2316 0.944131 10.2316 1.06129C10.2316 1.17844 10.1365 1.27358 10.0193 1.27358Z" fill="#26AF94"/>
<path d="M11.308 1.08516C11.2006 1.08516 11.1143 0.99795 11.1143 0.891364C11.1143 0.784778 11.2015 0.697571 11.308 0.697571C11.4146 0.697571 11.5018 0.784778 11.5018 0.891364C11.5018 0.99795 11.4146 1.08516 11.308 1.08516Z" fill="#26AF94"/>
<path d="M12.6038 1.18854C12.5069 1.18854 12.4285 1.11014 12.4285 1.01324C12.4285 0.916349 12.5069 0.837952 12.6038 0.837952C12.7007 0.837952 12.7791 0.916349 12.7791 1.01324C12.7791 1.11014 12.7007 1.18854 12.6038 1.18854Z" fill="#26AF94"/>
<path d="M13.8502 1.54352C13.7639 1.54352 13.6943 1.47393 13.6943 1.38761C13.6943 1.30128 13.7639 1.23169 13.8502 1.23169C13.9366 1.23169 14.0061 1.30128 14.0061 1.38761C14.0061 1.47393 13.9366 1.54352 13.8502 1.54352Z" fill="#26AF94"/>
<path d="M14.9875 2.15746C14.9117 2.15746 14.85 2.0958 14.85 2.02005C14.85 1.94429 14.9117 1.88263 14.9875 1.88263C15.0632 1.88263 15.1249 1.94429 15.1249 2.02005C15.1249 2.0958 15.0632 2.15746 14.9875 2.15746Z" fill="#26AF94"/>
<path d="M15.9044 3.05871C15.8392 3.05871 15.7855 3.00586 15.7855 2.94067C15.7855 2.87549 15.8383 2.82263 15.9044 2.82263C15.9705 2.82263 16.0225 2.87549 16.0225 2.94067C16.0225 3.00586 15.9696 3.05871 15.9044 3.05871Z" fill="#26AF94"/>
<path d="M16.4321 4.22319C16.3774 4.22319 16.3325 4.17826 16.3325 4.12365C16.3325 4.06903 16.3774 4.02411 16.4321 4.02411C16.4867 4.02411 16.5316 4.06903 16.5316 4.12365C16.5316 4.17826 16.4867 4.22319 16.4321 4.22319Z" fill="#26AF94"/>
<path d="M7.76689 25.5924C7.70875 25.5924 7.66206 25.5457 7.66206 25.4876C7.66206 25.4294 7.70875 25.3828 7.76689 25.3828C7.82503 25.3828 7.87171 25.4294 7.87171 25.4876C7.87171 25.5457 7.82503 25.5924 7.76689 25.5924Z" fill="#0D808A"/>
<path d="M9.38686 26.058C9.28027 26.058 9.19394 25.9717 9.19394 25.8651C9.19394 25.7585 9.28027 25.6722 9.38686 25.6722C9.49344 25.6722 9.57977 25.7585 9.57977 25.8651C9.57977 25.9717 9.49344 26.058 9.38686 26.058Z" fill="#0D808A"/>
<path d="M11.0464 26.2395C10.9046 26.2395 10.7901 26.125 10.7901 25.9831C10.7901 25.8413 10.9046 25.7268 11.0464 25.7268C11.1883 25.7268 11.3028 25.8413 11.3028 25.9831C11.3028 26.125 11.1883 26.2395 11.0464 26.2395Z" fill="#0D808A"/>
<path d="M12.7051 26.1402C12.8681 26.1402 13.0002 26.0081 13.0002 25.8451C13.0002 25.6821 12.8681 25.55 12.7051 25.55C12.5421 25.55 12.41 25.6821 12.41 25.8451C12.41 26.0081 12.5421 26.1402 12.7051 26.1402Z" fill="#0D808A"/>
<path d="M14.3215 25.7708C14.1462 25.7708 14.0044 25.6289 14.0044 25.4537C14.0044 25.2784 14.1462 25.1365 14.3215 25.1365C14.4968 25.1365 14.6386 25.2784 14.6386 25.4537C14.6386 25.6289 14.4968 25.7708 14.3215 25.7708Z" fill="#0D808A"/>
<path d="M15.8568 25.1384C15.6771 25.1384 15.5309 24.9922 15.5309 24.8125C15.5309 24.6328 15.6771 24.4866 15.8568 24.4866C16.0365 24.4866 16.1828 24.6328 16.1828 24.8125C16.1828 24.9922 16.0365 25.1384 15.8568 25.1384Z" fill="#0D808A"/>
<path d="M17.268 24.2498C17.0927 24.2498 16.9509 24.1079 16.9509 23.9327C16.9509 23.7574 17.0927 23.6155 17.268 23.6155C17.4433 23.6155 17.5851 23.7574 17.5851 23.9327C17.5851 24.1079 17.4433 24.2498 17.268 24.2498Z" fill="#0D808A"/>
<path d="M18.5233 23.1361C18.6862 23.1361 18.8184 23.004 18.8184 22.841C18.8184 22.678 18.6862 22.5459 18.5233 22.5459C18.3603 22.5459 18.2282 22.678 18.2282 22.841C18.2282 23.004 18.3603 23.1361 18.5233 23.1361Z" fill="#0D808A"/>
<path d="M19.5962 21.8254C19.4544 21.8254 19.3399 21.7108 19.3399 21.569C19.3399 21.4272 19.4544 21.3127 19.5962 21.3127C19.738 21.3127 19.8525 21.4272 19.8525 21.569C19.8525 21.7108 19.738 21.8254 19.5962 21.8254Z" fill="#0D808A"/>
<path d="M20.4612 20.3413C20.5678 20.3413 20.6541 20.2549 20.6541 20.1484C20.6541 20.0418 20.5678 19.9554 20.4612 19.9554C20.3547 19.9554 20.2683 20.0418 20.2683 20.1484C20.2683 20.2549 20.3547 20.3413 20.4612 20.3413Z" fill="#0D808A"/>
<path d="M21.0919 18.7137C21.1498 18.7137 21.1967 18.6667 21.1967 18.6089C21.1967 18.551 21.1498 18.504 21.0919 18.504C21.034 18.504 20.9871 18.551 20.9871 18.6089C20.9871 18.6667 21.034 18.7137 21.0919 18.7137Z" fill="#0D808A"/>
<path d="M8.95871 42.8073H10.5293C10.5293 42.8073 9.54889 42.2391 8.95871 42.8073Z" fill="#0D808A"/>
<path d="M14.6448 42.8061H16.2154C16.2154 42.8061 15.235 42.2379 14.6448 42.8061Z" fill="#0D808A"/>
<path d="M28.7194 42.5543H30.29C30.29 42.5543 29.3096 41.9861 28.7194 42.5543Z" fill="#0D808A"/>
</g>
</svg>
