<svg width="42" height="44" viewBox="0 0 42 44" fill="none" xmlns="http://www.w3.org/2000/svg">
<g opacity="0.5">
<path d="M12.5234 5.74683C12.5234 5.74683 10.1107 5.01306 9.68609 3.4266C9.26062 1.84279 10.9801 0 10.9801 0L12.5234 5.74771V5.74683Z" fill="white"/>
<path d="M19.107 10.2165C19.1264 11.4753 18.1231 12.5086 16.8696 12.528C15.8284 12.5438 14.9414 11.8655 14.6533 10.9186C14.6172 10.8006 14.5317 10.7037 14.4128 10.6684H14.4093C14.3106 10.6376 14.2067 10.6543 14.1195 10.7098C13.2562 11.2524 12.1243 11.5334 11.069 11.5502C8.96726 11.5828 7.23458 9.90471 7.20199 7.8047C7.1694 5.70293 8.84746 3.9729 10.9501 3.94031C11.8812 3.92533 12.8836 4.37282 13.7099 5.0599L13.746 5.08721L18.1328 8.38344L18.2499 8.47241C18.2614 8.48033 18.2719 8.48826 18.2834 8.49971C18.7776 8.91108 19.0956 9.52593 19.107 10.2174V10.2165Z" fill="white"/>
<path d="M18.2936 8.50212V8.5055C18.279 8.49198 18.2655 8.48072 18.2508 8.47058L18.2936 8.50212Z" fill="white"/>
<path d="M11.1175 5.77255C11.1175 5.77255 8.17012 6.07293 7.06198 4.57015C5.95208 3.0665 7.09722 0.33667 7.09722 0.33667L11.1175 5.77255Z" fill="white"/>
<path d="M12.7542 6.56616C12.6731 6.74498 12.3824 6.78638 12.1041 6.6613C11.8231 6.53445 11.6628 6.28869 11.7438 6.10987C11.8248 5.93105 12.1155 5.88877 12.3957 6.01561C12.674 6.14158 12.8352 6.38822 12.7542 6.56616Z" fill="#0D808A"/>
<path d="M18.0183 11.3564C18.0183 11.5898 17.8307 11.7783 17.5964 11.7783C17.3621 11.7783 17.1744 11.5898 17.1744 11.3564C17.1744 11.123 17.3638 10.9344 17.5964 10.9344C17.8289 10.9344 18.0183 11.1238 18.0183 11.3564Z" fill="#0D808A"/>
<path d="M32.5492 27.7668C32.1678 28.4618 31.693 29.1031 31.1565 29.6633C31.0464 29.7796 30.9302 29.8897 30.8174 29.9998L14.3891 30.257C8.29255 30.3522 3.08835 25.7654 2.53516 19.6936C2.53163 19.6513 2.52723 19.609 2.52371 19.5667C1.98461 13.0544 5.20949 7.22304 10.2807 4.04132C9.6077 4.46326 10.0103 8.12682 10.1089 8.94163C10.4278 11.5957 11.9191 15.1888 14.4331 16.4854C17.5453 18.0913 25.5225 12.584 30.9451 17.5821C34.2933 20.6669 34.2396 24.7366 32.5492 27.7668Z" fill="white"/>
<path d="M32.683 26.456C32.683 26.456 32.5588 27.0365 32.447 27.9482C32.055 28.637 31.5705 29.2713 31.0252 29.8227C30.9134 29.9372 30.7953 30.0456 30.6808 30.1539H21.0141C19.787 28.4644 19.1554 26.6533 19.1554 25.0818C19.1554 21.3513 22.1777 18.329 25.9047 18.329C29.6317 18.329 33.4291 22.1327 31.2992 25.1963C31.0983 25.4835 30.9424 25.7953 30.8173 26.1274C31.9017 26.2578 32.6822 26.456 32.6822 26.456H32.683Z" fill="#129AA6"/>
<path d="M33.8581 34.5799C33.8581 34.5799 30.413 38.1316 29.9321 42.6866L27.9457 42.7174C27.9457 42.7174 26.9882 37.6903 30.2122 34.7552C30.2025 34.7525 30.1902 34.749 30.1805 34.7464C23.5272 33.1828 19.9218 28.1821 19.8637 24.4622C19.8055 20.7325 22.7803 17.6627 26.5064 17.6046C30.236 17.5464 34.0889 21.2901 32.0074 24.3864C31.811 24.6762 31.6595 24.9916 31.5406 25.3245C32.6267 25.4382 33.4107 25.624 33.4107 25.624C33.4107 25.624 32.38 30.889 33.8573 34.5799H33.8581Z" fill="white"/>
<path d="M7.36855 28.6794C7.36855 28.6794 12.741 33.7268 9.98651 42.9971L12.2574 42.9619C12.2574 42.9619 17.0018 32.3438 12.3076 28.5182C9.0061 25.828 8.78324 28.6574 8.78324 28.6574L7.36855 28.6794Z" fill="white"/>
<path d="M2.65498 18.695C2.20925 18.9724 1.87716 19.2922 1.65695 19.7291C1.53891 19.9493 1.46492 20.1951 1.41382 20.4831C1.35481 20.7729 1.36097 21.0953 1.38387 21.4741C1.38387 21.4741 1.50191 21.1288 1.81815 20.854C2.12909 20.573 2.64969 20.3783 3.29185 20.484L4.09785 20.0638L3.94546 19.6833C3.89789 19.5547 3.86089 19.419 3.81685 19.2887C3.77105 19.1592 3.74726 19.0165 3.71027 18.8817C3.67151 18.7478 3.65213 18.6042 3.6257 18.4642L2.65586 18.695H2.65498Z" fill="white"/>
<path d="M2.42851 16.7743C2.1713 16.8703 1.94139 16.9822 1.7335 17.1169C1.52738 17.2517 1.33182 17.4103 1.17326 17.5997C1.01295 17.7899 0.862316 18.0128 0.741636 18.2779C0.628003 18.5431 0.51349 18.8514 0.45359 19.2152C0.45359 19.2152 0.657953 18.9139 1.06139 18.7184C1.46483 18.5149 2.03036 18.4374 2.68397 18.6893L3.62562 18.4656C3.59655 18.3273 3.57629 18.1846 3.5622 18.0401C3.54546 17.8965 3.52344 17.7547 3.51815 17.6076C3.51111 17.4605 3.49437 17.3178 3.49349 17.1698L3.48732 16.7276L2.42939 16.7769L2.42851 16.7743Z" fill="white"/>
<path d="M2.52814 14.8218C1.95116 14.9337 1.49487 15.1213 1.08086 15.4393C0.874735 15.5988 0.693274 15.7934 0.513576 16.0295C0.332996 16.2656 0.184128 16.5475 0.0282135 16.8822C0.0282135 16.8822 0.312737 16.6312 0.766387 16.5105C1.21828 16.3845 1.84282 16.4004 2.45855 16.773L3.48565 16.7254L3.50062 16.2788C3.50327 16.1308 3.52264 15.9802 3.53233 15.8313C3.54114 15.6825 3.55964 15.5327 3.5799 15.383C3.59928 15.2332 3.61426 15.0843 3.64244 14.9346L2.52814 14.8218Z" fill="white"/>
<path d="M2.89191 12.8916C2.27882 12.9233 1.7688 13.0431 1.30193 13.3003C1.0641 13.4281 0.843878 13.5919 0.628944 13.7998C0.408726 14.0059 0.203482 14.257 0 14.5617C0 14.5617 0.33209 14.36 0.823618 14.3089C1.31338 14.2534 1.96523 14.3591 2.5607 14.8251L3.6433 14.9352C3.68822 14.6366 3.749 14.3389 3.81331 14.042C3.88466 13.7461 3.95336 13.451 4.04321 13.1594L2.89191 12.8916Z" fill="white"/>
<path d="M3.48826 11.0205C2.85403 10.9685 2.29996 11.0143 1.78818 11.2081C1.2711 11.4001 0.778693 11.7349 0.280998 12.2801C0.280998 12.2801 0.650965 12.1269 1.1698 12.1445C1.69304 12.1586 2.3537 12.3524 2.9245 12.8994L4.04233 13.1592C4.12249 12.8659 4.22468 12.5787 4.32245 12.2925C4.42728 12.0071 4.53562 11.7252 4.6563 11.4486L3.48826 11.0214V11.0205Z" fill="white"/>
<path d="M4.30928 9.25067C3.6592 9.10004 3.09103 9.06744 2.52992 9.18372C1.97408 9.30264 1.42266 9.57042 0.841278 10.0479C0.841278 10.0479 1.24208 9.94391 1.7847 10.0364C2.32731 10.1236 2.98973 10.4099 3.52266 11.0336L4.65635 11.4484C4.71184 11.3084 4.77967 11.1736 4.84133 11.0371C4.90299 10.9005 4.9673 10.7649 5.03777 10.6336C5.10736 10.5024 5.1699 10.3659 5.24565 10.2399L5.46499 9.85583L4.30928 9.25067Z" fill="white"/>
<path d="M5.36182 7.64773C4.72055 7.36937 4.14093 7.23283 3.55163 7.26014C3.25125 7.27159 2.9588 7.32797 2.64961 7.42751C2.33514 7.52617 2.02771 7.67592 1.68858 7.87411C1.68858 7.87411 2.12373 7.82919 2.66899 8.0036C3.21513 8.17096 3.86962 8.57089 4.34265 9.26854L5.46489 9.85608C5.61728 9.60679 5.77319 9.36279 5.9388 9.13024C6.01807 9.01044 6.10792 8.90473 6.19161 8.7911C6.27353 8.67571 6.36602 8.57617 6.45323 8.47047L5.36182 7.64773Z" fill="white"/>
<path d="M6.65145 6.33412C6.08064 5.87959 5.53274 5.60299 4.91965 5.49817C4.61486 5.44796 4.30303 5.44532 3.95861 5.48672C3.63181 5.53517 3.2592 5.62501 2.88923 5.77829C2.88923 5.77829 3.33847 5.80207 3.87493 6.08219C4.4149 6.35702 4.99716 6.88467 5.39356 7.67129L6.45325 8.47024C6.53957 8.3619 6.63119 8.26676 6.7228 8.17075C6.81177 8.07033 6.90426 7.98136 6.99851 7.89679C7.09012 7.80606 7.18349 7.72502 7.27775 7.65191C7.37024 7.57087 7.46361 7.50128 7.5561 7.43962L6.65233 6.33412H6.65145Z" fill="white"/>
<path d="M8.03266 5.2168C8.22557 5.89067 8.0864 5.40354 8.12868 5.55329L8.1278 5.55065L8.12603 5.54713L8.12251 5.5392L8.11458 5.52335L8.09873 5.49251L8.06702 5.43174L8.00183 5.3137C7.95779 5.23618 7.9111 5.16131 7.86353 5.08908C7.7684 4.94461 7.66622 4.80984 7.55611 4.68563C7.33237 4.43194 7.08748 4.24167 6.79768 4.08752C6.5017 3.92808 6.18987 3.83735 5.8155 3.7845C5.45787 3.74134 5.03857 3.74486 4.60694 3.82326C4.60694 3.82326 4.7241 3.85497 4.89939 3.93865C5.07292 4.02234 5.30636 4.16151 5.54243 4.37292C5.77762 4.58257 6.00929 4.86181 6.20309 5.20007C6.39688 5.53656 6.55808 5.93031 6.67964 6.36634L7.55699 7.44013C7.6486 7.36878 7.74021 7.31592 7.83006 7.26571C7.91903 7.20493 8.00624 7.17234 8.08992 7.13182C8.17536 7.08161 8.25288 7.07457 8.32952 7.03933C8.36827 7.01995 8.40351 7.02171 8.43875 7.0129L8.49072 7.00057L8.51626 6.99353L8.52859 6.99L8.53476 6.98824H8.53828L8.54005 6.98648C8.42906 6.59801 8.78933 7.85502 8.29076 6.11617L8.03266 5.2168Z" fill="white"/>
<path d="M35.598 27.5809C35.598 27.5809 36.1652 29.177 37.7262 29.998C37.1034 29.029 36.818 28.1332 36.7554 26.9185C36.7554 26.9185 37.3817 28.2257 38.7735 28.9383C38.1842 27.7914 37.9851 26.818 38.0873 25.5082C38.0873 25.5082 38.6185 27.1228 40.1662 27.9799C39.6042 26.8621 39.4157 25.9028 39.5161 24.6194C39.5161 24.6194 40.0966 26.3794 41.809 27.1995C40.9651 26.3776 40.4084 25.1655 40.1292 23.9931C39.6843 22.1247 39.6817 20.1146 38.7999 18.4083C35.9644 12.9214 29.5226 16.0608 28.61 16.6325C29.3182 16.4105 28.3008 17.1002 29.024 17.1152C30.4334 17.1452 32.6752 16.0194 34.0194 19.1888C35.5451 22.7863 33.601 26.8797 35.9626 30.124C35.6561 29.3268 35.546 28.5463 35.598 27.5791V27.5809Z" fill="white"/>
<path d="M5.83758 24.0812C5.83758 24.0812 0.658039 28.6793 2.31144 33.7497C2.83556 35.359 3.28305 36.8512 6.58633 39.0578L8.02567 37.9276C8.02567 37.9276 4.51627 34.4367 6.88406 31.5175C8.58591 29.4202 10.2798 28.7199 10.2798 28.7199L5.83758 24.0812Z" fill="white"/>
<path d="M7.4267 9.05729C7.00476 8.50938 6.63303 8.16232 5.6535 7.94739C6.0816 8.53405 6.72728 8.93837 7.4267 9.05729Z" fill="#0D808A"/>
<path d="M6.88847 9.83165C6.47358 9.31898 6.10714 8.99834 5.15755 8.84595C5.58037 9.39737 6.20844 9.75589 6.88847 9.83165Z" fill="#0D808A"/>
<path d="M6.38456 10.6278C5.97319 10.1477 5.61291 9.85261 4.70033 9.76453C5.11962 10.2834 5.73095 10.5961 6.38456 10.6278Z" fill="#0D808A"/>
<path d="M5.916 11.4454C5.5152 10.9996 5.16285 10.7319 4.28374 10.7037C4.69951 11.1899 5.28882 11.4568 5.916 11.4454Z" fill="#0D808A"/>
<path d="M5.48793 12.2839C5.09153 11.8699 4.74711 11.6277 3.9138 11.662C4.32165 12.1139 4.88981 12.3377 5.48793 12.2839Z" fill="#0D808A"/>
<path d="M5.10118 13.1418C4.718 12.7613 4.38327 12.5455 3.59048 12.6371C3.99569 13.0581 4.53919 13.2387 5.10118 13.1418Z" fill="#0D808A"/>
<path d="M4.76559 14.0207C4.38858 13.6701 4.06353 13.4799 3.32448 13.6305C3.71735 14.0172 4.23442 14.1564 4.76559 14.0207Z" fill="#0D808A"/>
<path d="M4.47746 14.9169C4.29247 14.7557 4.12775 14.6368 3.91722 14.5805C3.70933 14.5258 3.45212 14.5311 3.11386 14.6359C3.50321 14.9927 3.99033 15.0922 4.47834 14.9169H4.47746Z" fill="#0D808A"/>
<path d="M4.24934 15.83C3.89611 15.5393 3.59485 15.3983 2.96767 15.6529C3.34204 15.9771 3.79745 16.0405 4.24934 15.83Z" fill="#0D808A"/>
<path d="M4.07849 16.757C3.9032 16.624 3.7508 16.5298 3.56582 16.5051C3.38172 16.4804 3.16326 16.5236 2.88843 16.676C3.25663 16.972 3.67857 17.001 4.07849 16.757Z" fill="#0D808A"/>
<path d="M3.97454 17.6943C3.64862 17.4574 3.37643 17.3605 2.88049 17.7022C3.2346 17.97 3.61779 17.9674 3.97454 17.6943Z" fill="#0D808A"/>
<path d="M3.94101 18.6373C3.62477 18.4233 3.36668 18.3493 2.9509 18.7228C3.29533 18.9633 3.64063 18.936 3.94101 18.6373Z" fill="#0D808A"/>
<path d="M3.97801 19.5843C3.6838 19.3888 3.44596 19.3333 3.09538 19.7323C3.25658 19.8406 3.42218 19.8829 3.56929 19.8583C3.71992 19.8336 3.8494 19.7437 3.97801 19.5843Z" fill="#0D808A"/>
<path d="M4.09258 20.5289C3.80982 20.3501 3.58872 20.3114 3.32269 20.7245C3.63628 20.9209 3.90055 20.8593 4.09258 20.5289Z" fill="#0D808A"/>
<path d="M4.27669 21.4659C4.01683 21.2985 3.81776 21.2721 3.61956 21.694C3.92346 21.8711 4.14456 21.8015 4.27669 21.4659Z" fill="#0D808A"/>
<path d="M4.54349 22.3846C4.29509 22.2296 4.11451 22.2128 4.00175 22.6295C4.28275 22.7942 4.46421 22.722 4.54349 22.3846Z" fill="#0D808A"/>
<path d="M4.88265 23.2835C4.76461 23.2103 4.67212 23.1681 4.59813 23.198C4.52677 23.2271 4.46776 23.3293 4.45454 23.5301C4.72585 23.6799 4.86767 23.6103 4.88265 23.2835Z" fill="#0D808A"/>
<path d="M5.3091 24.1476C5.09153 24.0031 4.95147 23.9987 4.98934 24.381C5.23863 24.5255 5.34257 24.4647 5.3091 24.1476Z" fill="#0D808A"/>
<path d="M5.81375 24.9726C5.7054 24.9048 5.62877 24.8652 5.58649 24.8898C5.54508 24.9145 5.5354 25.0052 5.59794 25.1743C5.84018 25.3082 5.90889 25.2624 5.81375 24.9726Z" fill="#0D808A"/>
<path d="M6.40226 25.7464C6.20671 25.601 6.10541 25.5966 6.2807 25.9014C6.39081 25.971 6.46128 25.993 6.48154 25.971C6.50092 25.949 6.47097 25.8803 6.40314 25.7455L6.40226 25.7464Z" fill="#0D808A"/>
<path d="M11.2708 9.35244C11.2408 9.33746 11.0964 9.22207 10.9396 9.13486C10.7854 9.0459 10.6295 8.98688 10.6295 8.98688C10.6295 8.98688 10.7916 9.02387 10.9695 9.03444C11.1457 9.04766 11.3325 9.0318 11.365 9.03621C11.4302 9.04325 11.4734 9.13222 11.4434 9.23264C11.4285 9.28109 11.3985 9.31985 11.3677 9.34187C11.3342 9.36301 11.299 9.36741 11.2699 9.35244H11.2708Z" fill="#0D808A"/>
<path d="M10.9766 9.72145C10.9572 9.6959 10.8735 9.52678 10.7722 9.38143C10.6736 9.23609 10.5573 9.11365 10.5573 9.11365C10.5573 9.11365 10.5899 9.14007 10.6418 9.17707C10.6938 9.21406 10.7669 9.26163 10.8427 9.3048C10.9951 9.39288 11.1721 9.46159 11.1986 9.47921C11.2532 9.51356 11.2541 9.6131 11.1836 9.68886C11.114 9.76461 11.0153 9.7743 10.9757 9.72145H10.9766Z" fill="#0D808A"/>
<path d="M10.5502 9.92687C10.5432 9.89516 10.5423 9.70577 10.5141 9.53312C10.4877 9.35607 10.4366 9.19751 10.4366 9.19751C10.4366 9.19751 10.4551 9.23538 10.4859 9.29176C10.5168 9.34725 10.5608 9.42037 10.611 9.49348C10.7114 9.64059 10.8392 9.77624 10.8568 9.80443C10.892 9.85992 10.8489 9.94889 10.7529 9.98765C10.6568 10.0264 10.5635 9.99029 10.5511 9.92687H10.5502Z" fill="#0D808A"/>
<path d="M10.0781 9.92646C10.086 9.89562 10.1662 9.72474 10.2164 9.55473C10.2684 9.38648 10.2913 9.21912 10.2913 9.21912C10.2913 9.21912 10.2913 9.38648 10.3203 9.56177C10.3468 9.7353 10.4032 9.91589 10.4067 9.94848C10.4137 10.0119 10.3371 10.0762 10.234 10.0674C10.131 10.0603 10.0623 9.989 10.0781 9.92557V9.92646Z" fill="#0D808A"/>
<path d="M9.65254 9.72129C9.67368 9.69663 9.81991 9.57771 9.93794 9.44734C10.0595 9.31697 10.152 9.1778 10.152 9.1778C10.152 9.1778 10.1335 9.21567 10.1088 9.27469C10.0842 9.33283 10.0542 9.41387 10.0296 9.49844C9.9767 9.66844 9.95027 9.85343 9.9397 9.88426C9.91856 9.9468 9.82167 9.96794 9.73094 9.91685C9.64109 9.86576 9.61114 9.77062 9.65254 9.72129Z" fill="#0D808A"/>
<path d="M9.35842 9.35254C9.38837 9.33844 9.56894 9.29704 9.73455 9.22922C9.90015 9.16491 10.0429 9.07947 10.0429 9.07947C10.0429 9.07947 9.91249 9.18341 9.79357 9.31554C9.67377 9.44503 9.56894 9.60095 9.54516 9.62385C9.49936 9.66965 9.40246 9.64851 9.34344 9.56307C9.31525 9.52079 9.30292 9.4741 9.30556 9.43622C9.30997 9.39658 9.32847 9.36663 9.35753 9.35254H9.35842Z" fill="#0D808A"/>
<path d="M9.25269 8.89056C9.28529 8.89056 9.47027 8.93197 9.64644 8.94254C9.73365 8.9487 9.82086 8.94959 9.88428 8.94782C9.94859 8.94606 9.98999 8.94166 9.98999 8.94166C9.98999 8.94166 9.94947 8.95046 9.8878 8.96808C9.82526 8.9857 9.74422 9.01213 9.6623 9.0456C9.49846 9.1099 9.33373 9.20592 9.30378 9.21561C9.24212 9.23763 9.16461 9.17509 9.14963 9.07291C9.13201 8.97072 9.18927 8.88792 9.25269 8.89056Z" fill="#0D808A"/>
<path d="M9.35837 8.4298C9.38832 8.44477 9.53278 8.56016 9.68957 8.64737C9.84373 8.73634 9.99964 8.79536 9.99964 8.79536C9.99964 8.79536 9.83756 8.75836 9.65962 8.74779C9.48345 8.73458 9.2967 8.75043 9.26411 8.74603C9.19893 8.73898 9.15576 8.65001 9.18571 8.54959C9.20069 8.50115 9.23064 8.46239 9.26147 8.44037C9.29494 8.41923 9.33018 8.41482 9.35925 8.4298H9.35837Z" fill="#0D808A"/>
<path d="M9.65265 8.06076C9.67203 8.08631 9.75572 8.25544 9.85702 8.40078C9.95568 8.54612 10.072 8.66857 10.072 8.66857C10.072 8.66857 10.0394 8.64214 9.98739 8.60514C9.93542 8.56815 9.8623 8.52058 9.78655 8.47742C9.63416 8.38933 9.4571 8.32062 9.43067 8.303C9.37606 8.26865 9.37518 8.16911 9.44565 8.09336C9.51524 8.0176 9.6139 8.00791 9.65354 8.06076H9.65265Z" fill="#0D808A"/>
<path d="M10.0781 7.85558C10.0852 7.8873 10.0861 8.07669 10.1143 8.24934C10.1407 8.42639 10.1918 8.58495 10.1918 8.58495C10.1918 8.58495 10.1733 8.54707 10.1424 8.4907C10.1116 8.4352 10.0676 8.36209 10.0174 8.28897C9.91693 8.14187 9.78921 8.00621 9.77159 7.97803C9.73636 7.92253 9.77952 7.83356 9.87553 7.7948C9.97155 7.75604 10.0649 7.79216 10.0773 7.85558H10.0781Z" fill="#0D808A"/>
<path d="M10.5503 7.85586C10.5423 7.88669 10.4622 8.05759 10.412 8.22759C10.36 8.39584 10.3371 8.56321 10.3371 8.56321C10.3371 8.56321 10.3371 8.39584 10.308 8.22055C10.2816 8.04701 10.2252 7.86643 10.2217 7.83384C10.2147 7.77042 10.2913 7.70612 10.3944 7.71492C10.4974 7.72197 10.5661 7.79332 10.5503 7.85674V7.85586Z" fill="#0D808A"/>
<path d="M10.9766 8.06081C10.9555 8.08548 10.8092 8.2044 10.6912 8.33476C10.5696 8.46513 10.4771 8.60431 10.4771 8.60431C10.4771 8.60431 10.4956 8.56644 10.5203 8.50742C10.545 8.44928 10.5749 8.36824 10.5996 8.28367C10.6524 8.11366 10.6789 7.92868 10.6894 7.89785C10.7106 7.83531 10.8075 7.81417 10.8982 7.86526C10.9889 7.91635 11.018 8.01148 10.9766 8.06081Z" fill="#0D808A"/>
<path d="M11.2708 8.42981C11.2409 8.4439 11.0603 8.4853 10.8947 8.55313C10.7291 8.61743 10.5864 8.70288 10.5864 8.70288C10.5864 8.70288 10.7167 8.59894 10.8357 8.46681C10.9555 8.33732 11.0603 8.1814 11.0841 8.1585C11.1299 8.11269 11.2268 8.13384 11.2858 8.21928C11.3148 8.26156 11.3263 8.30825 11.3237 8.34613C11.3193 8.38489 11.3008 8.41572 11.2717 8.42981H11.2708Z" fill="#0D808A"/>
<path d="M11.3765 8.89079C11.3439 8.89079 11.1589 8.84939 10.9828 8.83882C10.8955 8.83265 10.8083 8.83177 10.7449 8.83354C10.6806 8.8353 10.6392 8.8397 10.6392 8.8397C10.6392 8.8397 10.6797 8.83089 10.7414 8.81327C10.8039 8.79565 10.885 8.76923 10.9669 8.73575C11.1307 8.67145 11.2955 8.57544 11.3254 8.56575C11.3871 8.54372 11.4646 8.60627 11.4796 8.70845C11.4972 8.81063 11.4399 8.89343 11.3765 8.89079Z" fill="#0D808A"/>
<path d="M10.3194 10.5574C10.2639 10.5609 10.2216 10.5151 10.2181 10.4596C10.2181 10.4041 10.2639 10.3619 10.3194 10.3619C10.3714 10.3619 10.4172 10.4041 10.4172 10.4596C10.4172 10.5151 10.3714 10.5574 10.3194 10.5609V10.5574ZM9.80499 10.479C9.75301 10.4632 9.72395 10.4077 9.7398 10.3548C9.75566 10.3028 9.81115 10.2738 9.864 10.2896C9.91598 10.309 9.94505 10.361 9.92919 10.4165C9.91598 10.4552 9.87722 10.4852 9.83494 10.4852C9.82525 10.4852 9.81556 10.4817 9.80587 10.479H9.80499ZM10.7079 10.4147C10.692 10.3627 10.7211 10.3073 10.7731 10.2905C10.825 10.2711 10.8805 10.3002 10.8973 10.3522C10.914 10.4041 10.8876 10.4596 10.8356 10.4764C10.8259 10.4799 10.8127 10.4825 10.803 10.4825C10.7643 10.4825 10.7246 10.4535 10.7088 10.4138L10.7079 10.4147ZM9.339 10.2447C9.2932 10.2121 9.28351 10.1505 9.3161 10.1082C9.34869 10.0624 9.41036 10.0527 9.45352 10.0853C9.49932 10.1179 9.50901 10.1795 9.47642 10.2227C9.45704 10.2482 9.42797 10.265 9.39802 10.265C9.37864 10.265 9.35574 10.2588 9.33988 10.2456L9.339 10.2447ZM11.1607 10.2192C11.1281 10.1734 11.1378 10.1117 11.18 10.0791C11.2258 10.0465 11.2875 10.0562 11.3201 10.102C11.3527 10.1443 11.3395 10.2059 11.2972 10.2385C11.2813 10.2518 11.2584 10.2579 11.2391 10.2579C11.21 10.2579 11.18 10.2447 11.1607 10.2192ZM8.9708 9.8765C8.93821 9.83422 8.94437 9.77256 8.99018 9.73997C9.03598 9.70738 9.09412 9.71707 9.12759 9.76287V9.75934C9.16019 9.80515 9.1505 9.86681 9.10821 9.89941C9.08883 9.91262 9.06946 9.91878 9.0492 9.91878C9.02013 9.91878 8.98753 9.90293 8.9708 9.8765ZM11.5289 9.89324C11.4831 9.86065 11.4734 9.79899 11.506 9.75318C11.5385 9.7109 11.6002 9.70121 11.6425 9.7338C11.6883 9.76287 11.698 9.82453 11.6654 9.87034C11.646 9.89676 11.6161 9.90909 11.5844 9.90909C11.565 9.90909 11.5456 9.90557 11.5289 9.89324ZM8.72944 9.41404C8.71358 9.36207 8.73913 9.30658 8.7911 9.28984C8.84307 9.27399 8.89857 9.29953 8.91795 9.3515C8.9338 9.40348 8.90473 9.45897 8.85276 9.47835C8.84307 9.48187 8.83338 9.48187 8.82369 9.48187C8.78141 9.48187 8.74265 9.45544 8.72944 9.41316V9.41404ZM11.7764 9.46954C11.7244 9.4528 11.698 9.39819 11.7147 9.34534C11.7306 9.29337 11.7861 9.26429 11.8389 9.28015C11.8909 9.29953 11.92 9.35502 11.9041 9.40699C11.8874 9.44575 11.8521 9.47218 11.8099 9.47218C11.8002 9.47218 11.7905 9.47218 11.7773 9.46866L11.7764 9.46954ZM8.64487 8.89962H8.6484C8.64488 8.84764 8.69068 8.80183 8.74265 8.80183C8.79815 8.80183 8.84395 8.84412 8.84395 8.89962C8.84395 8.95511 8.80167 9.00091 8.74618 9.00091C8.69068 9.00091 8.6484 8.95511 8.64575 8.89962H8.64487ZM11.7861 8.89257V8.8864V8.87318C11.7861 8.82121 11.8284 8.77541 11.8839 8.77541C11.9358 8.77189 11.9816 8.81769 11.9816 8.87318V8.88288V8.89257C11.9816 8.94454 11.9393 8.99034 11.8839 8.99034C11.8284 8.99034 11.7861 8.94454 11.7861 8.89257ZM8.78846 8.50851C8.73649 8.49265 8.70742 8.43715 8.72327 8.3843C8.73913 8.33233 8.79462 8.3059 8.85012 8.32264C8.89857 8.33849 8.92852 8.39399 8.91178 8.44684C8.89857 8.48913 8.85981 8.51555 8.81753 8.51555C8.80784 8.51555 8.79815 8.51203 8.78846 8.50938V8.50851ZM11.7077 8.42042C11.6909 8.36845 11.7174 8.31295 11.7693 8.29621C11.8213 8.27683 11.8768 8.3059 11.8962 8.35788C11.912 8.40985 11.883 8.46534 11.8345 8.48208C11.8213 8.4856 11.8116 8.48824 11.8019 8.48824C11.7596 8.48824 11.7209 8.46182 11.7077 8.41954V8.42042ZM8.98049 8.05838C8.93468 8.02578 8.92499 7.96413 8.95759 7.91832C8.99018 7.87604 9.05184 7.86635 9.09412 7.89542C9.13993 7.92801 9.14962 7.98967 9.11702 8.03548C9.09764 8.0619 9.06858 8.07424 9.03863 8.07424C9.01925 8.07424 8.99634 8.06807 8.97961 8.05838H8.98049ZM11.4963 8.0161V8.01257C11.4637 7.97029 11.4734 7.90863 11.5156 7.87604C11.5615 7.84345 11.6196 7.85313 11.6531 7.89542C11.6857 7.94122 11.6786 8.00289 11.6337 8.03548C11.6169 8.04869 11.5949 8.05485 11.5747 8.05485C11.5456 8.05485 11.5156 8.039 11.4963 8.0161ZM9.30377 7.68753C9.27118 7.64173 9.28087 7.58007 9.32315 7.551C9.36895 7.5184 9.43062 7.52457 9.46321 7.57037C9.4958 7.61265 9.48611 7.67432 9.4403 7.70691C9.42357 7.72012 9.40419 7.72629 9.38129 7.72629C9.35222 7.72629 9.32227 7.71308 9.30289 7.68753H9.30377ZM11.1668 7.6937C11.121 7.66111 11.1113 7.59944 11.1439 7.55364C11.1765 7.51135 11.2382 7.50166 11.2805 7.53073C11.3263 7.56332 11.3359 7.62499 11.3034 7.67079C11.2875 7.69722 11.2549 7.70955 11.225 7.70955C11.2056 7.70955 11.1827 7.70339 11.1659 7.6937H11.1668ZM9.72307 7.43296C9.70721 7.38099 9.73276 7.32549 9.78473 7.30876C9.8367 7.28938 9.89219 7.31844 9.91157 7.37041C9.92831 7.42238 9.89836 7.47788 9.84639 7.49462C9.8367 7.49814 9.82701 7.50079 9.81732 7.50079C9.77504 7.50079 9.73628 7.47436 9.72307 7.43207V7.43296ZM10.7563 7.48845C10.7044 7.47172 10.6753 7.4171 10.6911 7.36425C10.707 7.31227 10.7625 7.28321 10.8153 7.29906C10.8673 7.31492 10.8964 7.37042 10.8805 7.42327C10.8673 7.46555 10.8286 7.49197 10.7863 7.49197C10.7766 7.49197 10.7669 7.49198 10.7572 7.48845H10.7563ZM10.2023 7.32197C10.2023 7.26647 10.2445 7.22419 10.3 7.22419C10.3555 7.22067 10.3978 7.26647 10.3978 7.31844C10.4013 7.37394 10.3555 7.41974 10.3 7.41974C10.2481 7.41974 10.2023 7.37746 10.2023 7.32197Z" fill="#0D808A"/>
<path d="M27.8198 21.3403C27.7167 21.1474 27.4851 21.017 27.2737 21.0725C27.0684 21.1262 26.9442 21.3192 26.8561 21.5182C26.9407 21.0822 27.0024 20.7281 27.0024 20.6189C27.0024 20.27 26.7196 19.9864 26.3699 19.9864C26.0202 19.9864 25.7374 20.2691 25.7374 20.6189C25.7374 20.7281 25.7991 21.0822 25.8836 21.5182C25.7956 21.3192 25.6705 21.1262 25.4661 21.0725C25.2547 21.017 25.023 21.1474 24.92 21.3403C24.8169 21.5332 24.8257 21.771 24.8988 21.9772C24.9719 22.1833 25.1023 22.3639 25.238 22.5356C25.5022 22.8713 25.792 23.1866 26.0924 23.4905C26.0131 23.1646 25.8942 22.6343 25.8942 22.6343C25.8942 22.6343 26.0669 22.9091 26.2254 23.1672C26.2333 23.1796 26.2404 23.1919 26.2474 23.2033C26.2607 23.0827 26.2739 22.9541 26.288 22.8272C26.3294 22.4423 26.3699 22.0846 26.3699 22.0846C26.3699 22.0846 26.4095 22.4431 26.4518 22.8272C26.4659 22.9541 26.4791 23.0827 26.4923 23.2033C26.5003 23.191 26.5073 23.1796 26.5143 23.1672C26.6729 22.9091 26.8456 22.6343 26.8456 22.6343C26.8456 22.6343 26.7266 23.1646 26.6474 23.4905C26.9477 23.1857 27.2375 22.8713 27.5018 22.5356C27.6375 22.3639 27.7678 22.1833 27.8409 21.9772C27.9141 21.771 27.9229 21.5332 27.8198 21.3403Z" fill="#0D808A"/>
<path d="M27.8198 26.4833C27.7167 26.6763 27.4851 26.8066 27.2737 26.7511C27.0684 26.6974 26.9442 26.5045 26.8561 26.3054C26.9407 26.7414 27.0024 27.0956 27.0024 27.2048C27.0024 27.5536 26.7196 27.8373 26.3699 27.8373C26.0202 27.8373 25.7374 27.5545 25.7374 27.2048C25.7374 27.0956 25.7991 26.7414 25.8836 26.3054C25.7956 26.5045 25.6705 26.6974 25.4661 26.7511C25.2547 26.8066 25.023 26.6763 24.92 26.4833C24.8169 26.2904 24.8257 26.0526 24.8988 25.8465C24.9719 25.6403 25.1023 25.4598 25.238 25.288C25.5022 24.9524 25.792 24.637 26.0924 24.3331C26.0131 24.6591 25.8942 25.1893 25.8942 25.1893C25.8942 25.1893 26.0669 24.9145 26.2254 24.6564C26.2333 24.6441 26.2404 24.6317 26.2474 24.6203C26.2607 24.741 26.2739 24.8696 26.288 24.9964C26.3294 25.3814 26.3699 25.739 26.3699 25.739C26.3699 25.739 26.4095 25.3805 26.4518 24.9964C26.4659 24.8696 26.4791 24.741 26.4923 24.6203C26.5003 24.6326 26.5073 24.6441 26.5143 24.6564C26.6729 24.9145 26.8456 25.1893 26.8456 25.1893C26.8456 25.1893 26.7266 24.6591 26.6474 24.3331C26.9477 24.6379 27.2375 24.9524 27.5018 25.288C27.6375 25.4598 27.7678 25.6403 27.8409 25.8465C27.9141 26.0526 27.9229 26.2904 27.8198 26.4833Z" fill="#0D808A"/>
<path d="M28.9403 25.3623C29.1332 25.2592 29.2635 25.0276 29.208 24.8162C29.1543 24.6109 28.9614 24.4867 28.7623 24.3986C29.1983 24.4832 29.5525 24.5448 29.6617 24.5448C30.0114 24.5448 30.2942 24.2621 30.2942 23.9124C30.2942 23.5627 30.0114 23.2799 29.6617 23.2799C29.5525 23.2799 29.1983 23.3416 28.7623 23.4261C28.9614 23.338 29.1543 23.213 29.208 23.0086C29.2635 22.7972 29.1332 22.5655 28.9403 22.4625C28.7473 22.3594 28.5095 22.3682 28.3034 22.4413C28.0973 22.5144 27.9167 22.6448 27.7449 22.7805C27.4093 23.0447 27.0939 23.3345 26.79 23.6349C27.116 23.5556 27.6462 23.4367 27.6462 23.4367C27.6462 23.4367 27.3714 23.6094 27.1133 23.7679C27.101 23.7758 27.0887 23.7829 27.0772 23.7899C27.1979 23.8032 27.3265 23.8164 27.4533 23.8305C27.8383 23.8719 28.1959 23.9124 28.1959 23.9124C28.1959 23.9124 27.8374 23.952 27.4533 23.9943C27.3265 24.0084 27.1979 24.0216 27.0772 24.0348C27.0895 24.0427 27.101 24.0498 27.1133 24.0568C27.3714 24.2154 27.6462 24.3881 27.6462 24.3881C27.6462 24.3881 27.116 24.2691 26.79 24.1899C27.0948 24.4902 27.4093 24.78 27.7449 25.0443C27.9167 25.18 28.0973 25.3103 28.3034 25.3834C28.5095 25.4566 28.7473 25.4654 28.9403 25.3623Z" fill="#0D808A"/>
<path d="M23.7968 25.3623C23.6039 25.2592 23.4736 25.0276 23.5291 24.8162C23.5828 24.6109 23.7757 24.4867 23.9748 24.3986C23.5387 24.4832 23.1846 24.5448 23.0754 24.5448C22.7257 24.5448 22.4429 24.2621 22.4429 23.9124C22.4429 23.5627 22.7257 23.2799 23.0754 23.2799C23.1846 23.2799 23.5387 23.3416 23.9748 23.4261C23.7757 23.338 23.5828 23.213 23.5291 23.0086C23.4736 22.7972 23.6039 22.5655 23.7968 22.4625C23.9898 22.3594 24.2276 22.3682 24.4346 22.4413C24.6416 22.5144 24.8213 22.6448 24.9931 22.7805C25.3287 23.0447 25.644 23.3345 25.9479 23.6349C25.622 23.5556 25.0917 23.4367 25.0917 23.4367C25.0917 23.4367 25.3666 23.6094 25.6247 23.7679C25.637 23.7758 25.6493 23.7829 25.6608 23.7899C25.5401 23.8032 25.4115 23.8164 25.2846 23.8305C24.8997 23.8719 24.5421 23.9124 24.5421 23.9124C24.5421 23.9124 24.9006 23.952 25.2846 23.9943C25.4115 24.0084 25.5401 24.0216 25.6608 24.0348C25.6484 24.0427 25.637 24.0498 25.6247 24.0568C25.3666 24.2154 25.0917 24.3881 25.0917 24.3881C25.0917 24.3881 25.622 24.2691 25.9479 24.1899C25.6432 24.4902 25.3287 24.78 24.9931 25.0443C24.8213 25.18 24.6407 25.3103 24.4346 25.3834C24.2285 25.4566 23.9906 25.4654 23.7968 25.3623Z" fill="#0D808A"/>
<path d="M26.5989 23.9115C26.5989 24.0384 26.4959 24.1415 26.369 24.1415C26.2422 24.1415 26.1391 24.0384 26.1391 23.9115C26.1391 23.7847 26.2422 23.6816 26.369 23.6816C26.4959 23.6816 26.5989 23.7847 26.5989 23.9115Z" fill="#0D808A"/>
<path d="M28.9446 21.5048C28.9314 21.5356 28.9067 21.5726 28.8891 21.5911L28.8697 21.6087L28.831 21.6422L28.757 21.7039L28.6099 21.8236L28.3157 22.0606L27.7264 22.531L28.1571 21.9126L28.3703 21.6025L28.4751 21.4475L28.5262 21.3709L28.5491 21.3348L28.5597 21.3171C28.5518 21.3242 28.5359 21.348 28.5324 21.3665C28.5702 21.2528 28.6936 21.1912 28.8072 21.2291C28.9208 21.2669 28.9825 21.3903 28.9446 21.5039V21.5048Z" fill="#0D808A"/>
<path d="M23.8453 21.5048C23.8585 21.5356 23.8832 21.5726 23.9008 21.5911L23.9202 21.6087L23.959 21.6422L24.033 21.7039L24.1801 21.8236L24.4743 22.0606L25.0636 22.531L24.6328 21.9126L24.4197 21.6025L24.3148 21.4475L24.2637 21.3709L24.2408 21.3348L24.2303 21.3171C24.2382 21.3242 24.2541 21.348 24.2576 21.3665C24.2197 21.2528 24.0964 21.1912 23.9827 21.2291C23.8691 21.2669 23.8075 21.3903 23.8453 21.5039V21.5048Z" fill="#0D808A"/>
<path d="M23.8453 26.3189C23.8585 26.2881 23.8832 26.2511 23.9008 26.2326L23.9202 26.2149L23.959 26.1815L24.033 26.1198L24.1801 26L24.4743 25.7631L25.0636 25.2927L24.6328 25.911L24.4197 26.2211L24.3148 26.3761L24.2637 26.4528L24.2408 26.4889L24.2303 26.5065C24.2382 26.4995 24.2541 26.4757 24.2576 26.4572C24.2197 26.5708 24.0964 26.6325 23.9827 26.5946C23.8691 26.5567 23.8075 26.4334 23.8453 26.3198V26.3189Z" fill="#0D808A"/>
<path d="M28.9446 26.3189C28.9314 26.2881 28.9067 26.2511 28.8891 26.2326L28.8697 26.2149L28.831 26.1815L28.757 26.1198L28.6099 26L28.3157 25.7631L27.7264 25.2927L28.1571 25.911L28.3703 26.2211L28.4751 26.3761L28.5262 26.4528L28.5491 26.4889L28.5597 26.5065C28.5518 26.4995 28.5359 26.4757 28.5324 26.4572C28.5702 26.5708 28.6936 26.6325 28.8072 26.5946C28.9208 26.5567 28.9825 26.4334 28.9446 26.3198V26.3189Z" fill="#0D808A"/>
<path d="M25.9268 28.7412C25.8387 28.7315 25.77 28.6531 25.7806 28.565C25.7867 28.4743 25.8687 28.4082 25.9567 28.4152C26.0475 28.4249 26.1135 28.5033 26.103 28.594C26.0968 28.6786 26.0246 28.7412 25.9435 28.7412H25.9268ZM26.6429 28.5914C26.6333 28.5033 26.702 28.4249 26.79 28.4152C26.8808 28.4055 26.9592 28.4742 26.9689 28.5615C26.975 28.6531 26.9098 28.7306 26.8218 28.7412H26.8059C26.7213 28.7412 26.6491 28.676 26.6429 28.5914ZM25.0468 28.5782C24.9622 28.5553 24.9103 28.4637 24.9358 28.3765C24.9587 28.2919 25.0494 28.2399 25.1349 28.2655C25.223 28.2884 25.2714 28.3791 25.2485 28.4646C25.2291 28.5394 25.164 28.5852 25.0917 28.5852C25.075 28.5852 25.0627 28.5817 25.0459 28.5791L25.0468 28.5782ZM27.5 28.4646C27.4736 28.3765 27.5229 28.2884 27.611 28.2628C27.6956 28.2364 27.7872 28.2893 27.8127 28.3738C27.8356 28.4619 27.7872 28.5527 27.6991 28.5756C27.6859 28.5791 27.67 28.5817 27.6533 28.5817C27.5846 28.5817 27.5194 28.5359 27.5 28.4646ZM24.2126 28.2558C24.1316 28.217 24.099 28.1193 24.1377 28.0373C24.18 27.9589 24.2778 27.9237 24.3562 27.966C24.4372 28.0047 24.4698 28.1025 24.4311 28.1844C24.402 28.2399 24.343 28.2725 24.2848 28.2725C24.2619 28.2725 24.2355 28.269 24.2135 28.2558H24.2126ZM28.3148 28.1774C28.2761 28.099 28.3087 28.0012 28.3897 27.9589C28.4681 27.9202 28.5659 27.9528 28.6082 28.0338C28.6469 28.1149 28.6143 28.21 28.5333 28.2523C28.5104 28.262 28.4875 28.2681 28.462 28.2681C28.4029 28.2681 28.3448 28.2355 28.3148 28.1774ZM23.4507 27.7863C23.3793 27.7308 23.3661 27.6295 23.4216 27.5581C23.4736 27.4868 23.5784 27.4701 23.6497 27.5255C23.7211 27.581 23.7343 27.6823 23.6788 27.7537C23.6497 27.796 23.6004 27.8189 23.5484 27.8189C23.5158 27.8189 23.4797 27.8092 23.4507 27.7863ZM29.0645 27.7475C29.0125 27.6762 29.0257 27.5749 29.0971 27.5194C29.1684 27.4639 29.2732 27.4806 29.3252 27.552C29.3807 27.6233 29.364 27.7246 29.2961 27.7801C29.2635 27.803 29.231 27.8127 29.1948 27.8127C29.1464 27.8127 29.0971 27.7898 29.0645 27.7475ZM22.7891 27.1838C22.731 27.1186 22.7336 27.0146 22.7988 26.9521C22.8675 26.894 22.9679 26.8966 23.0305 26.9653C23.0921 27.0305 23.086 27.1318 23.0208 27.1935C22.9882 27.2225 22.9494 27.2357 22.9098 27.2357C22.8675 27.2357 22.8217 27.2199 22.7891 27.1838ZM29.7225 27.1873C29.6573 27.1256 29.6538 27.0243 29.7128 26.9556C29.7745 26.8904 29.8758 26.8869 29.9445 26.9459C30.0096 27.0076 30.0158 27.1124 29.9542 27.1776C29.9216 27.2137 29.8793 27.2296 29.8335 27.2296C29.7947 27.2296 29.7551 27.2164 29.7225 27.1873ZM22.2483 26.4738C22.2025 26.3954 22.2254 26.2941 22.3002 26.2492C22.3786 26.1998 22.4799 26.2227 22.5249 26.3011C22.5742 26.376 22.5513 26.4773 22.4729 26.5231C22.4465 26.5425 22.4174 26.5495 22.3883 26.5495C22.3328 26.5495 22.2809 26.5231 22.2483 26.4747V26.4738ZM30.2695 26.5161C30.1911 26.4676 30.1682 26.369 30.2175 26.2914C30.2633 26.2166 30.3638 26.1901 30.4422 26.2395C30.517 26.2879 30.5399 26.3866 30.4941 26.4641C30.4615 26.5134 30.4096 26.5425 30.3541 26.5425C30.325 26.5425 30.2951 26.5328 30.2695 26.5161ZM21.8475 25.6722C21.8149 25.5876 21.8571 25.4925 21.9417 25.4608C22.0263 25.4282 22.1214 25.4705 22.154 25.555C22.1866 25.6361 22.1443 25.7312 22.0598 25.7638C22.0404 25.7735 22.021 25.777 22.0007 25.777C21.9355 25.777 21.8739 25.7383 21.8475 25.6731V25.6722ZM30.6835 25.7568C30.599 25.7242 30.5567 25.6299 30.5893 25.5453C30.6219 25.4608 30.7161 25.4185 30.8016 25.4511C30.8826 25.4837 30.9258 25.5779 30.8923 25.6625C30.8659 25.7277 30.8042 25.7664 30.739 25.7664C30.7196 25.7664 30.7003 25.7629 30.6835 25.7568ZM21.6026 24.8125C21.5858 24.7244 21.6449 24.6398 21.7329 24.6231C21.821 24.6037 21.9056 24.6618 21.9223 24.7499C21.9382 24.8406 21.8801 24.9261 21.792 24.9419C21.7823 24.9419 21.7726 24.9455 21.7629 24.9455C21.688 24.9455 21.6158 24.89 21.6035 24.8116L21.6026 24.8125ZM30.9469 24.9323C30.8588 24.9155 30.8007 24.831 30.8165 24.7429C30.8324 24.6513 30.9178 24.5958 31.0059 24.6125C31.094 24.6284 31.1521 24.7138 31.1363 24.8019C31.1231 24.8803 31.0517 24.9358 30.9768 24.9358C30.9672 24.9358 30.9575 24.9358 30.9478 24.9323H30.9469ZM21.518 23.9228C21.518 23.832 21.5929 23.7598 21.681 23.7598C21.7717 23.7563 21.8439 23.8312 21.8439 23.9228C21.8439 24.0109 21.7726 24.0857 21.681 24.0857C21.5929 24.0857 21.518 24.0109 21.518 23.9228ZM30.8923 23.9131V23.9034V23.8937C30.8923 23.8021 30.9636 23.7307 31.0552 23.7307C31.146 23.7272 31.2182 23.8021 31.2182 23.8937V23.9034V23.9131C31.2182 24.0012 31.1469 24.076 31.0552 24.076C30.9672 24.076 30.8923 24.0012 30.8923 23.9131ZM21.7303 23.2225C21.6422 23.2057 21.5841 23.1185 21.5999 23.0304C21.6158 22.9424 21.7012 22.8842 21.7893 22.9001C21.8774 22.9168 21.9355 23.0014 21.9197 23.0895C21.9065 23.1679 21.8387 23.2234 21.7603 23.2234H21.7312L21.7303 23.2225ZM30.8139 23.0622C30.7945 22.9741 30.8526 22.8895 30.9407 22.8728C31.0323 22.8534 31.1169 22.9115 31.1328 22.9996C31.1486 23.0877 31.0905 23.1723 31.0024 23.1916H30.9733C30.8949 23.1916 30.8262 23.1397 30.8139 23.0613V23.0622ZM21.9355 22.3812C21.851 22.3486 21.8087 22.2544 21.8413 22.1698C21.8739 22.0853 21.9681 22.043 22.0527 22.0756C22.1337 22.1082 22.1769 22.2024 22.147 22.287C22.1205 22.3522 22.0589 22.3909 21.9937 22.3909C21.9743 22.3909 21.9549 22.3874 21.9347 22.3812H21.9355ZM30.5822 22.2606C30.5496 22.176 30.5884 22.0817 30.6738 22.0491C30.7584 22.0166 30.8526 22.0588 30.8852 22.1399C30.9178 22.2244 30.8755 22.3196 30.7945 22.3522C30.7751 22.3619 30.7557 22.3654 30.7328 22.3654C30.6677 22.3654 30.606 22.3266 30.5831 22.2614L30.5822 22.2606ZM22.2932 21.5929C22.2148 21.5444 22.1919 21.4458 22.2377 21.3682C22.2861 21.2934 22.3848 21.2669 22.4623 21.3163C22.5372 21.3621 22.5636 21.4634 22.5143 21.5382C22.4852 21.5902 22.4297 21.6166 22.3777 21.6166C22.3487 21.6166 22.3187 21.6105 22.2932 21.5937V21.5929ZM30.2078 21.5145C30.1594 21.4396 30.1814 21.3383 30.2598 21.2898C30.3347 21.244 30.436 21.2669 30.4818 21.3418H30.4853C30.5311 21.4202 30.5082 21.5206 30.4333 21.5664C30.4043 21.5823 30.3752 21.5929 30.3453 21.5929C30.2898 21.5929 30.2378 21.5638 30.2087 21.5145H30.2078ZM22.7891 20.8829C22.7204 20.8239 22.7178 20.7199 22.7759 20.6547C22.8376 20.586 22.9389 20.5834 23.0076 20.6415C23.0728 20.7032 23.0789 20.8045 23.0173 20.8732C22.9847 20.9093 22.9424 20.9252 22.8966 20.9252C22.8578 20.9252 22.8182 20.9119 22.7891 20.8829ZM29.7031 20.8538C29.6414 20.7851 29.6441 20.6847 29.7093 20.6221C29.778 20.5605 29.8784 20.5631 29.9409 20.6318C30.0026 20.697 29.9964 20.8009 29.9313 20.8635C29.9022 20.8899 29.8599 20.9058 29.8203 20.9058C29.778 20.9058 29.7322 20.8864 29.7031 20.8538ZM23.4048 20.2768C23.3494 20.2055 23.3626 20.1042 23.4339 20.0487C23.5053 19.9932 23.6101 20.0099 23.6656 20.0813C23.7176 20.1526 23.7043 20.2539 23.633 20.3094C23.6039 20.3323 23.5678 20.342 23.5352 20.342C23.4868 20.342 23.4374 20.3191 23.4048 20.2768ZM29.0803 20.2927C29.009 20.2372 28.9958 20.1332 29.0513 20.0645C29.1032 19.9897 29.2081 19.9765 29.2794 20.0319C29.3508 20.0839 29.364 20.1887 29.312 20.2601C29.2794 20.3024 29.231 20.3253 29.1816 20.3253C29.1455 20.3253 29.1103 20.3121 29.0803 20.2927ZM24.1219 19.7941C24.0831 19.7131 24.1157 19.6144 24.1932 19.5757C24.2743 19.5334 24.3729 19.566 24.4152 19.647C24.454 19.728 24.4214 19.8267 24.3403 19.8655C24.3174 19.8787 24.2919 19.8822 24.269 19.8822C24.2108 19.8822 24.1518 19.8496 24.1228 19.7941H24.1219ZM28.3703 19.8531C28.2919 19.8144 28.2593 19.7166 28.299 19.6347C28.3377 19.5563 28.4355 19.521 28.5174 19.5633C28.5958 19.6021 28.6311 19.6999 28.5888 19.7818C28.5624 19.8373 28.5042 19.8725 28.4452 19.8725C28.4188 19.8725 28.3959 19.8663 28.3703 19.8531ZM24.9164 19.4523C24.89 19.3642 24.9429 19.2735 25.0274 19.2506C25.1155 19.2242 25.2036 19.2735 25.2291 19.3616C25.2556 19.4462 25.2027 19.5378 25.1181 19.5633C25.1023 19.5668 25.0891 19.5695 25.0723 19.5695C25.001 19.5695 24.9358 19.5237 24.9155 19.4523H24.9164ZM27.5916 19.5563C27.5071 19.5298 27.4551 19.4391 27.4807 19.3546C27.5036 19.2665 27.5943 19.218 27.6797 19.2409C27.7678 19.2673 27.8198 19.3546 27.7942 19.4426C27.7749 19.514 27.7097 19.5598 27.6375 19.5598C27.6216 19.5598 27.6084 19.5598 27.5916 19.5563ZM25.7603 19.2603C25.7506 19.1722 25.8158 19.0938 25.9074 19.0841C25.9955 19.0744 26.0765 19.1431 26.0836 19.2312C26.0933 19.3193 26.0281 19.4004 25.9365 19.4074C25.9365 19.4074 25.9268 19.4109 25.9206 19.4109C25.8396 19.4109 25.7674 19.3457 25.7612 19.2612L25.7603 19.2603ZM26.7733 19.4065C26.6826 19.3968 26.6165 19.3184 26.6236 19.2268C26.6297 19.1387 26.7117 19.0736 26.7997 19.0806C26.8913 19.0903 26.9565 19.1687 26.9495 19.2568C26.9398 19.3413 26.8711 19.4065 26.7865 19.4065H26.7733Z" fill="#0D808A"/>
<path d="M6.85489 11.8744C6.8038 11.8744 6.76152 11.833 6.76152 11.781C6.76152 11.729 6.80292 11.6876 6.85489 11.6876C6.90687 11.6876 6.94827 11.729 6.94827 11.781C6.94827 11.833 6.90687 11.8744 6.85489 11.8744Z" fill="#0D808A"/>
<path d="M6.34225 13.1498C6.248 13.1498 6.17136 13.0732 6.17136 12.9789C6.17136 12.8847 6.248 12.808 6.34225 12.808C6.43651 12.808 6.51314 12.8847 6.51314 12.9789C6.51314 13.0732 6.43651 13.1498 6.34225 13.1498Z" fill="#0D808A"/>
<path d="M5.95376 14.4533C5.82603 14.4533 5.72209 14.3494 5.72209 14.2217C5.72209 14.0939 5.82603 13.99 5.95376 13.99C6.08149 13.99 6.18543 14.0939 6.18543 14.2217C6.18543 14.3494 6.08149 14.4533 5.95376 14.4533Z" fill="#0D808A"/>
<path d="M5.69215 15.7722C5.54152 15.7722 5.41908 15.6498 5.41908 15.4991C5.41908 15.3485 5.54152 15.2261 5.69215 15.2261C5.84278 15.2261 5.96522 15.3485 5.96522 15.4991C5.96522 15.6498 5.84278 15.7722 5.69215 15.7722Z" fill="#0D808A"/>
<path d="M5.55833 17.0963C5.72471 17.0963 5.85959 16.9614 5.85959 16.795C5.85959 16.6287 5.72471 16.4938 5.55833 16.4938C5.39195 16.4938 5.25707 16.6287 5.25707 16.795C5.25707 16.9614 5.39195 17.0963 5.55833 17.0963Z" fill="#0D808A"/>
<path d="M5.5539 18.4163C5.3786 18.4163 5.2359 18.2736 5.2359 18.0983C5.2359 17.923 5.3786 17.7803 5.5539 17.7803C5.72919 17.7803 5.87189 17.923 5.87189 18.0983C5.87189 18.2736 5.72919 18.4163 5.5539 18.4163Z" fill="#0D808A"/>
<path d="M5.68245 19.7203C5.50275 19.7203 5.35741 19.5749 5.35741 19.3952C5.35741 19.2155 5.50275 19.0702 5.68245 19.0702C5.86215 19.0702 6.00749 19.2155 6.00749 19.3952C6.00749 19.5749 5.86215 19.7203 5.68245 19.7203Z" fill="#0D808A"/>
<path d="M5.94327 20.9914C5.76709 20.9914 5.62439 20.8487 5.62439 20.6725C5.62439 20.4963 5.76709 20.3536 5.94327 20.3536C6.11944 20.3536 6.26214 20.4963 6.26214 20.6725C6.26214 20.8487 6.11944 20.9914 5.94327 20.9914Z" fill="#0D808A"/>
<path d="M6.33263 22.219C6.16438 22.219 6.02785 22.0825 6.02785 21.9142C6.02785 21.746 6.16438 21.6094 6.33263 21.6094C6.50088 21.6094 6.63741 21.746 6.63741 21.9142C6.63741 22.0825 6.50088 22.219 6.33263 22.219Z" fill="#0D808A"/>
<path d="M6.84527 23.3914C6.99901 23.3914 7.12363 23.2668 7.12363 23.1131C7.12363 22.9593 6.99901 22.8347 6.84527 22.8347C6.69154 22.8347 6.56692 22.9593 6.56692 23.1131C6.56692 23.2668 6.69154 23.3914 6.84527 23.3914Z" fill="#0D808A"/>
<path d="M7.47424 24.4948C7.34211 24.4948 7.23464 24.3873 7.23464 24.2552C7.23464 24.123 7.34211 24.0156 7.47424 24.0156C7.60637 24.0156 7.71384 24.123 7.71384 24.2552C7.71384 24.3873 7.60637 24.4948 7.47424 24.4948Z" fill="#0D808A"/>
<path d="M8.21323 25.5101C8.11281 25.5101 8.03088 25.4291 8.03088 25.3278C8.03088 25.2265 8.11192 25.1454 8.21323 25.1454C8.31453 25.1454 8.39557 25.2265 8.39557 25.3278C8.39557 25.4291 8.31453 25.5101 8.21323 25.5101Z" fill="#0D808A"/>
<path d="M8.9725 26.338C8.91348 26.338 8.86504 26.2895 8.86504 26.2305C8.86504 26.1715 8.91348 26.123 8.9725 26.123C9.03152 26.123 9.07997 26.1715 9.07997 26.2305C9.07997 26.2895 9.03152 26.338 8.9725 26.338Z" fill="#0D808A"/>
<path d="M11.6222 16.639C11.2144 16.3404 10.7871 16.0532 10.2031 15.9255C9.65346 15.8013 9.02539 15.8542 8.4678 16.0885C7.92342 16.3193 7.43718 16.7271 7.06897 17.2318C7.76927 16.854 8.55677 16.6549 9.33106 16.5782C10.1071 16.5016 10.8849 16.5412 11.6222 16.6399V16.639Z" fill="#0D808A"/>
<path d="M12.3499 19.1285C12.1235 19.028 11.8795 18.9382 11.6214 18.873C11.3694 18.8061 11.0981 18.7655 10.8039 18.7726C10.234 18.7867 9.6394 18.9919 9.16021 19.3522C8.67925 19.7116 8.3084 20.2216 8.07497 20.7977C9.26855 19.7222 10.8867 19.2844 12.349 19.1276L12.3499 19.1285Z" fill="#0D808A"/>
<path d="M13.6535 21.3637C13.1664 21.2844 12.6309 21.2465 12.0697 21.3971C11.5236 21.546 10.9951 21.8887 10.6136 22.3555C10.2261 22.8242 10.0102 23.3967 9.90983 24.0257C10.8154 22.6823 12.2723 21.8772 13.6527 21.3637H13.6535Z" fill="#0D808A"/>
<path d="M13.5311 26.6577C12.9876 26.6577 12.5084 26.9299 12.2186 27.3448C12.1323 27.3298 12.0442 27.321 11.9543 27.3184C12.2758 26.7819 12.8616 26.4199 13.5311 26.4199C14.2005 26.4199 14.7863 26.781 15.1078 27.3184C15.018 27.321 14.9299 27.3298 14.8436 27.3448C14.5538 26.9299 14.0737 26.6577 13.5311 26.6577Z" fill="#0D808A"/>
<path d="M13.5312 27.1299C13.2008 27.1299 12.9049 27.2726 12.6978 27.499C12.623 27.4629 12.5455 27.4303 12.4653 27.4048C12.7163 27.0929 13.1004 26.8921 13.5312 26.8921C13.9619 26.8921 14.346 27.0929 14.597 27.4048C14.5169 27.4303 14.4393 27.4629 14.3645 27.499C14.1575 27.2726 13.8615 27.1299 13.5312 27.1299Z" fill="#0D808A"/>
<path d="M13.5311 27.6015C13.3664 27.6015 13.2166 27.6622 13.1012 27.7627C13.0405 27.7098 12.9762 27.6614 12.9083 27.6173C13.0695 27.4614 13.2889 27.3645 13.5311 27.3645C13.7734 27.3645 13.9927 27.4614 14.1539 27.6173C14.0861 27.6614 14.0218 27.7098 13.961 27.7627C13.8456 27.6631 13.6958 27.6015 13.5311 27.6015Z" fill="#0D808A"/>
<path d="M13.5311 28.0723C13.4879 28.0723 13.4492 28.0873 13.4175 28.112C13.3725 28.0468 13.3223 27.986 13.2695 27.927C13.3417 27.8697 13.4316 27.8345 13.5311 27.8345C13.6306 27.8345 13.7205 27.8697 13.7927 27.927C13.7399 27.986 13.6897 28.0468 13.6447 28.112C13.613 28.0873 13.5743 28.0723 13.5311 28.0723Z" fill="#0D808A"/>
<path d="M16.9278 26.6577C16.3843 26.6577 15.9051 26.9299 15.6153 27.3448C15.529 27.3298 15.4409 27.321 15.351 27.3184C15.6725 26.7819 16.2583 26.4199 16.9278 26.4199C17.5973 26.4199 18.183 26.781 18.5046 27.3184C18.4147 27.321 18.3266 27.3298 18.2403 27.3448C17.9505 26.9299 17.4704 26.6577 16.9278 26.6577Z" fill="#0D808A"/>
<path d="M16.9278 27.1299C16.5974 27.1299 16.3015 27.2726 16.0945 27.499C16.0196 27.4629 15.9421 27.4303 15.8619 27.4048C16.113 27.0929 16.497 26.8921 16.9278 26.8921C17.3585 26.8921 17.7426 27.0929 17.9936 27.4048C17.9135 27.4303 17.8359 27.4629 17.7611 27.499C17.5541 27.2726 17.2581 27.1299 16.9278 27.1299Z" fill="#0D808A"/>
<path d="M16.9278 27.6015C16.7631 27.6015 16.6133 27.6622 16.4979 27.7627C16.4371 27.7098 16.3728 27.6614 16.305 27.6173C16.4662 27.4614 16.6855 27.3645 16.9278 27.3645C17.17 27.3645 17.3894 27.4614 17.5506 27.6173C17.4827 27.6614 17.4184 27.7098 17.3576 27.7627C17.2422 27.6631 17.0925 27.6015 16.9278 27.6015Z" fill="#0D808A"/>
<path d="M16.9277 28.0723C16.8846 28.0723 16.8458 28.0873 16.8141 28.112C16.7692 28.0468 16.719 27.986 16.6661 27.927C16.7383 27.8697 16.8282 27.8345 16.9277 27.8345C17.0273 27.8345 17.1171 27.8697 17.1893 27.927C17.1365 27.986 17.0863 28.0468 17.0414 28.112C17.0096 28.0873 16.9709 28.0723 16.9277 28.0723Z" fill="#0D808A"/>
<path d="M11.8337 27.8003C11.2902 27.8003 10.811 28.0725 10.5212 28.4874C10.4348 28.4724 10.3468 28.4636 10.2569 28.4609C10.5784 27.9245 11.1642 27.5624 11.8337 27.5624C12.5031 27.5624 13.0889 27.9236 13.4104 28.4609C13.3206 28.4636 13.2325 28.4724 13.1462 28.4874C12.8564 28.0725 12.3763 27.8003 11.8337 27.8003Z" fill="#0D808A"/>
<path d="M11.8336 28.2715C11.5033 28.2715 11.2073 28.4142 11.0003 28.6406C10.9254 28.6045 10.8479 28.5719 10.7678 28.5464C11.0188 28.2345 11.4029 28.0337 11.8336 28.0337C12.2644 28.0337 12.6484 28.2345 12.8995 28.5464C12.8193 28.5719 12.7418 28.6045 12.6669 28.6406C12.4599 28.4142 12.1639 28.2715 11.8336 28.2715Z" fill="#0D808A"/>
<path d="M11.8336 28.7431C11.6689 28.7431 11.5192 28.8038 11.4038 28.9043C11.343 28.8514 11.2787 28.803 11.2109 28.7589C11.3721 28.603 11.5914 28.5061 11.8336 28.5061C12.0759 28.5061 12.2952 28.603 12.4564 28.7589C12.3886 28.803 12.3243 28.8514 12.2635 28.9043C12.1481 28.8047 11.9984 28.7431 11.8336 28.7431Z" fill="#0D808A"/>
<path d="M11.8336 29.214C11.7904 29.214 11.7517 29.2289 11.72 29.2536C11.6751 29.1884 11.6248 29.1276 11.572 29.0686C11.6442 29.0114 11.7341 28.9761 11.8336 28.9761C11.9331 28.9761 12.023 29.0114 12.0952 29.0686C12.0424 29.1276 11.9922 29.1884 11.9472 29.2536C11.9155 29.2289 11.8768 29.214 11.8336 29.214Z" fill="#0D808A"/>
<path d="M15.2294 27.8003C14.6859 27.8003 14.2067 28.0725 13.9169 28.4874C13.8305 28.4724 13.7425 28.4636 13.6526 28.4609C13.9741 27.9245 14.5599 27.5624 15.2294 27.5624C15.8988 27.5624 16.4846 27.9236 16.8061 28.4609C16.7163 28.4636 16.6282 28.4724 16.5419 28.4874C16.2521 28.0725 15.772 27.8003 15.2294 27.8003Z" fill="#0D808A"/>
<path d="M15.2294 28.2715C14.899 28.2715 14.6031 28.4142 14.396 28.6406C14.3212 28.6045 14.2437 28.5719 14.1635 28.5464C14.4145 28.2345 14.7986 28.0337 15.2294 28.0337C15.6601 28.0337 16.0442 28.2345 16.2952 28.5464C16.2151 28.5719 16.1375 28.6045 16.0627 28.6406C15.8557 28.4142 15.5597 28.2715 15.2294 28.2715Z" fill="#0D808A"/>
<path d="M15.2294 28.7431C15.0647 28.7431 14.9149 28.8038 14.7995 28.9043C14.7388 28.8514 14.6744 28.803 14.6066 28.7589C14.7678 28.603 14.9872 28.5061 15.2294 28.5061C15.4716 28.5061 15.691 28.603 15.8522 28.7589C15.7843 28.803 15.72 28.8514 15.6593 28.9043C15.5439 28.8047 15.3941 28.7431 15.2294 28.7431Z" fill="#0D808A"/>
<path d="M15.2295 29.214C15.1863 29.214 15.1475 29.2289 15.1158 29.2536C15.0709 29.1884 15.0207 29.1276 14.9678 29.0686C15.0401 29.0114 15.1299 28.9761 15.2295 28.9761C15.329 28.9761 15.4189 29.0114 15.4911 29.0686C15.4382 29.1276 15.388 29.1884 15.3431 29.2536C15.3114 29.2289 15.2726 29.214 15.2295 29.214Z" fill="#0D808A"/>
<path d="M15.8628 23.144C15.3827 23.144 14.9581 23.3845 14.7018 23.7518C14.6252 23.7386 14.5476 23.7306 14.4684 23.7289C14.7529 23.2541 15.2708 22.9343 15.8628 22.9343C16.4547 22.9343 16.9736 23.2541 17.2572 23.7289C17.1779 23.7306 17.0995 23.7386 17.0238 23.7518C16.7675 23.3853 16.3429 23.144 15.8628 23.144Z" fill="#0D808A"/>
<path d="M15.8628 23.5607C15.5713 23.5607 15.3088 23.6875 15.1264 23.8875C15.0604 23.8558 14.9917 23.8267 14.9212 23.8038C15.1432 23.5281 15.4823 23.3502 15.8637 23.3502C16.2451 23.3502 16.5843 23.5272 16.8063 23.8038C16.7349 23.8267 16.6671 23.8549 16.601 23.8875C16.4187 23.6875 16.1562 23.5607 15.8646 23.5607H15.8628Z" fill="#0D808A"/>
<path d="M15.8628 23.9775C15.7175 23.9775 15.5845 24.0312 15.4823 24.1202C15.4286 24.0735 15.3713 24.0303 15.3123 23.9916C15.455 23.8533 15.6488 23.7678 15.8628 23.7678C16.0769 23.7678 16.2707 23.8533 16.4134 23.9916C16.3535 24.0303 16.2971 24.0735 16.2434 24.1202C16.1412 24.0321 16.0082 23.9775 15.8628 23.9775Z" fill="#0D808A"/>
<path d="M15.8627 24.3939C15.8248 24.3939 15.7896 24.4071 15.7623 24.4292C15.7227 24.3719 15.6786 24.3173 15.6319 24.2662C15.6962 24.216 15.7755 24.1843 15.8627 24.1843C15.9499 24.1843 16.0301 24.216 16.0935 24.2662C16.0468 24.3182 16.0028 24.3719 15.9631 24.4292C15.935 24.4071 15.9006 24.3939 15.8627 24.3939Z" fill="#0D808A"/>
<mask id="mask0_2_1343" style="mask-type:luminance" maskUnits="userSpaceOnUse" x="2" y="4" width="32" height="27">
<path d="M32.5492 27.7668C32.1678 28.4618 31.693 29.1031 31.1565 29.6633C31.0464 29.7796 30.9302 29.8897 30.8174 29.9998L14.3891 30.257C8.29255 30.3522 3.08835 25.7654 2.53516 19.6936C2.53163 19.6513 2.52723 19.609 2.52371 19.5667C1.98461 13.0544 5.20949 7.22304 10.2807 4.04132C9.6077 4.46326 10.0103 8.12682 10.1089 8.94163C10.4278 11.5957 11.9191 15.1888 14.4331 16.4854C17.5453 18.0913 25.5225 12.584 30.9451 17.5821C34.2933 20.6669 34.2396 24.7366 32.5492 27.7668Z" fill="white"/>
</mask>
<g mask="url(#mask0_2_1343)">
<path d="M18.5079 15.7674C18.374 15.8996 18.2965 16.0661 18.2727 16.2387C18.042 16.0995 17.7469 16.0775 17.4879 16.207C17.0853 16.4078 16.9224 16.8976 17.1241 17.2993C17.2078 17.4675 17.3425 17.5935 17.5002 17.6684C17.2967 17.8445 17.184 18.1185 17.2271 18.4048C17.2941 18.8496 17.709 19.1562 18.1538 19.0883C18.3397 19.061 18.5009 18.9712 18.6207 18.8452C18.7255 19.0936 18.951 19.2848 19.2364 19.3323C19.6804 19.4055 20.0997 19.106 20.1728 18.6629C20.2036 18.477 20.1684 18.2964 20.0856 18.1432C20.3543 18.1203 20.6053 17.9643 20.7392 17.708C20.9462 17.309 20.7903 16.8174 20.3912 16.6104C20.2248 16.5232 20.0415 16.5012 19.8698 16.532C19.9306 16.2695 19.861 15.9824 19.6575 15.7762C19.3421 15.4556 18.8259 15.4521 18.5062 15.7674H18.5079ZM19.2417 16.5611C19.3183 16.6386 19.3527 16.7496 19.3351 16.8571C19.3342 16.8641 19.3324 16.8712 19.3307 16.8782L19.291 17.05L19.4646 17.0183C19.5403 17.0042 19.6161 17.0156 19.683 17.0509C19.8152 17.1196 19.8874 17.264 19.8627 17.4103C19.8574 17.4455 19.8451 17.4799 19.8293 17.5116C19.7755 17.6155 19.6725 17.6842 19.5544 17.6939L19.3791 17.7098L19.4628 17.8648C19.4989 17.9317 19.5113 18.0075 19.4989 18.0833C19.4839 18.1731 19.4346 18.2524 19.3606 18.3052C19.2858 18.3581 19.195 18.3792 19.1052 18.3643C18.9889 18.3449 18.892 18.2682 18.8462 18.1599L18.7775 17.9978L18.6559 18.1255C18.6031 18.181 18.5352 18.2163 18.4595 18.2277C18.2727 18.2559 18.0983 18.1273 18.0701 17.9406C18.0649 17.9053 18.0649 17.8692 18.0701 17.834C18.0834 17.7556 18.1239 17.6833 18.1838 17.6314L18.3168 17.516L18.1582 17.4393C18.0886 17.4059 18.034 17.3521 18.0006 17.2843C17.968 17.2191 17.9565 17.1469 17.9688 17.0755C17.9865 16.9681 18.0552 16.8747 18.1529 16.8254C18.2578 16.7725 18.3811 16.7778 18.4833 16.8386L18.6339 16.9293L18.6577 16.754L18.6594 16.7435C18.6718 16.6712 18.7053 16.6069 18.7563 16.5558C18.8215 16.4915 18.9079 16.4572 18.9986 16.4572C19.0902 16.4572 19.1756 16.4942 19.2399 16.5593L19.2417 16.5611Z" fill="#0D808A"/>
<path d="M18.9343 17.1376C19.07 17.1605 19.1625 17.2891 19.1396 17.4248C19.1167 17.5605 18.988 17.653 18.8524 17.63C18.7167 17.608 18.6242 17.4785 18.6471 17.3429C18.67 17.2072 18.7987 17.1147 18.9352 17.1376H18.9343Z" fill="#0D808A"/>
<path d="M16.2618 17.231C15.7782 17.2459 15.4003 17.7005 15.4003 17.7005C15.4003 17.7005 15.8064 18.1303 16.29 18.1154C16.7736 18.0995 17.1514 17.645 17.1514 17.645C17.1514 17.645 16.7454 17.2151 16.2618 17.231ZM17.0255 17.6485C17.0255 17.6485 16.807 17.9119 16.5269 17.9207C16.2468 17.9295 16.0116 17.6802 16.0116 17.6802C16.0116 17.6802 16.2309 17.4168 16.5111 17.408C16.7912 17.3992 17.0264 17.6476 17.0264 17.6476L17.0255 17.6485Z" fill="#0D808A"/>
<path d="M16.4855 18.4569C16.6353 18.138 17.0475 18.0164 17.0475 18.0164C17.0475 18.0164 17.2175 18.411 17.0678 18.7308C16.918 19.0497 16.5058 19.1712 16.5058 19.1712C16.5058 19.1712 16.3358 18.7757 16.4855 18.4577V18.4569Z" fill="#0D808A"/>
<path d="M15.7817 19.5853C15.8328 18.8392 16.2952 18.4191 16.3358 18.3768C16.2882 18.4111 15.7279 18.7141 15.5271 19.551C15.4232 19.9712 15.5271 20.6027 16.0098 20.9621C16.4925 21.3506 17.2933 21.266 17.6738 20.741C18.0843 20.2548 17.7804 19.4021 17.2228 19.4241C16.9911 19.4329 16.829 19.5527 16.7797 19.7324C16.7339 19.9007 16.8334 20.0742 17.0026 20.12C17.1444 20.1579 17.2889 20.0927 17.3584 19.9712C17.3937 20.0901 17.384 20.2583 17.2598 20.4363C17.0686 20.7164 16.5815 20.8203 16.2635 20.6107C15.9059 20.4001 15.7561 19.9703 15.7826 19.5871L15.7817 19.5853Z" fill="#0D808A"/>
<path d="M25.4431 16.0715C25.0643 16.0715 24.7296 16.2618 24.5279 16.5507C24.468 16.5401 24.4063 16.5339 24.3438 16.5322C24.5675 16.1578 24.9762 15.9059 25.444 15.9059C25.9117 15.9059 26.3196 16.1578 26.5442 16.5322C26.4817 16.5339 26.42 16.5401 26.3601 16.5507C26.1584 16.2618 25.8237 16.0715 25.4449 16.0715H25.4431Z" fill="#0D808A"/>
<path d="M25.4431 16.4004C25.2132 16.4004 25.0061 16.4999 24.8626 16.6576C24.8106 16.632 24.7569 16.61 24.7005 16.5915C24.8758 16.3739 25.1436 16.2339 25.4439 16.2339C25.7443 16.2339 26.0121 16.3739 26.1874 16.5915C26.131 16.6091 26.0773 16.632 26.0253 16.6576C25.8809 16.4999 25.6747 16.4004 25.4448 16.4004H25.4431Z" fill="#0D808A"/>
<path d="M25.443 16.7285C25.3285 16.7285 25.2237 16.7708 25.1435 16.8404C25.1013 16.8034 25.0563 16.7699 25.0088 16.7391C25.1215 16.6299 25.2739 16.5629 25.443 16.5629C25.6122 16.5629 25.7646 16.6308 25.8773 16.7391C25.8306 16.7699 25.7857 16.8043 25.7425 16.8404C25.6624 16.7708 25.5576 16.7285 25.443 16.7285Z" fill="#0D808A"/>
<path d="M25.443 17.0574C25.4131 17.0574 25.3858 17.068 25.3637 17.0856C25.332 17.0407 25.2977 16.9975 25.2607 16.957C25.3109 16.9174 25.3743 16.8927 25.443 16.8927C25.5117 16.8927 25.5751 16.9174 25.6254 16.957C25.5884 16.9975 25.554 17.0407 25.5223 17.0856C25.5003 17.0689 25.473 17.0574 25.443 17.0574Z" fill="#0D808A"/>
<path d="M24.2592 16.8678C23.8804 16.8678 23.5457 17.0581 23.3439 17.347C23.284 17.3364 23.2224 17.3303 23.1598 17.3285C23.3836 16.9541 23.7923 16.7022 24.26 16.7022C24.7278 16.7022 25.1356 16.9541 25.3603 17.3285C25.2977 17.3303 25.236 17.3364 25.1761 17.347C24.9744 17.0581 24.6397 16.8678 24.2609 16.8678H24.2592Z" fill="#0D808A"/>
<path d="M24.2592 17.1963C24.0293 17.1963 23.8223 17.2958 23.6787 17.4535C23.6267 17.4279 23.573 17.4059 23.5166 17.3874C23.6919 17.1698 23.9597 17.0298 24.2601 17.0298C24.5604 17.0298 24.8282 17.1698 25.0035 17.3874C24.9471 17.405 24.8934 17.4279 24.8414 17.4535C24.697 17.2958 24.4909 17.1963 24.2609 17.1963H24.2592Z" fill="#0D808A"/>
<path d="M24.2592 17.5252C24.1447 17.5252 24.0399 17.5675 23.9597 17.6371C23.9174 17.6001 23.8725 17.5666 23.825 17.5358C23.9377 17.4266 24.0901 17.3596 24.2592 17.3596C24.4283 17.3596 24.5807 17.4274 24.6935 17.5358C24.6468 17.5666 24.6019 17.601 24.5587 17.6371C24.4786 17.5675 24.3737 17.5252 24.2592 17.5252Z" fill="#0D808A"/>
<path d="M24.2592 17.8534C24.2293 17.8534 24.202 17.864 24.18 17.8816C24.1483 17.8366 24.1139 17.7935 24.0769 17.753C24.1271 17.7133 24.1905 17.6887 24.2592 17.6887C24.328 17.6887 24.3914 17.7133 24.4416 17.753C24.4046 17.7935 24.3702 17.8366 24.3385 17.8816C24.3165 17.8648 24.2892 17.8534 24.2592 17.8534Z" fill="#0D808A"/>
<path d="M26.627 16.8678C26.2482 16.8678 25.9135 17.0581 25.7118 17.347C25.6519 17.3364 25.5902 17.3303 25.5276 17.3285C25.7514 16.9541 26.1601 16.7022 26.6279 16.7022C27.0956 16.7022 27.5035 16.9541 27.7272 17.3285C27.6647 17.3303 27.603 17.3364 27.5431 17.347C27.3414 17.0581 27.0066 16.8678 26.6279 16.8678H26.627Z" fill="#0D808A"/>
<path d="M26.627 17.1963C26.3971 17.1963 26.1901 17.2958 26.0456 17.4535C25.9936 17.4279 25.939 17.4059 25.8835 17.3874C26.0588 17.1698 26.3266 17.0298 26.627 17.0298C26.9274 17.0298 27.1951 17.1698 27.3695 17.3874C27.3132 17.405 27.2594 17.4279 27.2075 17.4535C27.063 17.2958 26.8569 17.1963 26.627 17.1963Z" fill="#0D808A"/>
<path d="M26.627 17.5252C26.5125 17.5252 26.4077 17.5675 26.3275 17.6371C26.2853 17.6001 26.2403 17.5666 26.1928 17.5358C26.3055 17.4266 26.4579 17.3596 26.627 17.3596C26.7962 17.3596 26.9486 17.4274 27.0613 17.5358C27.0146 17.5666 26.9697 17.601 26.9265 17.6371C26.8464 17.5675 26.7415 17.5252 26.627 17.5252Z" fill="#0D808A"/>
<path d="M26.627 17.8534C26.5971 17.8534 26.5698 17.864 26.5477 17.8816C26.516 17.8366 26.4817 17.7935 26.4447 17.753C26.4949 17.7133 26.5583 17.6887 26.627 17.6887C26.6957 17.6887 26.7591 17.7133 26.8094 17.753C26.7724 17.7935 26.738 17.8366 26.7063 17.8816C26.6843 17.8648 26.657 17.8534 26.627 17.8534Z" fill="#0D808A"/>
</g>
<path d="M32.2294 15.889C32.9958 15.6089 33.8591 15.5684 34.68 15.734C35.5045 15.8961 36.2929 16.274 36.9465 16.8245C37.5949 17.3821 38.0961 18.1018 38.3903 18.8946C38.688 19.6839 38.7876 20.5498 38.6343 21.3637C38.6255 21.4086 38.5832 21.4377 38.5383 21.4289C38.5004 21.4218 38.474 21.3892 38.4713 21.3522C38.429 20.555 38.2414 19.7896 37.9199 19.0901C37.5949 18.3943 37.1421 17.76 36.5686 17.2614C36.0014 16.7558 35.3125 16.3841 34.5743 16.148C33.8335 15.9155 33.0399 15.8247 32.2294 15.8882V15.889Z" fill="#0D808A"/>
<path d="M33.9666 16.8711C34.7171 16.8253 35.4808 17.1345 36.0754 17.6234C36.6814 18.1132 37.1095 18.7993 37.3711 19.5199C37.6363 20.244 37.7376 21.0121 37.7323 21.7626C37.7279 22.5149 37.624 23.2513 37.4601 23.9718C37.4504 24.0159 37.4064 24.0441 37.3615 24.0335C37.3245 24.0247 37.2989 23.993 37.298 23.9569C37.2672 23.2196 37.2725 22.492 37.2205 21.7793C37.1694 21.0676 37.0576 20.3691 36.8347 19.7093C36.6127 19.0504 36.2718 18.4364 35.7873 17.9405C35.302 17.4463 34.6827 17.0667 33.9639 16.9152C33.9516 16.9125 33.9437 16.9011 33.9463 16.8887C33.9481 16.879 33.9569 16.872 33.9666 16.8711Z" fill="#0D808A"/>
<path d="M34.754 18.4606C35.2878 18.7046 35.6904 19.1961 35.9097 19.7423C36.1282 20.2893 36.1846 20.9174 35.9881 21.4661C35.9802 21.4882 35.9564 21.4987 35.9353 21.4917C35.9194 21.4864 35.9089 21.4714 35.908 21.4556C35.856 20.8953 35.7441 20.3809 35.538 19.8947C35.3336 19.4075 35.0535 18.968 34.7047 18.524C34.6906 18.5064 34.6932 18.48 34.7109 18.465C34.7232 18.4553 34.7408 18.4535 34.754 18.4597V18.4606Z" fill="#0D808A"/>
<path d="M16.3543 11.3917C16.4874 11.4604 16.586 11.4701 16.7868 11.4322C16.6538 11.3758 16.4926 11.3414 16.3543 11.3917Z" fill="#0D808A"/>
<path d="M16.3896 11.1749C16.5138 11.2613 16.6107 11.2815 16.8133 11.2701C16.6917 11.1996 16.5367 11.1415 16.3896 11.1749Z" fill="#0D808A"/>
<path d="M16.4582 10.9598C16.5639 11.0655 16.6564 11.0955 16.8626 11.1184C16.7516 11.0303 16.6089 10.9475 16.4582 10.9598Z" fill="#0D808A"/>
<path d="M16.564 10.7556C16.6494 10.8798 16.7375 10.9239 16.934 10.9829C16.838 10.8763 16.7138 10.7671 16.564 10.7556Z" fill="#0D808A"/>
<path d="M16.7067 10.5687C16.7675 10.7096 16.8467 10.7695 17.0238 10.8646C16.9524 10.7448 16.8529 10.6101 16.7067 10.5687Z" fill="#0D808A"/>
<path d="M16.8899 10.4154C16.9154 10.5634 16.9815 10.6374 17.1365 10.773C17.0907 10.6391 17.0246 10.4868 16.8899 10.4154Z" fill="#0D808A"/>
<path d="M17.1014 10.3034C17.0961 10.4567 17.1437 10.5439 17.2643 10.706C17.2485 10.565 17.2159 10.4012 17.1014 10.3034Z" fill="#0D808A"/>
<path d="M17.3286 10.2411C17.2934 10.3865 17.3189 10.4807 17.407 10.6684C17.422 10.5274 17.4202 10.3627 17.3286 10.2411Z" fill="#0D808A"/>
<path d="M17.5603 10.2237C17.5004 10.3611 17.5066 10.4598 17.5594 10.658C17.6008 10.5205 17.6272 10.3567 17.5603 10.2237Z" fill="#0D808A"/>
<path d="M17.7857 10.2448C17.7056 10.3734 17.6933 10.4711 17.7153 10.6729C17.7787 10.5451 17.828 10.3866 17.7857 10.2448Z" fill="#0D808A"/>
<path d="M18.0016 10.2972C17.9056 10.4135 17.8783 10.5078 17.8739 10.7121C17.9558 10.5959 18.0219 10.4461 18.0016 10.2972Z" fill="#0D808A"/>
<path d="M18.2041 10.3765C18.0984 10.4787 18.057 10.5677 18.0288 10.7738C18.1248 10.6681 18.2068 10.5254 18.2041 10.3765Z" fill="#0D808A"/>
<path d="M6.48233 38.7746L7.70675 37.7915C7.70675 37.7915 6.58715 37.9624 6.48233 38.7746Z" fill="#0D808A"/>
<path d="M9.99998 42.7616L11.5702 42.7741C11.5702 42.7741 10.5947 42.1987 9.99998 42.7616Z" fill="#0D808A"/>
</g>
</svg>
