<svg width="59" height="27" viewBox="0 0 59 27" fill="none" xmlns="http://www.w3.org/2000/svg">
<path d="M59 6.5L51.0449 0H0V27H51.0449L59 21V6.5Z" fill="url(#paint0_linear_12_7)"/>
<path d="M8.94824 8.89062V16H7.72266V8.89062H8.94824ZM13.2207 8.89062L10.3398 12.3135L8.69922 14.0518L8.48438 12.8359L9.65625 11.3906L11.7266 8.89062H13.2207ZM11.9023 16L9.56348 12.6309L10.4082 11.7959L13.3574 16H11.9023ZM16.5854 14.7549V10.7168H17.767V16H16.6537L16.5854 14.7549ZM16.7514 13.6562L17.1469 13.6465C17.1469 14.0013 17.1078 14.3285 17.0297 14.6279C16.9516 14.9242 16.8311 15.1829 16.6684 15.4043C16.5056 15.6224 16.2973 15.7933 16.0434 15.917C15.7895 16.0374 15.4851 16.0977 15.1303 16.0977C14.8731 16.0977 14.6371 16.0602 14.4223 15.9854C14.2074 15.9105 14.0219 15.7949 13.8656 15.6387C13.7126 15.4824 13.5938 15.279 13.5092 15.0283C13.4245 14.7777 13.3822 14.4782 13.3822 14.1299V10.7168H14.559V14.1396C14.559 14.3317 14.5818 14.4928 14.6273 14.623C14.6729 14.75 14.7348 14.8525 14.8129 14.9307C14.891 15.0088 14.9822 15.0641 15.0863 15.0967C15.1905 15.1292 15.3012 15.1455 15.4184 15.1455C15.7536 15.1455 16.0173 15.0804 16.2094 14.9502C16.4047 14.8167 16.543 14.6377 16.6244 14.4131C16.709 14.1885 16.7514 13.9362 16.7514 13.6562ZM20.2918 15.0674L21.5857 10.7168H22.8064L20.9705 16H20.2088L20.2918 15.0674ZM19.3006 10.7168L20.6189 15.0869L20.6824 16H19.9207L18.075 10.7168H19.3006ZM26.0344 14.9404V12.4209C26.0344 12.2321 26.0002 12.0693 25.9318 11.9326C25.8635 11.7959 25.7593 11.6901 25.6193 11.6152C25.4826 11.5404 25.3101 11.5029 25.1018 11.5029C24.9097 11.5029 24.7437 11.5355 24.6037 11.6006C24.4637 11.6657 24.3547 11.7536 24.2766 11.8643C24.1984 11.9749 24.1594 12.1003 24.1594 12.2402H22.9875C22.9875 12.0319 23.038 11.8301 23.1389 11.6348C23.2398 11.4395 23.3863 11.2653 23.5783 11.1123C23.7704 10.9593 23.9999 10.8389 24.2668 10.751C24.5337 10.6631 24.8332 10.6191 25.1652 10.6191C25.5624 10.6191 25.9139 10.6859 26.2199 10.8193C26.5292 10.9528 26.7717 11.1546 26.9475 11.4248C27.1265 11.6917 27.216 12.027 27.216 12.4307V14.7793C27.216 15.0202 27.2323 15.2367 27.2648 15.4287C27.3007 15.6175 27.3511 15.7819 27.4162 15.9219V16H26.2102C26.1548 15.873 26.1109 15.7119 26.0783 15.5166C26.049 15.318 26.0344 15.126 26.0344 14.9404ZM26.2053 12.7871L26.215 13.5146H25.3703C25.1522 13.5146 24.9602 13.5358 24.7941 13.5781C24.6281 13.6172 24.4898 13.6758 24.3791 13.7539C24.2684 13.832 24.1854 13.9264 24.1301 14.0371C24.0747 14.1478 24.0471 14.2731 24.0471 14.4131C24.0471 14.5531 24.0796 14.6816 24.1447 14.7988C24.2098 14.9128 24.3042 15.0023 24.4279 15.0674C24.5549 15.1325 24.7079 15.165 24.8869 15.165C25.1278 15.165 25.3378 15.1162 25.5168 15.0186C25.6991 14.9176 25.8423 14.7956 25.9465 14.6523C26.0507 14.5059 26.106 14.3675 26.1125 14.2373L26.4934 14.7598C26.4543 14.8932 26.3876 15.0365 26.2932 15.1895C26.1988 15.3424 26.0751 15.4889 25.9221 15.6289C25.7723 15.7656 25.5917 15.8779 25.3801 15.9658C25.1717 16.0537 24.9309 16.0977 24.6574 16.0977C24.3124 16.0977 24.0048 16.0293 23.7346 15.8926C23.4644 15.7526 23.2528 15.5654 23.0998 15.3311C22.9468 15.0934 22.8703 14.8249 22.8703 14.5254C22.8703 14.2454 22.9224 13.998 23.0266 13.7832C23.134 13.5651 23.2902 13.3828 23.4953 13.2363C23.7036 13.0898 23.9576 12.9792 24.257 12.9043C24.5565 12.8262 24.8983 12.7871 25.2824 12.7871H26.2053ZM29.2232 11.791V16H28.0465V10.7168H29.1549L29.2232 11.791ZM29.0328 13.1631L28.6324 13.1582C28.6324 12.7936 28.678 12.4567 28.7691 12.1475C28.8603 11.8382 28.9937 11.5697 29.1695 11.3418C29.3453 11.1107 29.5634 10.9333 29.8238 10.8096C30.0875 10.6826 30.3919 10.6191 30.7369 10.6191C30.9778 10.6191 31.1975 10.6549 31.3961 10.7266C31.5979 10.7949 31.7721 10.904 31.9186 11.0537C32.0683 11.2035 32.1822 11.3955 32.2604 11.6299C32.3417 11.8643 32.3824 12.1475 32.3824 12.4795V16H31.2057V12.582C31.2057 12.3249 31.1666 12.123 31.0885 11.9766C31.0136 11.8301 30.9046 11.7259 30.7613 11.6641C30.6214 11.599 30.4537 11.5664 30.2584 11.5664C30.037 11.5664 29.8482 11.6087 29.692 11.6934C29.539 11.778 29.4137 11.8936 29.316 12.04C29.2184 12.1865 29.1467 12.3558 29.1012 12.5479C29.0556 12.7399 29.0328 12.945 29.0328 13.1631ZM32.3092 12.8506L31.7574 12.9727C31.7574 12.6536 31.8014 12.3525 31.8893 12.0693C31.9804 11.7829 32.1122 11.5322 32.2848 11.3174C32.4605 11.0993 32.677 10.9284 32.9342 10.8047C33.1913 10.681 33.4859 10.6191 33.818 10.6191C34.0882 10.6191 34.329 10.6566 34.5406 10.7314C34.7555 10.8031 34.9378 10.917 35.0875 11.0732C35.2372 11.2295 35.3512 11.4329 35.4293 11.6836C35.5074 11.931 35.5465 12.2305 35.5465 12.582V16H34.3648V12.5771C34.3648 12.3102 34.3258 12.1035 34.2477 11.957C34.1728 11.8105 34.0654 11.7096 33.9254 11.6543C33.7854 11.5957 33.6178 11.5664 33.4225 11.5664C33.2402 11.5664 33.079 11.6006 32.9391 11.6689C32.8023 11.734 32.6868 11.8268 32.5924 11.9473C32.498 12.0645 32.4264 12.1995 32.3775 12.3525C32.332 12.5055 32.3092 12.6715 32.3092 12.8506ZM37.793 14.8281L39.0137 10.7168H39.7656L39.5605 11.9473L38.3301 16H37.6562L37.793 14.8281ZM37.0752 10.7168L38.0273 14.8477L38.1055 16H37.3535L35.9229 10.7168H37.0752ZM40.9082 14.7988L41.8311 10.7168H42.9785L41.5527 16H40.8008L40.9082 14.7988ZM39.8926 10.7168L41.0986 14.7793L41.25 16H40.5762L39.3311 11.9424L39.126 10.7168H39.8926ZM43.1547 13.417V13.3047C43.1547 12.9238 43.21 12.5706 43.3207 12.2451C43.4314 11.9163 43.5909 11.6315 43.7992 11.3906C44.0108 11.1465 44.268 10.9577 44.5707 10.8242C44.8767 10.6875 45.2217 10.6191 45.6059 10.6191C45.9932 10.6191 46.3383 10.6875 46.641 10.8242C46.947 10.9577 47.2058 11.1465 47.4174 11.3906C47.629 11.6315 47.7901 11.9163 47.9008 12.2451C48.0115 12.5706 48.0668 12.9238 48.0668 13.3047V13.417C48.0668 13.7979 48.0115 14.151 47.9008 14.4766C47.7901 14.8021 47.629 15.0869 47.4174 15.3311C47.2058 15.5719 46.9486 15.7607 46.6459 15.8975C46.3432 16.0309 45.9997 16.0977 45.6156 16.0977C45.2283 16.0977 44.8816 16.0309 44.5756 15.8975C44.2729 15.7607 44.0157 15.5719 43.8041 15.3311C43.5925 15.0869 43.4314 14.8021 43.3207 14.4766C43.21 14.151 43.1547 13.7979 43.1547 13.417ZM44.3314 13.3047V13.417C44.3314 13.6546 44.3559 13.8792 44.4047 14.0908C44.4535 14.3024 44.53 14.488 44.6342 14.6475C44.7383 14.807 44.8718 14.9323 45.0346 15.0234C45.1973 15.1146 45.391 15.1602 45.6156 15.1602C45.8337 15.1602 46.0225 15.1146 46.182 15.0234C46.3448 14.9323 46.4783 14.807 46.5824 14.6475C46.6866 14.488 46.7631 14.3024 46.8119 14.0908C46.864 13.8792 46.89 13.6546 46.89 13.417V13.3047C46.89 13.0703 46.864 12.849 46.8119 12.6406C46.7631 12.429 46.685 12.2419 46.5775 12.0791C46.4734 11.9163 46.3399 11.7894 46.1771 11.6982C46.0176 11.6038 45.8272 11.5566 45.6059 11.5566C45.3845 11.5566 45.1924 11.6038 45.0297 11.6982C44.8702 11.7894 44.7383 11.9163 44.6342 12.0791C44.53 12.2419 44.4535 12.429 44.4047 12.6406C44.3559 12.849 44.3314 13.0703 44.3314 13.3047Z" fill="white"/>
<defs>
<linearGradient id="paint0_linear_12_7" x1="29.5" y1="27" x2="29.5" y2="0" gradientUnits="userSpaceOnUse">
<stop stop-color="#2FCDA9"/>
<stop offset="1" stop-color="#0E5655"/>
</linearGradient>
</defs>
</svg>
