<svg width="46" height="33" viewBox="0 0 46 33" fill="none" xmlns="http://www.w3.org/2000/svg">
<g opacity="0.5">
<path d="M11.8477 9.37871C11.602 10.0614 11.069 10.6762 10.2296 11.0647C8.98401 11.6425 7.44337 11.4109 6.32642 10.6146C5.20859 9.8165 4.50477 8.51457 4.28631 7.15978C4.06609 5.80412 4.30217 4.40264 4.79457 3.12097C4.76551 4.00273 5.48871 4.71007 6.32026 5.06947C6.36694 6.02081 6.64529 6.92194 7.1377 7.66804C7.91287 8.84401 9.26854 9.60333 10.589 9.60333C10.6682 9.60333 10.7475 9.60156 10.8268 9.5954C11.1906 9.56985 11.5324 9.49674 11.8477 9.37871Z" fill="white"/>
<path d="M36.6091 32.1462C36.4065 32.4017 36.0973 32.5488 35.7732 32.5488H33.4873C33.1358 32.5488 32.9059 32.1824 33.0539 31.8635C33.6617 30.5756 33.9445 29.1107 33.8018 27.7075C33.1737 28.022 32.5597 28.2942 31.9863 28.5197C30.4738 29.1143 28.8979 29.5397 27.2938 29.8013C24.7252 30.2198 22.0852 30.2233 19.5148 29.8348C18.7872 29.7247 18.0825 29.5952 17.3999 29.4464C16.911 30.3448 16.3798 31.1729 15.8205 31.9058C15.5122 32.3101 15.0312 32.5479 14.5229 32.5479H12.6687C12.3155 32.5479 12.0882 32.1815 12.2353 31.8608C12.7647 30.7007 12.9981 29.4014 12.9048 28.1286C6.35635 25.678 2.42764 21.729 0.80243 19.8413C0.282714 19.237 -4.57764e-05 18.468 -4.57764e-05 17.6726V14.4134C-4.57764e-05 13.7818 0.504687 13.2691 1.13627 13.2576C2.81258 13.2286 4.92933 12.6595 5.97581 11.8976C6.34842 11.6271 6.69636 11.3303 7.02757 11.0149C7.69879 10.3772 8.30132 9.66632 8.9056 8.95017C9.39801 8.36351 9.89217 7.7742 10.4207 7.22278C10.6603 6.97349 10.9069 6.73213 11.1606 6.4987C11.757 5.94904 12.393 5.44341 13.0598 4.98536C13.8429 4.44538 14.6674 3.96707 15.5262 3.55306C18.7265 2.00448 22.3795 1.32004 25.9444 1.49445C30.931 1.73758 35.8093 3.52311 38.7901 7.33465C39.6146 8.38818 40.2938 9.59586 40.7897 10.9691L40.8285 11.0748C40.9131 11.3118 40.9879 11.5514 41.0575 11.7954C41.0716 11.843 41.0866 11.8932 41.0989 11.9425C41.2152 12.3274 41.313 12.7256 41.3958 13.1334C42.6361 19.2617 40.1828 27.645 36.6091 32.1454V32.1462Z" fill="white"/>
<path d="M10.8118 9.3654C9.44206 9.45701 8.08639 8.68713 7.3306 7.54199C6.57393 6.39597 6.38542 4.92932 6.66818 3.58598C6.95094 2.24265 7.67414 1.01911 8.59377 -6.10352e-05C8.19386 0.952165 8.83602 2.04797 9.66492 2.6637C10.4938 3.27944 11.5086 3.60977 12.3304 4.23431C14.5749 5.93968 13.6509 9.17513 10.8118 9.36628V9.3654Z" fill="white"/>
<path d="M36.1898 8.93556C36.5343 9.27117 36.7985 9.64995 37.1368 9.94504C37.4645 10.2481 37.8362 10.4859 38.2379 10.648C39.0403 10.9827 39.9371 11.0268 40.8171 10.9677C40.9272 10.9616 41.0382 10.9492 41.1492 10.9378C41.202 10.9316 41.2646 10.929 41.3104 10.9193C41.3562 10.9078 41.4011 10.9017 41.4478 10.8885C41.631 10.8382 41.8178 10.7687 41.9948 10.6762C42.3516 10.4956 42.6854 10.2516 42.9514 9.97499C43.2219 9.69046 43.3787 9.41475 43.4535 9.07738C43.5258 8.74352 43.5125 8.3762 43.3892 8.05645C43.3276 7.89701 43.2395 7.75078 43.1267 7.62922C43.0263 7.51911 42.8845 7.42398 42.7312 7.36848C42.5779 7.31123 42.4141 7.29184 42.2776 7.31563C42.141 7.33853 42.0336 7.39843 41.9543 7.49885C41.8733 7.59751 41.8239 7.74726 41.8222 7.90493C41.8204 8.06525 41.86 8.21764 41.949 8.36915C42.1217 8.67129 42.4652 8.91882 42.8422 9.04303C43.6024 9.29319 44.5573 9.09411 45.1325 8.46605C45.7059 7.83887 45.9006 6.83467 45.5509 5.99696L45.6513 5.94763C46.1173 6.78446 46.0389 7.9067 45.4302 8.7127C44.8101 9.52134 43.6967 9.89747 42.6722 9.64994C42.1631 9.52134 41.668 9.24915 41.3289 8.77172C40.9924 8.29076 40.9052 7.5887 41.276 7.02054C41.4601 6.73689 41.7728 6.53429 42.0891 6.4603C42.4062 6.38367 42.7198 6.40568 43.0078 6.48496C43.2959 6.56777 43.5681 6.70518 43.8059 6.91307C44.0296 7.1095 44.2129 7.3491 44.3476 7.60984C44.6163 8.1322 44.7026 8.73119 44.5925 9.30552C44.5414 9.59357 44.4322 9.87457 44.2807 10.1309C44.1283 10.3881 43.938 10.5969 43.7398 10.7836C43.3373 11.151 42.8774 11.4135 42.3815 11.5958C42.1322 11.683 41.8724 11.75 41.5984 11.7764C41.5306 11.7843 41.4601 11.7852 41.3914 11.7896L41.2056 11.7949C41.0849 11.7975 40.9642 11.7993 40.8426 11.7958C40.3581 11.7887 39.871 11.7438 39.3901 11.6425C38.91 11.5377 38.437 11.3729 38.0044 11.1298C37.5719 10.8876 37.1905 10.5581 36.8866 10.1829C36.7351 9.99437 36.6003 9.79705 36.477 9.59709C36.3537 9.39714 36.2427 9.19365 36.1106 9.01131L36.1925 8.93556H36.1898Z" fill="white"/>
<path d="M22.5601 13.6734C22.7389 13.9429 22.9758 14.216 23.2436 14.5278C23.0921 14.4283 22.9573 14.3094 22.8367 14.1658C22.7142 14.0187 22.6094 13.8549 22.5178 13.6778C22.6913 14.031 22.8842 14.408 23.0366 14.8071C22.797 14.475 22.6235 14.0777 22.4755 13.6848C22.6094 14.0804 22.7177 14.4997 22.7292 14.9084C22.6076 14.497 22.5275 14.0848 22.4323 13.7007C22.5107 14.0856 22.5169 14.4776 22.4218 14.8229C22.4226 14.4142 22.4191 14.0486 22.3777 13.7121C22.398 14.0486 22.3284 14.3464 22.2007 14.5842C22.2641 14.2838 22.2984 14.0381 22.3072 13.809C22.2526 13.9086 22.1874 14.0575 22.1179 14.2327C22.0491 14.416 21.9769 14.6177 21.9584 14.8529C21.9496 14.9683 21.9549 15.0846 21.9769 15.2008C21.9989 15.3127 22.0377 15.4237 22.0923 15.532C22.1469 15.6413 22.2165 15.7461 22.2984 15.8368C22.3795 15.9284 22.4737 16.0244 22.5715 16.0949C22.6966 16.1927 22.8648 16.3151 23.0304 16.4235C23.196 16.538 23.3599 16.6516 23.4506 16.7653C23.4559 16.6146 23.5237 16.4323 23.5898 16.2429C23.655 16.0474 23.7272 15.8668 23.766 15.7047C23.7986 15.5822 23.8268 15.4633 23.8347 15.3365C23.8435 15.2096 23.8391 15.0854 23.8206 14.9683C23.7809 14.7287 23.6761 14.5129 23.5264 14.3393C23.3863 14.1772 23.2295 14.0601 23.0895 13.9676C23.0269 13.9288 22.96 13.8874 22.8877 13.8425C22.8234 13.8029 22.7706 13.7782 22.716 13.7474C22.7864 13.8161 22.8587 13.876 22.9459 13.9465C23.0313 14.0134 23.1317 14.0909 23.2348 14.1579C23.1168 14.127 22.9943 14.0689 22.8807 13.9896C22.7618 13.9024 22.6596 13.8064 22.5601 13.6716V13.6734Z" fill="#0D808A"/>
<path d="M21.2749 17.4745C21.4968 17.175 21.6202 16.8975 21.6712 16.5786C21.7241 16.2571 21.695 15.8942 21.6739 15.3965C21.3673 16.0113 21.0326 16.7539 21.2749 17.4745Z" fill="#0D808A"/>
<path d="M21.7311 13.6156C21.5919 13.8975 21.466 14.2525 21.333 14.6321C21.34 14.4568 21.3814 14.2719 21.4431 14.1001C21.5065 13.9239 21.5999 13.7469 21.7073 13.5786C21.488 13.9063 21.2572 14.2622 20.9876 14.5934C21.1585 14.2164 21.4087 13.8755 21.6783 13.5478C21.4008 13.8622 21.0995 14.1573 20.7437 14.3793C21.0387 14.0693 21.3567 13.7909 21.6448 13.5143C21.4924 13.6482 21.3374 13.7618 21.1744 13.8543C21.0097 13.9486 20.8361 14.0235 20.6661 14.0675C20.8414 13.9671 21.007 13.8702 21.1647 13.7715C21.3241 13.672 21.4721 13.5724 21.6051 13.4738C21.466 13.5645 21.3171 13.6367 21.1788 13.6817C21.1083 13.7055 21.0361 13.724 20.9648 13.7372C20.8969 13.7486 20.83 13.7548 20.7639 13.7574C20.9066 13.7116 21.0361 13.6641 21.155 13.6156C21.2775 13.5645 21.3867 13.5125 21.4853 13.4606C21.429 13.4615 21.3567 13.4703 21.2836 13.4764C21.2088 13.4844 21.1136 13.4993 21.0238 13.5117C20.8388 13.5407 20.6177 13.5839 20.4072 13.6843C20.1984 13.783 20.0213 13.9354 19.8839 14.1406C19.7571 14.3379 19.669 14.5916 19.6399 14.8356C19.6117 14.9986 19.6012 15.1959 19.5844 15.3976C19.5642 15.602 19.5562 15.7905 19.499 15.9305C19.6311 15.8601 19.8196 15.8301 20.0204 15.7896C20.1165 15.772 20.2151 15.7535 20.3111 15.7359C20.4045 15.7183 20.4961 15.6936 20.5736 15.6742C20.8132 15.6196 21.0555 15.5042 21.2387 15.3553C21.4281 15.1977 21.5593 15.0056 21.6351 14.7881C21.7056 14.5863 21.7285 14.3899 21.7399 14.2208C21.7478 14.056 21.7514 13.901 21.7443 13.79C21.7029 13.9636 21.6633 14.1926 21.6474 14.441C21.6131 14.3291 21.606 14.1855 21.6166 14.0525C21.6316 13.9081 21.6686 13.7645 21.7311 13.6165V13.6156Z" fill="#0D808A"/>
<path d="M17.7963 14.3969C18.1671 14.4401 18.464 14.411 18.7661 14.2956C19.0691 14.182 19.3774 13.9724 19.795 13.7072C19.4435 13.7284 19.0797 13.7583 18.7265 13.8543C18.3768 13.9495 18.0376 14.1142 17.7963 14.3969Z" fill="#0D808A"/>
<path d="M21.3673 12.8635C21.2105 12.875 21.0379 12.897 20.8546 12.9261C20.6767 12.9551 20.4873 12.9921 20.2882 13.0291C20.3666 12.9886 20.4486 12.9534 20.5331 12.9252C20.6212 12.8961 20.7128 12.8741 20.8053 12.8573C20.9894 12.8239 21.1814 12.8142 21.3858 12.823C20.9894 12.7974 20.5657 12.7763 20.1455 12.7094C20.5622 12.668 20.9832 12.7146 21.399 12.7825C20.9824 12.6997 20.5807 12.5878 20.2134 12.3922C20.63 12.4918 21.0299 12.6283 21.4105 12.7375C21.0308 12.6116 20.6952 12.424 20.4397 12.1694C20.7833 12.3702 21.1242 12.557 21.4228 12.6838C21.1277 12.5367 20.8925 12.3244 20.7577 12.0998C20.9736 12.298 21.1894 12.4592 21.3735 12.5755C21.3488 12.5297 21.3004 12.4698 21.259 12.409C21.2149 12.3473 21.1603 12.2768 21.0978 12.2011C20.9824 12.0566 20.8353 11.8875 20.6441 11.7545C20.4565 11.6241 20.2283 11.5413 19.9879 11.529C19.8689 11.5228 19.7447 11.5325 19.6197 11.5545C19.4981 11.5783 19.3792 11.618 19.2611 11.6638C19.1079 11.721 18.9326 11.8117 18.7449 11.8972C18.5688 11.9844 18.39 12.0707 18.2411 12.0919C18.3626 12.1703 18.4983 12.3218 18.626 12.4733C18.7494 12.6257 18.8947 12.7798 19.0013 12.8935C19.1783 13.0723 19.3836 13.2256 19.6135 13.3092C19.8355 13.3964 20.0768 13.4123 20.3032 13.3691C20.5146 13.3295 20.6908 13.2529 20.8423 13.178C21 13.1014 21.118 13.0274 21.2228 12.9639C21.0396 13.0177 20.8388 13.0961 20.6062 13.2079C20.6961 13.1207 20.7983 13.045 20.9313 12.9851C21.0546 12.9252 21.2079 12.8838 21.3647 12.8635H21.3673Z" fill="#0D808A"/>
<path d="M18.722 9.84888C18.8674 10.188 19.0427 10.4329 19.2955 10.6381C19.5448 10.8434 19.876 11.0028 20.3191 11.2354C19.9368 10.6584 19.4611 9.99686 18.7212 9.84888H18.722Z" fill="#0D808A"/>
<path d="M21.8351 12.1744C21.6562 11.9048 21.4193 11.6318 21.1515 11.3199C21.303 11.4195 21.4378 11.5384 21.5585 11.682C21.6809 11.8291 21.7857 11.9929 21.8773 12.17C21.7038 11.8168 21.5109 11.4397 21.3585 11.0407C21.5981 11.3728 21.7716 11.7701 21.9196 12.1629C21.7857 11.7674 21.6774 11.3481 21.6659 10.9394C21.7875 11.3508 21.8677 11.763 21.9628 12.1471C21.8844 11.7621 21.8782 11.3702 21.9734 11.0249C21.9725 11.4336 21.976 11.7991 22.0174 12.1356C21.9971 11.7991 22.0667 11.5014 22.1945 11.2636C22.131 11.5639 22.0967 11.8097 22.0879 12.0387C22.1425 11.9392 22.2077 11.7903 22.2773 11.615C22.346 11.4318 22.4182 11.2301 22.4367 10.9949C22.4455 10.8795 22.4402 10.7632 22.4182 10.647C22.3962 10.5351 22.3574 10.4241 22.3028 10.3157C22.2482 10.2065 22.1786 10.1017 22.0967 10.011C22.0156 9.91935 21.9214 9.82334 21.8236 9.75287C21.6985 9.65509 21.5303 9.53265 21.3656 9.4243C21.2 9.30979 21.0361 9.19615 20.9454 9.08252C20.9401 9.23315 20.8723 9.41549 20.8062 9.60488C20.741 9.80043 20.6688 9.98102 20.63 10.1431C20.5974 10.2655 20.5692 10.3845 20.5613 10.5113C20.5525 10.6381 20.5569 10.7624 20.5754 10.8795C20.6151 11.1191 20.7199 11.3349 20.8696 11.5085C21.0097 11.6705 21.1665 11.7877 21.3065 11.8802C21.3691 11.9189 21.436 11.9603 21.5083 12.0053C21.5726 12.0449 21.6254 12.0696 21.68 12.1004C21.6096 12.0317 21.5373 11.9718 21.4501 11.9013C21.3647 11.8344 21.2643 11.7569 21.1612 11.6899C21.2792 11.7207 21.4017 11.7789 21.5153 11.8582C21.6342 11.9454 21.7364 12.0414 21.8359 12.1762L21.8351 12.1744Z" fill="#0D808A"/>
<path d="M23.1203 8.37445C22.8983 8.67395 22.775 8.95142 22.7239 9.2703C22.671 9.59182 22.7001 9.95474 22.7212 10.4524C23.0278 9.83759 23.3625 9.09501 23.1203 8.37445Z" fill="#0D808A"/>
<path d="M22.664 12.2335C22.8031 11.9516 22.9291 11.5966 23.0621 11.217C23.0551 11.3923 23.0137 11.5773 22.952 11.749C22.8886 11.9252 22.7952 12.1023 22.6878 12.2705C22.9071 11.9428 23.1379 11.587 23.4074 11.2557C23.2365 11.6328 22.9864 11.9737 22.7168 12.3013C22.9943 11.9869 23.2956 11.6918 23.6514 11.4698C23.3563 11.7799 23.0383 12.0582 22.7503 12.3348C22.9027 12.2009 23.0577 12.0873 23.2207 11.9948C23.3854 11.9005 23.5589 11.8257 23.7289 11.7816C23.5536 11.882 23.388 11.9789 23.2304 12.0776C23.0709 12.1771 22.9229 12.2767 22.7899 12.3753C22.9291 12.2846 23.078 12.2124 23.2163 12.1674C23.2867 12.1437 23.359 12.1252 23.4303 12.112C23.4982 12.1005 23.5651 12.0943 23.6312 12.0917C23.4885 12.1375 23.359 12.1842 23.2401 12.2335C23.1176 12.2846 23.0084 12.3366 22.9097 12.3885C22.9661 12.3877 23.0383 12.3789 23.1115 12.3727C23.1863 12.3648 23.2815 12.3498 23.3713 12.3375C23.5563 12.3084 23.7774 12.2652 23.9879 12.1648C24.1967 12.0662 24.3737 11.9138 24.5112 11.7085C24.638 11.5112 24.7261 11.2575 24.7552 11.0135C24.7833 10.8505 24.7939 10.6532 24.8107 10.4515C24.8309 10.2471 24.8388 10.0586 24.8961 9.91858C24.764 9.98905 24.5755 10.019 24.3746 10.0595C24.2795 10.0771 24.1799 10.0956 24.0839 10.1132C23.9906 10.1309 23.899 10.1555 23.8214 10.1749C23.5818 10.2295 23.3396 10.3449 23.1564 10.4938C22.967 10.6515 22.8357 10.8435 22.76 11.0611C22.6895 11.2628 22.6666 11.4592 22.6552 11.6284C22.6472 11.7931 22.6437 11.9481 22.6507 12.0591C22.6922 11.8856 22.7318 11.6565 22.7477 11.4081C22.782 11.52 22.7891 11.6636 22.7785 11.7966C22.7635 11.9411 22.7265 12.0846 22.664 12.2326V12.2335Z" fill="#0D808A"/>
<path d="M26.5988 11.452C26.228 11.4088 25.9311 11.4379 25.629 11.5533C25.326 11.6669 25.0176 11.8765 24.6001 12.1417C24.9516 12.1206 25.3154 12.0906 25.6686 11.9946C26.0183 11.8994 26.3575 11.7347 26.5988 11.452Z" fill="#0D808A"/>
<path d="M23.0278 12.9855C23.1846 12.9741 23.3572 12.9521 23.5404 12.9221C23.7184 12.8931 23.9077 12.8561 24.1068 12.8191C24.0284 12.8596 23.9465 12.8948 23.8619 12.923C23.7739 12.9521 23.6822 12.9741 23.5898 12.9908C23.4057 13.0243 23.2136 13.034 23.0093 13.0252C23.4057 13.0507 23.8294 13.0719 24.2495 13.1397C23.8329 13.1811 23.4118 13.1344 22.996 13.0666C23.4127 13.1494 23.8144 13.2613 24.1817 13.4568C23.765 13.3573 23.3651 13.2207 22.9846 13.1115C23.3643 13.2375 23.6999 13.4251 23.9553 13.6797C23.6118 13.4788 23.2709 13.2921 22.9723 13.1652C23.2674 13.3124 23.5026 13.5246 23.6373 13.7493C23.4215 13.5511 23.2057 13.3899 23.0216 13.2736C23.0463 13.3194 23.0947 13.3793 23.1361 13.4401C23.1801 13.5017 23.2348 13.5722 23.2973 13.648C23.4127 13.7924 23.5598 13.9616 23.7509 14.0946C23.9386 14.2249 24.1667 14.3077 24.4072 14.3201C24.5261 14.3262 24.6503 14.3166 24.7754 14.2945C24.897 14.2707 25.0159 14.2311 25.1339 14.1853C25.2872 14.128 25.4625 14.0373 25.6501 13.9519C25.8263 13.8647 26.0051 13.7783 26.154 13.7572C26.0324 13.6788 25.8968 13.5273 25.769 13.3758C25.6457 13.2234 25.5004 13.0692 25.3938 12.9556C25.2167 12.7768 25.0115 12.6235 24.7816 12.5398C24.5596 12.4535 24.3182 12.4368 24.0919 12.4799C23.8804 12.5196 23.7043 12.5962 23.5528 12.6711C23.3951 12.7477 23.277 12.8217 23.1722 12.8851C23.3554 12.8314 23.5563 12.753 23.7888 12.6411C23.699 12.7283 23.5968 12.8041 23.4638 12.864C23.3405 12.9239 23.1872 12.9653 23.0304 12.9855H23.0278Z" fill="#0D808A"/>
<path d="M25.673 15.9992C25.5277 15.6601 25.3524 15.4152 25.0996 15.21C24.8503 15.0047 24.5191 14.8453 24.076 14.6127C24.4583 15.1897 24.934 15.8512 25.6739 15.9992H25.673Z" fill="#0D808A"/>
<path d="M22.1971 13.1883C22.3431 13.1883 22.4614 13.0699 22.4614 12.924C22.4614 12.778 22.3431 12.6597 22.1971 12.6597C22.0512 12.6597 21.9329 12.778 21.9329 12.924C21.9329 13.0699 22.0512 13.1883 22.1971 13.1883Z" fill="#0D808A"/>
<path d="M34.8192 16.213C34.6412 16.1866 34.4747 16.1452 34.3215 16.0835C34.2448 16.0527 34.1656 16.0043 34.0916 15.9514C34.0167 15.8968 33.9453 15.8342 33.8714 15.7444C33.9991 15.9276 34.1224 16.0633 34.2607 16.2227C34.3981 16.3795 34.547 16.5469 34.7143 16.7548C34.5003 16.6314 34.3215 16.4949 34.1717 16.3451C34.0185 16.1866 33.889 15.9998 33.7727 15.7602C33.9832 16.2421 34.1418 16.6085 34.288 17.1582C33.9788 16.6984 33.8247 16.317 33.6732 15.777C33.7313 16.0509 33.7665 16.2888 33.778 16.5284C33.7841 16.6482 33.7841 16.7688 33.778 16.8948C33.7718 17.0181 33.7586 17.1459 33.7392 17.2842C33.6309 16.7239 33.6159 16.3267 33.5657 15.8034C33.571 16.0668 33.5428 16.2888 33.4855 16.5037C33.4283 16.7151 33.3428 16.9098 33.2265 17.1388C33.3102 16.598 33.3983 16.2703 33.4336 15.821C33.3922 16.0509 33.3164 16.2095 33.223 16.3663C33.1755 16.4376 33.1235 16.5046 33.0671 16.5733C33.0098 16.6429 32.9491 16.7107 32.883 16.7768C32.9685 16.5856 33.0416 16.4209 33.1129 16.2597C33.1763 16.1126 33.2292 15.9866 33.2697 15.8202C33.2583 15.8448 33.2415 15.88 33.2221 15.9232C33.201 15.9637 33.1746 16.0122 33.1438 16.0668C33.0812 16.176 32.9975 16.3108 32.9024 16.4359C32.7139 16.7037 32.4655 16.9503 32.4003 17.1371C32.284 17.4735 32.3148 17.7792 32.513 18.04C32.7095 18.2919 33.0706 18.5033 33.5252 18.5782C34.0308 18.6724 34.6166 18.5315 35.0253 18.217C35.116 18.1448 35.2006 18.0717 35.2763 17.9986C35.3503 17.921 35.4138 17.8391 35.4693 17.7598C35.5838 17.6048 35.6481 17.4313 35.678 17.2754C35.7097 17.1194 35.6939 16.9644 35.6401 16.8208C35.5873 16.6772 35.4948 16.546 35.3671 16.42C35.2156 16.2712 35.0517 16.1672 34.9002 16.0871C34.7452 16.0034 34.5972 15.9364 34.4747 15.8871C34.221 15.7779 34.0519 15.7144 33.9938 15.6748C34.1101 15.7805 34.2211 15.8492 34.3514 15.9276C34.4219 15.9699 34.4924 16.0131 34.5646 16.0571C34.6403 16.102 34.724 16.1531 34.8201 16.2139L34.8192 16.213Z" fill="#0D808A"/>
<path d="M32.1457 16.5139C32.018 16.1783 31.9361 15.8726 32.0761 15.4586C31.9017 15.8462 31.8189 16.1932 31.6242 16.69C31.6295 16.1923 31.7132 15.8259 32.0153 15.3767C31.7026 15.803 31.4639 16.1219 31.0613 16.5236C31.3106 16.0197 31.5529 15.7061 31.9475 15.3009C31.5317 15.6744 31.1988 15.8955 30.6755 16.1131C31.1054 15.7378 31.4419 15.5264 31.8753 15.2163C31.6427 15.359 31.4401 15.4427 31.2287 15.4991C31.123 15.5273 31.0138 15.5493 30.901 15.5652C30.7918 15.5793 30.6755 15.5881 30.5504 15.5933C30.8032 15.4965 31.0111 15.4242 31.2058 15.3537C31.4014 15.2824 31.5916 15.2084 31.7916 15.1124C31.6841 15.1511 31.5828 15.1758 31.4859 15.1917C31.3934 15.204 31.3053 15.2066 31.2164 15.2031C31.0349 15.1987 30.8799 15.1591 30.687 15.1159C30.8949 15.0939 31.0746 15.0754 31.249 15.0569C31.4049 15.0393 31.552 15.0146 31.7097 14.9706C31.6577 14.9759 31.5599 14.9847 31.4296 14.9873C31.308 14.9873 31.1547 14.9785 30.99 14.9626C30.8323 14.9441 30.6667 14.916 30.5143 14.8948C30.3593 14.8746 30.2324 14.8569 30.1347 14.8772C29.7832 14.945 29.5321 15.1238 29.4097 15.4251C29.2785 15.7255 29.2961 16.1368 29.4476 16.5755C29.6202 17.0635 30.0369 17.4925 30.5117 17.6898C30.9345 17.8748 31.3529 17.8942 31.6533 17.7885C31.9616 17.6757 32.1519 17.437 32.24 17.0917C32.3421 16.6759 32.284 16.3236 32.2576 16.0496C32.2382 15.9202 32.2268 15.7986 32.2162 15.7123C32.2109 15.6709 32.2065 15.633 32.203 15.6022C32.2012 15.5704 32.2003 15.5449 32.2012 15.5282C32.1422 15.8285 32.1695 16.0611 32.1466 16.513L32.1457 16.5139Z" fill="#0D808A"/>
<path d="M30.5487 14.3476C30.6033 14.2771 30.6694 14.2102 30.7258 14.1494C30.7839 14.0877 30.842 14.0313 30.9142 13.9802C30.9838 13.9292 31.057 13.8833 31.1389 13.8455C31.227 13.8076 31.3238 13.7776 31.4322 13.7574C30.9962 13.7997 30.6729 13.9036 30.1355 13.9838C30.3566 13.8604 30.5469 13.7724 30.7636 13.7186C30.9777 13.6649 31.1935 13.6437 31.4674 13.664C30.938 13.6059 30.546 13.5609 29.9955 13.413C30.5593 13.3768 30.9583 13.4315 31.5018 13.5689C30.9636 13.3945 30.6103 13.2183 30.1629 12.8747C30.702 13.0597 31.0543 13.2465 31.5379 13.4641C31.3045 13.3372 31.1186 13.198 30.9689 13.0456C30.8165 12.8915 30.6782 12.7144 30.5496 12.5048C30.9645 12.8413 31.2182 13.0879 31.5846 13.3398C31.4146 13.1945 31.2948 13.0395 31.2199 12.888C31.1803 12.8104 31.1442 12.7294 31.1133 12.6466C31.086 12.5656 31.0605 12.4801 31.0323 12.3867C31.1539 12.5559 31.2596 12.7012 31.3617 12.843C31.4595 12.9725 31.5485 13.0844 31.6656 13.1989C31.6357 13.1566 31.5811 13.0773 31.5141 12.9672C31.4454 12.8554 31.3846 12.725 31.3159 12.5735C31.1829 12.2793 31.0895 11.9366 30.9592 11.786C30.724 11.5147 30.4518 11.3949 30.1241 11.4336C29.9603 11.4512 29.7999 11.5208 29.6273 11.6186C29.5418 11.6679 29.4652 11.7331 29.3833 11.8027C29.3031 11.8732 29.2194 11.9507 29.1499 12.0414C29.0706 12.1419 28.9895 12.2484 28.9296 12.3665C28.8706 12.4854 28.8178 12.6096 28.7772 12.7373C28.7438 12.8668 28.7191 12.9998 28.7041 13.1311C28.6936 13.2632 28.7006 13.3953 28.7138 13.5222C28.7755 13.9802 28.9525 14.3493 29.2027 14.5563C29.3278 14.6603 29.4634 14.7263 29.6123 14.7528C29.7647 14.7783 29.925 14.7642 30.0977 14.7175C30.302 14.6612 30.4712 14.5722 30.6244 14.4797C30.7786 14.3872 30.894 14.2947 31.0094 14.2119C31.2261 14.0463 31.3758 13.9309 31.4322 13.8992C31.293 13.9476 31.1644 14.0111 31.0349 14.0842C30.9072 14.1582 30.7504 14.2427 30.5513 14.3467L30.5487 14.3476Z" fill="#0D808A"/>
<path d="M31.6278 11.8822C31.8057 11.9086 31.9722 11.95 32.1254 12.0116C32.2021 12.0425 32.2814 12.0909 32.3554 12.1438C32.4302 12.1984 32.5016 12.2609 32.5756 12.3508C32.4479 12.1676 32.3245 12.0319 32.1862 11.8725C32.0488 11.7157 31.8999 11.5483 31.7326 11.3404C31.9466 11.4637 32.1254 11.6003 32.2752 11.75C32.4285 11.9086 32.558 12.0953 32.6742 12.3349C32.4637 11.8531 32.3051 11.4866 32.1589 10.937C32.4681 11.3968 32.6223 11.7782 32.7738 12.3182C32.7156 12.0442 32.6804 11.8064 32.6689 11.5668C32.6628 11.447 32.6628 11.3263 32.6689 11.2004C32.6751 11.077 32.6883 10.9493 32.7077 10.811C32.8161 11.3712 32.8302 11.7685 32.8812 12.2918C32.876 12.0284 32.9041 11.8064 32.9614 11.5915C33.0187 11.3801 33.1041 11.1854 33.2204 10.9564C33.1367 11.4972 33.0486 11.8249 33.0134 12.2741C33.0548 12.0442 33.1305 11.8848 33.2239 11.7289C33.2715 11.6575 33.3234 11.5906 33.3798 11.5219C33.4371 11.4523 33.4979 11.3845 33.5639 11.3184C33.4785 11.5095 33.4054 11.6743 33.334 11.8355C33.2706 11.9826 33.2177 12.1085 33.1772 12.275C33.1887 12.2504 33.2054 12.2151 33.2248 12.172C33.2459 12.1314 33.2723 12.083 33.3032 12.0284C33.3657 11.9192 33.4494 11.7844 33.5445 11.6593C33.7331 11.3915 33.9815 11.1449 34.0466 10.9581C34.1629 10.6216 34.1321 10.316 33.9339 10.0552C33.7374 9.80329 33.3763 9.59188 32.9218 9.517C32.4161 9.42275 31.8304 9.56369 31.4216 9.87817C31.3309 9.9504 31.2463 10.0235 31.1706 10.0966C31.0966 10.1741 31.0332 10.2561 30.9777 10.3353C30.8631 10.4904 30.7989 10.6639 30.7689 10.8198C30.7372 10.9757 30.753 11.1308 30.8068 11.2744C30.8596 11.4179 30.9521 11.5492 31.0798 11.6751C31.2313 11.824 31.3952 11.928 31.5467 12.0081C31.7017 12.0918 31.8497 12.1588 31.9722 12.2081C32.2259 12.3173 32.395 12.3807 32.4531 12.4204C32.3369 12.3147 32.225 12.246 32.0955 12.1676C32.025 12.1253 31.9546 12.0821 31.8823 12.0381C31.8066 11.9931 31.7229 11.9421 31.6269 11.8813L31.6278 11.8822Z" fill="#0D808A"/>
<path d="M34.3012 11.5805C34.4289 11.9161 34.5109 12.2218 34.3708 12.6358C34.5452 12.2482 34.628 11.9011 34.8227 11.4043C34.8174 11.902 34.7346 12.2684 34.4316 12.7177C34.7443 12.2913 34.983 11.9725 35.3856 11.5708C35.1363 12.0746 34.894 12.3882 34.4994 12.7934C34.9152 12.42 35.2481 12.1989 35.7714 11.9813C35.3415 12.3565 35.005 12.5679 34.5716 12.878C34.8042 12.7353 35.0068 12.6516 35.2182 12.5952C35.3239 12.5671 35.4331 12.545 35.5459 12.5292C35.6551 12.5151 35.7714 12.5063 35.8965 12.501C35.6437 12.5979 35.4358 12.6701 35.2411 12.7406C35.0455 12.8119 34.8553 12.8859 34.6553 12.982C34.7628 12.9432 34.8641 12.9185 34.961 12.9027C35.0535 12.8903 35.1416 12.8877 35.2305 12.8912C35.412 12.8956 35.567 12.9353 35.7599 12.9784C35.552 13.0005 35.3723 13.0189 35.1979 13.0374C35.042 13.0551 34.8949 13.0797 34.7372 13.1238C34.7892 13.1185 34.887 13.1097 35.0174 13.107C35.1389 13.107 35.2922 13.1158 35.4569 13.1317C35.6146 13.1502 35.7802 13.1784 35.9335 13.1995C36.0885 13.2198 36.2154 13.2374 36.3131 13.2171C36.6646 13.1493 36.9156 12.9705 37.0381 12.6692C37.1693 12.3689 37.1517 11.9575 37.0002 11.5188C36.8276 11.0308 36.4109 10.6018 35.9361 10.4045C35.5133 10.2195 35.0949 10.2001 34.7945 10.3059C34.4862 10.4186 34.2959 10.6573 34.2078 11.0026C34.1056 11.4184 34.1638 11.7707 34.1902 12.0447C34.2096 12.1742 34.221 12.2958 34.2316 12.3821C34.2369 12.4235 34.2413 12.4614 34.2448 12.4922C34.2466 12.5239 34.2475 12.5494 34.2466 12.5662C34.3056 12.2658 34.2774 12.0332 34.3012 11.5814V11.5805Z" fill="#0D808A"/>
<path d="M35.8991 13.7467C35.8445 13.8172 35.7785 13.8841 35.7221 13.9449C35.6639 14.0066 35.6058 14.0629 35.5336 14.114C35.464 14.1651 35.3909 14.2109 35.3089 14.2488C35.2208 14.2867 35.124 14.3166 35.0156 14.3369C35.4516 14.2946 35.7749 14.1907 36.3123 14.1105C36.0912 14.2338 35.9009 14.3219 35.6842 14.3757C35.4701 14.4294 35.2552 14.4505 34.9804 14.4303C35.5098 14.4884 35.9018 14.5333 36.4523 14.6813C35.8885 14.7174 35.4895 14.6628 34.946 14.5254C35.4842 14.6998 35.8375 14.876 36.2849 15.2195C35.7459 15.0346 35.3935 14.8478 34.9108 14.6302C35.1442 14.7571 35.3301 14.8963 35.4798 15.0486C35.6322 15.2028 35.7705 15.3799 35.8991 15.5895C35.4842 15.253 35.2305 15.0064 34.8641 14.7544C35.035 14.8998 35.1539 15.0548 35.2288 15.2063C35.2684 15.2838 35.3045 15.3649 35.3354 15.4477C35.3627 15.5287 35.3882 15.6142 35.4164 15.7075C35.2949 15.5384 35.1891 15.3931 35.0869 15.2512C34.9892 15.1218 34.9002 15.0099 34.7831 14.8954C34.813 14.9377 34.8676 15.0169 34.9346 15.127C35.0033 15.2389 35.064 15.3693 35.1328 15.5208C35.2658 15.815 35.3591 16.1577 35.4895 16.3083C35.7247 16.5796 35.9969 16.6994 36.3246 16.6606C36.4884 16.643 36.6488 16.5734 36.8214 16.4757C36.9069 16.4263 36.9835 16.3611 37.0654 16.2916C37.1456 16.2211 37.2292 16.1436 37.2988 16.0528C37.3781 15.9524 37.4592 15.8458 37.5191 15.7278C37.5781 15.6089 37.6309 15.4847 37.6714 15.357C37.7049 15.2275 37.7296 15.0945 37.7446 14.9632C37.7551 14.8311 37.7481 14.6989 37.7349 14.5721C37.6732 14.114 37.4961 13.745 37.246 13.5379C37.1209 13.434 36.9852 13.3679 36.8364 13.3415C36.684 13.316 36.5237 13.3301 36.351 13.3767C36.1466 13.4331 35.9775 13.5221 35.8243 13.6146C35.6701 13.7071 35.5547 13.7996 35.4393 13.8824C35.2226 14.048 35.0729 14.1634 35.0165 14.1951C35.1557 14.1466 35.2843 14.0832 35.4138 14.0101C35.5415 13.9361 35.6983 13.8515 35.8965 13.7476L35.8991 13.7467Z" fill="#0D808A"/>
<path d="M33.7885 14.0473C33.7885 14.3591 33.5357 14.6119 33.2239 14.6119C32.9121 14.6119 32.6593 14.3591 32.6593 14.0473C32.6593 13.7355 32.9121 13.4827 33.2239 13.4827C33.5357 13.4827 33.7885 13.7355 33.7885 14.0473Z" fill="#0D808A"/>
<path d="M38.3682 15.6773C38.2088 15.8209 38.0714 15.9583 37.8221 16.0341C38.0634 15.9936 38.2511 15.9442 38.5461 15.9442C38.2863 16.0491 38.0881 16.1222 37.7948 16.116C38.0802 16.1407 38.2898 16.1838 38.5832 16.2799C38.2837 16.2895 38.0581 16.271 37.7639 16.2006C38.0502 16.3019 38.2396 16.4102 38.4898 16.5855C38.192 16.5045 37.9956 16.4182 37.7349 16.2948C37.985 16.4516 38.1277 16.6155 38.3004 16.826C38.0458 16.6789 37.9084 16.5547 37.7014 16.4085C37.8925 16.5961 37.9463 16.7687 38.0502 16.9696C37.8591 16.7987 37.7815 16.6771 37.6468 16.5441C37.682 16.6023 37.7789 16.7582 37.8749 16.9141C37.9718 17.0726 38.0767 17.2391 38.1691 17.2911C38.3383 17.3862 38.5012 17.3959 38.6589 17.336C38.8183 17.2779 38.954 17.1431 39.0844 16.9713C39.2156 16.7749 39.2975 16.5256 39.2746 16.2851C39.2658 16.1777 39.2544 16.0781 39.2236 15.9874C39.1927 15.8967 39.1522 15.8165 39.102 15.7505C39.0007 15.6174 38.858 15.5426 38.6642 15.5355C38.4334 15.5276 38.2449 15.6183 38.1075 15.7073C37.9736 15.798 37.8749 15.8896 37.8379 15.9143C38.0132 15.8429 38.126 15.7531 38.3665 15.68L38.3682 15.6773Z" fill="#0D808A"/>
<path d="M37.4477 17.9905C37.2292 18.0372 37.0548 18.1059 36.7959 18.0548C37.0337 18.135 37.2152 18.1702 37.4777 18.3067C37.2055 18.2856 36.9923 18.2556 36.7316 18.1121C36.9747 18.2671 37.142 18.4019 37.357 18.6212C37.083 18.4891 36.8972 18.3728 36.6681 18.1737C36.8751 18.3948 36.9984 18.5842 37.1367 18.852C36.9095 18.6415 36.7774 18.4759 36.603 18.246C36.7527 18.4996 36.7959 18.7022 36.8566 18.9762C36.7007 18.7269 36.6302 18.5472 36.5192 18.3261C36.5976 18.5754 36.5792 18.7648 36.5677 18.9806C36.4831 18.7428 36.4726 18.6045 36.4109 18.4195C36.4135 18.453 36.4188 18.5146 36.425 18.5904C36.4294 18.6661 36.4347 18.7569 36.4391 18.8476C36.4514 19.0335 36.4682 19.2352 36.5228 19.3241C36.6258 19.4898 36.7624 19.5752 36.9289 19.5937C37.0945 19.6131 37.2927 19.5699 37.4812 19.4668C37.7014 19.3611 37.8732 19.1612 37.9762 18.9471C38.0555 18.7454 38.0987 18.5587 38.067 18.3939C38.0352 18.2283 37.9419 18.0936 37.7736 17.9975C37.5728 17.8822 37.3711 17.8813 37.2055 17.8954C37.0372 17.9095 36.9121 17.95 36.8699 17.9562C37.0513 17.9685 37.2002 17.9438 37.4495 17.9923L37.4477 17.9905Z" fill="#0D808A"/>
<path d="M35.5494 19.5544C35.3468 19.4875 35.1644 19.4416 34.9777 19.2584C35.1301 19.4505 35.264 19.5888 35.4102 19.8433C35.1926 19.6742 35.0314 19.5333 34.8931 19.2716C35.0112 19.5341 35.0772 19.7385 35.1371 20.0406C34.9803 19.7817 34.8887 19.5808 34.8059 19.2884C34.8579 19.5879 34.8561 19.8081 34.8253 20.1102C34.7504 19.8107 34.7302 19.5976 34.7108 19.3095C34.6958 19.6046 34.621 19.8046 34.5232 20.0618C34.5276 19.7693 34.5663 19.5808 34.5954 19.3333C34.5232 19.5888 34.3998 19.7279 34.2739 19.9129C34.3294 19.6645 34.3981 19.5377 34.4492 19.3536C34.4157 19.4126 34.3259 19.5729 34.2351 19.7323C34.1444 19.8988 34.0519 20.0732 34.0545 20.1789C34.0581 20.5648 34.3558 20.7682 34.7813 20.8149C35.0165 20.8405 35.2728 20.7797 35.4763 20.6476C35.6586 20.5322 35.7969 20.3798 35.8612 20.2239C35.9264 20.068 35.9185 19.9076 35.8242 19.7367C35.7124 19.535 35.5397 19.4179 35.397 19.343C35.2552 19.2716 35.1301 19.2329 35.0913 19.2135C35.2376 19.328 35.367 19.3817 35.5494 19.5535V19.5544Z" fill="#0D808A"/>
<path d="M33.0644 19.9359C32.8971 19.7897 32.7332 19.6796 32.6082 19.4444C32.6954 19.6778 32.7755 19.8548 32.8187 20.1447C32.676 19.9077 32.5668 19.721 32.5165 19.4285C32.5447 19.7157 32.5368 19.9297 32.4936 20.2354C32.4329 19.9377 32.4073 19.7183 32.4223 19.4153C32.3738 19.7148 32.299 19.9244 32.1774 20.2019C32.1986 19.8936 32.2444 19.6848 32.3175 19.4056C32.2065 19.6804 32.0717 19.8478 31.9026 20.0654C31.9924 19.7861 32.0858 19.6197 32.1924 19.3915C32.04 19.6126 31.8788 19.7104 31.7053 19.8504C31.8295 19.6285 31.9334 19.5272 32.04 19.366C31.9907 19.4118 31.855 19.5342 31.7193 19.6663C31.5837 19.8002 31.4472 19.9412 31.419 20.0434C31.3133 20.4151 31.5458 20.6926 31.9246 20.8599C32.1342 20.9515 32.3791 20.9762 32.5993 20.9198C32.9957 20.822 33.267 20.5983 33.2424 20.2116C33.2098 19.7553 32.8028 19.5078 32.7412 19.4426C32.8469 19.5994 32.9596 19.7051 33.0644 19.935V19.9359Z" fill="#0D808A"/>
<path d="M30.5549 19.5202C30.4483 19.3272 30.3373 19.1722 30.3153 18.9097C30.3047 19.1572 30.317 19.3475 30.2571 19.6364C30.2052 19.3651 30.1752 19.1528 30.2413 18.8648C30.1594 19.1396 30.0739 19.3369 29.9215 19.6047C29.9726 19.3079 30.0352 19.0938 30.1646 18.8199C30.0078 19.0797 29.8616 19.2453 29.6405 19.4541C29.7806 19.1784 29.9048 19.0057 30.0792 18.7741C29.8757 18.9872 29.6899 19.0885 29.445 19.218C29.6405 19.004 29.7955 18.8842 29.9779 18.7168C29.7568 18.8648 29.5762 18.8868 29.3595 18.9423C29.5665 18.7934 29.7004 18.7415 29.8572 18.6393C29.7938 18.6613 29.6229 18.7221 29.4511 18.7829C29.2758 18.8445 29.0891 18.9132 29.0177 18.9916C28.757 19.2744 28.8433 19.6329 29.1411 19.9535C29.3049 20.1324 29.5401 20.2513 29.7753 20.2856C30.2025 20.3455 30.5399 20.2125 30.6342 19.839C30.6923 19.6153 30.6403 19.418 30.5822 19.2612C30.5205 19.1079 30.4492 18.9934 30.4315 18.9537C30.4677 19.1361 30.5337 19.2691 30.5549 19.521V19.5202Z" fill="#0D808A"/>
<path d="M28.5033 18.1272C28.5033 17.9087 28.483 17.7193 28.5914 17.4789C28.4628 17.6885 28.3764 17.8629 28.1871 18.084C28.2725 17.8233 28.3526 17.6207 28.5491 17.404C28.343 17.6039 28.1729 17.7343 27.9087 17.8938C28.099 17.6594 28.2584 17.5026 28.505 17.3265C28.2417 17.4771 28.0329 17.5502 27.7369 17.6242C27.9933 17.4524 28.1871 17.3617 28.4513 17.2437C28.1677 17.3309 27.958 17.3274 27.6806 17.3229C27.9563 17.2296 28.1501 17.2005 28.3905 17.1441C28.1254 17.1644 27.9554 17.0966 27.7387 17.0402C27.9933 17.0094 28.1342 17.0305 28.3227 17.0164C28.2566 17.005 28.0769 16.975 27.8972 16.9451C27.7149 16.9142 27.5176 16.8843 27.4172 16.9186C27.0516 17.0402 26.9547 17.3969 27.0587 17.8189C27.1141 18.0523 27.2595 18.2725 27.4515 18.4161C27.7977 18.6777 28.1597 18.7279 28.4196 18.4443C28.5773 18.2761 28.631 18.0752 28.6522 17.914C28.6777 17.7475 28.6663 17.618 28.6715 17.574C28.6169 17.7475 28.6046 17.8982 28.5033 18.1272Z" fill="#0D808A"/>
<path d="M10.8462 24.9231C10.7819 25.0429 10.7017 25.0975 10.6127 25.072C10.7017 25.0975 10.7915 25.1204 10.8823 25.1407L11.0197 25.1689C11.0664 25.1803 11.1113 25.1812 11.158 25.1865C11.0364 25.0447 10.9334 24.9486 10.8453 24.9231H10.8462Z" fill="#0D808A"/>
<path d="M11.2849 24.6378C11.2655 24.8739 11.2214 25.0615 11.1589 25.1866C11.2514 25.1963 11.3448 25.206 11.439 25.2104C11.5342 25.2183 11.6266 25.2139 11.7209 25.2113C11.5491 24.9717 11.4073 24.784 11.2849 24.6378Z" fill="#0D808A"/>
<path d="M11.6892 24.3429C11.7103 24.5138 11.7217 24.6671 11.727 24.8124C11.7323 24.9569 11.7297 25.0908 11.7209 25.2123C11.8142 25.2079 11.9111 25.2079 12.0054 25.1982C12.0988 25.1877 12.1921 25.1736 12.2873 25.1603L11.6892 24.3438V24.3429Z" fill="#0D808A"/>
<path d="M12.0618 24.0354C12.171 24.4459 12.2468 24.8256 12.2873 25.1594C12.3833 25.148 12.4767 25.1304 12.5692 25.1066C12.6625 25.0854 12.7559 25.0625 12.8493 25.0379C12.5524 24.6758 12.2908 24.3393 12.0626 24.0345L12.0618 24.0354Z" fill="#0D808A"/>
<path d="M12.4097 23.719C12.5912 24.1815 12.7383 24.6254 12.8493 25.0385C12.9409 25.0121 13.0316 24.9804 13.1224 24.9496C13.214 24.9187 13.3065 24.8879 13.3937 24.8483C13.0343 24.4589 12.7031 24.0757 12.4097 23.7199V23.719Z" fill="#0D808A"/>
<path d="M12.7348 23.3941C12.9894 23.8927 13.2096 24.3798 13.3937 24.8475C13.4826 24.8106 13.5707 24.7709 13.6588 24.7304C13.7496 24.6925 13.8315 24.6441 13.9169 24.5983C13.4888 24.186 13.0977 23.7879 12.7348 23.3941Z" fill="#0D808A"/>
<path d="M13.0387 23.0594C13.2034 23.3211 13.3567 23.5783 13.5038 23.8355C13.65 24.0918 13.7874 24.3464 13.916 24.5983C14.0006 24.5516 14.0869 24.5067 14.1697 24.4556C14.2508 24.4037 14.3327 24.3517 14.4137 24.2971C13.9222 23.8804 13.4633 23.4655 13.0387 23.0594Z" fill="#0D808A"/>
<path d="M13.3223 22.7139C13.7214 23.246 14.0852 23.7745 14.4146 24.2977C14.4965 24.2449 14.5767 24.1894 14.6524 24.1295L14.8824 23.9507C14.3309 23.5411 13.8112 23.1271 13.3223 22.7139Z" fill="#0D808A"/>
<path d="M13.5883 22.3607C14.049 22.8849 14.4842 23.4196 14.8823 23.9498C14.959 23.8891 15.0286 23.823 15.1017 23.7578C15.173 23.6917 15.2479 23.6283 15.3148 23.5579C14.715 23.1694 14.1345 22.7651 13.5883 22.3599V22.3607Z" fill="#0D808A"/>
<path d="M13.8385 22.0006C14.3565 22.5098 14.8498 23.0304 15.3149 23.5589L15.5166 23.3475C15.5853 23.2779 15.6478 23.203 15.7095 23.1281C15.0638 22.767 14.4402 22.3908 13.8385 22.0006Z" fill="#0D808A"/>
<path d="M14.0728 21.6331C14.641 22.1167 15.188 22.6161 15.7104 23.1279L15.8953 22.9007C15.9544 22.8231 16.0098 22.743 16.0671 22.6628C15.3818 22.336 14.7176 21.9934 14.0728 21.6322V21.6331Z" fill="#0D808A"/>
<path d="M14.2878 21.257C14.9044 21.7097 15.4937 22.1766 16.0671 22.6637C16.1226 22.5836 16.1816 22.5052 16.2318 22.4206L16.3842 22.1695C15.669 21.8859 14.9695 21.5811 14.2886 21.257H14.2878Z" fill="#0D808A"/>
<path d="M14.4851 20.8749C15.1334 21.2845 15.7703 21.7188 16.3834 22.1698C16.4354 22.087 16.4794 21.9989 16.5243 21.9117L16.6573 21.6492C15.9218 21.4149 15.196 21.1559 14.486 20.8749H14.4851Z" fill="#0D808A"/>
<path d="M14.6692 20.4811C15.3404 20.8485 16.0037 21.2378 16.6573 21.6483L16.7727 21.3823C16.8106 21.2933 16.8485 21.2043 16.8793 21.1136C16.1411 20.9269 15.4003 20.7155 14.6692 20.4811Z" fill="#0D808A"/>
<path d="M14.8409 20.075C15.5236 20.3983 16.2045 20.7444 16.8793 21.1126L16.9753 20.8405C17.0079 20.7497 17.0308 20.6572 17.0581 20.5647C16.3182 20.4238 15.5826 20.2617 14.8409 20.0741V20.075Z" fill="#0D808A"/>
<path d="M14.9995 19.6602C15.6866 19.9403 16.3702 20.2416 17.0581 20.5666C17.0837 20.4741 17.1119 20.3825 17.133 20.29L17.1947 20.0108C16.4679 19.9165 15.735 19.8003 15.0004 19.6611L14.9995 19.6602Z" fill="#0D808A"/>
<path d="M15.1457 19.2336C15.8231 19.4705 16.5076 19.7295 17.1938 20.0096C17.236 19.8238 17.2581 19.6353 17.2871 19.4485C16.5833 19.3983 15.8689 19.327 15.1457 19.2336Z" fill="#0D808A"/>
<path d="M15.2831 18.7986C15.9376 18.995 16.6089 19.2117 17.2871 19.4487C17.2986 19.3553 17.3065 19.261 17.3153 19.1677C17.3232 19.0743 17.3329 18.9809 17.3356 18.8867C16.6714 18.877 15.9826 18.8479 15.2831 18.7986Z" fill="#0D808A"/>
<path d="M15.4126 18.3536C16.0345 18.513 16.6767 18.6901 17.3356 18.8874L17.3444 18.6073C17.3488 18.5139 17.3435 18.4206 17.3417 18.3281C16.7207 18.3545 16.0794 18.3642 15.4117 18.3545L15.4126 18.3536Z" fill="#0D808A"/>
<path d="M15.5351 17.8982C16.1138 18.0251 16.7172 18.1669 17.3426 18.3272C17.3408 18.1414 17.3285 17.9564 17.31 17.7723C16.7463 17.8287 16.1526 17.8718 15.5351 17.8982Z" fill="#0D808A"/>
<path d="M15.6487 17.4331C16.1746 17.5335 16.7296 17.6454 17.3092 17.7722C17.296 17.5881 17.2651 17.4058 17.2378 17.2252C16.741 17.3063 16.209 17.3759 15.6478 17.4331H15.6487Z" fill="#0D808A"/>
<path d="M15.7588 16.9576C16.216 17.0368 16.7137 17.1249 17.2387 17.2253C17.2246 17.1346 17.2061 17.0448 17.1867 16.9549C17.1673 16.8651 17.1506 16.7761 17.1277 16.6871C16.7128 16.7849 16.2521 16.8765 15.7588 16.9576Z" fill="#0D808A"/>
<path d="M15.8672 16.4714L17.1277 16.6873C17.081 16.5102 17.0378 16.334 16.9762 16.1614C16.6547 16.2688 16.2829 16.3737 15.8672 16.4714Z" fill="#0D808A"/>
<path d="M15.9755 15.9744C16.2609 16.0343 16.5965 16.0959 16.9762 16.1611C16.9471 16.0748 16.9189 15.9885 16.889 15.903C16.8564 15.8176 16.822 15.733 16.7886 15.6484C16.5692 15.7568 16.2997 15.8669 15.9755 15.9744Z" fill="#0D808A"/>
<path d="M16.0874 15.4654C16.2671 15.5289 16.5014 15.5888 16.7886 15.6487C16.7208 15.4804 16.6424 15.3148 16.5587 15.1519C16.4627 15.2514 16.3023 15.3571 16.0874 15.4654Z" fill="#0D808A"/>
<path d="M16.2072 14.9429C16.2592 15.0204 16.3816 15.0882 16.5595 15.1517C16.5208 15.0697 16.4723 14.9905 16.4265 14.9103C16.3798 14.831 16.3305 14.7526 16.2785 14.6751C16.3296 14.7526 16.3014 14.8442 16.2072 14.9429Z" fill="#0D808A"/>
<path d="M11.1721 22.8469C11.2626 22.8469 11.336 22.7736 11.336 22.6831C11.336 22.5926 11.2626 22.5192 11.1721 22.5192C11.0816 22.5192 11.0083 22.5926 11.0083 22.6831C11.0083 22.7736 11.0816 22.8469 11.1721 22.8469Z" fill="#0D808A"/>
<path d="M11.8636 22.0254C12.0144 22.0254 12.1366 21.9032 12.1366 21.7524C12.1366 21.6016 12.0144 21.4793 11.8636 21.4793C11.7128 21.4793 11.5905 21.6016 11.5905 21.7524C11.5905 21.9032 11.7128 22.0254 11.8636 22.0254Z" fill="#0D808A"/>
<path d="M12.4335 21.0834C12.245 21.0834 12.0926 20.931 12.0926 20.7425C12.0926 20.554 12.245 20.4016 12.4335 20.4016C12.622 20.4016 12.7744 20.554 12.7744 20.7425C12.7744 20.931 12.622 21.0834 12.4335 21.0834Z" fill="#0D808A"/>
<path d="M12.8783 20.0487C12.6696 20.0487 12.5004 19.8796 12.5004 19.6708C12.5004 19.462 12.6696 19.2929 12.8783 19.2929C13.0871 19.2929 13.2562 19.462 13.2562 19.6708C13.2562 19.8796 13.0871 20.0487 12.8783 20.0487Z" fill="#0D808A"/>
<path d="M13.1946 18.9402C12.9823 18.9402 12.8096 18.7676 12.8096 18.5553C12.8096 18.343 12.9823 18.1703 13.1946 18.1703C13.4069 18.1703 13.5795 18.343 13.5795 18.5553C13.5795 18.7676 13.4069 18.9402 13.1946 18.9402Z" fill="#0D808A"/>
<path d="M13.3778 17.7751C13.1761 17.7751 13.0131 17.6122 13.0131 17.4105C13.0131 17.2087 13.1761 17.0458 13.3778 17.0458C13.5795 17.0458 13.7425 17.2087 13.7425 17.4105C13.7425 17.6122 13.5795 17.7751 13.3778 17.7751Z" fill="#0D808A"/>
<path d="M13.4245 16.5645C13.251 16.5645 13.1109 16.4244 13.1109 16.2509C13.1109 16.0774 13.251 15.9373 13.4245 15.9373C13.598 15.9373 13.7381 16.0774 13.7381 16.2509C13.7381 16.4244 13.598 16.5645 13.4245 16.5645Z" fill="#0D808A"/>
<path d="M13.3294 15.3246C13.2034 15.3246 13.1012 15.2225 13.1012 15.0965C13.1012 14.9705 13.2034 14.8683 13.3294 14.8683C13.4553 14.8683 13.5575 14.9705 13.5575 15.0965C13.5575 15.2225 13.4553 15.3246 13.3294 15.3246Z" fill="#0D808A"/>
<path d="M13.088 14.0567C13.1405 14.0567 13.1831 14.0141 13.1831 13.9615C13.1831 13.909 13.1405 13.8664 13.088 13.8664C13.0354 13.8664 12.9928 13.909 12.9928 13.9615C12.9928 14.0141 13.0354 14.0567 13.088 14.0567Z" fill="#0D808A"/>
<path d="M14.8321 15.566C14.7405 15.566 14.6665 15.492 14.6665 15.4003C14.6665 15.3087 14.7405 15.2347 14.8321 15.2347C14.9237 15.2347 14.9977 15.3087 14.9977 15.4003C14.9977 15.492 14.9237 15.566 14.8321 15.566Z" fill="#0D808A"/>
<path d="M14.8339 14.8804C14.6938 14.8804 14.5802 14.7667 14.5802 14.6267C14.5802 14.4866 14.6938 14.373 14.8339 14.373C14.974 14.373 15.0876 14.4866 15.0876 14.6267C15.0876 14.7667 14.974 14.8804 14.8339 14.8804Z" fill="#0D808A"/>
<path d="M14.7388 14.1478C14.5793 14.1478 14.4507 14.0192 14.4507 13.8598C14.4507 13.7003 14.5793 13.5717 14.7388 13.5717C14.8982 13.5717 15.0268 13.7003 15.0268 13.8598C15.0268 14.0192 14.8982 14.1478 14.7388 14.1478Z" fill="#0D808A"/>
<path d="M14.5485 13.3873C14.3952 13.3873 14.271 13.2631 14.271 13.1098C14.271 12.9565 14.3952 12.8323 14.5485 12.8323C14.7017 12.8323 14.826 12.9565 14.826 13.1098C14.826 13.2631 14.7017 13.3873 14.5485 13.3873Z" fill="#0D808A"/>
<path d="M14.2666 12.6068C14.1468 12.6068 14.0499 12.5099 14.0499 12.3901C14.0499 12.2703 14.1468 12.1734 14.2666 12.1734C14.3864 12.1734 14.4833 12.2703 14.4833 12.3901C14.4833 12.5099 14.3864 12.6068 14.2666 12.6068Z" fill="#0D808A"/>
<path d="M13.8958 11.806C13.8438 11.806 13.8024 11.7637 13.8024 11.7126C13.8024 11.6615 13.8447 11.6193 13.8958 11.6193C13.9469 11.6193 13.9891 11.6615 13.9891 11.7126C13.9891 11.7637 13.9469 11.806 13.8958 11.806Z" fill="#0D808A"/>
<path d="M8.41497 15.7306C7.84417 15.7306 7.37994 15.2664 7.37994 14.6956C7.37994 14.1248 7.84417 13.6606 8.41497 13.6606C8.98578 13.6606 9.45 14.1248 9.45 14.6956C9.45 15.2664 8.98578 15.7306 8.41497 15.7306ZM8.41497 13.8526C7.95075 13.8526 7.57286 14.2305 7.57286 14.6947C7.57286 15.159 7.95075 15.5368 8.41497 15.5368C8.87919 15.5368 9.25709 15.159 9.25709 14.6947C9.25709 14.2305 8.87919 13.8526 8.41497 13.8526Z" fill="#0D808A"/>
<path d="M8.09168 15.3524C8.43174 15.3524 8.70741 15.0767 8.70741 14.7366C8.70741 14.3966 8.43174 14.1209 8.09168 14.1209C7.75162 14.1209 7.47595 14.3966 7.47595 14.7366C7.47595 15.0767 7.75162 15.3524 8.09168 15.3524Z" fill="#0D808A"/>
<path d="M3.5226 13.0992C3.845 13.2595 4.09252 13.5528 4.25813 13.8761C4.42373 14.202 4.51182 14.5632 4.53384 14.9226C4.55586 15.2811 4.51534 15.6361 4.43342 15.9735C4.34886 16.3117 4.22906 16.6341 4.052 16.9442C3.99122 16.5918 3.98682 16.2509 3.98065 15.9206C3.97624 15.5903 3.9736 15.2705 3.9551 14.9569C3.93572 14.646 3.89873 14.3377 3.83179 14.032C3.76484 13.7246 3.66794 13.4233 3.5226 13.0974V13.0992Z" fill="#0D808A"/>
<path d="M4.75406 12.9238C5.02713 13.0506 5.24294 13.2876 5.39974 13.5474C5.55653 13.8099 5.65607 14.1033 5.70981 14.4001C5.76266 14.6978 5.76795 15.0035 5.72567 15.3004C5.67986 15.5963 5.59089 15.8905 5.42705 16.1407C5.43586 15.843 5.4385 15.5629 5.42264 15.2854C5.40766 15.0079 5.37683 14.7348 5.33014 14.4671C5.28258 14.1984 5.21828 13.9341 5.12755 13.6778C5.0377 13.4197 4.91966 13.1722 4.75494 12.9238H4.75406Z" fill="#0D808A"/>
<path d="M11.6892 6.19568C11.7033 6.4758 11.6583 6.7524 11.5632 7.01666C11.4672 7.28004 11.3183 7.52316 11.1043 7.70021C10.9704 7.8112 10.8118 7.89489 10.6268 7.94245C10.4454 7.98914 10.2437 7.99707 10.0278 7.95919C9.35926 7.83851 8.89856 7.34787 8.63782 6.76913C8.37268 6.18776 8.30309 5.51565 8.3119 4.97303C8.3119 4.71581 8.28899 4.31765 8.28371 3.92919C8.28018 3.53544 8.31806 3.15402 8.34185 2.90649C8.41056 3.15138 8.6017 3.46497 8.84571 3.71338C8.97343 3.83758 9.09763 3.95209 9.22888 4.04282C9.35309 4.13532 9.47729 4.20755 9.58035 4.25423C10.0463 4.4674 10.5766 4.67353 10.9809 4.95365C11.3879 5.23905 11.661 5.59404 11.6892 6.19392V6.19568ZM10.234 5.91116C10.1371 5.88649 9.99878 5.82571 9.86577 5.75084C9.72923 5.67861 9.60237 5.58876 9.52486 5.51741C9.57154 5.61254 9.62176 5.76141 9.67109 5.9094C9.71689 6.06003 9.75918 6.21066 9.7768 6.31196C9.81027 6.52689 9.86928 6.78322 9.98996 7.00168C10.0525 7.10915 10.1265 7.20869 10.2208 7.28356C10.3168 7.35755 10.4286 7.41129 10.5581 7.42891C10.729 7.44917 10.8788 7.40336 10.9933 7.31615C11.1774 7.17697 11.276 6.93297 11.2496 6.69073C11.2223 6.42559 11.0823 6.26615 10.8885 6.15164C10.6964 6.03713 10.4498 5.97018 10.234 5.91116Z" fill="#0D808A"/>
<path d="M24.9428 18.7512C24.8547 18.7512 24.7834 18.6798 24.7834 18.5918C24.7834 18.5037 24.8547 18.4323 24.9428 18.4323C25.0309 18.4323 25.1022 18.5037 25.1022 18.5918C25.1022 18.6798 25.0309 18.7512 24.9428 18.7512Z" fill="#0D808A"/>
<path d="M25.3965 19.926C25.5444 19.926 25.6643 19.8061 25.6643 19.6582C25.6643 19.5103 25.5444 19.3904 25.3965 19.3904C25.2486 19.3904 25.1287 19.5103 25.1287 19.6582C25.1287 19.8061 25.2486 19.926 25.3965 19.926Z" fill="#0D808A"/>
<path d="M26.0078 20.9804C25.8219 20.9804 25.6713 20.8298 25.6713 20.6439C25.6713 20.4581 25.8219 20.3074 26.0078 20.3074C26.1937 20.3074 26.3443 20.4581 26.3443 20.6439C26.3443 20.8298 26.1937 20.9804 26.0078 20.9804Z" fill="#0D808A"/>
<path d="M26.7618 21.8993C26.5548 21.8993 26.3875 21.7311 26.3875 21.5241C26.3875 21.3171 26.5548 21.1488 26.7618 21.1488C26.9688 21.1488 27.1371 21.3171 27.1371 21.5241C27.1371 21.7311 26.9697 21.8993 26.7618 21.8993Z" fill="#0D808A"/>
<path d="M27.6435 22.6621C27.4304 22.6621 27.2577 22.4895 27.2577 22.2763C27.2577 22.0632 27.4304 21.8905 27.6435 21.8905C27.8567 21.8905 28.0294 22.0632 28.0294 22.2763C28.0294 22.4895 27.8567 22.6621 27.6435 22.6621Z" fill="#0D808A"/>
<path d="M28.6345 23.2488C28.4293 23.2488 28.2637 23.0823 28.2637 22.8779C28.2637 22.6736 28.4302 22.5071 28.6345 22.5071C28.8389 22.5071 29.0054 22.6736 29.0054 22.8779C29.0054 23.0823 28.8389 23.2488 28.6345 23.2488Z" fill="#0D808A"/>
<path d="M29.7066 23.6449C29.8871 23.6449 30.0334 23.4986 30.0334 23.3181C30.0334 23.1376 29.8871 22.9913 29.7066 22.9913C29.5261 22.9913 29.3798 23.1376 29.3798 23.3181C29.3798 23.4986 29.5261 23.6449 29.7066 23.6449Z" fill="#0D808A"/>
<path d="M30.8332 23.8426C30.6949 23.8426 30.5822 23.7308 30.5822 23.5925C30.5822 23.4542 30.694 23.3423 30.8332 23.3423C30.9724 23.3423 31.0834 23.4542 31.0834 23.5925C31.0834 23.7308 30.9715 23.8426 30.8332 23.8426Z" fill="#0D808A"/>
<path d="M31.988 23.824C31.914 23.824 31.8532 23.7641 31.8532 23.6892C31.8532 23.6143 31.9131 23.5544 31.988 23.5544C32.0629 23.5544 32.1228 23.6143 32.1228 23.6892C32.1228 23.7641 32.0629 23.824 31.988 23.824Z" fill="#0D808A"/>
<path d="M28.9121 7.80782C29.0186 7.9514 29.1578 8.09234 29.3305 8.21214C29.8502 8.57506 30.6527 8.32313 30.6527 8.32313C30.6527 8.32313 30.6121 7.48366 30.0924 7.12074C29.9198 7.00006 29.7401 6.91814 29.5683 6.86793C29.7119 6.76134 29.8528 6.62216 29.9726 6.44951C30.3355 5.9298 30.0836 5.12732 30.0836 5.12732C30.0836 5.12732 29.2441 5.16784 28.8812 5.68755C28.7605 5.86021 28.6786 6.03991 28.6284 6.21168C28.5218 6.06809 28.3826 5.92715 28.21 5.80735C27.6903 5.44443 26.8878 5.69636 26.8878 5.69636C26.8878 5.69636 26.9283 6.53584 27.448 6.89876C27.6207 7.01944 27.8004 7.10136 27.9722 7.15157C27.8286 7.25815 27.6876 7.39733 27.5678 7.56998C27.2049 8.0897 27.4568 8.89218 27.4568 8.89218C27.4568 8.89218 28.2963 8.85166 28.6592 8.33194C28.7799 8.15929 28.8618 7.97959 28.9121 7.80782ZM30.0915 7.79285C30.1435 7.82896 30.1567 7.90031 30.1197 7.95228C30.0836 8.00426 30.0123 8.01747 29.9603 7.98047C29.9083 7.94436 29.8951 7.873 29.9321 7.82103C29.9682 7.76906 30.0396 7.75585 30.0915 7.79285ZM29.5903 5.90337C29.5383 5.86725 29.5251 5.7959 29.5621 5.74393C29.5982 5.69196 29.6696 5.67875 29.7216 5.71574C29.7735 5.75186 29.7868 5.82321 29.7498 5.87518C29.7136 5.92715 29.6423 5.94037 29.5903 5.90337ZM27.5123 6.27334C27.4604 6.23722 27.448 6.16587 27.4842 6.1139C27.5203 6.06193 27.5916 6.04871 27.6436 6.08571C27.6955 6.12183 27.7088 6.19318 27.6718 6.24515C27.6357 6.29712 27.5643 6.31033 27.5123 6.27334ZM28.7693 7.01063C28.4064 7.07493 28.0321 6.78865 27.7722 6.31474C28.3069 6.39578 28.705 6.64771 28.7693 7.01063C28.705 6.64771 28.9913 6.27334 29.4652 6.01348C29.3842 6.54817 29.1323 6.94633 28.7693 7.01063C29.1323 6.94633 29.5066 7.23261 29.7665 7.70652C29.2318 7.62548 28.8336 7.37355 28.7693 7.01063C28.8336 7.37355 28.5474 7.74792 28.0735 8.00778C28.1545 7.47309 28.4064 7.07493 28.7693 7.01063ZM27.8823 8.35044C27.8303 8.31432 27.818 8.24297 27.8541 8.191C27.8902 8.13903 27.9616 8.12581 28.0136 8.16281C28.0655 8.19893 28.0787 8.27028 28.0417 8.32225C28.0056 8.37422 27.9343 8.38743 27.8823 8.35044Z" fill="#0D808A"/>
<path d="M23.8347 26.3766C23.869 26.1361 23.8549 25.8771 23.788 25.6595C23.7166 25.4358 23.5906 25.2526 23.4233 25.1213C23.2682 24.9989 23.1 24.9275 22.9476 24.88C22.8727 24.8571 22.7996 24.8394 22.7274 24.8227C22.6552 24.806 22.5953 24.8007 22.5318 24.7919C22.6146 24.8341 22.6974 24.8685 22.7952 24.9099C22.8921 24.9495 23.0005 24.9918 23.1115 25.0279C22.9908 25.0359 22.8551 25.0174 22.7274 24.9795C22.5917 24.9346 22.4684 24.8773 22.3416 24.7839C22.5715 24.9804 22.8498 25.1698 23.1573 25.3944C22.9908 25.3424 22.8375 25.2702 22.6922 25.1706C22.5442 25.0685 22.4112 24.946 22.2878 24.8077C22.5204 25.087 22.7662 25.3909 22.9767 25.7256C22.6851 25.4807 22.4437 25.1583 22.2341 24.8333C22.3319 25.0042 22.4226 25.1786 22.4975 25.3609L23.6893 27.4213C23.6735 27.2812 23.7096 27.0998 23.7439 26.9121C23.7756 26.7192 23.8179 26.5369 23.8329 26.3774L23.8347 26.3766Z" fill="#0D808A"/>
<path d="M24.9102 24.5259C25.03 24.4308 25.1903 24.3013 25.3348 24.1745C25.4793 24.0485 25.6272 23.9261 25.7576 23.875C25.7532 23.8723 25.7479 23.8697 25.7435 23.8679H23.3634C23.551 23.8935 23.7369 23.9331 23.9175 23.9948C23.522 23.9851 23.1353 23.934 22.7723 23.8961C22.9529 23.9261 23.1291 23.9736 23.2973 24.0397C23.4577 24.1049 23.6109 24.1894 23.751 24.2934C23.3951 24.1657 23.0665 24.0503 22.7688 23.9745C22.9159 24.0274 23.0463 24.0952 23.1687 24.1789C23.2815 24.2599 23.3845 24.3568 23.4647 24.459C23.2295 24.3048 23.0163 24.1877 22.8278 24.1022C22.8604 24.1542 22.8992 24.2088 22.9547 24.2696C23.004 24.3286 23.0595 24.3903 23.1264 24.4546C23.2612 24.5823 23.4119 24.7109 23.6145 24.7937C23.8118 24.8739 24.0381 24.895 24.261 24.843C24.4918 24.7955 24.7103 24.6757 24.9102 24.5277V24.5259Z" fill="#0D808A"/>
<path d="M23.7677 25.0987C23.9148 25.244 24.0355 25.4396 24.0936 25.6501C24.1245 25.7558 24.1483 25.8703 24.1571 25.9831C24.165 26.0941 24.1641 26.2086 24.1571 26.3196C24.1544 26.405 24.1368 26.5301 24.1209 26.6737C24.5217 26.5847 24.9463 26.2667 25.178 25.8236C25.3912 25.4272 25.4361 24.9604 25.3374 24.6001C25.2123 24.6944 25.0908 24.7789 25.0168 24.83C24.9305 24.8934 24.8265 24.9489 24.7243 24.9965C24.6213 25.0441 24.52 25.0846 24.4072 25.1075C24.187 25.1568 23.9738 25.1586 23.7668 25.0987H23.7677Z" fill="#0D808A"/>
<path d="M20.5631 27.0261C20.675 26.9839 20.7877 26.9204 20.889 26.8544C20.9903 26.7892 21.0828 26.7134 21.1612 26.6245C21.3189 26.4518 21.4131 26.2571 21.4431 26.0422C21.4713 25.8458 21.4475 25.6696 21.414 25.5093C21.3964 25.43 21.3753 25.3569 21.3532 25.2926C21.3312 25.2247 21.3083 25.1587 21.2845 25.1058C21.2907 25.193 21.2995 25.2899 21.3127 25.3956C21.3268 25.4987 21.3462 25.6062 21.3691 25.7251C21.2317 25.526 21.1665 25.2353 21.1973 24.9394C21.1445 25.2274 21.1128 25.5797 21.0758 25.9462C21.0344 25.7868 21.0247 25.6062 21.0379 25.4326C21.0502 25.2609 21.0916 25.0794 21.1515 24.9023C21.0238 25.2459 20.8829 25.6106 20.6988 25.9585C20.7692 25.5762 20.9234 25.2168 21.1013 24.8715C21.0018 25.0433 20.8961 25.2054 20.7772 25.3613L19.5853 27.4217C19.6963 27.3424 19.8743 27.2781 20.0548 27.2138C20.2336 27.1556 20.4204 27.0843 20.5622 27.0261H20.5631Z" fill="#0D808A"/>
<path d="M22.7019 27.0287C22.8464 27.0886 23.0375 27.1617 23.219 27.2216C23.4031 27.2868 23.5828 27.3537 23.6911 27.4356C23.6911 27.4303 23.6911 27.4251 23.6911 27.4198L22.4993 25.3594C22.5733 25.5373 22.6332 25.7206 22.6684 25.9047C22.479 25.5567 22.331 25.1973 22.1804 24.8652C22.309 25.2053 22.3689 25.5682 22.3249 25.9064C22.2571 25.5329 22.1972 25.2 22.1108 24.8969C22.1698 25.207 22.1373 25.4995 22.0395 25.7435C22.0536 25.4572 22.0527 25.2264 22.0307 25.0123C21.9752 25.1207 21.9214 25.2731 21.8748 25.4466C21.8316 25.6263 21.7955 25.8271 21.8245 26.0403C21.8536 26.2553 21.9479 26.4517 22.1047 26.6243C22.1434 26.6675 22.1866 26.7098 22.2324 26.7494C22.2773 26.7864 22.3258 26.8217 22.3769 26.8551C22.4773 26.9203 22.5909 26.9864 22.7028 27.0278L22.7019 27.0287Z" fill="#0D808A"/>
<path d="M21.6361 26.3295C21.5841 26.5312 21.4757 26.7206 21.3225 26.8879C21.1709 27.043 20.9736 27.1857 20.7746 27.2738C20.7006 27.3081 20.5781 27.3715 20.4486 27.4217C20.7296 27.7221 21.2194 27.9283 21.7144 27.9098C22.161 27.9036 22.5892 27.7028 22.8517 27.4367C22.7098 27.3812 22.5742 27.3125 22.4923 27.2746C22.2949 27.1866 22.0985 27.043 21.9479 26.8888C21.7955 26.7206 21.6871 26.5321 21.6352 26.3303L21.6361 26.3295Z" fill="#0D808A"/>
<path d="M18.3644 24.5136C18.5635 24.6625 18.782 24.784 19.0128 24.8316C19.2356 24.8836 19.4611 24.8651 19.6593 24.7849C19.8443 24.7109 19.9844 24.6026 20.1042 24.4951C20.2275 24.3841 20.3138 24.2784 20.3913 24.1806C20.2398 24.2793 20.0777 24.4044 19.8954 24.5638C19.9535 24.4537 20.0275 24.3498 20.1324 24.2564C20.2293 24.1648 20.3561 24.0837 20.4935 24.0221C20.3552 24.0723 20.2037 24.1331 20.046 24.2018C19.8848 24.274 19.7227 24.3471 19.558 24.4202C19.6197 24.3621 19.6857 24.3084 19.7545 24.2608C19.8267 24.2123 19.9051 24.1683 19.9844 24.1313C20.1447 24.0555 20.3121 24.0018 20.4988 23.9639C20.135 24.0256 19.7527 24.0855 19.3563 24.0996C19.7245 23.9692 20.1147 23.9225 20.5032 23.904C20.3059 23.904 20.1086 23.8935 19.9121 23.8679H17.532C17.6615 23.9243 17.806 24.0459 17.9478 24.1692C18.0887 24.2943 18.2455 24.4202 18.3636 24.5145L18.3644 24.5136Z" fill="#0D808A"/>
<path d="M19.433 26.3691C19.4471 26.5303 19.4893 26.7188 19.5219 26.9144C19.5563 27.1064 19.5924 27.2896 19.5721 27.4288C19.5765 27.4262 19.581 27.4235 19.5854 27.4209L20.7772 25.3605C20.6609 25.5111 20.5323 25.653 20.3878 25.7798C20.594 25.4424 20.8327 25.1332 21.0476 24.8355C20.9305 24.9782 20.7992 25.1103 20.6627 25.216C20.5244 25.3235 20.3693 25.4195 20.2152 25.4821C20.4979 25.2451 20.7684 25.0126 20.9833 24.7941C20.8661 24.8919 20.7331 24.9808 20.6063 25.0363C20.5411 25.0654 20.475 25.091 20.4081 25.1112C20.342 25.1306 20.2795 25.142 20.2143 25.1517C20.3403 25.0883 20.4521 25.0284 20.557 24.9659C20.6627 24.9024 20.7578 24.8408 20.8424 24.7809C20.7182 24.787 20.5622 24.8135 20.3852 24.8628C20.2134 24.9104 20.017 24.9844 19.847 25.1165C19.6787 25.2469 19.5545 25.4292 19.4805 25.653C19.4136 25.8696 19.3977 26.1286 19.4321 26.3691H19.433Z" fill="#0D808A"/>
<path d="M19.5061 25.0951C19.2991 25.155 19.0859 25.1533 18.8648 25.103C18.752 25.0793 18.6516 25.0379 18.5477 24.9903C18.4446 24.9418 18.3424 24.8855 18.2552 24.822C18.1874 24.7754 18.0799 24.6987 17.9637 24.6133C17.8456 25.0062 17.9108 25.5338 18.1768 25.9557C18.4129 26.3372 18.7864 26.6146 19.1537 26.7027C19.137 26.5459 19.1167 26.4067 19.1141 26.3125C19.107 26.2015 19.107 26.0888 19.1141 25.9778C19.1238 25.865 19.1476 25.7514 19.1784 25.6457C19.2374 25.436 19.3581 25.2405 19.5052 25.096L19.5061 25.0951Z" fill="#0D808A"/>
<path d="M19.4418 21.3575C19.4074 21.598 19.4215 21.857 19.4885 22.0746C19.5598 22.2983 19.6858 22.4815 19.8531 22.6128C20.0082 22.7352 20.1764 22.8066 20.3288 22.8541C20.4037 22.877 20.4768 22.8946 20.549 22.9114C20.6213 22.9281 20.6812 22.9334 20.7446 22.9422C20.6618 22.8999 20.579 22.8656 20.4812 22.8242C20.3843 22.7845 20.276 22.7423 20.165 22.7061C20.2857 22.6982 20.4213 22.7167 20.549 22.7546C20.6847 22.7995 20.808 22.8568 20.9349 22.9501C20.705 22.7537 20.4266 22.5643 20.1192 22.3397C20.2857 22.3917 20.4389 22.4639 20.5843 22.5634C20.7323 22.6656 20.8653 22.7881 20.9886 22.9264C20.756 22.6471 20.5103 22.3432 20.2998 22.0085C20.5913 22.2534 20.8327 22.5758 21.0423 22.9008C20.9445 22.7299 20.8538 22.5555 20.7789 22.3732L19.5871 20.3128C19.603 20.4529 19.5669 20.6343 19.5325 20.8219C19.5008 21.0149 19.4585 21.1972 19.4435 21.3566L19.4418 21.3575Z" fill="#0D808A"/>
<path d="M18.3662 23.2082C18.2464 23.3033 18.0861 23.4328 17.9416 23.5596C17.7972 23.6856 17.6492 23.808 17.5188 23.8591C17.5232 23.8618 17.5285 23.8644 17.5329 23.8662H19.913C19.7254 23.8406 19.5395 23.801 19.3589 23.7393C19.7545 23.749 20.1412 23.8001 20.5041 23.838C20.3235 23.808 20.1473 23.7605 19.9791 23.6944C19.8188 23.6292 19.6655 23.5447 19.5254 23.4407C19.8813 23.5684 20.2099 23.6838 20.5076 23.7596C20.3605 23.7067 20.2301 23.6389 20.1077 23.5552C19.9949 23.4742 19.8919 23.3773 19.8117 23.2751C20.0469 23.4293 20.2601 23.5464 20.4486 23.6319C20.416 23.5799 20.3764 23.5253 20.3217 23.4645C20.2724 23.4055 20.2169 23.3438 20.15 23.2795C20.0152 23.1518 19.8646 23.0232 19.662 22.9404C19.4647 22.8602 19.2383 22.8391 19.0154 22.891C18.7846 22.9386 18.5662 23.0584 18.3662 23.2064V23.2082Z" fill="#0D808A"/>
<path d="M19.5087 22.6356C19.3607 22.4903 19.2409 22.2947 19.1828 22.0842C19.152 21.9785 19.1282 21.864 19.1194 21.7512C19.1115 21.6402 19.1123 21.5257 19.1194 21.4147C19.122 21.3293 19.1396 21.2042 19.1555 21.0606C18.7547 21.1496 18.3301 21.4676 18.0985 21.9106C17.8853 22.307 17.8404 22.7739 17.939 23.1342C18.0641 23.0399 18.1857 22.9554 18.2597 22.9043C18.346 22.8409 18.4499 22.7854 18.5521 22.7378C18.6552 22.6902 18.7565 22.6497 18.8692 22.6268C19.0894 22.5775 19.3026 22.5757 19.5096 22.6356H19.5087Z" fill="#0D808A"/>
<path d="M22.7133 20.7099C22.6015 20.7522 22.4887 20.8156 22.3874 20.8817C22.2861 20.9469 22.1936 21.0226 22.1152 21.1116C21.9575 21.2842 21.8633 21.4789 21.8333 21.6938C21.8052 21.8903 21.8289 22.0665 21.8624 22.2268C21.88 22.3061 21.9012 22.3792 21.9232 22.4435C21.9452 22.5113 21.9681 22.5774 21.9919 22.6302C21.9857 22.543 21.9769 22.4461 21.9637 22.3404C21.9496 22.2373 21.9302 22.1299 21.9073 22.011C22.0447 22.21 22.1099 22.5007 22.0791 22.7967C22.1319 22.5087 22.1637 22.1563 22.2007 21.7899C22.2421 21.9493 22.2518 22.1299 22.2385 22.3034C22.2262 22.4752 22.1848 22.6566 22.1249 22.8337C22.2526 22.4902 22.3936 22.1255 22.5777 21.7775C22.5072 22.1598 22.3531 22.5192 22.1751 22.8645C22.2747 22.6928 22.3804 22.5307 22.4993 22.3748L23.6911 20.3144C23.5801 20.3937 23.4022 20.458 23.2216 20.5223C23.0428 20.5804 22.856 20.6518 22.7142 20.7099H22.7133Z" fill="#0D808A"/>
<path d="M20.5745 20.7055C20.4301 20.6456 20.2389 20.5725 20.0575 20.5126C19.8734 20.4475 19.6937 20.3805 19.5853 20.2986C19.5853 20.3039 19.5853 20.3092 19.5853 20.3144L20.7772 22.3748C20.7032 22.1969 20.6433 22.0136 20.608 21.8295C20.7974 22.1775 20.9454 22.5369 21.096 22.869C20.9674 22.529 20.9075 22.166 20.9516 21.8278C21.0194 22.2004 21.0793 22.5342 21.1656 22.8373C21.1066 22.5272 21.1392 22.2347 21.237 21.9907C21.2229 22.277 21.2238 22.5078 21.2458 22.7219C21.3013 22.6135 21.355 22.4611 21.4017 22.2876C21.4457 22.1079 21.481 21.9071 21.4519 21.6939C21.4228 21.479 21.3286 21.2825 21.1718 21.1099C21.133 21.0667 21.0899 21.0244 21.0441 20.9848C20.9991 20.9478 20.9507 20.9126 20.8996 20.8791C20.7992 20.8139 20.6855 20.7478 20.5737 20.7064L20.5745 20.7055Z" fill="#0D808A"/>
<path d="M21.6404 21.4049C21.6924 21.2032 21.8007 21.0138 21.954 20.8465C22.1055 20.6914 22.3028 20.5487 22.5019 20.4606C22.5759 20.4263 22.6984 20.3629 22.8278 20.3126C22.5468 20.0123 22.0571 19.8061 21.562 19.8246C21.1154 19.8308 20.6873 20.0316 20.4248 20.2977C20.5666 20.3532 20.7023 20.4219 20.7842 20.4598C20.9815 20.5478 21.178 20.6914 21.3286 20.8456C21.481 21.0138 21.5893 21.2023 21.6413 21.404L21.6404 21.4049Z" fill="#0D808A"/>
<path d="M24.912 23.2204C24.7129 23.0716 24.4945 22.95 24.2637 22.9024C24.0408 22.8505 23.8153 22.869 23.6171 22.9491C23.4321 23.0231 23.2921 23.1315 23.1723 23.2389C23.0489 23.3499 22.9626 23.4556 22.8851 23.5534C23.0366 23.4547 23.1987 23.3297 23.381 23.1702C23.3229 23.2803 23.2489 23.3843 23.1441 23.4776C23.0472 23.5693 22.9203 23.6503 22.7829 23.712C22.9212 23.6617 23.0727 23.601 23.2304 23.5323C23.3916 23.46 23.5537 23.3869 23.7184 23.3138C23.6567 23.3719 23.5907 23.4257 23.522 23.4732C23.4497 23.5217 23.3713 23.5657 23.2921 23.6027C23.1317 23.6785 22.9644 23.7322 22.7776 23.7701C23.1414 23.7084 23.5237 23.6485 23.9201 23.6344C23.5519 23.7648 23.1617 23.8115 22.7732 23.83C22.9705 23.83 23.1679 23.8406 23.3643 23.8661H25.7444C25.6149 23.8097 25.4705 23.6882 25.3286 23.5649C25.1877 23.4398 25.0309 23.3138 24.9129 23.2196L24.912 23.2204Z" fill="#0D808A"/>
<path d="M23.8435 21.3657C23.8294 21.2045 23.7871 21.016 23.7545 20.8204C23.7202 20.6284 23.6841 20.4451 23.7043 20.306C23.6999 20.3086 23.6955 20.3113 23.6911 20.3139L22.4993 22.3743C22.6156 22.2236 22.7442 22.0818 22.8886 21.955C22.6825 22.2923 22.4438 22.6015 22.2289 22.8993C22.346 22.7566 22.4773 22.6244 22.6138 22.5187C22.7521 22.4113 22.9071 22.3152 23.0613 22.2527C22.7785 22.4897 22.5081 22.7222 22.2932 22.9407C22.4103 22.842 22.5433 22.7539 22.6702 22.6984C22.7354 22.6694 22.8014 22.6438 22.8684 22.6236C22.9344 22.6042 22.997 22.5927 23.0622 22.583C22.9362 22.6465 22.8243 22.7063 22.7195 22.7689C22.6138 22.8323 22.5187 22.894 22.4341 22.9539C22.5583 22.9477 22.7142 22.9213 22.8913 22.872C23.063 22.8244 23.2595 22.7504 23.4295 22.6183C23.5977 22.4879 23.7219 22.3056 23.7959 22.0818C23.8629 21.8651 23.8787 21.6061 23.8444 21.3657H23.8435Z" fill="#0D808A"/>
<path d="M23.7704 22.6392C23.9774 22.5793 24.1905 22.581 24.4116 22.6312C24.5244 22.655 24.6248 22.6964 24.7288 22.744C24.8318 22.7924 24.934 22.8488 25.0212 22.9122C25.089 22.9589 25.1965 23.0355 25.3128 23.121C25.4308 22.7281 25.3656 22.2005 25.0996 21.7785C24.8635 21.3971 24.49 21.1196 24.1227 21.0316C24.1395 21.1884 24.1597 21.3275 24.1624 21.4218C24.1694 21.5328 24.1694 21.6455 24.1624 21.7565C24.1527 21.8693 24.1289 21.9829 24.0981 22.0886C24.039 22.2983 23.9184 22.4938 23.7713 22.6383L23.7704 22.6392Z" fill="#0D808A"/>
<path d="M22.0509 23.8671C22.0509 24.0953 21.8659 24.2802 21.6378 24.2802C21.4096 24.2802 21.2247 24.0953 21.2247 23.8671C21.2247 23.639 21.4096 23.454 21.6378 23.454C21.8659 23.454 22.0509 23.639 22.0509 23.8671Z" fill="#0D808A"/>
<path d="M26.2148 28.2902C27.0596 28.3377 27.9026 28.2223 28.6883 27.9616C29.0803 27.8295 29.4644 27.6691 29.8 27.4577C30.1356 27.2472 30.4271 26.975 30.5822 26.6623C30.7416 26.3513 30.7407 26.0078 30.6016 25.7224C30.5355 25.5806 30.4342 25.4652 30.3232 25.385C30.2113 25.3101 30.0854 25.2679 29.948 25.2635C29.8132 25.2564 29.6775 25.2899 29.5753 25.348C29.5234 25.3762 29.482 25.4132 29.4476 25.4511C29.4142 25.4898 29.3912 25.526 29.3736 25.5744C29.3366 25.6678 29.3278 25.7858 29.3525 25.8854C29.3736 25.9875 29.4309 26.0527 29.4776 26.0836C29.7462 26.2633 29.8193 26.6271 29.6396 26.8957C29.46 27.1644 29.0962 27.2375 28.8275 27.0578C28.794 27.0358 28.7641 27.0111 28.7368 26.9838L28.6848 26.931C28.4276 26.6693 28.2928 26.3293 28.2725 26.0113C28.2479 25.6907 28.3175 25.3753 28.4787 25.0961C28.5571 24.9569 28.6689 24.8265 28.7922 24.7244C28.9156 24.6222 29.0521 24.5403 29.1948 24.4857C29.4793 24.3755 29.7779 24.3509 30.0607 24.4011C30.3426 24.4469 30.6192 24.579 30.8332 24.7719C31.0429 24.9657 31.1935 25.2053 31.2772 25.459C31.3635 25.7118 31.3882 25.9796 31.3538 26.2404C31.3177 26.5055 31.2199 26.7451 31.0825 26.9539C30.805 27.3723 30.4095 27.6436 30.0096 27.8374C29.6035 28.0312 29.1842 28.1501 28.7632 28.2399C27.9175 28.417 27.0481 28.432 26.2148 28.2884V28.2902Z" fill="#0D808A"/>
<path d="M28.7966 28.1586C29.7462 27.8688 30.5927 27.2945 31.2138 26.5528C31.5229 26.1802 31.7722 25.7565 32.0585 25.3416C32.2021 25.1337 32.3554 24.9276 32.5307 24.7338C32.706 24.5382 32.9042 24.362 33.1129 24.2044C33.3243 24.0467 33.5551 23.9057 33.8097 23.8C34.0643 23.6952 34.3444 23.623 34.636 23.6195C34.9363 23.6115 35.2385 23.6873 35.5054 23.8273C35.7723 23.9674 36.0154 24.1771 36.1819 24.4625C36.2647 24.6052 36.322 24.7681 36.3493 24.9381C36.3783 25.1064 36.3686 25.294 36.3246 25.4605C36.2356 25.7979 36.0348 26.0868 35.7608 26.2903C35.4895 26.4929 35.1213 26.6171 34.7425 26.566C34.3691 26.5149 34.0475 26.3185 33.8159 26.0551L33.8027 26.0401C33.6256 25.8393 33.6459 25.5336 33.8458 25.3565C34.0467 25.1795 34.3523 25.1989 34.5294 25.3997C34.54 25.412 34.5505 25.4253 34.5602 25.4385C34.6439 25.5556 34.7672 25.6428 34.8853 25.6701C34.9998 25.6992 35.1416 25.6754 35.2755 25.5961C35.4085 25.5169 35.5177 25.383 35.5679 25.2447C35.5935 25.1733 35.6049 25.1081 35.5988 25.0306C35.5935 24.9549 35.5767 24.8782 35.5415 24.8025C35.4023 24.4942 35.013 24.2422 34.6271 24.222C34.2167 24.1938 33.778 24.3541 33.3869 24.6008C33.1896 24.7267 33.0019 24.8668 32.8328 25.0271C32.661 25.1883 32.5025 25.368 32.3475 25.5565C32.0383 25.9335 31.7485 26.3466 31.3926 26.7122C30.6791 27.4363 29.7665 27.9437 28.7958 28.1568L28.7966 28.1586Z" fill="#0D808A"/>
<path d="M23.7175 2.9743C23.6039 3.0113 23.4903 3.02892 23.374 3.02715L24.0681 3.03861C23.951 2.99721 23.8338 2.97607 23.7175 2.9743Z" fill="#0D808A"/>
<path d="M24.4081 2.8786C24.2945 2.94995 24.1817 3.00016 24.0681 3.03892C24.1835 3.03892 24.2989 3.04773 24.4143 3.05478L24.7596 3.07592C24.6433 2.99047 24.5262 2.92441 24.409 2.8786H24.4081Z" fill="#0D808A"/>
<path d="M25.1049 2.80872C24.9877 2.91178 24.8732 3.00515 24.7596 3.0765C24.8741 3.08443 24.9886 3.08795 25.1031 3.10292L25.4458 3.13904C25.3348 3.00956 25.2203 2.89945 25.1049 2.80872Z" fill="#0D808A"/>
<path d="M25.8061 2.76559C25.6828 2.90653 25.5629 3.03426 25.4467 3.1382C25.5603 3.15141 25.6748 3.1611 25.7885 3.17608L26.1276 3.22717C26.0245 3.05364 25.9171 2.89948 25.8061 2.76471V2.76559Z" fill="#0D808A"/>
<path d="M26.5108 2.75269C26.3777 2.93062 26.2509 3.08918 26.1276 3.22836L26.4658 3.27945C26.5786 3.29883 26.6896 3.32261 26.8014 3.34464C26.7556 3.23629 26.7089 3.13234 26.6605 3.03368C26.612 2.93503 26.5618 2.83989 26.5108 2.75269Z" fill="#0D808A"/>
<path d="M27.2172 2.76941C27.0719 2.97994 26.9336 3.17197 26.8006 3.34462L27.1353 3.41069C27.2472 3.43183 27.3564 3.46266 27.4674 3.48821C27.3916 3.23011 27.3088 2.98522 27.2172 2.76941Z" fill="#0D808A"/>
<path d="M27.9254 2.81582C27.7642 3.05806 27.6118 3.28269 27.4674 3.48793L27.7977 3.56809C27.9078 3.59275 28.0162 3.62887 28.1245 3.65882C28.0673 3.35932 28.0021 3.07216 27.9254 2.81494V2.81582Z" fill="#0D808A"/>
<path d="M28.6345 2.8927L28.1245 3.65994L28.4496 3.75419C28.5579 3.78326 28.6645 3.8229 28.7711 3.85814C28.7367 3.51812 28.6918 3.19132 28.6345 2.8927Z" fill="#0D808A"/>
<path d="M29.3419 2.99905L28.7711 3.85702L29.0908 3.96537C29.1974 3.99885 29.3014 4.04377 29.4062 4.08253C29.3974 3.70375 29.3771 3.33731 29.3419 2.99817V2.99905Z" fill="#0D808A"/>
<path d="M30.0457 3.13733L29.4053 4.08339L29.7189 4.20495C29.8237 4.24283 29.925 4.29304 30.0281 4.3362C30.0483 3.92131 30.0554 3.51611 30.0466 3.13821L30.0457 3.13733Z" fill="#0D808A"/>
<path d="M30.7469 3.30676C30.4923 3.66528 30.2536 4.00882 30.0281 4.33563L30.3346 4.46952C30.4368 4.51444 30.5355 4.56642 30.6359 4.61398C30.6879 4.16386 30.7258 3.7243 30.7469 3.30676Z" fill="#0D808A"/>
<path d="M31.4419 3.50684C31.1574 3.8909 30.8887 4.25998 30.6359 4.6141L30.9354 4.75944L31.2287 4.91712C31.3168 4.43264 31.3873 3.96225 31.441 3.50684H31.4419Z" fill="#0D808A"/>
<path d="M32.129 3.73804C31.8127 4.1406 31.5115 4.53699 31.2296 4.91577C31.3265 4.96862 31.426 5.01795 31.5212 5.07432L31.8074 5.24257C31.9334 4.72814 32.04 4.22604 32.1299 3.73804H32.129Z" fill="#0D808A"/>
<path d="M32.8073 4.00094C32.4567 4.42376 32.1219 4.84041 31.8066 5.24297C31.9017 5.29847 31.9969 5.35397 32.0894 5.41475L32.3677 5.59268C32.5333 5.05006 32.6795 4.5189 32.8073 4.00006V4.00094Z" fill="#0D808A"/>
<path d="M33.4767 4.29333C33.0883 4.73641 32.7201 5.16804 32.3677 5.59351C32.4611 5.65076 32.5509 5.71507 32.6417 5.77761L32.9121 5.96524C33.1208 5.39707 33.3085 4.83948 33.4767 4.29333Z" fill="#0D808A"/>
<path d="M34.1347 4.61395C33.7058 5.07465 33.2997 5.5239 32.9121 5.96522C33.001 6.02952 33.0883 6.09646 33.1763 6.16165C33.2635 6.2286 33.3534 6.29026 33.4371 6.36073C33.6943 5.76526 33.9233 5.18652 34.1347 4.61395Z" fill="#0D808A"/>
<path d="M34.7813 4.96283C34.3109 5.43762 33.8634 5.9036 33.4371 6.36078L33.6925 6.56602C33.778 6.63296 33.8608 6.7052 33.9427 6.77655C34.2457 6.16258 34.5267 5.55566 34.7813 4.96283Z" fill="#0D808A"/>
<path d="M35.4155 5.33875C34.902 5.82499 34.4113 6.30507 33.9427 6.77633L34.1902 6.98951L34.4298 7.2106C34.7822 6.5799 35.1099 5.95536 35.4155 5.33875Z" fill="#0D808A"/>
<path d="M36.033 5.74506C35.4763 6.23658 34.9425 6.72635 34.4298 7.21083C34.5919 7.35529 34.7416 7.51297 34.8967 7.66272C35.3001 7.0188 35.678 6.37928 36.0321 5.74593L36.033 5.74506Z" fill="#0D808A"/>
<path d="M36.6355 6.17743C36.0312 6.67689 35.4525 7.17105 34.8967 7.6617L35.1204 7.89602C35.1953 7.97353 35.2693 8.05193 35.3398 8.13297C35.7987 7.47584 36.2303 6.82311 36.6346 6.17743H36.6355Z" fill="#0D808A"/>
<path d="M37.2231 6.63525C36.5703 7.13647 35.9423 7.63681 35.3407 8.13274L35.5556 8.37322L35.7626 8.61899C36.2761 7.95657 36.7624 7.29503 37.2231 6.63614V6.63525Z" fill="#0D808A"/>
<path d="M37.7913 7.12341C37.0883 7.62111 36.4153 8.11792 35.7626 8.61826C35.8331 8.6993 35.8974 8.78386 35.9643 8.86754C36.0304 8.95123 36.0973 9.03315 36.1599 9.11948C36.7342 8.45266 37.276 7.78847 37.7921 7.12341H37.7913Z" fill="#0D808A"/>
<path d="M38.3418 7.63861C37.5869 8.12838 36.8584 8.62431 36.159 9.11936C36.2215 9.20481 36.2867 9.28849 36.3484 9.37393L36.529 9.63203C37.1623 8.97137 37.7666 8.30631 38.3418 7.63861Z" fill="#0D808A"/>
<path d="M38.8712 8.18728C38.0599 8.66296 37.2812 9.14391 36.529 9.6328C36.588 9.71912 36.6435 9.80721 36.7016 9.89354C36.7606 9.97986 36.8108 10.0688 36.8655 10.156C37.5658 9.50859 38.237 8.84794 38.8721 8.1864L38.8712 8.18728Z" fill="#0D808A"/>
<path d="M39.3795 8.7735C38.5092 9.22186 37.675 9.68344 36.8654 10.1573C36.9209 10.2446 36.9694 10.3335 37.0196 10.4207C37.0716 10.5088 37.1156 10.5969 37.1623 10.6841C37.9375 10.064 38.6774 9.4227 39.3803 8.7735H39.3795Z" fill="#0D808A"/>
<path d="M39.8631 9.41125C38.9249 9.81117 38.03 10.2375 37.1614 10.6841C37.2099 10.7722 37.2477 10.8585 37.2891 10.9449C37.3314 11.0312 37.3622 11.114 37.3992 11.1977C38.2616 10.6374 39.0853 10.0349 39.8631 9.41214V9.41125Z" fill="#0D808A"/>
<path d="M23.5185 4.5311C22.3707 3.89951 21.0229 3.6925 19.7615 3.90127C19.447 3.955 19.1326 4.02724 18.841 4.13735C18.5486 4.24834 18.2693 4.39456 18.0209 4.57514C17.7734 4.75572 17.5558 4.9733 17.4158 5.22082C17.2739 5.46835 17.222 5.74054 17.2695 6.00304C17.288 6.13517 17.3409 6.26378 17.4008 6.38886L17.5056 6.57384C17.5444 6.62846 17.5849 6.68131 17.6298 6.73064C17.8113 6.92796 18.0553 7.07066 18.3134 7.14025C18.5723 7.21072 18.8419 7.20631 19.0806 7.12439C19.3211 7.04247 19.5343 6.88391 19.662 6.691C19.728 6.59146 19.7642 6.49897 19.7862 6.38622C19.8064 6.27523 19.8073 6.15719 19.7871 6.0506C19.7677 5.94402 19.7263 5.84888 19.6752 5.78458C19.6188 5.72732 19.5704 5.68592 19.5069 5.66918C19.4418 5.65509 19.3634 5.65685 19.2832 5.67975C19.2022 5.70001 19.1264 5.75287 19.0788 5.80484C19.0304 5.85769 19.011 5.90702 19.011 5.94138C19.0137 5.97573 19.0313 6.01978 19.0647 6.08584L19.0841 6.1246C19.2145 6.38005 19.1141 6.69276 18.8586 6.82313C18.6032 6.9535 18.2905 6.85308 18.1601 6.59763C18.1601 6.59675 18.1574 6.59323 18.1574 6.59234C18.0456 6.36684 17.9689 6.08672 18.0156 5.79251C18.0658 5.50094 18.2279 5.25782 18.4173 5.09045C18.6093 4.9222 18.8304 4.81122 19.0692 4.76365C19.307 4.7152 19.5651 4.72313 19.8108 4.81298C20.0601 4.90371 20.2627 5.08957 20.4019 5.29217C20.5349 5.4983 20.601 5.72204 20.6257 5.93786C20.6494 6.15455 20.6318 6.3686 20.5781 6.57561C20.5252 6.78173 20.4213 6.9905 20.2927 7.15346C20.032 7.48819 19.6708 7.70753 19.2858 7.81059C18.8956 7.91541 18.4851 7.88723 18.1213 7.76126C17.7567 7.6353 17.4298 7.41156 17.1867 7.1103C17.1268 7.03454 17.0722 6.95438 17.0229 6.8707L16.9013 6.62053C16.8317 6.44788 16.7727 6.26466 16.7569 6.07174C16.7119 5.68592 16.8256 5.28777 17.0317 4.98298C17.2369 4.6738 17.5127 4.44036 17.8042 4.2545C18.0976 4.06952 18.4129 3.93122 18.7388 3.83168C19.0674 3.73214 19.3977 3.68017 19.7298 3.64494C21.0591 3.51457 22.4174 3.82552 23.5202 4.53286L23.5185 4.5311Z" fill="#0D808A"/>
<path d="M16.9727 3.87991C16.9128 3.87991 16.8652 3.83147 16.8652 3.77245C16.8652 3.71343 16.9136 3.66498 16.9727 3.66498C17.0317 3.66498 17.0801 3.71343 17.0801 3.77245C17.0801 3.83147 17.0317 3.87991 16.9727 3.87991Z" fill="#0D808A"/>
<path d="M16.4644 4.53351C16.5651 4.53351 16.6467 4.45187 16.6467 4.35116C16.6467 4.25046 16.5651 4.16882 16.4644 4.16882C16.3637 4.16882 16.282 4.25046 16.282 4.35116C16.282 4.45187 16.3637 4.53351 16.4644 4.53351Z" fill="#0D808A"/>
<path d="M16.1552 5.29393C16.0248 5.29393 15.9191 5.18822 15.9191 5.05785C15.9191 4.92748 16.0248 4.82178 16.1552 4.82178C16.2856 4.82178 16.3913 4.92748 16.3913 5.05785C16.3913 5.18822 16.2856 5.29393 16.1552 5.29393Z" fill="#0D808A"/>
<path d="M16.0662 6.09305C15.9174 6.09305 15.7967 5.97237 15.7967 5.8235C15.7967 5.67463 15.9174 5.55396 16.0662 5.55396C16.2151 5.55396 16.3358 5.67463 16.3358 5.8235C16.3358 5.97237 16.2151 6.09305 16.0662 6.09305Z" fill="#0D808A"/>
<path d="M16.1816 6.87237C16.0231 6.87237 15.8945 6.74376 15.8945 6.5852C15.8945 6.42664 16.0231 6.29803 16.1816 6.29803C16.3402 6.29803 16.4688 6.42664 16.4688 6.5852C16.4688 6.74376 16.3402 6.87237 16.1816 6.87237Z" fill="#0D808A"/>
<path d="M16.4759 7.5875C16.3164 7.5875 16.1878 7.45889 16.1878 7.29946C16.1878 7.14002 16.3164 7.01141 16.4759 7.01141C16.6353 7.01141 16.7639 7.14002 16.7639 7.29946C16.7639 7.45889 16.6353 7.5875 16.4759 7.5875Z" fill="#0D808A"/>
<path d="M16.9568 8.17357C16.8053 8.17357 16.6819 8.05024 16.6819 7.89873C16.6819 7.74722 16.8053 7.6239 16.9568 7.6239C17.1083 7.6239 17.2316 7.74722 17.2316 7.89873C17.2316 8.05024 17.1083 8.17357 16.9568 8.17357Z" fill="#0D808A"/>
<path d="M17.6254 8.52656C17.4897 8.52656 17.3796 8.41645 17.3796 8.2808C17.3796 8.14514 17.4897 8.03503 17.6254 8.03503C17.761 8.03503 17.8711 8.14514 17.8711 8.2808C17.8711 8.41645 17.761 8.52656 17.6254 8.52656Z" fill="#0D808A"/>
<path d="M18.3741 8.66477C18.4836 8.66477 18.5723 8.57603 18.5723 8.46657C18.5723 8.35711 18.4836 8.26837 18.3741 8.26837C18.2647 8.26837 18.1759 8.35711 18.1759 8.46657C18.1759 8.57603 18.2647 8.66477 18.3741 8.66477Z" fill="#0D808A"/>
<path d="M19.1458 8.62991C19.0753 8.62991 19.018 8.57265 19.018 8.50218C19.018 8.43171 19.0753 8.37445 19.1458 8.37445C19.2162 8.37445 19.2735 8.43171 19.2735 8.50218C19.2735 8.57265 19.2162 8.62991 19.1458 8.62991Z" fill="#0D808A"/>
<path d="M19.913 8.44136C19.8963 8.44136 19.8822 8.42726 19.8822 8.41053C19.8822 8.39379 19.8963 8.3797 19.913 8.3797C19.9297 8.3797 19.9438 8.39379 19.9438 8.41053C19.9438 8.42726 19.9297 8.44136 19.913 8.44136Z" fill="#0D808A"/>
<path d="M36.7606 26.048C36.6611 26.011 36.6092 25.8991 36.6479 25.7996C36.6849 25.7 36.7968 25.6498 36.8963 25.6868C36.9958 25.7238 37.0461 25.8357 37.0091 25.937V25.9352C36.9809 26.0136 36.906 26.0612 36.8294 26.0612C36.8065 26.0612 36.7827 26.0568 36.7606 26.048ZM36.9765 25.3072C36.869 25.3019 36.7862 25.2103 36.7924 25.1046C36.7976 24.9971 36.8884 24.9143 36.995 24.9205C37.1024 24.9257 37.1835 25.0174 37.1791 25.1231C37.1738 25.227 37.0875 25.3072 36.9862 25.3072H36.9765ZM36.7166 24.399C36.6884 24.2959 36.7492 24.1893 36.8523 24.162C36.9553 24.1338 37.0619 24.1937 37.0892 24.2959C37.1174 24.399 37.0575 24.5056 36.9553 24.5346C36.9386 24.539 36.921 24.5417 36.9042 24.5399C36.8188 24.5399 36.7413 24.4844 36.7175 24.399H36.7166ZM36.4198 23.7586C36.3599 23.6705 36.3828 23.5498 36.4709 23.4899C36.5598 23.43 36.6796 23.4529 36.7395 23.541C36.7994 23.63 36.7765 23.7498 36.6884 23.8097C36.6541 23.8326 36.6171 23.8423 36.5801 23.8423C36.5184 23.8423 36.4576 23.8141 36.4198 23.7577V23.7586ZM35.9344 23.2389C35.8516 23.1728 35.8357 23.0504 35.9018 22.9676C35.9687 22.883 36.0903 22.8689 36.174 22.935C36.2586 23.001 36.2727 23.1217 36.2057 23.2063C36.1687 23.2547 36.1115 23.2803 36.0542 23.2803C36.0128 23.2803 35.9696 23.2662 35.9344 23.2389ZM35.316 22.8944C35.2165 22.8583 35.1636 22.7473 35.1989 22.6478C35.235 22.5483 35.346 22.4954 35.4455 22.5306C35.545 22.5668 35.5979 22.6777 35.5627 22.7773C35.5345 22.8574 35.4596 22.9059 35.3803 22.9059C35.3592 22.9059 35.3372 22.9015 35.316 22.8944Z" fill="#0D808A"/>
<path d="M14.1222 28.8289C13.8711 29.1416 13.6579 29.4076 13.5082 29.7441C13.3602 30.0815 13.2686 30.4911 13.3065 31.0918C13.9213 30.5016 14.1407 29.6164 14.1222 28.8289Z" fill="#0D808A"/>
<path d="M14.804 29.0396C14.5943 29.3823 14.4181 29.673 14.3133 30.0262C14.2102 30.3803 14.1715 30.7978 14.286 31.3889C14.5511 31.0586 14.7132 30.6631 14.7907 30.2561C14.8683 29.85 14.8639 29.4307 14.804 29.0396Z" fill="#0D808A"/>
<path d="M15.5069 29.1601C15.343 29.5283 15.2056 29.8366 15.1466 30.2013C15.0902 30.5642 15.1052 30.9852 15.2946 31.556C15.7385 30.8284 15.7253 29.9167 15.506 29.1592L15.5069 29.1601Z" fill="#0D808A"/>
<path d="M35.1469 28.8645C35.0473 29.0468 34.939 29.2133 34.843 29.3737C34.7434 29.5349 34.6412 29.6943 34.5531 29.8705C34.4651 30.0475 34.3911 30.2431 34.3567 30.4818C34.325 30.7249 34.3285 30.9989 34.4051 31.3327C34.7548 31.0077 34.9346 30.5875 35.0297 30.1541C35.1266 29.7225 35.1231 29.2688 35.1469 28.8645Z" fill="#0D808A"/>
<path d="M35.7899 28.9825C35.6181 29.3754 35.4728 29.711 35.4102 30.1003C35.3495 30.4905 35.3697 30.9389 35.5758 31.5502C35.8075 31.1618 35.922 30.7196 35.9502 30.2765C35.9775 29.8343 35.9123 29.3894 35.7899 28.9825Z" fill="#0D808A"/>
<path d="M36.6153 29.0265C36.3035 29.8378 36.152 30.4183 36.6056 31.603C36.9685 30.7909 36.9694 29.8184 36.6153 29.0265Z" fill="#0D808A"/>
</g>
</svg>
