<svg width="63" height="20" viewBox="0 0 63 20" fill="none" xmlns="http://www.w3.org/2000/svg">
<g filter="url(#filter0_d_2904_15252)">
<path d="M0.445312 2.78125H5.47461C6.55534 2.78125 7.47656 2.94401 8.23828 3.26953C9 3.59505 9.58268 4.07682 9.98633 4.71484C10.3965 5.34635 10.6016 6.1276 10.6016 7.05859C10.6016 7.76823 10.4714 8.39323 10.2109 8.93359C9.95052 9.47396 9.58268 9.92969 9.10742 10.3008C8.63216 10.6654 8.06576 10.9486 7.4082 11.1504L6.66602 11.5117H2.14453L2.125 9.56836H5.51367C6.09961 9.56836 6.58789 9.46419 6.97852 9.25586C7.36914 9.04753 7.66211 8.76432 7.85742 8.40625C8.05924 8.04167 8.16016 7.63151 8.16016 7.17578C8.16016 6.68099 8.0625 6.2513 7.86719 5.88672C7.67839 5.51562 7.38542 5.23242 6.98828 5.03711C6.59115 4.83529 6.08659 4.73438 5.47461 4.73438H2.89648V17H0.445312V2.78125ZM8.56055 17L5.2207 10.6133L7.78906 10.6035L11.1777 16.873V17H8.56055ZM17.9656 14.8809V9.8418C17.9656 9.46419 17.8973 9.13867 17.7605 8.86523C17.6238 8.5918 17.4155 8.38021 17.1355 8.23047C16.8621 8.08073 16.5171 8.00586 16.1004 8.00586C15.7163 8.00586 15.3842 8.07096 15.1043 8.20117C14.8243 8.33138 14.6062 8.50716 14.45 8.72852C14.2937 8.94987 14.2156 9.20052 14.2156 9.48047H11.8719C11.8719 9.0638 11.9728 8.66016 12.1746 8.26953C12.3764 7.87891 12.6694 7.5306 13.0535 7.22461C13.4376 6.91862 13.8966 6.67773 14.4305 6.50195C14.9643 6.32617 15.5633 6.23828 16.2273 6.23828C17.0216 6.23828 17.7247 6.37174 18.3367 6.63867C18.9552 6.9056 19.4402 7.30924 19.7918 7.84961C20.1499 8.38346 20.3289 9.05404 20.3289 9.86133V14.5586C20.3289 15.0404 20.3615 15.4733 20.4266 15.8574C20.4982 16.235 20.5991 16.5638 20.7293 16.8438V17H18.3172C18.2065 16.7461 18.1186 16.4238 18.0535 16.0332C17.9949 15.6361 17.9656 15.252 17.9656 14.8809ZM18.3074 10.5742L18.327 12.0293H16.6375C16.2013 12.0293 15.8172 12.0716 15.4852 12.1562C15.1531 12.2344 14.8764 12.3516 14.6551 12.5078C14.4337 12.6641 14.2677 12.8529 14.157 13.0742C14.0464 13.2956 13.991 13.5462 13.991 13.8262C13.991 14.1061 14.0561 14.3633 14.1863 14.5977C14.3165 14.8255 14.5053 15.0046 14.7527 15.1348C15.0066 15.265 15.3126 15.3301 15.6707 15.3301C16.1525 15.3301 16.5724 15.2324 16.9305 15.0371C17.2951 14.8353 17.5815 14.5911 17.7898 14.3047C17.9982 14.0117 18.1089 13.735 18.1219 13.4746L18.8836 14.5195C18.8055 14.7865 18.672 15.0729 18.4832 15.3789C18.2944 15.6849 18.047 15.9779 17.741 16.2578C17.4415 16.5312 17.0802 16.7559 16.657 16.9316C16.2404 17.1074 15.7586 17.1953 15.2117 17.1953C14.5216 17.1953 13.9064 17.0586 13.366 16.7852C12.8257 16.5052 12.4025 16.1309 12.0965 15.6621C11.7905 15.1868 11.6375 14.6497 11.6375 14.0508C11.6375 13.4909 11.7417 12.9961 11.95 12.5664C12.1648 12.1302 12.4773 11.7656 12.8875 11.4727C13.3042 11.1797 13.812 10.9583 14.4109 10.8086C15.0099 10.6523 15.6935 10.5742 16.4617 10.5742H18.3074ZM12.741 4.95898L15.534 2.55664H17.0672L19.8699 4.95898H17.868L16.2957 3.57227L14.7332 4.95898H12.741ZM19.1473 3.44531L20.6512 0.867188H22.7508L20.6512 3.44531H19.1473ZM26.8336 6.43359V8.15234H20.8766V6.43359H26.8336ZM22.5953 3.8457H24.9488V14.0801C24.9488 14.4056 24.9944 14.6562 25.0855 14.832C25.1832 15.0013 25.3167 15.1152 25.4859 15.1738C25.6552 15.2324 25.8538 15.2617 26.0816 15.2617C26.2444 15.2617 26.4007 15.252 26.5504 15.2324C26.7001 15.2129 26.8206 15.1934 26.9117 15.1738L26.9215 16.9707C26.7262 17.0293 26.4983 17.0814 26.2379 17.127C25.984 17.1725 25.691 17.1953 25.359 17.1953C24.8186 17.1953 24.3401 17.1009 23.9234 16.9121C23.5068 16.7168 23.1812 16.401 22.9469 15.9648C22.7125 15.5286 22.5953 14.9492 22.5953 14.2266V3.8457ZM36.8742 6.43359V8.15234H30.9172V6.43359H36.8742ZM32.6359 3.8457H34.9895V14.0801C34.9895 14.4056 35.035 14.6562 35.1262 14.832C35.2238 15.0013 35.3573 15.1152 35.5266 15.1738C35.6958 15.2324 35.8944 15.2617 36.1223 15.2617C36.285 15.2617 36.4413 15.252 36.591 15.2324C36.7408 15.2129 36.8612 15.1934 36.9523 15.1738L36.9621 16.9707C36.7668 17.0293 36.5389 17.0814 36.2785 17.127C36.0246 17.1725 35.7316 17.1953 35.3996 17.1953C34.8592 17.1953 34.3807 17.1009 33.9641 16.9121C33.5474 16.7168 33.2219 16.401 32.9875 15.9648C32.7531 15.5286 32.6359 14.9492 32.6359 14.2266V3.8457ZM40.4102 6.43359V17H38.0469V6.43359H40.4102ZM37.8906 3.66016C37.8906 3.30208 38.0078 3.00586 38.2422 2.77148C38.4831 2.5306 38.8151 2.41016 39.2383 2.41016C39.6549 2.41016 39.9837 2.5306 40.2246 2.77148C40.4655 3.00586 40.5859 3.30208 40.5859 3.66016C40.5859 4.01172 40.4655 4.30469 40.2246 4.53906C39.9837 4.77344 39.6549 4.89062 39.2383 4.89062C38.8151 4.89062 38.4831 4.77344 38.2422 4.53906C38.0078 4.30469 37.8906 4.01172 37.8906 3.66016ZM46.8465 17.1953C46.0652 17.1953 45.3589 17.0684 44.7273 16.8145C44.1023 16.554 43.5685 16.1927 43.1258 15.7305C42.6896 15.2682 42.3543 14.7246 42.1199 14.0996C41.8855 13.4746 41.7684 12.8008 41.7684 12.0781V11.6875C41.7684 10.8607 41.8888 10.112 42.1297 9.44141C42.3706 8.77083 42.7059 8.19792 43.1355 7.72266C43.5652 7.24089 44.073 6.87305 44.659 6.61914C45.2449 6.36523 45.8797 6.23828 46.5633 6.23828C47.3185 6.23828 47.9793 6.36523 48.5457 6.61914C49.1121 6.87305 49.5809 7.23112 49.952 7.69336C50.3296 8.14909 50.6095 8.69271 50.7918 9.32422C50.9806 9.95573 51.075 10.6523 51.075 11.4141V12.4199H42.9109V10.7305H48.7508V10.5449C48.7378 10.1217 48.6531 9.72461 48.4969 9.35352C48.3471 8.98242 48.116 8.68294 47.8035 8.45508C47.491 8.22721 47.0743 8.11328 46.5535 8.11328C46.1629 8.11328 45.8146 8.19792 45.5086 8.36719C45.2091 8.52995 44.9585 8.76758 44.7566 9.08008C44.5548 9.39258 44.3986 9.77018 44.2879 10.2129C44.1837 10.6491 44.1316 11.1406 44.1316 11.6875V12.0781C44.1316 12.5404 44.1935 12.9701 44.3172 13.3672C44.4474 13.7578 44.6362 14.0996 44.8836 14.3926C45.131 14.6855 45.4305 14.9167 45.782 15.0859C46.1336 15.2487 46.534 15.3301 46.9832 15.3301C47.5496 15.3301 48.0542 15.2161 48.4969 14.9883C48.9396 14.7604 49.3237 14.4382 49.6492 14.0215L50.8895 15.2227C50.6616 15.5547 50.3654 15.8737 50.0008 16.1797C49.6362 16.4792 49.1902 16.7233 48.6629 16.9121C48.1421 17.1009 47.5366 17.1953 46.8465 17.1953ZM42.8133 4.94922L45.6063 2.54688H47.1395L49.9422 4.94922H47.9402L46.368 3.5625L44.8055 4.94922H42.8133ZM49.2195 3.43555L50.7234 0.857422H52.823L50.7234 3.43555H49.2195ZM56.4273 15.3203C56.8115 15.3203 57.1565 15.2454 57.4625 15.0957C57.775 14.9395 58.0257 14.7246 58.2145 14.4512C58.4098 14.1777 58.5172 13.862 58.5367 13.5039H60.7535C60.7405 14.1875 60.5387 14.8092 60.148 15.3691C59.7574 15.929 59.2398 16.375 58.5953 16.707C57.9508 17.0326 57.2379 17.1953 56.4566 17.1953C55.6494 17.1953 54.9462 17.0586 54.3473 16.7852C53.7483 16.5052 53.2503 16.1211 52.8531 15.6328C52.456 15.1445 52.1565 14.5814 51.9547 13.9434C51.7594 13.3053 51.6617 12.6217 51.6617 11.8926V11.5508C51.6617 10.8216 51.7594 10.138 51.9547 9.5C52.1565 8.85547 52.456 8.28906 52.8531 7.80078C53.2503 7.3125 53.7483 6.93164 54.3473 6.6582C54.9462 6.37826 55.6461 6.23828 56.4469 6.23828C57.2932 6.23828 58.0354 6.40755 58.6734 6.74609C59.3115 7.07812 59.8128 7.54362 60.1773 8.14258C60.5484 8.73503 60.7405 9.42513 60.7535 10.2129H58.5367C58.5172 9.82227 58.4195 9.4707 58.2438 9.1582C58.0745 8.83919 57.8336 8.58529 57.5211 8.39648C57.2151 8.20768 56.8473 8.11328 56.4176 8.11328C55.9423 8.11328 55.5484 8.21094 55.2359 8.40625C54.9234 8.59505 54.6793 8.85547 54.5035 9.1875C54.3277 9.51302 54.2008 9.88086 54.1227 10.291C54.051 10.6947 54.0152 11.1146 54.0152 11.5508V11.8926C54.0152 12.3288 54.051 12.752 54.1227 13.1621C54.1943 13.5723 54.318 13.9401 54.4938 14.2656C54.676 14.5846 54.9234 14.8418 55.2359 15.0371C55.5484 15.2259 55.9456 15.3203 56.4273 15.3203Z" fill="white"/>
</g>
<defs>
<filter id="filter0_d_2904_15252" x="0.445312" y="0.857422" width="62.3082" height="18.3379" filterUnits="userSpaceOnUse" color-interpolation-filters="sRGB">
<feFlood flood-opacity="0" result="BackgroundImageFix"/>
<feColorMatrix in="SourceAlpha" type="matrix" values="0 0 0 0 0 0 0 0 0 0 0 0 0 0 0 0 0 0 127 0" result="hardAlpha"/>
<feOffset dx="1" dy="1"/>
<feGaussianBlur stdDeviation="0.5"/>
<feComposite in2="hardAlpha" operator="out"/>
<feColorMatrix type="matrix" values="0 0 0 0 0 0 0 0 0 0 0 0 0 0 0 0 0 0 0.25 0"/>
<feBlend mode="normal" in2="BackgroundImageFix" result="effect1_dropShadow_2904_15252"/>
<feBlend mode="normal" in="SourceGraphic" in2="effect1_dropShadow_2904_15252" result="shape"/>
</filter>
</defs>
</svg>
