<svg width="97" height="22" viewBox="0 0 97 22" fill="none" xmlns="http://www.w3.org/2000/svg">
<g filter="url(#filter0_d_113_48860)">
<path d="M8.84375 10.3711H11.2852C11.207 11.3021 10.9466 12.1322 10.5039 12.8613C10.0612 13.584 9.43945 14.1536 8.63867 14.5703C7.83789 14.987 6.86458 15.1953 5.71875 15.1953C4.83984 15.1953 4.04883 15.0391 3.3457 14.7266C2.64258 14.4076 2.04036 13.9583 1.53906 13.3789C1.03776 12.793 0.653646 12.0866 0.386719 11.2598C0.126302 10.4329 -0.00390625 9.50846 -0.00390625 8.48633V7.30469C-0.00390625 6.28255 0.129557 5.35807 0.396484 4.53125C0.669922 3.70443 1.06055 2.99805 1.56836 2.41211C2.07617 1.81966 2.6849 1.36719 3.39453 1.05469C4.11068 0.742188 4.91471 0.585938 5.80664 0.585938C6.93945 0.585938 7.89648 0.794271 8.67773 1.21094C9.45898 1.6276 10.0645 2.20378 10.4941 2.93945C10.9303 3.67513 11.1973 4.51823 11.2949 5.46875H8.85352C8.78841 4.85677 8.64518 4.33268 8.42383 3.89648C8.20898 3.46029 7.88997 3.12826 7.4668 2.90039C7.04362 2.66602 6.49023 2.54883 5.80664 2.54883C5.24674 2.54883 4.75846 2.65299 4.3418 2.86133C3.92513 3.06966 3.57682 3.37565 3.29688 3.7793C3.01693 4.18294 2.80534 4.68099 2.66211 5.27344C2.52539 5.85938 2.45703 6.52995 2.45703 7.28516V8.48633C2.45703 9.20247 2.51888 9.85352 2.64258 10.4395C2.77279 11.0189 2.9681 11.5169 3.22852 11.9336C3.49544 12.3503 3.83398 12.6725 4.24414 12.9004C4.6543 13.1283 5.14583 13.2422 5.71875 13.2422C6.41536 13.2422 6.97852 13.1315 7.4082 12.9102C7.8444 12.6888 8.17318 12.3665 8.39453 11.9434C8.6224 11.5137 8.77214 10.9896 8.84375 10.3711ZM14.8016 0V15H12.4578V0H14.8016ZM14.3914 9.32617L13.6297 9.31641C13.6362 8.58724 13.7371 7.91341 13.9324 7.29492C14.1342 6.67643 14.4142 6.13932 14.7723 5.68359C15.1368 5.22135 15.573 4.86654 16.0809 4.61914C16.5887 4.36523 17.1518 4.23828 17.7703 4.23828C18.2911 4.23828 18.7599 4.3099 19.1766 4.45312C19.5997 4.59635 19.9643 4.82747 20.2703 5.14648C20.5763 5.45898 20.8074 5.86914 20.9637 6.37695C21.1264 6.87826 21.2078 7.49023 21.2078 8.21289V15H18.8445V8.19336C18.8445 7.68555 18.7697 7.2819 18.6199 6.98242C18.4767 6.68294 18.2651 6.4681 17.9852 6.33789C17.7052 6.20117 17.3634 6.13281 16.9598 6.13281C16.5366 6.13281 16.1622 6.21745 15.8367 6.38672C15.5177 6.55599 15.2508 6.78711 15.0359 7.08008C14.8211 7.37305 14.6583 7.71159 14.5477 8.0957C14.4435 8.47982 14.3914 8.88997 14.3914 9.32617ZM29.148 12.5098V4.43359H31.5113V15H29.2848L29.148 12.5098ZM29.4801 10.3125L30.2711 10.293C30.2711 11.0026 30.193 11.6569 30.0367 12.2559C29.8805 12.8483 29.6396 13.3659 29.3141 13.8086C28.9885 14.2448 28.5719 14.5866 28.0641 14.834C27.5562 15.0749 26.9475 15.1953 26.2379 15.1953C25.7236 15.1953 25.2516 15.1204 24.8219 14.9707C24.3922 14.821 24.0211 14.5898 23.7086 14.2773C23.4026 13.9648 23.165 13.5579 22.9957 13.0566C22.8264 12.5553 22.7418 11.9564 22.7418 11.2598V4.43359H25.0953V11.2793C25.0953 11.6634 25.1409 11.9857 25.232 12.2461C25.3232 12.5 25.4469 12.7051 25.6031 12.8613C25.7594 13.0176 25.9417 13.1283 26.15 13.1934C26.3583 13.2585 26.5797 13.291 26.8141 13.291C27.4846 13.291 28.012 13.1608 28.3961 12.9004C28.7867 12.6335 29.0634 12.2754 29.2262 11.8262C29.3954 11.377 29.4801 10.8724 29.4801 10.3125ZM25.9645 2.93945L27.8687 0H30.525L27.8687 2.93945H25.9645ZM37.4398 13.3203C37.824 13.3203 38.169 13.2454 38.475 13.0957C38.7875 12.9395 39.0381 12.7246 39.227 12.4512C39.4223 12.1777 39.5297 11.862 39.5492 11.5039H41.766C41.753 12.1875 41.5512 12.8092 41.1605 13.3691C40.7699 13.929 40.2523 14.375 39.6078 14.707C38.9633 15.0326 38.2504 15.1953 37.4691 15.1953C36.6618 15.1953 35.9587 15.0586 35.3598 14.7852C34.7608 14.5052 34.2628 14.1211 33.8656 13.6328C33.4685 13.1445 33.169 12.5814 32.9672 11.9434C32.7719 11.3053 32.6742 10.6217 32.6742 9.89258V9.55078C32.6742 8.82161 32.7719 8.13802 32.9672 7.5C33.169 6.85547 33.4685 6.28906 33.8656 5.80078C34.2628 5.3125 34.7608 4.93164 35.3598 4.6582C35.9587 4.37826 36.6586 4.23828 37.4594 4.23828C38.3057 4.23828 39.0479 4.40755 39.6859 4.74609C40.324 5.07812 40.8253 5.54362 41.1898 6.14258C41.5609 6.73503 41.753 7.42513 41.766 8.21289H39.5492C39.5297 7.82227 39.432 7.4707 39.2562 7.1582C39.087 6.83919 38.8461 6.58529 38.5336 6.39648C38.2276 6.20768 37.8598 6.11328 37.4301 6.11328C36.9548 6.11328 36.5609 6.21094 36.2484 6.40625C35.9359 6.59505 35.6918 6.85547 35.516 7.1875C35.3402 7.51302 35.2133 7.88086 35.1352 8.29102C35.0635 8.69466 35.0277 9.11458 35.0277 9.55078V9.89258C35.0277 10.3288 35.0635 10.752 35.1352 11.1621C35.2068 11.5723 35.3305 11.9401 35.5062 12.2656C35.6885 12.5846 35.9359 12.8418 36.2484 13.0371C36.5609 13.2259 36.9581 13.3203 37.4398 13.3203ZM48.1836 0.78125H50.3711L54.4824 11.748L58.584 0.78125H60.7715L55.3418 15H53.6035L48.1836 0.78125ZM47.1875 0.78125H49.2676L49.6289 10.2734V15H47.1875V0.78125ZM59.6875 0.78125H61.7773V15H59.3262V10.2734L59.6875 0.78125ZM73.7508 3.54492H75.2938C75.2938 4.30013 75.1863 4.9349 74.9715 5.44922C74.7632 5.96354 74.4018 6.35091 73.8875 6.61133C73.3797 6.87174 72.6733 7.00195 71.7684 7.00195L71.7781 5.78125C72.3901 5.78125 72.8328 5.70312 73.1063 5.54688C73.3862 5.38411 73.562 5.13997 73.6336 4.81445C73.7117 4.48242 73.7508 4.05924 73.7508 3.54492ZM70.0105 12.5098V4.43359H72.3738V15H70.1473L70.0105 12.5098ZM70.3426 10.3125L71.1336 10.293C71.1336 11.0026 71.0555 11.6569 70.8992 12.2559C70.743 12.8483 70.5021 13.3659 70.1766 13.8086C69.851 14.2448 69.4344 14.5866 68.9266 14.834C68.4188 15.0749 67.81 15.1953 67.1004 15.1953C66.5861 15.1953 66.1141 15.1204 65.6844 14.9707C65.2547 14.821 64.8836 14.5898 64.5711 14.2773C64.2651 13.9648 64.0275 13.5579 63.8582 13.0566C63.6889 12.5553 63.6043 11.9564 63.6043 11.2598V4.43359H65.9578V11.2793C65.9578 11.6634 66.0034 11.9857 66.0945 12.2461C66.1857 12.5 66.3094 12.7051 66.4656 12.8613C66.6219 13.0176 66.8042 13.1283 67.0125 13.1934C67.2208 13.2585 67.4422 13.291 67.6766 13.291C68.3471 13.291 68.8745 13.1608 69.2586 12.9004C69.6492 12.6335 69.9259 12.2754 70.0887 11.8262C70.2579 11.377 70.3426 10.8724 70.3426 10.3125ZM67.4031 0.205078L69.3074 3.14453H67.3445L64.7371 0.205078H67.4031ZM77.4332 6.68945V15H75.0797V4.43359H77.2965L77.4332 6.68945ZM77.0133 9.32617L76.2516 9.31641C76.2581 8.56771 76.3622 7.88086 76.5641 7.25586C76.7724 6.63086 77.0589 6.09375 77.4234 5.64453C77.7945 5.19531 78.2372 4.85026 78.7516 4.60938C79.2659 4.36198 79.8388 4.23828 80.4703 4.23828C80.9781 4.23828 81.4371 4.3099 81.8473 4.45312C82.2639 4.58984 82.6188 4.81445 82.9117 5.12695C83.2112 5.43945 83.4391 5.84635 83.5953 6.34766C83.7516 6.84245 83.8297 7.45117 83.8297 8.17383V15H81.4664V8.16406C81.4664 7.65625 81.3915 7.25586 81.2418 6.96289C81.0986 6.66341 80.887 6.45182 80.607 6.32812C80.3336 6.19792 79.9918 6.13281 79.5816 6.13281C79.178 6.13281 78.8167 6.21745 78.4977 6.38672C78.1786 6.55599 77.9085 6.78711 77.6871 7.08008C77.4723 7.37305 77.3063 7.71159 77.1891 8.0957C77.0719 8.47982 77.0133 8.88997 77.0133 9.32617ZM92.1996 4.43359H94.3383V14.707C94.3383 15.6576 94.1365 16.4648 93.7328 17.1289C93.3292 17.793 92.766 18.2975 92.0434 18.6426C91.3207 18.9941 90.4841 19.1699 89.5336 19.1699C89.1299 19.1699 88.6807 19.1113 88.1859 18.9941C87.6977 18.877 87.2224 18.6882 86.7602 18.4277C86.3044 18.1738 85.9236 17.8385 85.6176 17.4219L86.7211 16.0352C87.0987 16.4844 87.5154 16.8132 87.9711 17.0215C88.4268 17.2298 88.9053 17.334 89.4066 17.334C89.947 17.334 90.406 17.2331 90.7836 17.0312C91.1677 16.8359 91.4639 16.5462 91.6723 16.1621C91.8806 15.778 91.9848 15.3092 91.9848 14.7559V6.82617L92.1996 4.43359ZM85.0219 9.83398V9.62891C85.0219 8.82812 85.1195 8.09896 85.3148 7.44141C85.5102 6.77734 85.7901 6.20768 86.1547 5.73242C86.5193 5.25065 86.962 4.88281 87.4828 4.62891C88.0036 4.36849 88.5928 4.23828 89.2504 4.23828C89.934 4.23828 90.5167 4.36198 90.9984 4.60938C91.4867 4.85677 91.8936 5.21159 92.2191 5.67383C92.5447 6.12956 92.7986 6.67643 92.9809 7.31445C93.1697 7.94596 93.3096 8.64909 93.4008 9.42383V10.0781C93.3161 10.8333 93.1729 11.5234 92.9711 12.1484C92.7693 12.7734 92.5023 13.3138 92.1703 13.7695C91.8383 14.2253 91.4281 14.5768 90.9398 14.8242C90.4581 15.0716 89.8884 15.1953 89.2309 15.1953C88.5863 15.1953 88.0036 15.0618 87.4828 14.7949C86.9685 14.528 86.5258 14.1536 86.1547 13.6719C85.7901 13.1901 85.5102 12.6237 85.3148 11.9727C85.1195 11.3151 85.0219 10.6022 85.0219 9.83398ZM87.3754 9.62891V9.83398C87.3754 10.3158 87.421 10.765 87.5121 11.1816C87.6098 11.5983 87.7562 11.9661 87.9516 12.2852C88.1534 12.5977 88.4073 12.8451 88.7133 13.0273C89.0258 13.2031 89.3936 13.291 89.8168 13.291C90.3702 13.291 90.8227 13.1738 91.1742 12.9395C91.5323 12.7051 91.8057 12.3893 91.9945 11.9922C92.1898 11.5885 92.3266 11.1393 92.4047 10.6445V8.87695C92.3656 8.49284 92.2842 8.13477 92.1605 7.80273C92.0434 7.4707 91.8839 7.18099 91.682 6.93359C91.4802 6.67969 91.2263 6.48438 90.9203 6.34766C90.6143 6.20443 90.253 6.13281 89.8363 6.13281C89.4131 6.13281 89.0453 6.22396 88.7328 6.40625C88.4203 6.58854 88.1631 6.83919 87.9613 7.1582C87.766 7.47721 87.6195 7.84831 87.5219 8.27148C87.4242 8.69466 87.3754 9.14714 87.3754 9.62891Z" fill="url(#paint0_linear_113_48860)"/>
</g>
<defs>
<filter id="filter0_d_113_48860" x="-0.00390625" y="0" width="96.3418" height="21.1699" filterUnits="userSpaceOnUse" color-interpolation-filters="sRGB">
<feFlood flood-opacity="0" result="BackgroundImageFix"/>
<feColorMatrix in="SourceAlpha" type="matrix" values="0 0 0 0 0 0 0 0 0 0 0 0 0 0 0 0 0 0 127 0" result="hardAlpha"/>
<feOffset dx="1" dy="1"/>
<feGaussianBlur stdDeviation="0.5"/>
<feComposite in2="hardAlpha" operator="out"/>
<feColorMatrix type="matrix" values="0 0 0 0 0 0 0 0 0 0 0 0 0 0 0 0 0 0 0.25 0"/>
<feBlend mode="normal" in2="BackgroundImageFix" result="effect1_dropShadow_113_48860"/>
<feBlend mode="normal" in="SourceGraphic" in2="effect1_dropShadow_113_48860" result="shape"/>
</filter>
<linearGradient id="paint0_linear_113_48860" x1="45" y1="-0.5" x2="45" y2="18" gradientUnits="userSpaceOnUse">
<stop stop-color="#F3FE5C"/>
<stop offset="1" stop-color="#ECB926"/>
</linearGradient>
</defs>
</svg>
