<svg width="47" height="39" viewBox="0 0 47 39" fill="none" xmlns="http://www.w3.org/2000/svg">
<g opacity="0.5">
<path d="M34.2456 35.3103C37.2355 34.7643 39.9367 32.7884 41.48 30.1611C41.885 29.5166 42.1787 28.8199 42.427 28.1241C42.5216 27.7694 42.6497 27.4205 42.698 27.0648C42.7256 26.8883 42.7788 26.711 42.7877 26.5355L42.8311 26.0103C42.8557 25.8339 42.8252 25.6673 42.8281 25.4959C42.8242 25.3264 42.8261 25.1608 42.7966 24.9598C42.7601 24.5735 42.7 24.196 42.632 23.8245C42.4891 23.0824 42.2772 22.3719 41.9836 21.7225C41.4011 20.4177 40.4955 19.376 39.3099 18.6645C39.0113 18.4891 38.7058 18.3216 38.3767 18.1836C38.218 18.1057 38.0505 18.0437 37.882 17.9835C37.7213 17.9195 37.5331 17.8623 37.3508 17.8032C36.6097 17.5687 35.777 17.3597 34.9039 17.1006C34.0287 16.8374 33.1004 16.5339 32.1416 16.0254L31.7828 15.8303C31.6626 15.7573 31.5424 15.6746 31.4231 15.5957L31.0664 15.3523L30.7185 15.0577C30.6042 14.9561 30.4869 14.8625 30.3775 14.7512L30.0592 14.3954C29.8405 14.1658 29.6641 13.8908 29.4916 13.6129C29.3044 13.3419 29.1861 13.0414 29.059 12.7428C28.918 12.4432 28.853 12.1416 28.7771 11.8381C28.6116 11.236 28.5731 10.5855 28.6106 9.96665C28.6914 8.71904 29.1181 7.50394 29.8828 6.46918L29.9144 6.42681C30.6003 5.49848 31.909 5.30237 32.8363 5.98925C33.7646 6.67515 33.9608 7.98387 33.2739 8.9112C33.2522 8.94077 33.2246 8.97526 33.2019 9.00285C32.9221 9.34087 32.7259 9.80701 32.6747 10.2781C32.652 10.5156 32.6451 10.7422 32.7092 10.9709C32.7348 11.0852 32.7407 11.2123 32.793 11.302C32.8334 11.3995 32.8521 11.5119 32.9191 11.5937C33.1113 11.9573 33.469 12.3072 34.0258 12.6344C34.5767 12.9596 35.2813 13.2385 36.047 13.4976C36.8157 13.7598 37.6484 14.0012 38.5403 14.3205C38.9788 14.4792 39.4647 14.6654 39.915 14.895C40.3723 15.1109 40.8167 15.372 41.2484 15.6529C42.1097 16.2215 42.9001 16.932 43.5534 17.746C44.2088 18.5601 44.7252 19.4706 45.1016 20.4078C45.481 21.347 45.7225 22.3118 45.8683 23.2677C45.9383 23.7457 45.9935 24.2236 46.0201 24.6966C46.0437 24.9243 46.0398 25.1904 46.0368 25.4515C46.027 25.7107 46.0467 25.9768 46.0083 26.2281L45.9146 26.9879C45.8851 27.2421 45.8121 27.4806 45.7619 27.727C45.6663 28.2237 45.4889 28.6839 45.3352 29.154C44.9745 30.0675 44.5497 30.9485 44.0087 31.7478C42.9562 33.363 41.5933 34.7564 39.986 35.8089C38.3885 36.8673 36.5191 37.6193 34.6072 37.8883C33.8997 37.9878 33.2798 37.4734 33.1803 36.7658C33.0837 36.077 33.5478 35.4384 34.2258 35.3132L34.2465 35.3093L34.2456 35.3103Z" fill="white"/>
<path d="M16.3718 5.81275C17.453 5.42092 17.9155 3.96088 17.4048 2.55165C16.8941 1.14242 15.6036 0.317657 14.5224 0.709482C13.4412 1.10131 12.9786 2.56135 13.4893 3.97058C14 5.37981 15.2905 6.20458 16.3718 5.81275Z" fill="white"/>
<path d="M14.5598 6.44032C15.494 5.76955 15.5425 4.23877 14.6683 3.02123C13.794 1.80369 12.328 1.36043 11.3939 2.0312C10.4597 2.70197 10.4111 4.23274 11.2854 5.45029C12.1596 6.66783 13.6256 7.11109 14.5598 6.44032Z" fill="#1D8E7C"/>
<path d="M23.2969 9.06052C23.2969 12.6644 20.6371 13.1848 17.0332 13.1848C13.4293 13.1848 10.2471 12.6644 10.2471 9.06052C10.2471 5.45661 13.1681 2.53564 16.772 2.53564C20.3759 2.53564 23.2969 5.45661 23.2969 9.06052Z" fill="white"/>
<path d="M17.0331 14.4709L25.4678 14.4049L25.592 9.52578L21.5121 4.57965L17.0331 14.4709Z" fill="white"/>
<path d="M13.9123 6.2834C14.8465 5.61263 14.8951 4.08185 14.0208 2.86431C13.1466 1.64676 11.6805 1.20351 10.7464 1.87428C9.81223 2.54504 9.76366 4.07582 10.6379 5.29337C11.5122 6.51091 12.9782 6.95416 13.9123 6.2834Z" fill="white"/>
<path d="M41.3952 29.0568L41.4395 29.9024C41.4395 29.6176 41.4238 29.3357 41.3952 29.0568Z" fill="white"/>
<path d="M11.3281 22.451C9.1512 22.1661 6.99792 21.7956 4.88604 21.295C5.38765 26.4057 5.51477 30.9921 3.02446 35.4002C1.27031 35.4209 0.0906852 36.7128 2.09808e-05 38.0008H6.10705C7.27977 38.0008 8.3372 37.2943 8.78066 36.2083C9.81345 33.6766 11.5991 28.6851 11.3271 22.451H11.3281Z" fill="white"/>
<path d="M16.7632 22.4509C14.5862 22.1661 11.2967 24.0217 9.18579 23.5211C9.6874 28.6318 10.7842 30.7634 8.75317 35.5558C6.99901 35.5765 5.5267 36.7127 5.43703 38.0018H11.544C12.7168 38.0018 13.7742 37.2952 14.2177 36.2092C15.2504 33.6775 17.0361 28.686 16.7641 22.4519L16.7632 22.4509Z" fill="#1D8E7C"/>
<path d="M17.5761 22.451C15.3992 22.1661 13.2459 21.7956 11.134 21.295C11.6356 26.4057 11.7628 30.9921 9.27246 35.4002C7.5183 35.4209 6.33868 36.7128 6.24801 38.0008H12.355C13.5278 38.0008 14.5852 37.2943 15.0286 36.2083C16.0614 33.6766 17.8471 28.6851 17.5751 22.451H17.5761Z" fill="white"/>
<path d="M41.4011 30.8472L38.3245 34.6196L33.4404 34.394L32.7693 36.2309L28.3987 36.566C18.7213 37.5278 13.1661 33.5001 11.3538 31.878C11.2996 31.8307 11.2444 31.7795 11.1902 31.7282C7.65826 28.5353 4.45446 24.4308 4.45446 19.3092C4.45446 12.9085 7.87704 7.30998 12.9946 4.23627C15.0218 5.34099 17.3179 6.04068 19.5047 6.96605V10.2034L20.5148 10.3532C20.5148 10.3532 17.5219 17.1362 23.5511 18.0409C24.6588 18.2045 26.4455 17.6437 27.4112 17.5235C37.1951 16.2877 41.4011 24.0809 41.4011 30.8462V30.8472Z" fill="white"/>
<path d="M22.8573 13.7786C23.5507 13.7786 24.1128 13.2165 24.1128 12.5231C24.1128 11.8297 23.5507 11.2676 22.8573 11.2676C22.1639 11.2676 21.6018 11.8297 21.6018 12.5231C21.6018 13.2165 22.1639 13.7786 22.8573 13.7786Z" fill="#1D8E7C"/>
<path d="M22.8573 13.78L25.8462 13.6953L25.7684 12.7246L23.488 11.4395L22.8573 13.78Z" fill="#1D8E7C"/>
<path d="M25.3989 9.67847L24.0252 10.1249L25.3989 10.4787V9.67847Z" fill="#1D8E7C"/>
<path d="M20.165 10.1698C19.2356 9.81402 18.2295 9.61495 17.2056 9.59031V9.56469C18.2216 9.41983 19.277 9.44644 20.3128 9.65437L20.165 10.1698Z" fill="#1D8E7C"/>
<path d="M20.4596 10.8405C19.3894 10.8296 18.3014 10.9991 17.2568 11.348L17.243 11.3155C18.2177 10.7951 19.2928 10.4305 20.4143 10.2512L20.4596 10.8405Z" fill="#1D8E7C"/>
<path d="M20.4724 11.5372C19.5224 11.6742 18.5911 12.1699 17.9229 12.9386L17.8697 12.8992C18.4196 12.0221 19.3056 11.3283 20.3502 11.0051L20.4734 11.5382L20.4724 11.5372Z" fill="#1D8E7C"/>
<path d="M19.8595 10.5878C19.8595 11.2461 20.3572 11.8 21.0352 11.9724V9.20325C20.3562 9.37669 19.8595 9.93053 19.8595 10.5878Z" fill="white"/>
<path d="M19.1175 7.42773C19.1973 7.9185 19.622 8.29397 20.1355 8.29397C20.6489 8.29397 21.0736 7.9185 21.1535 7.42773H19.1175Z" fill="#1D8E7C"/>
<path d="M21.1417 7.35752C21.1417 7.63542 20.917 7.86011 20.6391 7.86011C20.3612 7.86011 20.1365 7.63542 20.1365 7.35752C20.1365 7.07961 20.3612 6.85492 20.6391 6.85492C20.917 6.85492 21.1417 7.07961 21.1417 7.35752Z" fill="white"/>
<path d="M22.9658 12.3268C23.3294 12.0656 23.5738 11.6448 23.6191 11.1994C23.7167 11.161 23.833 11.2152 23.8941 11.3009C23.9562 11.3866 23.9739 11.495 23.9818 11.5995C24.0025 11.8794 23.9591 12.1632 23.8556 12.4243C24.1878 12.3347 24.444 12.0173 24.4637 11.6744C24.6362 11.7217 24.7337 11.9178 24.7278 12.0972C24.7219 12.2765 24.6381 12.4421 24.5563 12.6017C24.9003 12.4874 25.1525 12.1405 25.1555 11.7779C25.1565 11.6261 24.2784 11.291 24.1444 11.2378C23.8083 11.1058 23.3787 10.9392 23.0141 10.9481C22.9727 11.1255 23.1096 11.4172 23.1087 11.6192C23.1087 11.8616 23.0604 12.1031 22.9658 12.3268Z" fill="white"/>
<path d="M24.8047 13.0716C24.715 13.2697 24.6244 13.4697 24.5022 13.6501C24.38 13.8304 24.2233 13.992 24.0291 14.0906C24.1168 14.0462 24.3869 14.1073 24.5002 14.0906C24.6086 14.0738 24.7939 14.06 24.8579 13.9595C24.9821 13.7673 24.8559 13.2736 24.8047 13.0716Z" fill="white"/>
<path d="M39.4675 31.1047C40.3945 27.1769 37.9619 23.2412 34.0341 22.3142C30.1063 21.3871 26.1706 23.8197 25.2436 27.7476C24.3165 31.6754 26.7491 35.611 30.677 36.5381C34.6048 37.4651 38.5404 35.0325 39.4675 31.1047Z" fill="#1D8E7C"/>
<path d="M41.4395 29.9026C41.4395 34.3698 37.8179 37.9914 33.3507 37.9914H31.2073L31.8104 37.4642C28.4046 36.6364 25.8749 33.5646 25.8749 29.9026C25.8749 25.6059 29.3595 22.1222 33.6582 22.1222C37.6701 22.1222 40.9714 25.1575 41.3942 29.057C41.4228 29.3359 41.4386 29.6178 41.4386 29.9026H41.4395Z" fill="white"/>
<path d="M29.9785 35.3206C27.1945 33.8049 23.7089 34.8328 22.1932 37.6158C22.1262 37.739 22.0661 37.8641 22.0079 37.9903H32.4609C31.9642 36.8925 31.1187 35.9405 29.9795 35.3206H29.9785Z" fill="#1D8E7C"/>
<path d="M30.7205 35.7244C27.9464 34.2136 24.4765 35.2297 22.952 37.99H32.999C32.4885 37.0636 31.7178 36.2674 30.7205 35.7244Z" fill="white"/>
<path d="M17.7239 16.6448C17.8826 16.4408 18.0314 16.293 18.1772 16.2211C18.0294 16.1797 17.8836 16.1481 17.7377 16.1127C17.5929 16.0782 17.448 16.0604 17.3061 16.0131C17.4322 16.292 17.5741 16.4871 17.7239 16.6448Z" fill="#1D8E7C"/>
<path d="M16.7887 16.7369C16.9769 16.4502 17.1484 16.2048 17.3061 16.0136L16.8813 15.8993C16.7404 15.8687 16.6015 15.8263 16.4635 15.78C16.5522 16.1466 16.6616 16.4689 16.7877 16.7369H16.7887Z" fill="#1D8E7C"/>
<path d="M15.8436 16.7146L16.4645 15.7794L16.0516 15.6522C15.9136 15.6177 15.7815 15.5556 15.6465 15.5103C15.6899 15.939 15.7539 16.3549 15.8436 16.7136V16.7146Z" fill="#1D8E7C"/>
<path d="M14.9026 16.5881C15.1736 16.2058 15.4209 15.8461 15.6466 15.511L15.2445 15.3691L14.8513 15.2055C14.8444 15.6835 14.8622 16.1476 14.9026 16.5881Z" fill="#1D8E7C"/>
<path d="M13.9782 16.3576C14.2886 15.9723 14.5843 15.5741 14.8513 15.2056C14.7212 15.1484 14.5872 15.107 14.4611 15.041L14.0787 14.8616C14.0215 15.3682 13.988 15.8688 13.9782 16.3566V16.3576Z" fill="#1D8E7C"/>
<path d="M13.0794 16.0363C13.4322 15.6481 13.7653 15.2558 14.0787 14.8626C13.8195 14.7542 13.58 14.6025 13.3277 14.4822C13.2233 15.0006 13.1395 15.5209 13.0784 16.0363H13.0794Z" fill="#1D8E7C"/>
<path d="M12.2141 15.6288C12.6063 15.2494 12.9719 14.8769 13.3277 14.4817C13.2006 14.4216 13.0853 14.3408 12.9631 14.2728L12.5994 14.0629C12.4516 14.5783 12.3225 15.1016 12.2131 15.6288H12.2141Z" fill="#1D8E7C"/>
<path d="M11.3913 15.1419C11.8111 14.792 12.2151 14.4313 12.6004 14.0628L12.2496 13.8322C12.1343 13.7533 12.0101 13.6873 11.8998 13.6006C11.7086 14.1101 11.545 14.6146 11.3903 15.1409L11.3913 15.1419Z" fill="#1D8E7C"/>
<path d="M10.6177 14.5769C11.0562 14.2694 11.4859 13.9423 11.8998 13.6003C11.6781 13.4308 11.4356 13.2859 11.2218 13.1056C11.007 13.5816 10.804 14.0733 10.6177 14.5769Z" fill="#1D8E7C"/>
<path d="M9.90606 13.9386C10.3485 13.6854 10.79 13.4065 11.2227 13.1059L10.8896 12.8487C10.7743 12.7669 10.6757 12.6674 10.5663 12.5787C10.3466 13.0044 10.116 13.4695 9.90606 13.9396V13.9386Z" fill="#1D8E7C"/>
<path d="M9.26456 13.232C9.69324 13.0438 10.1298 12.825 10.5654 12.5786L10.2402 12.3066L9.92877 12.0179C9.71886 12.3894 9.49319 12.7964 9.26456 13.231V13.232Z" fill="#1D8E7C"/>
<path d="M8.71169 12.4551C9.0911 12.3517 9.51092 12.196 9.92876 12.0176C9.82528 11.92 9.71294 11.8304 9.61538 11.7259L9.31087 11.4224L8.71169 12.4542V12.4551Z" fill="#1D8E7C"/>
<path d="M8.25349 11.6246C8.56786 11.6 8.92362 11.532 9.30993 11.4236C9.09411 11.2275 8.91771 11.0018 8.70583 10.7939C8.59349 11.0334 8.43877 11.3103 8.25251 11.6246H8.25349Z" fill="#1D8E7C"/>
<path d="M7.90857 10.7456C8.12636 10.7998 8.38259 10.8244 8.70681 10.7938C8.59841 10.6914 8.5107 10.5741 8.41116 10.4637C8.3136 10.3514 8.20618 10.243 8.10271 10.1306C8.10172 10.2962 8.03077 10.5002 7.90955 10.7456H7.90857Z" fill="#1D8E7C"/>
<path d="M17.7742 19.8317C17.9388 19.5213 18.0984 19.27 18.261 19.1054C18.0836 19.0739 17.9072 19.0483 17.7318 19.0246C17.5564 19.001 17.382 18.9872 17.2085 18.9556C17.3908 19.3173 17.581 19.6011 17.7732 19.8307L17.7742 19.8317Z" fill="#1D8E7C"/>
<path d="M16.6921 20.0315C16.8735 19.6236 17.0449 19.2619 17.2095 18.9574C16.8626 18.9002 16.5177 18.8736 16.1777 18.8125C16.3374 19.2688 16.5108 19.6787 16.6931 20.0325L16.6921 20.0315Z" fill="#1D8E7C"/>
<path d="M15.5924 20.1305L16.1767 18.8119C15.8358 18.7597 15.4968 18.7143 15.1617 18.6493C15.2888 19.1726 15.4327 19.6801 15.5924 20.1305Z" fill="#1D8E7C"/>
<path d="M14.4827 20.1301C14.7271 19.6167 14.9528 19.1151 15.1617 18.6489C14.9942 18.6184 14.8257 18.5957 14.6591 18.5622L14.1625 18.4607C14.2492 19.0362 14.3566 19.595 14.4827 20.1301Z" fill="#1D8E7C"/>
<path d="M13.3721 20.0265C13.656 19.5002 13.9191 18.972 14.1635 18.4605C13.8304 18.4044 13.5081 18.3088 13.1809 18.2408C13.2233 18.8439 13.2864 19.4421 13.3721 20.0265Z" fill="#1D8E7C"/>
<path d="M12.2674 19.8245C12.5946 19.2933 12.8961 18.773 13.1799 18.2408C13.0163 18.2053 12.8587 18.1521 12.697 18.1107C12.5374 18.0644 12.3738 18.0299 12.2171 17.9767C12.2082 18.6005 12.2289 19.2076 12.2674 19.8235V19.8245Z" fill="#1D8E7C"/>
<path d="M11.1814 19.5201C11.549 19.0126 11.8949 18.4962 12.2181 17.9778C11.9047 17.8704 11.5825 17.7886 11.277 17.6635C11.2218 18.2754 11.1883 18.9022 11.1814 19.5201Z" fill="#1D8E7C"/>
<path d="M10.1239 19.1112C10.527 18.646 10.9123 18.1602 11.2759 17.6635L10.8098 17.495L10.3555 17.3028C10.2609 17.8842 10.1821 18.4893 10.1239 19.1112Z" fill="#1D8E7C"/>
<path d="M9.11871 18.5803C9.54049 18.191 9.95538 17.7594 10.3555 17.3021C10.2017 17.241 10.05 17.177 9.90315 17.1021L9.45475 16.8912C9.33255 17.4233 9.21824 17.988 9.11772 18.5803H9.11871Z" fill="#1D8E7C"/>
<path d="M8.17757 17.9423C8.60921 17.628 9.03395 17.2811 9.45573 16.8908C9.30692 16.8189 9.166 16.7341 9.01818 16.6583C8.87331 16.5784 8.72056 16.5085 8.5826 16.4168C8.43872 16.8977 8.30864 17.3983 8.17855 17.9423H8.17757Z" fill="#1D8E7C"/>
<path d="M7.31926 17.2016C7.73415 16.9838 8.1579 16.7206 8.58166 16.4171L8.151 16.1599C8.00121 16.0801 7.87211 15.9746 7.72922 15.884C7.60702 16.2762 7.45624 16.7285 7.31926 17.2006V17.2016Z" fill="#1D8E7C"/>
<path d="M6.57121 16.3576C6.925 16.2591 7.32609 16.0896 7.73014 15.8846C7.5902 15.79 7.44238 15.7033 7.30737 15.6008L6.89248 15.2963C6.81758 15.5988 6.70622 15.9536 6.5722 16.3576H6.57121Z" fill="#1D8E7C"/>
<path d="M5.95632 15.4224C6.22043 15.4382 6.53085 15.4008 6.89253 15.2963C6.82453 15.2441 6.74668 15.1997 6.68164 15.1436L6.47863 14.98C6.34165 14.8706 6.20072 14.7632 6.05487 14.6577C6.08345 14.8538 6.04009 15.113 5.95731 15.4234L5.95632 15.4224Z" fill="#1D8E7C"/>
<path d="M18.0146 22.4972C18.1349 22.2636 18.2561 22.0833 18.3872 21.9719C18.0895 21.9404 17.7969 21.9295 17.5061 21.9138C17.6776 22.1621 17.8481 22.3533 18.0156 22.4972H18.0146Z" fill="#1D8E7C"/>
<path d="M17.1425 22.7356C17.2647 22.4173 17.3839 22.1394 17.5051 21.9137C17.2125 21.8871 16.9247 21.8802 16.636 21.8595C16.8015 22.1975 16.971 22.4843 17.1425 22.7356Z" fill="#1D8E7C"/>
<path d="M16.2546 22.9077C16.3867 22.5233 16.5128 22.1735 16.636 21.8601C16.3472 21.8364 16.0614 21.8266 15.7757 21.801C15.9294 22.205 16.089 22.5716 16.2556 22.9067L16.2546 22.9077Z" fill="#1D8E7C"/>
<path d="M15.3568 23.0189L15.7757 21.8018C15.4899 21.7723 15.2051 21.7644 14.9213 21.7319C15.0582 22.1882 15.2031 22.6188 15.3568 23.0189Z" fill="#1D8E7C"/>
<path d="M14.4522 23.0726L14.9213 21.7313C14.6374 21.7018 14.3546 21.685 14.0728 21.6495C14.189 22.1413 14.3162 22.6212 14.4532 23.0736L14.4522 23.0726Z" fill="#1D8E7C"/>
<path d="M13.5456 23.0728C13.7318 22.586 13.9073 22.11 14.0718 21.6498C13.79 21.6183 13.5071 21.5936 13.2273 21.5532C13.3229 22.0676 13.4283 22.5831 13.5456 23.0728Z" fill="#1D8E7C"/>
<path d="M12.6399 23.0188C12.8459 22.5241 13.042 22.0344 13.2273 21.5534C12.9464 21.5199 12.6655 21.4864 12.3856 21.4421C12.4596 21.9703 12.5443 22.5015 12.6389 23.0188H12.6399Z" fill="#1D8E7C"/>
<path d="M11.7381 22.9139C11.9638 22.4231 12.1806 21.9314 12.3866 21.4416C12.1057 21.4051 11.8268 21.3627 11.5479 21.3145C11.6021 21.8446 11.6652 22.3788 11.7381 22.9139Z" fill="#1D8E7C"/>
<path d="M10.8443 22.7556C11.0867 22.2845 11.3222 21.7987 11.5479 21.3148C11.268 21.2744 10.9901 21.2232 10.7112 21.1729C10.7477 21.6913 10.7911 22.2205 10.8443 22.7556Z" fill="#1D8E7C"/>
<path d="M9.96237 22.544C10.2176 22.1065 10.4699 21.6403 10.7113 21.1732C10.4315 21.1298 10.1545 21.0707 9.87565 21.0195C9.8993 21.5112 9.92689 22.0207 9.96237 22.544Z" fill="#1D8E7C"/>
<path d="M9.09508 22.2773C9.35821 21.8841 9.61936 21.4594 9.87558 21.0189C9.59472 20.9716 9.31879 20.9075 9.03891 20.8543L9.09607 22.2773H9.09508Z" fill="#1D8E7C"/>
<path d="M8.24755 21.9552C8.50969 21.6211 8.77478 21.2516 9.03791 20.8544C8.75606 20.8051 8.48012 20.7342 8.19729 20.681L8.24656 21.9562L8.24755 21.9552Z" fill="#1D8E7C"/>
<path d="M7.42468 21.577C7.67598 21.3168 7.93417 21.0202 8.1973 20.6812C7.91446 20.627 7.63755 20.5551 7.35176 20.5009C7.38428 20.8182 7.40694 21.1808 7.42468 21.577Z" fill="#1D8E7C"/>
<path d="M6.6324 21.1397C6.86004 20.9721 7.09951 20.7632 7.3518 20.5001C7.06896 20.439 6.78613 20.371 6.4964 20.3148C6.55849 20.5385 6.60086 20.8164 6.63141 21.1397H6.6324Z" fill="#1D8E7C"/>
<path d="M5.87845 20.6365C6.06372 20.5852 6.26968 20.4817 6.49733 20.3142C6.20957 20.2541 5.9228 20.1851 5.62321 20.1388C5.73851 20.2354 5.81834 20.4078 5.87845 20.6365Z" fill="#1D8E7C"/>
<path d="M18.1625 25.8778C18.2216 25.6028 18.2926 25.3801 18.3911 25.2343C18.0905 25.2609 17.8067 25.321 17.514 25.3525C17.7427 25.5871 17.9615 25.7644 18.1625 25.8778Z" fill="#1D8E7C"/>
<path d="M17.3574 26.3142C17.4037 25.9467 17.454 25.6234 17.5141 25.3524C17.2263 25.3948 16.9415 25.4372 16.6558 25.4717C16.8913 25.7939 17.1268 26.0777 17.3564 26.3142H17.3574Z" fill="#1D8E7C"/>
<path d="M16.5109 26.6641L16.6567 25.4707C16.3749 25.516 16.0881 25.5377 15.8082 25.5791C16.0388 25.9723 16.2734 26.335 16.5109 26.6641Z" fill="#1D8E7C"/>
<path d="M15.6358 26.9416L15.8082 25.5797C15.5244 25.6024 15.2455 25.6467 14.9637 25.6645C15.1795 26.1168 15.4052 26.5455 15.6358 26.9416Z" fill="#1D8E7C"/>
<path d="M14.74 27.1495C14.8247 26.6361 14.8986 26.1394 14.9637 25.6644C14.6828 25.692 14.4029 25.7147 14.1221 25.7324C14.3162 26.2183 14.5232 26.6933 14.739 27.1495H14.74Z" fill="#1D8E7C"/>
<path d="M13.8283 27.281C13.9397 26.7597 14.0373 26.2423 14.122 25.7328C13.8431 25.7595 13.5613 25.7614 13.2824 25.7821C13.4509 26.2877 13.6332 26.7893 13.8283 27.281Z" fill="#1D8E7C"/>
<path d="M12.909 27.3448C13.0469 26.8225 13.1711 26.2992 13.2825 25.7828C13.0026 25.7847 12.7227 25.8074 12.4428 25.8054C12.5847 26.3208 12.7404 26.8363 12.9099 27.3448H12.909Z" fill="#1D8E7C"/>
<path d="M11.9884 27.3382C12.153 26.8356 12.3048 26.3221 12.4427 25.8047C12.1629 25.8126 11.882 25.8146 11.6011 25.8136C11.7174 26.3083 11.8465 26.8188 11.9884 27.3372V27.3382Z" fill="#1D8E7C"/>
<path d="M11.072 27.2474C11.2602 26.7931 11.4366 26.3132 11.6012 25.8136C11.3194 25.8215 11.0395 25.8057 10.7557 25.8116C10.8513 26.2659 10.9557 26.7468 11.071 27.2465L11.072 27.2474Z" fill="#1D8E7C"/>
<path d="M10.1673 27.0787C10.3713 26.6884 10.5693 26.2627 10.7566 25.8124L9.90512 25.7946L10.1673 27.0787Z" fill="#1D8E7C"/>
<path d="M9.28237 26.8292C9.49228 26.5276 9.7012 26.1787 9.90421 25.7934L9.04094 25.7717C9.12372 26.0713 9.20156 26.4281 9.28237 26.8282V26.8292Z" fill="#1D8E7C"/>
<path d="M8.43088 26.4795C8.626 26.3109 8.83197 26.0695 9.04089 25.7729C8.89504 25.7709 8.74919 25.7709 8.60235 25.765C8.52943 25.762 8.45551 25.761 8.38062 25.762H8.26926L8.21309 25.764H8.18451L8.17071 25.765H8.16381H8.15987H8.1579C8.15199 25.7857 8.17071 25.7187 8.14509 25.8113L8.1579 25.765V25.766V25.7679L8.16184 25.7719L8.16676 25.7798L8.17662 25.7955L8.19633 25.829L8.23378 25.902C8.25842 25.9532 8.28108 26.0084 8.30375 26.0685C8.34908 26.1887 8.39047 26.3267 8.43186 26.4785L8.43088 26.4795Z" fill="#1D8E7C"/>
<mask id="mask0_2_615" style="mask-type:luminance" maskUnits="userSpaceOnUse" x="10" y="8" width="32" height="27">
<path d="M10.2472 8.83862V21.5257C10.2472 28.1353 15.8082 33.5831 22.8879 33.9093L38.3265 34.6198L41.4022 30.8484C41.4022 24.084 37.1942 16.2879 27.4113 17.5237C26.4455 17.6459 24.6608 18.2066 23.5531 18.041C17.523 17.1403 20.5159 10.3533 20.5159 10.3533L10.2481 8.83862H10.2472Z" fill="white"/>
</mask>
<g mask="url(#mask0_2_615)">
<path d="M22.7035 22.4295C23.2012 22.3802 23.7304 22.2748 24.2616 22.1151C24.1877 22.0107 24.1059 21.9082 24.0339 21.7988C23.9679 21.6864 23.8871 21.579 23.8299 21.4598C23.4633 21.7397 23.0977 22.055 22.7035 22.4285V22.4295Z" fill="#1D8E7C"/>
<path d="M22.4542 21.4529C22.877 21.5012 23.3451 21.5042 23.8309 21.4598C23.7688 21.3426 23.7028 21.2253 23.6516 21.1011C23.5934 20.9789 23.5422 20.8538 23.4988 20.7247C23.1726 20.9326 22.8228 21.1721 22.4552 21.4529H22.4542Z" fill="#1D8E7C"/>
<path d="M22.3587 20.471C22.7016 20.5873 23.0771 20.676 23.4979 20.7243C23.4466 20.5971 23.4112 20.4651 23.3718 20.332C23.3284 20.2 23.3077 20.063 23.2742 19.927C23.0052 20.0817 22.6859 20.2621 22.3587 20.47V20.471Z" fill="#1D8E7C"/>
<path d="M22.408 19.5044C22.6602 19.666 22.9431 19.8099 23.2742 19.9281C23.22 19.6541 23.1855 19.3743 23.1707 19.0905L22.407 19.5053L22.408 19.5044Z" fill="#1D8E7C"/>
<path d="M22.6011 18.5721C22.74 18.7524 22.943 18.9298 23.1717 19.0895C23.1717 18.9485 23.1569 18.8037 23.1677 18.6608C23.1736 18.5179 23.1766 18.373 23.1953 18.2291C23.0268 18.3365 22.8346 18.4499 22.6011 18.5711V18.5721Z" fill="#1D8E7C"/>
<path d="M22.9233 17.6941C22.9676 17.8695 23.0573 18.0508 23.1953 18.2312C23.2071 18.0863 23.2278 17.9424 23.2564 17.7995C23.2781 17.6537 23.3155 17.5128 23.351 17.3699C23.2426 17.4842 23.0948 17.5867 22.9243 17.6941H22.9233Z" fill="#1D8E7C"/>
<path d="M23.3688 16.8889C23.3284 17.0367 23.3087 17.1944 23.3511 17.3698C23.3816 17.224 23.4368 17.088 23.4802 16.9451C23.5285 16.8041 23.5896 16.6681 23.6447 16.5272C23.5866 16.6662 23.49 16.7805 23.3698 16.8899L23.3688 16.8889Z" fill="#1D8E7C"/>
<path d="M26.6416 21.653C27.1294 21.513 27.637 21.308 28.1277 21.0558C28.0351 20.9612 27.9316 20.8734 27.8429 20.7729C27.7533 20.6734 27.6606 20.5739 27.5808 20.4655C27.2635 20.8153 26.953 21.2075 26.6416 21.6539V21.653Z" fill="#1D8E7C"/>
<path d="M26.1785 20.7073C26.6318 20.6778 27.096 20.6009 27.5798 20.4639C27.4921 20.3594 27.4182 20.2461 27.3423 20.1328C27.2664 20.0194 27.2014 19.8992 27.1334 19.779C26.8279 20.0431 26.5017 20.3535 26.1785 20.7073Z" fill="#1D8E7C"/>
<path d="M25.8956 19.7062C26.276 19.7772 26.7027 19.7998 27.1343 19.7791C27.0762 19.656 27.0082 19.5338 26.9609 19.4047C26.9047 19.2775 26.8613 19.1465 26.8199 19.0134C26.5292 19.2076 26.2168 19.4372 25.8965 19.7072L25.8956 19.7062Z" fill="#1D8E7C"/>
<path d="M25.803 18.6826C25.9528 18.7555 26.1183 18.8196 26.2859 18.8747C26.4544 18.9299 26.6288 18.9772 26.819 19.0127C26.7392 18.7466 26.6791 18.4697 26.6564 18.1879C26.3913 18.3239 26.1154 18.4855 25.804 18.6816L25.803 18.6826Z" fill="#1D8E7C"/>
<path d="M25.9172 17.6746C26.1242 17.8688 26.3646 18.0432 26.6554 18.1891C26.6376 18.0481 26.6386 17.9062 26.6357 17.7633C26.6327 17.6914 26.6425 17.6214 26.6455 17.5495C26.6504 17.4785 26.6514 17.4056 26.6642 17.3347C26.5489 17.381 26.4376 17.4332 26.3124 17.4894C26.1902 17.5455 26.0513 17.6066 25.9172 17.6737V17.6746Z" fill="#1D8E7C"/>
<path d="M26.2405 16.7284C26.3341 16.9373 26.48 17.1433 26.6652 17.3345C26.683 17.1916 26.7057 17.0487 26.7421 16.9077C26.7687 16.7629 26.8239 16.6289 26.8653 16.486C26.6928 16.5638 26.4711 16.6358 26.2405 16.7284Z" fill="#1D8E7C"/>
<path d="M30.3894 20.7363C30.8644 20.6486 31.3788 20.5007 31.907 20.3076C31.7227 20.1075 31.5365 19.9035 31.3798 19.6848C31.0713 19.9883 30.7392 20.3381 30.3894 20.7363Z" fill="#1D8E7C"/>
<path d="M30.073 19.7834C30.4741 19.8021 30.9097 19.7706 31.3808 19.6849C31.2221 19.4671 31.0713 19.2394 30.9551 18.999C30.687 19.2158 30.3923 19.475 30.073 19.7834Z" fill="#1D8E7C"/>
<path d="M29.9282 18.7852C30.0731 18.8444 30.2347 18.8917 30.4081 18.9272C30.5806 18.9636 30.759 18.9883 30.9561 19.0001C30.8969 18.8799 30.8398 18.7567 30.7964 18.6305C30.7471 18.5044 30.7126 18.3743 30.6782 18.2422C30.4663 18.3881 30.2091 18.5655 29.9292 18.7852H29.9282Z" fill="#1D8E7C"/>
<path d="M30.0139 17.7905C30.1765 17.9669 30.4022 18.1226 30.6771 18.2419C30.6486 18.1098 30.6239 17.9738 30.6121 17.8369C30.6012 17.6999 30.5934 17.559 30.6022 17.418C30.4436 17.5274 30.2514 17.6457 30.0139 17.7915V17.7905Z" fill="#1D8E7C"/>
<path d="M30.3479 16.8849C30.3578 16.9707 30.3893 17.0623 30.4307 17.152C30.4701 17.2407 30.5273 17.3304 30.6012 17.4171C30.6032 17.2752 30.6239 17.1333 30.6485 16.9904C30.6722 16.8465 30.7106 16.7056 30.75 16.5627C30.6574 16.68 30.5204 16.7795 30.3479 16.8849Z" fill="#1D8E7C"/>
</g>
<path d="M35.0871 32.0329C35.1601 31.8397 35.1965 31.6229 35.1808 31.4308C35.163 31.2317 35.0931 31.0573 34.9787 30.9173C34.761 30.6601 34.4919 30.5507 34.3017 30.4788C34.418 30.5724 34.5648 30.6759 34.7383 30.7813C34.5313 30.7468 34.3175 30.6315 34.145 30.4364C34.2998 30.6424 34.4949 30.8503 34.7077 31.0937C34.5796 31.0198 34.4653 30.9311 34.3638 30.8217C34.2603 30.7094 34.1726 30.5832 34.0958 30.4463C34.2367 30.7212 34.3845 31.0178 34.4968 31.3342C34.3007 31.077 34.1608 30.7656 34.0465 30.4571C34.0958 30.6167 34.1381 30.7784 34.1677 30.9429L34.7748 32.8705C34.7876 32.7513 34.8516 32.6084 34.9147 32.4586C34.9768 32.3049 35.0458 32.161 35.0871 32.0319V32.0329Z" fill="#1D8E7C"/>
<path d="M36.32 30.6973C36.4373 30.6402 36.594 30.5633 36.7369 30.4845C36.8798 30.4066 37.0256 30.3327 37.1429 30.314L37.133 30.3051L35.1601 29.8646C35.3109 29.9198 35.4577 29.9878 35.5957 30.0725C35.2695 29.9917 34.9591 29.8774 34.6644 29.7789C34.8083 29.837 34.9453 29.909 35.0724 29.9947C35.1936 30.0785 35.304 30.177 35.4015 30.2884C35.1305 30.1169 34.8792 29.9602 34.6467 29.8419C34.759 29.9129 34.8536 29.9937 34.9403 30.0854C35.0182 30.1731 35.0862 30.2726 35.1335 30.3721C34.967 30.2007 34.8122 30.0647 34.6723 29.9582C34.69 30.0075 34.7117 30.0597 34.7462 30.1198C34.7758 30.178 34.8103 30.2391 34.8546 30.3051C34.9423 30.4352 35.0438 30.5702 35.1966 30.6766C35.3454 30.7801 35.5287 30.8383 35.7228 30.8373C35.9229 30.8402 36.1269 30.7821 36.319 30.6954L36.32 30.6973Z" fill="#1D8E7C"/>
<path d="M35.2675 30.962C35.363 31.1099 35.4261 31.2941 35.436 31.4794C35.4419 31.573 35.4399 31.6726 35.4271 31.7672C35.4133 31.8608 35.3916 31.9554 35.365 32.0461C35.3473 32.117 35.3089 32.2166 35.2694 32.3328C35.6183 32.3328 36.0283 32.1476 36.3032 31.8243C36.5535 31.5356 36.6767 31.1572 36.6619 30.8398C36.5407 30.895 36.4244 30.9423 36.3535 30.9709C36.0036 31.1158 35.5818 31.1414 35.2684 30.963L35.2675 30.962Z" fill="#1D8E7C"/>
<path d="M32.2559 31.9653C32.3564 31.9515 32.4618 31.919 32.5574 31.8835C32.654 31.8481 32.7437 31.8027 32.8255 31.7436C32.9881 31.6293 33.1024 31.4854 33.1674 31.3129C33.2266 31.1553 33.2404 31.0055 33.2423 30.8655C33.2423 30.7966 33.2384 30.7325 33.2315 30.6744C33.2256 30.6142 33.2197 30.5551 33.2088 30.5068C33.198 30.5797 33.1872 30.6615 33.1793 30.7522C33.1714 30.8409 33.1684 30.9325 33.1655 31.036C33.0886 30.8458 33.0876 30.5926 33.1684 30.3531C33.0719 30.5817 32.9802 30.8685 32.8817 31.1651C32.8767 31.0252 32.9024 30.8734 32.9457 30.7325C32.9881 30.5926 33.0561 30.4497 33.1379 30.3137C32.9684 30.5748 32.7841 30.8508 32.5673 31.105C32.6964 30.8015 32.8905 30.5324 33.1024 30.2792C32.9881 30.4024 32.8708 30.5186 32.7427 30.6251L31.3739 32.1122C31.4803 32.0668 31.64 32.0471 31.8016 32.0274C31.9602 32.0126 32.1278 31.988 32.2569 31.9653H32.2559Z" fill="#1D8E7C"/>
<path d="M34.0278 32.3639C34.1362 32.4398 34.2811 32.5364 34.421 32.6191C34.5609 32.7078 34.6979 32.7955 34.7718 32.8842L34.7748 32.8704L34.1677 30.9428C34.1963 31.1045 34.2121 31.2671 34.2072 31.4257C34.1145 31.1025 34.0584 30.7773 33.9953 30.4747C34.0386 30.7802 34.0219 31.0926 33.9224 31.3646C33.9352 31.0434 33.947 30.7556 33.9312 30.4885C33.9224 30.7566 33.8415 30.9931 33.7154 31.1764C33.7804 30.9418 33.8218 30.7507 33.8435 30.5684C33.7775 30.6482 33.7046 30.7645 33.6336 30.8995C33.5646 31.0404 33.4976 31.2 33.4818 31.3824C33.4661 31.5657 33.5085 31.746 33.606 31.9175C33.6543 32.0052 33.7164 32.087 33.7883 32.1589C33.8603 32.2318 33.9421 32.3067 34.0258 32.3619L34.0278 32.3639Z" fill="#1D8E7C"/>
<path d="M33.2739 31.5862C33.1941 31.7439 33.0689 31.8809 32.9102 31.9913C32.7565 32.0918 32.5663 32.1736 32.385 32.2101C32.317 32.2248 32.2046 32.2544 32.0874 32.2721C32.2648 32.5727 32.6323 32.8339 33.0462 32.9107C33.4178 32.9886 33.81 32.9009 34.0761 32.7294C33.9686 32.6575 33.8691 32.5747 33.809 32.5284C33.6622 32.419 33.5252 32.2633 33.4296 32.1076C33.334 31.94 33.2798 31.7636 33.2739 31.5862Z" fill="#1D8E7C"/>
<path d="M30.8989 29.4776C31.0359 29.6373 31.1945 29.7782 31.3768 29.861C31.5522 29.9457 31.7424 29.9713 31.9208 29.9418C32.0883 29.9142 32.2243 29.8511 32.3426 29.7831C32.4648 29.7141 32.5564 29.6422 32.6392 29.5752C32.4954 29.6294 32.3387 29.7023 32.1573 29.8009C32.2263 29.72 32.3061 29.6481 32.4106 29.59C32.5072 29.5318 32.6284 29.4885 32.7535 29.4628C32.6294 29.4786 32.4924 29.5013 32.3495 29.5289C32.2046 29.5584 32.0568 29.589 31.905 29.6195C32.0272 29.5456 32.1632 29.4914 32.312 29.4589C32.4589 29.4254 32.6077 29.4126 32.7693 29.4155C32.4559 29.3998 32.1278 29.3781 31.7976 29.317C32.1268 29.2766 32.4589 29.3111 32.7841 29.3672C32.6205 29.3298 32.4589 29.2854 32.3012 29.2283L30.3283 28.7878C30.4249 28.8577 30.5224 28.9859 30.617 29.115C30.7106 29.2441 30.8171 29.3781 30.8979 29.4776H30.8989Z" fill="#1D8E7C"/>
<path d="M31.4409 31.212C31.4232 31.349 31.4232 31.5126 31.4143 31.6801C31.4074 31.8457 31.4035 32.0044 31.3611 32.1157L31.3739 32.1118L32.7427 30.6247C32.6186 30.7282 32.4855 30.8218 32.3426 30.9006C32.5762 30.6592 32.8314 30.4473 33.064 30.2403C32.9398 30.3369 32.8078 30.4227 32.6747 30.4847C32.5407 30.5488 32.3949 30.5991 32.2549 30.6217C32.5338 30.4779 32.8009 30.335 33.0187 30.193C32.7851 30.3162 32.5318 30.3685 32.315 30.3478C32.5427 30.2916 32.7408 30.2256 32.9044 30.1566C32.7999 30.1388 32.6659 30.131 32.5111 30.1398C32.3594 30.1477 32.183 30.1724 32.0184 30.2502C31.8548 30.3271 31.7178 30.4552 31.6153 30.6276C31.5197 30.7952 31.4586 31.0071 31.4429 31.212H31.4409Z" fill="#1D8E7C"/>
<path d="M31.7376 30.1706C31.5543 30.1814 31.3788 30.141 31.2044 30.0582C31.1157 30.0178 31.0398 29.9646 30.962 29.9065C30.8861 29.8473 30.8112 29.7823 30.7501 29.7123C30.7018 29.6581 30.6269 29.5744 30.5471 29.4857C30.3766 29.7892 30.3332 30.2386 30.4761 30.6377C30.6013 30.9974 30.8595 31.296 31.1482 31.4369C31.163 31.3039 31.1729 31.1846 31.1877 31.1058C31.2024 31.0132 31.2231 30.9185 31.2497 30.8289C31.2793 30.7372 31.3197 30.6475 31.364 30.5657C31.4518 30.4031 31.5878 30.2632 31.7366 30.1706H31.7376Z" fill="#1D8E7C"/>
<path d="M32.3752 27.061C32.3022 27.2542 32.2658 27.471 32.2815 27.6632C32.2993 27.8613 32.3693 28.0367 32.4836 28.1766C32.7014 28.4338 32.9704 28.5432 33.1606 28.6152C33.0443 28.5215 32.8975 28.4181 32.724 28.3126C32.931 28.3471 33.1448 28.4624 33.3173 28.6575C33.1626 28.4516 32.9674 28.2436 32.7546 28.0002C32.8827 28.0741 32.997 28.1628 33.0985 28.2722C33.202 28.3845 33.2897 28.5107 33.3666 28.6477C33.2256 28.3727 33.0778 28.0761 32.9655 27.7598C33.1616 28.017 33.3015 28.3284 33.4158 28.6368C33.3666 28.4772 33.3242 28.3156 33.2946 28.151L32.6876 26.2234C32.6748 26.3426 32.6107 26.4855 32.5476 26.6353C32.4855 26.7891 32.4166 26.9329 32.3752 27.062V27.061Z" fill="#1D8E7C"/>
<path d="M31.1413 28.3963C31.024 28.4535 30.8673 28.5303 30.7244 28.6092C30.5815 28.687 30.4357 28.761 30.3184 28.7797L30.3283 28.7885L32.3012 29.2291C32.1504 29.1739 32.0036 29.1059 31.8656 29.0211C32.1918 29.1019 32.5022 29.2162 32.7969 29.3148C32.653 29.2566 32.516 29.1847 32.3889 29.099C32.2677 29.0152 32.1573 28.9167 32.0598 28.8053C32.3308 28.9768 32.5821 29.1335 32.8146 29.2517C32.7023 29.1808 32.6077 29.1 32.521 29.0083C32.4431 28.9206 32.3751 28.8211 32.3278 28.7215C32.4944 28.893 32.6491 29.029 32.789 29.1354C32.7713 29.0862 32.7496 29.0339 32.7151 28.9738C32.6855 28.9157 32.651 28.8546 32.6067 28.7895C32.519 28.6594 32.4175 28.5244 32.2647 28.418C32.1159 28.3145 31.9326 28.2564 31.7385 28.2574C31.5384 28.2544 31.3344 28.3126 31.1423 28.3993L31.1413 28.3963Z" fill="#1D8E7C"/>
<path d="M32.1938 28.1327C32.0982 27.9849 32.0352 27.8006 32.0253 27.6153C32.0194 27.5217 32.0214 27.4222 32.0342 27.3276C32.048 27.2339 32.0697 27.1393 32.0963 27.0487C32.114 26.9777 32.1524 26.8782 32.1919 26.7619C31.843 26.7619 31.433 26.9472 31.1581 27.2704C30.9078 27.5592 30.7846 27.9376 30.7994 28.2549C30.9206 28.1997 31.0369 28.1524 31.1078 28.1238C31.4577 27.979 31.8795 27.9533 32.1928 28.1317L32.1938 28.1327Z" fill="#1D8E7C"/>
<path d="M35.2065 27.1294C35.1059 27.1432 35.0005 27.1757 34.9049 27.2112C34.8083 27.2467 34.7187 27.292 34.6369 27.3511C34.4743 27.4654 34.3599 27.6093 34.2949 27.7818C34.2358 27.9394 34.222 28.0892 34.22 28.2292C34.22 28.2982 34.2239 28.3622 34.2308 28.4204C34.2368 28.4805 34.2427 28.5396 34.2535 28.5879C34.2643 28.515 34.2752 28.4332 34.2831 28.3425C34.291 28.2538 34.2939 28.1622 34.2969 28.0587C34.3737 28.2489 34.3747 28.5022 34.2939 28.7416C34.3905 28.513 34.4821 28.2262 34.5807 27.9296C34.5856 28.0695 34.56 28.2213 34.5166 28.3622C34.4743 28.5022 34.4072 28.645 34.3245 28.781C34.494 28.5199 34.6782 28.244 34.8951 27.9897C34.766 28.2932 34.5718 28.5623 34.3599 28.8155C34.4742 28.6924 34.5915 28.5761 34.7196 28.4696L36.0885 26.9825C35.982 27.0279 35.8224 27.0476 35.6608 27.0673C35.5021 27.0821 35.3346 27.1067 35.2055 27.1294H35.2065Z" fill="#1D8E7C"/>
<path d="M33.4335 26.7299C33.3251 26.654 33.1803 26.5574 33.0403 26.4746C32.9004 26.3859 32.7634 26.2982 32.6885 26.2095L32.6866 26.2223L33.2936 28.1499C33.265 27.9883 33.2493 27.8257 33.2542 27.6661C33.3468 27.9893 33.403 28.3145 33.4661 28.6171C33.4227 28.3116 33.4395 27.9992 33.539 27.7272C33.5262 28.0484 33.5144 28.3362 33.5301 28.6033C33.539 28.3352 33.6198 28.0987 33.7459 27.9154C33.6809 28.1499 33.6395 28.3411 33.6178 28.5234C33.6839 28.4436 33.7568 28.3273 33.8277 28.1923C33.8967 28.0514 33.9637 27.8918 33.9795 27.7094C33.9953 27.5261 33.9529 27.3458 33.8553 27.1743C33.807 27.0866 33.745 27.0048 33.673 26.9329C33.6011 26.86 33.5193 26.7851 33.4355 26.7299H33.4335Z" fill="#1D8E7C"/>
<path d="M34.1884 27.5073C34.2682 27.3496 34.3934 27.2126 34.552 27.1023C34.7058 27.0017 34.896 26.9199 35.0773 26.8835C35.1453 26.8687 35.2576 26.8391 35.3749 26.8214C35.1975 26.5208 34.83 26.2597 34.416 26.1828C34.0445 26.1049 33.6523 26.1927 33.3862 26.3641C33.4936 26.4361 33.5932 26.5188 33.6533 26.5652C33.8001 26.6746 33.9371 26.8303 34.0327 26.986C34.1283 27.1535 34.1825 27.3299 34.1884 27.5073Z" fill="#1D8E7C"/>
<path d="M36.5634 29.6165C36.4264 29.4558 36.2677 29.3159 36.0854 29.2331C35.91 29.1484 35.7198 29.1227 35.5414 29.1523C35.3739 29.1799 35.2379 29.243 35.1197 29.311C34.9975 29.38 34.9058 29.4519 34.823 29.5189C34.9669 29.4647 35.1236 29.3918 35.3049 29.2932C35.2359 29.374 35.1561 29.446 35.0517 29.5041C34.9551 29.5623 34.8339 29.6056 34.7087 29.6312C34.8329 29.6155 34.9699 29.5928 35.1128 29.5652C35.2576 29.5357 35.4054 29.5051 35.5572 29.4746C35.435 29.5485 35.299 29.6027 35.1502 29.6352C35.0034 29.6687 34.8546 29.6815 34.6929 29.6786C35.0063 29.6943 35.3345 29.716 35.6646 29.7771C35.3355 29.8175 35.0034 29.783 34.6782 29.7268C34.8418 29.7643 35.0034 29.8086 35.161 29.8658L37.134 30.3063C37.0374 30.2363 36.9398 30.1082 36.8452 29.9791C36.7516 29.85 36.6452 29.716 36.5644 29.6165H36.5634Z" fill="#1D8E7C"/>
<path d="M36.0214 27.882C36.0391 27.745 36.0391 27.5814 36.048 27.4139C36.0549 27.2484 36.0588 27.0897 36.1012 26.9783L36.0884 26.9823L34.7195 28.4694C34.8437 28.3659 34.9768 28.2723 35.1196 28.1934C34.8861 28.4349 34.6308 28.6468 34.3983 28.8537C34.5224 28.7571 34.6545 28.6714 34.7875 28.6093C34.9216 28.5452 35.0674 28.495 35.2074 28.4723C34.9285 28.6162 34.6614 28.7591 34.4436 28.901C34.6772 28.7778 34.9304 28.7256 35.1472 28.7463C34.9196 28.8025 34.7215 28.8695 34.5579 28.9375C34.6624 28.9552 34.7964 28.9631 34.9511 28.9542C35.1029 28.9463 35.2793 28.9217 35.4439 28.8438C35.6075 28.767 35.7444 28.6389 35.8469 28.4664C35.9425 28.2989 36.0036 28.087 36.0194 27.882H36.0214Z" fill="#1D8E7C"/>
<path d="M35.7248 28.9236C35.9081 28.9128 36.0835 28.9532 36.2579 29.036C36.3466 29.0764 36.4225 29.1296 36.5003 29.1877C36.5762 29.2469 36.6511 29.3129 36.7122 29.3819C36.7605 29.4361 36.8354 29.5198 36.9152 29.6085C37.0857 29.305 37.1291 28.8556 36.9862 28.4565C36.861 28.0968 36.6028 27.7982 36.3141 27.6573C36.2993 27.7903 36.2894 27.9096 36.2747 27.9884C36.2599 28.081 36.2392 28.1757 36.2126 28.2653C36.183 28.357 36.1426 28.4467 36.0983 28.5285C36.0105 28.6911 35.8746 28.831 35.7258 28.9236H35.7248Z" fill="#1D8E7C"/>
<path d="M34.0732 29.6232C34.0308 29.8124 33.8435 29.9316 33.6543 29.8893C33.4651 29.8469 33.3459 29.6596 33.3882 29.4704C33.4306 29.2812 33.6179 29.162 33.8071 29.2044C33.9963 29.2467 34.1155 29.434 34.0732 29.6232Z" fill="#1D8E7C"/>
<path d="M33.4266 25.1404C33.4995 24.8428 33.535 24.6319 33.3497 24.2209C33.2531 24.5195 33.2935 24.8655 33.4266 25.1404Z" fill="#1D8E7C"/>
<path d="M33.0482 25.1838C33.0945 24.8793 33.1122 24.6655 32.8925 24.2742C32.8215 24.5817 32.8925 24.9227 33.0482 25.1838Z" fill="#1D8E7C"/>
<path d="M32.6747 25.2578C32.6944 24.9494 32.6934 24.7345 32.4411 24.365C32.3977 24.6784 32.4973 25.0125 32.6747 25.2578Z" fill="#1D8E7C"/>
<path d="M32.3091 25.362C32.3012 25.0516 32.2825 24.8377 31.9996 24.4928C31.9839 24.8101 32.112 25.1343 32.3091 25.362Z" fill="#1D8E7C"/>
<path d="M31.9533 25.4984C31.9365 25.3417 31.9188 25.2155 31.8656 25.0845C31.8124 24.9534 31.7257 24.8164 31.5699 24.6597C31.5818 24.978 31.7385 25.2904 31.9533 25.4984Z" fill="#1D8E7C"/>
<path d="M31.6104 25.6649C31.5532 25.3672 31.497 25.1603 31.1561 24.8627C31.1965 25.18 31.3788 25.4776 31.6104 25.6649Z" fill="#1D8E7C"/>
<path d="M31.2852 25.8638C31.2024 25.5711 31.1295 25.3711 30.7629 25.103C30.828 25.4125 31.0349 25.6914 31.2852 25.8638Z" fill="#1D8E7C"/>
<path d="M30.9777 26.0893C30.8693 25.8045 30.7786 25.6104 30.3923 25.3759C30.481 25.6754 30.7116 25.9366 30.9777 26.0893Z" fill="#1D8E7C"/>
<path d="M30.6909 26.3397C30.5579 26.0648 30.4514 25.8785 30.0464 25.6794C30.1617 25.9711 30.413 26.2116 30.6909 26.3397Z" fill="#1D8E7C"/>
<path d="M30.4258 26.614C30.2691 26.3499 30.1469 26.1745 29.7271 26.0109C29.867 26.2917 30.139 26.5105 30.4258 26.614Z" fill="#1D8E7C"/>
<path d="M30.1844 26.9095C30.005 26.6592 29.8671 26.4946 29.4374 26.3685C29.602 26.6375 29.8917 26.8316 30.1844 26.9095Z" fill="#1D8E7C"/>
<path d="M29.9695 27.2235C29.7685 26.989 29.6167 26.8362 29.1792 26.7485C29.3674 27.0028 29.6719 27.1723 29.9695 27.2235Z" fill="#1D8E7C"/>
<path d="M29.7823 27.5551C29.5606 27.3392 29.396 27.1993 28.9535 27.15C29.1634 27.3875 29.4817 27.5304 29.7823 27.5551Z" fill="#1D8E7C"/>
<path d="M29.6227 27.9008C29.3822 27.7047 29.2068 27.5795 28.7624 27.5687C28.9939 27.7874 29.3231 27.9018 29.6227 27.9008Z" fill="#1D8E7C"/>
<path d="M29.4936 28.2596C29.2432 28.0871 29.058 27.9767 28.6076 28.0033C28.8579 28.2024 29.1969 28.2872 29.4936 28.2596Z" fill="#1D8E7C"/>
<path d="M29.3999 28.6293C29.1358 28.4786 28.9436 28.3859 28.4943 28.451C28.7574 28.6264 29.1003 28.6816 29.3999 28.6293Z" fill="#1D8E7C"/>
<path d="M29.3388 29.0051C29.0619 28.878 28.8618 28.8021 28.4213 28.9056C28.6943 29.0573 29.0422 29.083 29.3388 29.0051Z" fill="#1D8E7C"/>
<path d="M29.3103 29.3847C29.0216 29.2812 28.8156 29.2231 28.3879 29.363C28.6747 29.4911 29.0236 29.4872 29.3103 29.3847Z" fill="#1D8E7C"/>
<path d="M29.3113 29.7663C29.0136 29.6874 28.8018 29.647 28.3908 29.8234C28.6894 29.9259 29.0363 29.8934 29.3113 29.7663Z" fill="#1D8E7C"/>
<path d="M29.3448 30.1468C29.0393 30.0946 28.8255 30.0719 28.4322 30.2828C28.7397 30.3597 29.0827 30.2966 29.3448 30.1468Z" fill="#1D8E7C"/>
<path d="M29.4089 30.5219C29.0994 30.4963 28.8836 30.4923 28.5121 30.7357C28.8264 30.786 29.1635 30.6924 29.4089 30.5219Z" fill="#1D8E7C"/>
<path d="M29.5054 30.8907C29.2019 30.8897 28.987 30.9045 28.6303 31.1814C28.9496 31.2031 29.2768 31.0819 29.5054 30.8907Z" fill="#1D8E7C"/>
<path d="M29.6364 31.2478C29.3339 31.2734 29.123 31.3059 28.7889 31.6134C29.1053 31.6085 29.4186 31.4607 29.6364 31.2478Z" fill="#1D8E7C"/>
<path d="M29.7991 31.5923C29.4985 31.6446 29.2906 31.6948 28.9861 32.0299C29.2975 32.0003 29.5981 31.8249 29.7991 31.5923Z" fill="#1D8E7C"/>
<path d="M29.9903 31.9224C29.6946 32.0002 29.4916 32.0692 29.2186 32.4279C29.5271 32.3708 29.8119 32.1697 29.9903 31.9224Z" fill="#1D8E7C"/>
<path d="M30.208 32.235C29.9193 32.3385 29.7222 32.4252 29.4827 32.8047C29.7863 32.7209 30.0523 32.4962 30.208 32.235Z" fill="#1D8E7C"/>
<path d="M30.4514 32.5274C30.1716 32.6565 29.9833 32.759 29.7774 33.1571C30.073 33.0468 30.3194 32.8004 30.4514 32.5274Z" fill="#1D8E7C"/>
<path d="M30.7195 32.7997C30.4515 32.9524 30.2721 33.0717 30.1016 33.4846C30.3874 33.3486 30.6121 33.0815 30.7195 32.7997Z" fill="#1D8E7C"/>
<path d="M31.0082 33.0472C30.753 33.2236 30.5845 33.3576 30.4514 33.7823C30.7254 33.6217 30.9264 33.3369 31.0082 33.0472Z" fill="#1D8E7C"/>
<path d="M31.3177 33.2698C31.0783 33.4669 30.9216 33.6157 30.826 34.0503C31.0852 33.8661 31.2616 33.5645 31.3177 33.2698Z" fill="#1D8E7C"/>
<path d="M31.6449 33.4657C31.4261 33.6786 31.2832 33.8392 31.2221 34.2856C31.4655 34.0787 31.6143 33.7633 31.6449 33.4657Z" fill="#1D8E7C"/>
<path d="M31.9888 33.6306C31.7898 33.8602 31.6616 34.0307 31.638 34.484C31.8617 34.2574 31.9829 33.9322 31.9888 33.6306Z" fill="#1D8E7C"/>
<path d="M32.3455 33.7633C32.1672 34.0097 32.0538 34.192 32.0696 34.6443C32.2716 34.4058 32.3633 34.0698 32.3455 33.7633Z" fill="#1D8E7C"/>
<path d="M32.7122 33.8647C32.5555 34.1269 32.4579 34.3181 32.5141 34.7665C32.6945 34.5102 32.7575 34.1673 32.7122 33.8647Z" fill="#1D8E7C"/>
<path d="M33.0866 33.9362C32.9525 34.2131 32.8727 34.4121 32.9673 34.8507C33.125 34.5787 33.1585 34.2318 33.0866 33.9362Z" fill="#1D8E7C"/>
<path d="M33.4661 33.9745C33.3557 34.2632 33.2936 34.4692 33.4256 34.8959C33.5597 34.6091 33.5636 34.2613 33.4661 33.9745Z" fill="#1D8E7C"/>
<path d="M33.8474 33.9825C33.7626 34.2811 33.7173 34.492 33.8848 34.9039C33.9942 34.6053 33.9676 34.2574 33.8474 33.9825Z" fill="#1D8E7C"/>
<path d="M34.2279 33.9594C34.1687 34.26 34.1411 34.4738 34.3442 34.8739C34.4269 34.5655 34.3717 34.2215 34.2279 33.9594Z" fill="#1D8E7C"/>
<path d="M34.6043 33.9011C34.5698 34.2027 34.5619 34.4155 34.7984 34.8038C34.8546 34.4904 34.7698 34.1544 34.6043 33.9011Z" fill="#1D8E7C"/>
<path d="M34.9739 33.8075C34.966 34.112 34.9758 34.3259 35.2459 34.6895C35.2774 34.3791 35.1631 34.0499 34.9739 33.8075Z" fill="#1D8E7C"/>
<path d="M35.3345 33.6848C35.3542 33.9903 35.3818 34.2021 35.6814 34.5402C35.6853 34.2268 35.5424 33.9085 35.3345 33.6848Z" fill="#1D8E7C"/>
<path d="M35.6824 33.5311C35.7287 33.8347 35.775 34.0446 36.1022 34.353C36.0786 34.0396 35.9091 33.7351 35.6824 33.5311Z" fill="#1D8E7C"/>
<path d="M36.0165 33.3483C36.0894 33.6479 36.1545 33.8528 36.5053 34.1307C36.454 33.8193 36.2589 33.5306 36.0165 33.3483Z" fill="#1D8E7C"/>
<path d="M36.3347 33.1376C36.4333 33.4303 36.5161 33.6294 36.8886 33.8748C36.8097 33.5683 36.591 33.2963 36.3347 33.1376Z" fill="#1D8E7C"/>
<path d="M36.6333 32.9012C36.7575 33.1851 36.857 33.3762 37.2483 33.5881C37.1428 33.2885 36.9014 33.0372 36.6333 32.9012Z" fill="#1D8E7C"/>
<path d="M36.9113 32.6407C36.9862 32.7787 37.0512 32.8901 37.1488 32.9916C37.2473 33.0931 37.3794 33.1867 37.5824 33.2734C37.4513 32.9837 37.1892 32.7531 36.9113 32.6417V32.6407Z" fill="#1D8E7C"/>
<path d="M37.1665 32.3569C37.333 32.6121 37.4631 32.7826 37.8898 32.9294C37.7331 32.6505 37.4523 32.4436 37.1665 32.3569Z" fill="#1D8E7C"/>
<path d="M37.3942 32.0507C37.5804 32.2901 37.7243 32.4488 38.1648 32.5592C37.9865 32.296 37.6898 32.1147 37.3942 32.0507Z" fill="#1D8E7C"/>
<path d="M37.5943 31.7266C37.8022 31.9493 37.9579 32.0952 38.4053 32.1671C38.2102 31.9227 37.8988 31.767 37.5943 31.7266Z" fill="#1D8E7C"/>
<path d="M37.7647 31.3854C37.9913 31.5904 38.1599 31.7225 38.6102 31.754C38.3944 31.5273 38.0702 31.3992 37.7647 31.3854Z" fill="#1D8E7C"/>
<path d="M37.9067 31.0325C38.1521 31.2168 38.3314 31.334 38.7808 31.3271C38.5443 31.1192 38.2112 31.0197 37.9067 31.0325Z" fill="#1D8E7C"/>
<path d="M38.017 30.6692C38.2781 30.8318 38.4674 30.9333 38.9138 30.887C38.6595 30.7008 38.3176 30.6298 38.017 30.6692Z" fill="#1D8E7C"/>
<path d="M38.0969 30.2962C38.3728 30.4361 38.5709 30.5209 39.0084 30.4352C38.7374 30.2706 38.3915 30.2302 38.0969 30.2962Z" fill="#1D8E7C"/>
<path d="M38.1461 29.9182C38.4349 30.0344 38.6398 30.1015 39.0666 29.9783C38.7808 29.8383 38.4319 29.8275 38.1461 29.9182Z" fill="#1D8E7C"/>
<path d="M38.1639 29.5365C38.4536 29.6281 38.6625 29.6774 39.0853 29.5188C38.7867 29.4035 38.4388 29.4222 38.1639 29.5365Z" fill="#1D8E7C"/>
<path d="M38.1431 29.1556C38.4397 29.2216 38.6516 29.2531 39.0616 29.059C38.9137 29.0137 38.7492 29.0028 38.5915 29.0216C38.4348 29.0393 38.282 29.0856 38.1431 29.1556Z" fill="#1D8E7C"/>
<path d="M38.091 28.7781C38.3935 28.8186 38.6073 28.8314 38.9976 28.6037C38.6911 28.5397 38.3521 28.6175 38.091 28.7781Z" fill="#1D8E7C"/>
<path d="M38.0071 28.4072C38.3136 28.421 38.5284 28.4151 38.895 28.1549C38.5826 28.1175 38.2515 28.2249 38.0071 28.4072Z" fill="#1D8E7C"/>
<path d="M37.8928 28.0435C38.2003 28.0297 38.4142 28.006 38.7551 27.7153C38.4398 27.7054 38.1185 27.8414 37.8928 28.0435Z" fill="#1D8E7C"/>
<path d="M37.748 27.6921C38.0544 27.6517 38.2653 27.6093 38.5787 27.29C38.2624 27.3078 37.9539 27.4704 37.748 27.6921Z" fill="#1D8E7C"/>
<path d="M37.5745 27.3537C37.877 27.2867 38.084 27.2256 38.3668 26.8817C38.0524 26.928 37.7587 27.1162 37.5745 27.3537Z" fill="#1D8E7C"/>
<path d="M37.3715 27.0307C37.5213 26.9834 37.6425 26.942 37.7607 26.8651C37.879 26.7883 37.9972 26.6759 38.1204 26.4926C37.81 26.5665 37.5341 26.7794 37.3715 27.0307Z" fill="#1D8E7C"/>
<path d="M37.1419 26.7263C37.4228 26.613 37.6159 26.5174 37.8416 26.1262C37.5381 26.2267 37.2808 26.4622 37.1419 26.7263Z" fill="#1D8E7C"/>
<path d="M36.8847 26.4439C37.1557 26.307 37.339 26.1966 37.5322 25.7856C37.2405 25.9098 37.0059 26.166 36.8847 26.4439Z" fill="#1D8E7C"/>
<path d="M36.6038 26.186C36.863 26.0254 37.0354 25.8992 37.1921 25.4745C36.9152 25.6194 36.7023 25.8953 36.6038 26.186Z" fill="#1D8E7C"/>
<path d="M36.3032 25.9516C36.5476 25.7683 36.7102 25.6284 36.8285 25.1928C36.5644 25.3613 36.3761 25.654 36.3032 25.9516Z" fill="#1D8E7C"/>
<path d="M35.9839 25.7446C36.2126 25.5396 36.3624 25.3859 36.4422 24.9434C36.1928 25.1346 36.0303 25.4431 35.9839 25.7446Z" fill="#1D8E7C"/>
<path d="M35.6478 25.5653C35.8587 25.3406 35.9947 25.1741 36.0351 24.7277C35.8026 24.9405 35.6676 25.2618 35.6478 25.5653Z" fill="#1D8E7C"/>
<path d="M35.298 25.4144C35.4882 25.171 35.6104 24.9936 35.6114 24.5472C35.3976 24.7807 35.2911 25.1128 35.298 25.4144Z" fill="#1D8E7C"/>
<path d="M34.9364 25.2951C35.1059 25.0349 35.2114 24.8476 35.1729 24.4042C34.9808 24.6565 34.9029 24.9964 34.9364 25.2951Z" fill="#1D8E7C"/>
<path d="M34.5668 25.2052C34.6407 25.0663 34.6978 24.952 34.7294 24.815C34.7599 24.677 34.7658 24.5144 34.7264 24.2976C34.5559 24.5676 34.5076 24.9125 34.5677 25.2062L34.5668 25.2052Z" fill="#1D8E7C"/>
<path d="M34.1893 25.1482C34.3105 24.8702 34.3815 24.6692 34.2692 24.2287C34.1223 24.5145 34.1046 24.8604 34.1893 25.1482Z" fill="#1D8E7C"/>
<path d="M33.808 25.1294C33.9055 24.8406 33.9588 24.6337 33.81 24.206C33.6887 24.4928 33.6996 24.8416 33.808 25.1294Z" fill="#1D8E7C"/>
<path d="M32.0952 8.33782C32.0302 8.1427 31.9306 7.94856 31.767 7.80172C31.6074 7.65981 31.3866 7.57801 31.16 7.57013C30.9323 7.56126 30.7086 7.62729 30.4938 7.73668C31.0969 7.72288 31.6626 7.98502 32.0962 8.33782H32.0952Z" fill="#1D8E7C"/>
<path d="M31.8253 9.46522C31.7228 9.2898 31.5907 9.11833 31.4074 9.00204C31.2251 8.8897 30.9945 8.84634 30.7688 8.87787C30.5412 8.90842 30.3303 9.01288 30.1401 9.16366C30.7304 9.03654 31.3325 9.20111 31.8253 9.46423V9.46522Z" fill="#1D8E7C"/>
<path d="M31.7878 10.5877C31.6488 10.4448 31.4843 10.3078 31.2803 10.2339C31.0783 10.1629 30.8437 10.1669 30.6299 10.2457C30.4131 10.3236 30.2288 10.4734 30.077 10.6665C30.6249 10.4073 31.2487 10.4468 31.7868 10.5877H31.7878Z" fill="#1D8E7C"/>
<path d="M32.0174 11.6493C31.8499 11.5508 31.6528 11.4651 31.4389 11.4453C31.227 11.4286 31.0004 11.4897 30.8131 11.6198C30.621 11.7508 30.486 11.943 30.3894 12.1736C30.8496 11.7755 31.4655 11.6592 32.0184 11.6493H32.0174Z" fill="#1D8E7C"/>
<path d="M32.523 12.5946C32.3347 12.5463 32.1199 12.5197 31.91 12.5601C31.7021 12.6025 31.501 12.7247 31.3571 12.9021C31.2093 13.0814 31.1334 13.3041 31.1048 13.5515C31.436 13.041 31.9947 12.7582 32.523 12.5936V12.5946Z" fill="#1D8E7C"/>
<path d="M33.2887 13.4082C33.0906 13.3944 32.8807 13.4082 32.6806 13.5047C32.4865 13.5993 32.3259 13.7698 32.2322 13.9758C32.1386 14.1808 32.11 14.4193 32.1307 14.6656C32.3465 14.0941 32.8087 13.6762 33.2887 13.4082Z" fill="#1D8E7C"/>
<path d="M34.2465 14.0852C34.0406 14.1069 33.8317 14.1562 33.6513 14.2892C33.4769 14.4183 33.3507 14.6154 33.2956 14.8332C33.2404 15.05 33.2542 15.2865 33.3133 15.5191C33.4315 14.9268 33.807 14.4301 34.2456 14.0852H34.2465Z" fill="#1D8E7C"/>
<path d="M35.3276 14.6451C35.1177 14.6904 34.9128 14.7653 34.7502 14.921C34.5954 15.0688 34.4979 15.2837 34.4713 15.5074C34.4456 15.7291 34.487 15.9597 34.5688 16.1785C34.622 15.5823 34.9216 15.0383 35.3286 14.6441L35.3276 14.6451Z" fill="#1D8E7C"/>
<path d="M36.4935 15.1223C36.2796 15.1814 36.0786 15.2691 35.9318 15.4327C35.7879 15.5923 35.71 15.8141 35.7002 16.0397C35.6903 16.2664 35.7475 16.495 35.8391 16.704C35.8569 16.1087 36.1062 15.5401 36.4935 15.1213V15.1223Z" fill="#1D8E7C"/>
<path d="M37.7155 15.5617C37.4997 15.6218 37.2996 15.7145 37.1557 15.8849C37.0158 16.0505 36.9478 16.2752 36.9458 16.4999C36.9439 16.7246 37.005 16.9502 37.0986 17.1582C37.1055 16.563 37.3331 15.9855 37.7155 15.5617Z" fill="#1D8E7C"/>
<path d="M38.9729 16.0119C38.7512 16.0681 38.5462 16.1568 38.4003 16.3253C38.2584 16.4889 38.1904 16.7136 38.1855 16.9392C38.1816 17.1639 38.2368 17.3896 38.3235 17.5966C38.3471 17.0043 38.5758 16.4278 38.9729 16.0119Z" fill="#1D8E7C"/>
<path d="M40.2442 16.5313C40.0136 16.5697 39.8008 16.6437 39.647 16.8033C39.4963 16.96 39.4194 17.1817 39.4026 17.4054C39.3859 17.6311 39.4263 17.8588 39.4943 18.0696C39.5613 17.4823 39.8146 16.9166 40.2452 16.5313H40.2442Z" fill="#1D8E7C"/>
<path d="M41.4997 17.1806C41.2622 17.1845 41.0405 17.2338 40.868 17.3836C40.7015 17.5255 40.6039 17.7394 40.5655 17.9591C40.53 18.1759 40.5448 18.4065 40.5803 18.6243C40.7202 18.0488 41.0218 17.5078 41.4997 17.1806Z" fill="#1D8E7C"/>
<path d="M42.6892 18.0206C42.4566 17.9733 42.2132 18.0078 42.024 18.1211C41.8378 18.2354 41.7106 18.4335 41.6387 18.6444C41.5648 18.8582 41.5539 19.0741 41.549 19.2938C41.7836 18.7538 42.163 18.2561 42.6902 18.0196L42.6892 18.0206Z" fill="#1D8E7C"/>
<path d="M43.7259 19.0863C43.4943 19.0025 43.2667 18.967 43.0518 19.0478C42.8459 19.1237 42.6842 19.2942 42.5739 19.4874C42.4655 19.6785 42.3955 19.8983 42.3511 20.1062C42.6882 19.6263 43.1533 19.2154 43.7259 19.0853V19.0863Z" fill="#1D8E7C"/>
<path d="M44.5231 20.3355C44.3103 20.2123 44.0964 20.1325 43.8717 20.169C43.6549 20.2025 43.4618 20.3375 43.3149 20.504C43.1691 20.6706 43.0558 20.8746 42.9759 21.0707C43.3977 20.6647 43.9358 20.3562 44.5231 20.3355Z" fill="#1D8E7C"/>
<path d="M45.0701 21.6956C44.8848 21.5389 44.6818 21.4256 44.4601 21.4187C44.2413 21.4127 44.0275 21.5093 43.852 21.6483C43.6747 21.7882 43.5318 21.9666 43.4184 22.1479C43.9023 21.8207 44.4897 21.6148 45.0701 21.6956Z" fill="#1D8E7C"/>
<path d="M45.3785 23.1155C45.2248 22.9322 45.0385 22.7893 44.8217 22.7459C44.6088 22.7045 44.3812 22.7647 44.1841 22.8731C43.986 22.9815 43.8185 23.1352 43.6776 23.2978C44.2077 23.0505 44.8227 22.945 45.3785 23.1165V23.1155Z" fill="#1D8E7C"/>
<path d="M45.4623 24.5593C45.3421 24.3553 45.1756 24.1858 44.9686 24.11C44.7646 24.0361 44.5301 24.0607 44.3192 24.1376C44.1063 24.2144 43.922 24.3416 43.7535 24.4805C44.3172 24.3159 44.942 24.3071 45.4633 24.5593H45.4623Z" fill="#1D8E7C"/>
<path d="M45.3313 25.9926C45.2406 25.7748 45.1046 25.5846 44.9085 25.4791C44.7173 25.3756 44.4818 25.3648 44.2621 25.4092C44.0403 25.4545 43.8403 25.553 43.651 25.6673C44.2364 25.5856 44.8504 25.6703 45.3313 25.9935V25.9926Z" fill="#1D8E7C"/>
<path d="M45.01 27.3816C44.945 27.1549 44.8395 26.9519 44.6553 26.8198C44.4789 26.6927 44.2473 26.6503 44.0236 26.6661C43.8008 26.6829 43.584 26.7538 43.384 26.8455C43.9743 26.8366 44.5725 27.0022 45.01 27.3816Z" fill="#1D8E7C"/>
<path d="M44.531 28.7103C44.4887 28.4787 44.4098 28.2668 44.2423 28.115C44.0807 27.9682 43.857 27.8982 43.6333 27.8884C43.4115 27.8795 43.1839 27.9248 42.9759 27.9948C43.5633 28.05 44.1378 28.2855 44.532 28.7103H44.531Z" fill="#1D8E7C"/>
<path d="M43.921 29.9703C43.8993 29.7358 43.8432 29.519 43.6914 29.3514C43.5455 29.1888 43.3297 29.0962 43.109 29.0637C42.8882 29.0321 42.6566 29.0538 42.4428 29.1061C43.0223 29.2174 43.5682 29.5111 43.921 29.9703Z" fill="#1D8E7C"/>
<path d="M43.2027 31.1606C43.2007 30.927 43.1603 30.7043 43.0272 30.526C42.8962 30.3515 42.6902 30.2392 42.4724 30.1869C42.2536 30.1347 42.0221 30.1387 41.8043 30.1722C42.3729 30.3318 42.8903 30.6738 43.2027 31.1606Z" fill="#1D8E7C"/>
</g>
</svg>
