<svg width="97" height="22" viewBox="0 0 97 22" fill="none" xmlns="http://www.w3.org/2000/svg">
<g filter="url(#filter0_d_2904_55256)">
<path d="M8.84375 10.3711H11.2852C11.207 11.3021 10.9466 12.1322 10.5039 12.8613C10.0612 13.584 9.43945 14.1536 8.63867 14.5703C7.83789 14.987 6.86458 15.1953 5.71875 15.1953C4.83984 15.1953 4.04883 15.0391 3.3457 14.7266C2.64258 14.4076 2.04036 13.9583 1.53906 13.3789C1.03776 12.793 0.653646 12.0866 0.386719 11.2598C0.126302 10.4329 -0.00390625 9.50846 -0.00390625 8.48633V7.30469C-0.00390625 6.28255 0.129557 5.35807 0.396484 4.53125C0.669922 3.70443 1.06055 2.99805 1.56836 2.41211C2.07617 1.81966 2.6849 1.36719 3.39453 1.05469C4.11068 0.742188 4.91471 0.585938 5.80664 0.585938C6.93945 0.585938 7.89648 0.794271 8.67773 1.21094C9.45898 1.6276 10.0645 2.20378 10.4941 2.93945C10.9303 3.67513 11.1973 4.51823 11.2949 5.46875H8.85352C8.78841 4.85677 8.64518 4.33268 8.42383 3.89648C8.20898 3.46029 7.88997 3.12826 7.4668 2.90039C7.04362 2.66602 6.49023 2.54883 5.80664 2.54883C5.24674 2.54883 4.75846 2.65299 4.3418 2.86133C3.92513 3.06966 3.57682 3.37565 3.29688 3.7793C3.01693 4.18294 2.80534 4.68099 2.66211 5.27344C2.52539 5.85938 2.45703 6.52995 2.45703 7.28516V8.48633C2.45703 9.20247 2.51888 9.85352 2.64258 10.4395C2.77279 11.0189 2.9681 11.5169 3.22852 11.9336C3.49544 12.3503 3.83398 12.6725 4.24414 12.9004C4.6543 13.1283 5.14583 13.2422 5.71875 13.2422C6.41536 13.2422 6.97852 13.1315 7.4082 12.9102C7.8444 12.6888 8.17318 12.3665 8.39453 11.9434C8.6224 11.5137 8.77214 10.9896 8.84375 10.3711ZM14.8016 0V15H12.4578V0H14.8016ZM14.3914 9.32617L13.6297 9.31641C13.6362 8.58724 13.7371 7.91341 13.9324 7.29492C14.1342 6.67643 14.4142 6.13932 14.7723 5.68359C15.1368 5.22135 15.573 4.86654 16.0809 4.61914C16.5887 4.36523 17.1518 4.23828 17.7703 4.23828C18.2911 4.23828 18.7599 4.3099 19.1766 4.45312C19.5997 4.59635 19.9643 4.82747 20.2703 5.14648C20.5763 5.45898 20.8074 5.86914 20.9637 6.37695C21.1264 6.87826 21.2078 7.49023 21.2078 8.21289V15H18.8445V8.19336C18.8445 7.68555 18.7697 7.2819 18.6199 6.98242C18.4767 6.68294 18.2651 6.4681 17.9852 6.33789C17.7052 6.20117 17.3634 6.13281 16.9598 6.13281C16.5366 6.13281 16.1622 6.21745 15.8367 6.38672C15.5177 6.55599 15.2508 6.78711 15.0359 7.08008C14.8211 7.37305 14.6583 7.71159 14.5477 8.0957C14.4435 8.47982 14.3914 8.88997 14.3914 9.32617ZM29.148 12.5098V4.43359H31.5113V15H29.2848L29.148 12.5098ZM29.4801 10.3125L30.2711 10.293C30.2711 11.0026 30.193 11.6569 30.0367 12.2559C29.8805 12.8483 29.6396 13.3659 29.3141 13.8086C28.9885 14.2448 28.5719 14.5866 28.0641 14.834C27.5562 15.0749 26.9475 15.1953 26.2379 15.1953C25.7236 15.1953 25.2516 15.1204 24.8219 14.9707C24.3922 14.821 24.0211 14.5898 23.7086 14.2773C23.4026 13.9648 23.165 13.5579 22.9957 13.0566C22.8264 12.5553 22.7418 11.9564 22.7418 11.2598V4.43359H25.0953V11.2793C25.0953 11.6634 25.1409 11.9857 25.232 12.2461C25.3232 12.5 25.4469 12.7051 25.6031 12.8613C25.7594 13.0176 25.9417 13.1283 26.15 13.1934C26.3583 13.2585 26.5797 13.291 26.8141 13.291C27.4846 13.291 28.012 13.1608 28.3961 12.9004C28.7867 12.6335 29.0634 12.2754 29.2262 11.8262C29.3954 11.377 29.4801 10.8724 29.4801 10.3125ZM25.9645 2.93945L27.8687 0H30.525L27.8687 2.93945H25.9645ZM37.4398 13.3203C37.824 13.3203 38.169 13.2454 38.475 13.0957C38.7875 12.9395 39.0381 12.7246 39.227 12.4512C39.4223 12.1777 39.5297 11.862 39.5492 11.5039H41.766C41.753 12.1875 41.5512 12.8092 41.1605 13.3691C40.7699 13.929 40.2523 14.375 39.6078 14.707C38.9633 15.0326 38.2504 15.1953 37.4691 15.1953C36.6618 15.1953 35.9587 15.0586 35.3598 14.7852C34.7608 14.5052 34.2628 14.1211 33.8656 13.6328C33.4685 13.1445 33.169 12.5814 32.9672 11.9434C32.7719 11.3053 32.6742 10.6217 32.6742 9.89258V9.55078C32.6742 8.82161 32.7719 8.13802 32.9672 7.5C33.169 6.85547 33.4685 6.28906 33.8656 5.80078C34.2628 5.3125 34.7608 4.93164 35.3598 4.6582C35.9587 4.37826 36.6586 4.23828 37.4594 4.23828C38.3057 4.23828 39.0479 4.40755 39.6859 4.74609C40.324 5.07812 40.8253 5.54362 41.1898 6.14258C41.5609 6.73503 41.753 7.42513 41.766 8.21289H39.5492C39.5297 7.82227 39.432 7.4707 39.2562 7.1582C39.087 6.83919 38.8461 6.58529 38.5336 6.39648C38.2276 6.20768 37.8598 6.11328 37.4301 6.11328C36.9548 6.11328 36.5609 6.21094 36.2484 6.40625C35.9359 6.59505 35.6918 6.85547 35.516 7.1875C35.3402 7.51302 35.2133 7.88086 35.1352 8.29102C35.0635 8.69466 35.0277 9.11458 35.0277 9.55078V9.89258C35.0277 10.3288 35.0635 10.752 35.1352 11.1621C35.2068 11.5723 35.3305 11.9401 35.5062 12.2656C35.6885 12.5846 35.9359 12.8418 36.2484 13.0371C36.5609 13.2259 36.9581 13.3203 37.4398 13.3203ZM49.3066 6.58203V15H46.9531V4.43359H49.1699L49.3066 6.58203ZM48.9258 9.32617L48.125 9.31641C48.125 8.58724 48.2161 7.91341 48.3984 7.29492C48.5807 6.67643 48.8477 6.13932 49.1992 5.68359C49.5508 5.22135 49.987 4.86654 50.5078 4.61914C51.0352 4.36523 51.6439 4.23828 52.334 4.23828C52.8158 4.23828 53.2552 4.3099 53.6523 4.45312C54.056 4.58984 54.4043 4.80794 54.6973 5.10742C54.9967 5.4069 55.2246 5.79102 55.3809 6.25977C55.5436 6.72852 55.625 7.29492 55.625 7.95898V15H53.2715V8.16406C53.2715 7.64974 53.1934 7.24609 53.0371 6.95312C52.8874 6.66016 52.6693 6.45182 52.3828 6.32812C52.1029 6.19792 51.7676 6.13281 51.377 6.13281C50.9342 6.13281 50.5566 6.21745 50.2441 6.38672C49.9382 6.55599 49.6875 6.78711 49.4922 7.08008C49.2969 7.37305 49.1536 7.71159 49.0625 8.0957C48.9714 8.47982 48.9258 8.88997 48.9258 9.32617ZM55.4785 8.70117L54.375 8.94531C54.375 8.30729 54.4629 7.70508 54.6387 7.13867C54.821 6.56576 55.0846 6.06445 55.4297 5.63477C55.7812 5.19857 56.2142 4.85677 56.7285 4.60938C57.2428 4.36198 57.832 4.23828 58.4961 4.23828C59.0365 4.23828 59.5182 4.31315 59.9414 4.46289C60.3711 4.60612 60.7357 4.83398 61.0352 5.14648C61.3346 5.45898 61.5625 5.86589 61.7188 6.36719C61.875 6.86198 61.9531 7.46094 61.9531 8.16406V15H59.5898V8.1543C59.5898 7.62044 59.5117 7.20703 59.3555 6.91406C59.2057 6.62109 58.9909 6.41927 58.7109 6.30859C58.431 6.19141 58.0957 6.13281 57.7051 6.13281C57.3405 6.13281 57.0182 6.20117 56.7383 6.33789C56.4648 6.4681 56.2337 6.65365 56.0449 6.89453C55.8561 7.12891 55.7129 7.39909 55.6152 7.70508C55.5241 8.01107 55.4785 8.3431 55.4785 8.70117ZM73.6727 3.54492H75.2156C75.2156 4.30013 75.1082 4.9349 74.8934 5.44922C74.685 5.96354 74.3237 6.35091 73.8094 6.61133C73.3016 6.87174 72.5952 7.00195 71.6902 7.00195L71.7 5.78125C72.312 5.78125 72.7547 5.70312 73.0281 5.54688C73.3081 5.38411 73.4839 5.13997 73.5555 4.81445C73.6336 4.48242 73.6727 4.05924 73.6727 3.54492ZM69.9324 12.5098V4.43359H72.2957V15H70.0691L69.9324 12.5098ZM70.2645 10.3125L71.0555 10.293C71.0555 11.0026 70.9773 11.6569 70.8211 12.2559C70.6648 12.8483 70.424 13.3659 70.0984 13.8086C69.7729 14.2448 69.3563 14.5866 68.8484 14.834C68.3406 15.0749 67.7319 15.1953 67.0223 15.1953C66.5079 15.1953 66.0359 15.1204 65.6063 14.9707C65.1766 14.821 64.8055 14.5898 64.493 14.2773C64.187 13.9648 63.9493 13.5579 63.7801 13.0566C63.6108 12.5553 63.5262 11.9564 63.5262 11.2598V4.43359H65.8797V11.2793C65.8797 11.6634 65.9253 11.9857 66.0164 12.2461C66.1076 12.5 66.2313 12.7051 66.3875 12.8613C66.5438 13.0176 66.726 13.1283 66.9344 13.1934C67.1427 13.2585 67.3641 13.291 67.5984 13.291C68.269 13.291 68.7964 13.1608 69.1805 12.9004C69.5711 12.6335 69.8478 12.2754 70.0105 11.8262C70.1798 11.377 70.2645 10.8724 70.2645 10.3125ZM67.325 0.205078L69.2293 3.14453H67.2664L64.659 0.205078H67.325ZM77.3551 6.68945V15H75.0016V4.43359H77.2184L77.3551 6.68945ZM76.9352 9.32617L76.1734 9.31641C76.1799 8.56771 76.2841 7.88086 76.4859 7.25586C76.6943 6.63086 76.9807 6.09375 77.3453 5.64453C77.7164 5.19531 78.1591 4.85026 78.6734 4.60938C79.1878 4.36198 79.7607 4.23828 80.3922 4.23828C80.9 4.23828 81.359 4.3099 81.7691 4.45312C82.1858 4.58984 82.5406 4.81445 82.8336 5.12695C83.1331 5.43945 83.3609 5.84635 83.5172 6.34766C83.6734 6.84245 83.7516 7.45117 83.7516 8.17383V15H81.3883V8.16406C81.3883 7.65625 81.3134 7.25586 81.1637 6.96289C81.0204 6.66341 80.8089 6.45182 80.5289 6.32812C80.2555 6.19792 79.9137 6.13281 79.5035 6.13281C79.0999 6.13281 78.7385 6.21745 78.4195 6.38672C78.1005 6.55599 77.8303 6.78711 77.609 7.08008C77.3941 7.37305 77.2281 7.71159 77.1109 8.0957C76.9938 8.47982 76.9352 8.88997 76.9352 9.32617ZM92.1215 4.43359H94.2602V14.707C94.2602 15.6576 94.0583 16.4648 93.6547 17.1289C93.251 17.793 92.6879 18.2975 91.9652 18.6426C91.2426 18.9941 90.406 19.1699 89.4555 19.1699C89.0518 19.1699 88.6026 19.1113 88.1078 18.9941C87.6195 18.877 87.1443 18.6882 86.682 18.4277C86.2263 18.1738 85.8454 17.8385 85.5395 17.4219L86.643 16.0352C87.0206 16.4844 87.4372 16.8132 87.893 17.0215C88.3487 17.2298 88.8272 17.334 89.3285 17.334C89.8689 17.334 90.3279 17.2331 90.7055 17.0312C91.0896 16.8359 91.3858 16.5462 91.5941 16.1621C91.8025 15.778 91.9066 15.3092 91.9066 14.7559V6.82617L92.1215 4.43359ZM84.9437 9.83398V9.62891C84.9437 8.82812 85.0414 8.09896 85.2367 7.44141C85.432 6.77734 85.712 6.20768 86.0766 5.73242C86.4411 5.25065 86.8839 4.88281 87.4047 4.62891C87.9255 4.36849 88.5147 4.23828 89.1723 4.23828C89.8559 4.23828 90.4385 4.36198 90.9203 4.60938C91.4086 4.85677 91.8155 5.21159 92.141 5.67383C92.4665 6.12956 92.7204 6.67643 92.9027 7.31445C93.0915 7.94596 93.2315 8.64909 93.3227 9.42383V10.0781C93.238 10.8333 93.0948 11.5234 92.893 12.1484C92.6911 12.7734 92.4242 13.3138 92.0922 13.7695C91.7602 14.2253 91.35 14.5768 90.8617 14.8242C90.3799 15.0716 89.8103 15.1953 89.1527 15.1953C88.5082 15.1953 87.9255 15.0618 87.4047 14.7949C86.8904 14.528 86.4477 14.1536 86.0766 13.6719C85.712 13.1901 85.432 12.6237 85.2367 11.9727C85.0414 11.3151 84.9437 10.6022 84.9437 9.83398ZM87.2973 9.62891V9.83398C87.2973 10.3158 87.3428 10.765 87.434 11.1816C87.5316 11.5983 87.6781 11.9661 87.8734 12.2852C88.0753 12.5977 88.3292 12.8451 88.6352 13.0273C88.9477 13.2031 89.3155 13.291 89.7387 13.291C90.2921 13.291 90.7445 13.1738 91.0961 12.9395C91.4542 12.7051 91.7276 12.3893 91.9164 11.9922C92.1117 11.5885 92.2484 11.1393 92.3266 10.6445V8.87695C92.2875 8.49284 92.2061 8.13477 92.0824 7.80273C91.9652 7.4707 91.8057 7.18099 91.6039 6.93359C91.4021 6.67969 91.1482 6.48438 90.8422 6.34766C90.5362 6.20443 90.1749 6.13281 89.7582 6.13281C89.335 6.13281 88.9672 6.22396 88.6547 6.40625C88.3422 6.58854 88.085 6.83919 87.8832 7.1582C87.6879 7.47721 87.5414 7.84831 87.4437 8.27148C87.3461 8.69466 87.2973 9.14714 87.2973 9.62891Z" fill="url(#paint0_linear_2904_55256)"/>
</g>
<defs>
<filter id="filter0_d_2904_55256" x="-0.00390625" y="0" width="96.264" height="21.1699" filterUnits="userSpaceOnUse" color-interpolation-filters="sRGB">
<feFlood flood-opacity="0" result="BackgroundImageFix"/>
<feColorMatrix in="SourceAlpha" type="matrix" values="0 0 0 0 0 0 0 0 0 0 0 0 0 0 0 0 0 0 127 0" result="hardAlpha"/>
<feOffset dx="1" dy="1"/>
<feGaussianBlur stdDeviation="0.5"/>
<feComposite in2="hardAlpha" operator="out"/>
<feColorMatrix type="matrix" values="0 0 0 0 0 0 0 0 0 0 0 0 0 0 0 0 0 0 0.25 0"/>
<feBlend mode="normal" in2="BackgroundImageFix" result="effect1_dropShadow_2904_55256"/>
<feBlend mode="normal" in="SourceGraphic" in2="effect1_dropShadow_2904_55256" result="shape"/>
</filter>
<linearGradient id="paint0_linear_2904_55256" x1="45" y1="-0.5" x2="45" y2="18" gradientUnits="userSpaceOnUse">
<stop stop-color="#F3FE5C"/>
<stop offset="1" stop-color="#ECB926"/>
</linearGradient>
</defs>
</svg>
